M48
; DRILL file {KiCad (5.1.8)-1} date 10/16/21 18:10:43
; FORMAT={-:-/ absolute / inch / decimal}
; #@! TF.CreationDate,2021-10-16T18:10:43-06:00
; #@! TF.GenerationSoftware,Kicad,Pcbnew,(5.1.8)-1
; #@! TF.FileFunction,Plated,1,4,PTH
FMAT,2
INCH
T1C0.0079
T2C0.0315
T3C0.0390
T4C0.0394
T5C0.0433
%
G90
G05
T1
X1.4075Y-5.2264
X1.4075Y-5.5709
X1.4193Y-2.4055
X1.4193Y-2.6909
X1.4823Y-2.6004
X1.624Y-5.2264
X1.624Y-5.5709
X1.6299Y-2.3622
X1.6358Y-4.8327
X1.6732Y-2.3622
X1.7421Y-4.6476
X1.8002Y-4.5423
X1.811Y-2.4764
X1.9429Y-4.9193
X1.9532Y-5.5271
X1.9567Y-2.2736
X1.9904Y-4.8876
X2.0325Y-5.3986
X2.0512Y-5.7087
X2.0866Y-5.7087
X2.1004Y-2.2736
X2.1043Y-4.8406
X2.1713Y-2.8996
X2.2224Y-4.6516
X2.4587Y-4.2343
X2.469Y-5.5723
X2.5689Y-5.3327
X2.5787Y-4.3602
X2.5846Y-4.6004
X2.6378Y-3.8878
X2.6772Y-3.563
X2.7421Y-4.5433
X2.7756Y-3.8287
X2.7854Y-4.0748
X2.7854Y-4.1929
X2.8051Y-3.1634
X2.8051Y-3.187
X2.811Y-4.3317
X2.815Y-4.4459
X2.8425Y-3.5709
X2.8445Y-3.5061
X2.8878Y-3.7303
X2.9035Y-3.8287
X2.9035Y-3.8878
X2.9134Y-3.7894
X2.9232Y-4.1043
X2.9252Y-3.4705
X2.939Y-3.5738
X2.9421Y-3.5047
X2.9626Y-3.2087
X3.0079Y-4.4094
X3.0098Y-3.5236
X3.0106Y-3.2492
X3.0217Y-3.8484
X3.0217Y-3.9272
X3.0413Y-4.0453
X3.0492Y-3.9823
X3.061Y-4.439
X3.0709Y-3.8091
X3.0787Y-4.0413
X3.0906Y-4.3406
X3.1004Y-4.2343
X3.1398Y-3.4665
X3.1673Y-3.4744
X3.1791Y-3.5177
X3.1791Y-3.622
X3.1831Y-4.2264
X3.1988Y-3.2185
X3.1988Y-5.0846
X3.2047Y-2.563
X3.2106Y-3.9823
X3.2579Y-3.2185
X3.2972Y-4.4331
X3.3051Y-4.5295
X3.3169Y-3.5571
X3.376Y-4.497
X3.3878Y-3.9685
X3.3957Y-4.376
X3.4154Y-3.5236
X3.4154Y-3.622
X3.4154Y-4.4557
X3.4364Y-3.2939
X3.4409Y-2.5512
X3.4744Y-4.4114
X3.4941Y-3.5768
X3.5Y-3.9459
X3.5197Y-3.4429
X3.5335Y-3.7894
X3.5335Y-3.9075
X3.5335Y-4.0453
X3.6181Y-3.5472
X3.6417Y-3.8878
X3.6438Y-4.0679
X3.6673Y-4.2933
X3.7234Y-4.3996
X3.7402Y-3.9862
X3.75Y-3.8976
X3.75Y-4.0846
X3.7697Y-5.4134
X3.7785Y-5.4931
X3.8327Y-4.1063
X3.872Y-4.0256
X3.9272Y-5.3642
X3.9941Y-5.1909
X4.0187Y-5.5187
X4.1624Y-5.3455
X4.2116Y-5.4045
X4.2894Y-4.8406
X4.4449Y-3.6299
X4.4528Y-4.1142
X4.5039Y-3.5039
X4.5276Y-3.3268
X4.5325Y-5.7785
X4.6457Y-2.7224
X4.7165Y-5.0551
X4.748Y-5.0565
X4.7756Y-5.0551
X4.7756Y-5.252
X4.7943Y-4.0974
X4.8996Y-3.9035
X4.9528Y-4.8878
X4.9528Y-5.0256
X5.0108Y-3.06
X5.0108Y-3.4341
X5.1102Y-4.8878
X5.1102Y-5.0256
T3
X4.6673Y-2.2539
X4.6673Y-2.4311
X4.9232Y-2.2539
X4.9232Y-2.4311
X4.1043Y-2.2539
X4.1043Y-2.4311
X4.3602Y-2.2539
X4.3602Y-2.4311
T4
X2.8701Y-2.7894
X2.8701Y-2.8894
X2.9701Y-2.7894
X2.9701Y-2.8894
X3.0701Y-2.7894
X3.0701Y-2.8894
X3.1701Y-2.7894
X3.1701Y-2.8894
X3.2701Y-2.7894
X3.2701Y-2.8894
X3.3701Y-2.7894
X3.3701Y-2.8894
X3.4701Y-2.7894
X3.4701Y-2.8894
X3.5701Y-2.7894
X3.5701Y-2.8894
X3.6701Y-2.7894
X3.6701Y-2.8894
X2.9693Y-5.4724
X2.9693Y-5.5724
X3.0693Y-5.4724
X3.0693Y-5.5724
X3.1693Y-5.4724
X3.1693Y-5.5724
X2.1933Y-3.6173
X2.1933Y-3.7173
X2.1933Y-3.8173
X2.1933Y-3.9173
X2.1933Y-4.0173
X2.1933Y-4.1173
X2.1933Y-4.2173
X2.2933Y-3.6173
X2.2933Y-3.7173
X2.2933Y-3.8173
X2.2933Y-3.9173
X2.2933Y-4.0173
X2.2933Y-4.1173
X2.2933Y-4.2173
X1.6043Y-4.0831
X1.6043Y-4.1831
X1.6043Y-4.2831
X1.7043Y-4.0831
X1.7043Y-4.1831
X1.7043Y-4.2831
X4.5728Y-2.7224
X4.5728Y-2.8224
X2.5709Y-4.8311
X2.5709Y-4.9311
X2.6709Y-4.8311
X2.6709Y-4.9311
X2.7709Y-4.8311
X2.7709Y-4.9311
X2.8709Y-4.8311
X2.8709Y-4.9311
X2.9709Y-4.8311
X2.9709Y-4.9311
X3.0709Y-4.8311
X3.0709Y-4.9311
X3.1709Y-4.8311
X3.1709Y-4.9311
X3.2709Y-4.8311
X3.2709Y-4.9311
X3.3709Y-4.8311
X3.3709Y-4.9311
X3.4709Y-4.8311
X3.4709Y-4.9311
X3.5709Y-4.8311
X3.5709Y-4.9311
X3.3898Y-5.7087
X3.4898Y-5.7087
X1.6043Y-3.5925
X1.6043Y-3.6925
X1.7043Y-3.5925
X1.7043Y-3.6925
X4.1673Y-2.9902
X4.1673Y-3.0902
X4.2673Y-2.9902
X4.2673Y-3.0902
X2.8445Y-2.2425
X2.8445Y-2.3425
X5.0768Y-3.8622
X5.0768Y-3.9622
X5.0768Y-4.0622
X5.0768Y-4.1622
X5.0768Y-4.2622
X5.0768Y-4.3622
X5.0768Y-4.4622
X5.0768Y-4.5622
X4.7165Y-2.7224
X4.7165Y-2.8224
X4.1618Y-3.4815
X4.1618Y-3.5815
X4.1618Y-3.6815
X4.1618Y-3.7815
X4.1618Y-3.8815
X4.1618Y-3.9815
X4.1618Y-4.0815
X4.1618Y-4.1815
X4.1618Y-4.2815
X4.2618Y-3.4815
X4.2618Y-3.5815
X4.2618Y-3.6815
X4.2618Y-3.7815
X4.2618Y-3.8815
X4.2618Y-3.9815
X4.2618Y-4.0815
X4.2618Y-4.1815
X4.2618Y-4.2815
X3.6811Y-2.2441
X3.6811Y-2.3441
X4.4193Y-5.1201
X4.4193Y-5.2201
X4.5193Y-5.1201
X4.5193Y-5.2201
X4.065Y-4.6752
X4.065Y-4.7752
X4.065Y-4.8752
X4.165Y-4.6752
X4.165Y-4.7752
X4.165Y-4.8752
T5
X3.8969Y-5.7933
X3.9969Y-5.7933
T2
G00X4.9114Y-5.3898
M15
G01X5.0138Y-5.3898
M16
G05
G00X4.9193Y-5.6181
M15
G01X5.0059Y-5.6181
M16
G05
G00X5.1516Y-5.5512
M15
G01X5.1516Y-5.4646
M16
G05
T0
M30
