G04 #@! TF.GenerationSoftware,KiCad,Pcbnew,(5.1.8)-1*
G04 #@! TF.CreationDate,2021-10-17T22:58:45-06:00*
G04 #@! TF.ProjectId,SAMduino,53414d64-7569-46e6-9f2e-6b696361645f,rev?*
G04 #@! TF.SameCoordinates,Original*
G04 #@! TF.FileFunction,Soldermask,Top*
G04 #@! TF.FilePolarity,Negative*
%FSLAX46Y46*%
G04 Gerber Fmt 4.6, Leading zero omitted, Abs format (unit mm)*
G04 Created by KiCad (PCBNEW (5.1.8)-1) date 2021-10-17 22:58:45*
%MOMM*%
%LPD*%
G01*
G04 APERTURE LIST*
%ADD10R,1.200000X0.600000*%
%ADD11R,0.700000X0.500000*%
%ADD12R,0.700000X0.600000*%
%ADD13R,1.550000X1.000000*%
%ADD14C,1.540000*%
%ADD15O,1.700000X1.700000*%
%ADD16R,1.700000X1.700000*%
%ADD17C,1.650000*%
%ADD18C,0.900000*%
%ADD19R,2.500000X0.500000*%
%ADD20R,2.500000X2.000000*%
%ADD21R,1.400000X0.400000*%
%ADD22R,1.900000X2.300000*%
%ADD23R,1.900000X1.800000*%
%ADD24R,4.400000X1.800000*%
%ADD25O,4.000000X1.800000*%
%ADD26O,1.800000X4.000000*%
%ADD27R,0.650000X1.500000*%
%ADD28R,1.500000X0.650000*%
%ADD29R,0.700000X1.550000*%
%ADD30R,3.000000X1.600000*%
%ADD31R,6.200000X5.800000*%
%ADD32R,0.600000X1.400000*%
%ADD33R,0.300000X1.475000*%
%ADD34R,1.475000X0.300000*%
%ADD35R,0.900000X1.200000*%
%ADD36R,1.200000X0.900000*%
G04 APERTURE END LIST*
D10*
X70500000Y-112100000D03*
X70500000Y-110900000D03*
G36*
G01*
X62925000Y-135175000D02*
X62925000Y-135725000D01*
G75*
G02*
X62725000Y-135925000I-200000J0D01*
G01*
X62325000Y-135925000D01*
G75*
G02*
X62125000Y-135725000I0J200000D01*
G01*
X62125000Y-135175000D01*
G75*
G02*
X62325000Y-134975000I200000J0D01*
G01*
X62725000Y-134975000D01*
G75*
G02*
X62925000Y-135175000I0J-200000D01*
G01*
G37*
G36*
G01*
X64575000Y-135175000D02*
X64575000Y-135725000D01*
G75*
G02*
X64375000Y-135925000I-200000J0D01*
G01*
X63975000Y-135925000D01*
G75*
G02*
X63775000Y-135725000I0J200000D01*
G01*
X63775000Y-135175000D01*
G75*
G02*
X63975000Y-134975000I200000J0D01*
G01*
X64375000Y-134975000D01*
G75*
G02*
X64575000Y-135175000I0J-200000D01*
G01*
G37*
D11*
X76475000Y-88725000D03*
X76475000Y-90275000D03*
X75525000Y-90275000D03*
D12*
X75525000Y-88775000D03*
D13*
X122025000Y-78950000D03*
X127275000Y-78950000D03*
X122025000Y-82150000D03*
X127275000Y-82150000D03*
X122025000Y-88550000D03*
X127275000Y-88550000D03*
X122025000Y-91750000D03*
X127275000Y-91750000D03*
D14*
X104250000Y-57250000D03*
X110750000Y-57250000D03*
X104250000Y-61750000D03*
X110750000Y-61750000D03*
X118550000Y-57250000D03*
X125050000Y-57250000D03*
X118550000Y-61750000D03*
X125050000Y-61750000D03*
G36*
G01*
X112375000Y-146375000D02*
X112925000Y-146375000D01*
G75*
G02*
X113125000Y-146575000I0J-200000D01*
G01*
X113125000Y-146975000D01*
G75*
G02*
X112925000Y-147175000I-200000J0D01*
G01*
X112375000Y-147175000D01*
G75*
G02*
X112175000Y-146975000I0J200000D01*
G01*
X112175000Y-146575000D01*
G75*
G02*
X112375000Y-146375000I200000J0D01*
G01*
G37*
G36*
G01*
X112375000Y-144725000D02*
X112925000Y-144725000D01*
G75*
G02*
X113125000Y-144925000I0J-200000D01*
G01*
X113125000Y-145325000D01*
G75*
G02*
X112925000Y-145525000I-200000J0D01*
G01*
X112375000Y-145525000D01*
G75*
G02*
X112175000Y-145325000I0J200000D01*
G01*
X112175000Y-144925000D01*
G75*
G02*
X112375000Y-144725000I200000J0D01*
G01*
G37*
G36*
G01*
X117325000Y-146375000D02*
X117875000Y-146375000D01*
G75*
G02*
X118075000Y-146575000I0J-200000D01*
G01*
X118075000Y-146975000D01*
G75*
G02*
X117875000Y-147175000I-200000J0D01*
G01*
X117325000Y-147175000D01*
G75*
G02*
X117125000Y-146975000I0J200000D01*
G01*
X117125000Y-146575000D01*
G75*
G02*
X117325000Y-146375000I200000J0D01*
G01*
G37*
G36*
G01*
X117325000Y-144725000D02*
X117875000Y-144725000D01*
G75*
G02*
X118075000Y-144925000I0J-200000D01*
G01*
X118075000Y-145325000D01*
G75*
G02*
X117875000Y-145525000I-200000J0D01*
G01*
X117325000Y-145525000D01*
G75*
G02*
X117125000Y-145325000I0J200000D01*
G01*
X117125000Y-144925000D01*
G75*
G02*
X117325000Y-144725000I200000J0D01*
G01*
G37*
G36*
G01*
X122725000Y-105325000D02*
X123275000Y-105325000D01*
G75*
G02*
X123475000Y-105525000I0J-200000D01*
G01*
X123475000Y-105925000D01*
G75*
G02*
X123275000Y-106125000I-200000J0D01*
G01*
X122725000Y-106125000D01*
G75*
G02*
X122525000Y-105925000I0J200000D01*
G01*
X122525000Y-105525000D01*
G75*
G02*
X122725000Y-105325000I200000J0D01*
G01*
G37*
G36*
G01*
X122725000Y-103675000D02*
X123275000Y-103675000D01*
G75*
G02*
X123475000Y-103875000I0J-200000D01*
G01*
X123475000Y-104275000D01*
G75*
G02*
X123275000Y-104475000I-200000J0D01*
G01*
X122725000Y-104475000D01*
G75*
G02*
X122525000Y-104275000I0J200000D01*
G01*
X122525000Y-103875000D01*
G75*
G02*
X122725000Y-103675000I200000J0D01*
G01*
G37*
G36*
G01*
X123575000Y-97775000D02*
X123025000Y-97775000D01*
G75*
G02*
X122825000Y-97575000I0J200000D01*
G01*
X122825000Y-97175000D01*
G75*
G02*
X123025000Y-96975000I200000J0D01*
G01*
X123575000Y-96975000D01*
G75*
G02*
X123775000Y-97175000I0J-200000D01*
G01*
X123775000Y-97575000D01*
G75*
G02*
X123575000Y-97775000I-200000J0D01*
G01*
G37*
G36*
G01*
X123575000Y-99425000D02*
X123025000Y-99425000D01*
G75*
G02*
X122825000Y-99225000I0J200000D01*
G01*
X122825000Y-98825000D01*
G75*
G02*
X123025000Y-98625000I200000J0D01*
G01*
X123575000Y-98625000D01*
G75*
G02*
X123775000Y-98825000I0J-200000D01*
G01*
X123775000Y-99225000D01*
G75*
G02*
X123575000Y-99425000I-200000J0D01*
G01*
G37*
G36*
G01*
X109975000Y-71425000D02*
X109975000Y-71975000D01*
G75*
G02*
X109775000Y-72175000I-200000J0D01*
G01*
X109375000Y-72175000D01*
G75*
G02*
X109175000Y-71975000I0J200000D01*
G01*
X109175000Y-71425000D01*
G75*
G02*
X109375000Y-71225000I200000J0D01*
G01*
X109775000Y-71225000D01*
G75*
G02*
X109975000Y-71425000I0J-200000D01*
G01*
G37*
G36*
G01*
X111625000Y-71425000D02*
X111625000Y-71975000D01*
G75*
G02*
X111425000Y-72175000I-200000J0D01*
G01*
X111025000Y-72175000D01*
G75*
G02*
X110825000Y-71975000I0J200000D01*
G01*
X110825000Y-71425000D01*
G75*
G02*
X111025000Y-71225000I200000J0D01*
G01*
X111425000Y-71225000D01*
G75*
G02*
X111625000Y-71425000I0J-200000D01*
G01*
G37*
G36*
G01*
X110050000Y-68675000D02*
X110050000Y-69225000D01*
G75*
G02*
X109850000Y-69425000I-200000J0D01*
G01*
X109450000Y-69425000D01*
G75*
G02*
X109250000Y-69225000I0J200000D01*
G01*
X109250000Y-68675000D01*
G75*
G02*
X109450000Y-68475000I200000J0D01*
G01*
X109850000Y-68475000D01*
G75*
G02*
X110050000Y-68675000I0J-200000D01*
G01*
G37*
G36*
G01*
X111700000Y-68675000D02*
X111700000Y-69225000D01*
G75*
G02*
X111500000Y-69425000I-200000J0D01*
G01*
X111100000Y-69425000D01*
G75*
G02*
X110900000Y-69225000I0J200000D01*
G01*
X110900000Y-68675000D01*
G75*
G02*
X111100000Y-68475000I200000J0D01*
G01*
X111500000Y-68475000D01*
G75*
G02*
X111700000Y-68675000I0J-200000D01*
G01*
G37*
G36*
G01*
X115275000Y-85825000D02*
X114725000Y-85825000D01*
G75*
G02*
X114525000Y-85625000I0J200000D01*
G01*
X114525000Y-85225000D01*
G75*
G02*
X114725000Y-85025000I200000J0D01*
G01*
X115275000Y-85025000D01*
G75*
G02*
X115475000Y-85225000I0J-200000D01*
G01*
X115475000Y-85625000D01*
G75*
G02*
X115275000Y-85825000I-200000J0D01*
G01*
G37*
G36*
G01*
X115275000Y-87475000D02*
X114725000Y-87475000D01*
G75*
G02*
X114525000Y-87275000I0J200000D01*
G01*
X114525000Y-86875000D01*
G75*
G02*
X114725000Y-86675000I200000J0D01*
G01*
X115275000Y-86675000D01*
G75*
G02*
X115475000Y-86875000I0J-200000D01*
G01*
X115475000Y-87275000D01*
G75*
G02*
X115275000Y-87475000I-200000J0D01*
G01*
G37*
G36*
G01*
X87825000Y-56725000D02*
X87825000Y-57275000D01*
G75*
G02*
X87625000Y-57475000I-200000J0D01*
G01*
X87225000Y-57475000D01*
G75*
G02*
X87025000Y-57275000I0J200000D01*
G01*
X87025000Y-56725000D01*
G75*
G02*
X87225000Y-56525000I200000J0D01*
G01*
X87625000Y-56525000D01*
G75*
G02*
X87825000Y-56725000I0J-200000D01*
G01*
G37*
G36*
G01*
X89475000Y-56725000D02*
X89475000Y-57275000D01*
G75*
G02*
X89275000Y-57475000I-200000J0D01*
G01*
X88875000Y-57475000D01*
G75*
G02*
X88675000Y-57275000I0J200000D01*
G01*
X88675000Y-56725000D01*
G75*
G02*
X88875000Y-56525000I200000J0D01*
G01*
X89275000Y-56525000D01*
G75*
G02*
X89475000Y-56725000I0J-200000D01*
G01*
G37*
G36*
G01*
X84225000Y-56925000D02*
X84775000Y-56925000D01*
G75*
G02*
X84975000Y-57125000I0J-200000D01*
G01*
X84975000Y-57525000D01*
G75*
G02*
X84775000Y-57725000I-200000J0D01*
G01*
X84225000Y-57725000D01*
G75*
G02*
X84025000Y-57525000I0J200000D01*
G01*
X84025000Y-57125000D01*
G75*
G02*
X84225000Y-56925000I200000J0D01*
G01*
G37*
G36*
G01*
X84225000Y-55275000D02*
X84775000Y-55275000D01*
G75*
G02*
X84975000Y-55475000I0J-200000D01*
G01*
X84975000Y-55875000D01*
G75*
G02*
X84775000Y-56075000I-200000J0D01*
G01*
X84225000Y-56075000D01*
G75*
G02*
X84025000Y-55875000I0J200000D01*
G01*
X84025000Y-55475000D01*
G75*
G02*
X84225000Y-55275000I200000J0D01*
G01*
G37*
G36*
G01*
X81225000Y-56925000D02*
X81775000Y-56925000D01*
G75*
G02*
X81975000Y-57125000I0J-200000D01*
G01*
X81975000Y-57525000D01*
G75*
G02*
X81775000Y-57725000I-200000J0D01*
G01*
X81225000Y-57725000D01*
G75*
G02*
X81025000Y-57525000I0J200000D01*
G01*
X81025000Y-57125000D01*
G75*
G02*
X81225000Y-56925000I200000J0D01*
G01*
G37*
G36*
G01*
X81225000Y-55275000D02*
X81775000Y-55275000D01*
G75*
G02*
X81975000Y-55475000I0J-200000D01*
G01*
X81975000Y-55875000D01*
G75*
G02*
X81775000Y-56075000I-200000J0D01*
G01*
X81225000Y-56075000D01*
G75*
G02*
X81025000Y-55875000I0J200000D01*
G01*
X81025000Y-55475000D01*
G75*
G02*
X81225000Y-55275000I200000J0D01*
G01*
G37*
G36*
G01*
X77925000Y-57275000D02*
X77925000Y-56725000D01*
G75*
G02*
X78125000Y-56525000I200000J0D01*
G01*
X78525000Y-56525000D01*
G75*
G02*
X78725000Y-56725000I0J-200000D01*
G01*
X78725000Y-57275000D01*
G75*
G02*
X78525000Y-57475000I-200000J0D01*
G01*
X78125000Y-57475000D01*
G75*
G02*
X77925000Y-57275000I0J200000D01*
G01*
G37*
G36*
G01*
X76275000Y-57275000D02*
X76275000Y-56725000D01*
G75*
G02*
X76475000Y-56525000I200000J0D01*
G01*
X76875000Y-56525000D01*
G75*
G02*
X77075000Y-56725000I0J-200000D01*
G01*
X77075000Y-57275000D01*
G75*
G02*
X76875000Y-57475000I-200000J0D01*
G01*
X76475000Y-57475000D01*
G75*
G02*
X76275000Y-57275000I0J200000D01*
G01*
G37*
G36*
G01*
X125625000Y-113825000D02*
X125075000Y-113825000D01*
G75*
G02*
X124875000Y-113625000I0J200000D01*
G01*
X124875000Y-113225000D01*
G75*
G02*
X125075000Y-113025000I200000J0D01*
G01*
X125625000Y-113025000D01*
G75*
G02*
X125825000Y-113225000I0J-200000D01*
G01*
X125825000Y-113625000D01*
G75*
G02*
X125625000Y-113825000I-200000J0D01*
G01*
G37*
G36*
G01*
X125625000Y-115475000D02*
X125075000Y-115475000D01*
G75*
G02*
X124875000Y-115275000I0J200000D01*
G01*
X124875000Y-114875000D01*
G75*
G02*
X125075000Y-114675000I200000J0D01*
G01*
X125625000Y-114675000D01*
G75*
G02*
X125825000Y-114875000I0J-200000D01*
G01*
X125825000Y-115275000D01*
G75*
G02*
X125625000Y-115475000I-200000J0D01*
G01*
G37*
G36*
G01*
X88350000Y-142000002D02*
X88350000Y-141099998D01*
G75*
G02*
X88599998Y-140850000I249998J0D01*
G01*
X89125002Y-140850000D01*
G75*
G02*
X89375000Y-141099998I0J-249998D01*
G01*
X89375000Y-142000002D01*
G75*
G02*
X89125002Y-142250000I-249998J0D01*
G01*
X88599998Y-142250000D01*
G75*
G02*
X88350000Y-142000002I0J249998D01*
G01*
G37*
G36*
G01*
X86525000Y-142000002D02*
X86525000Y-141099998D01*
G75*
G02*
X86774998Y-140850000I249998J0D01*
G01*
X87300002Y-140850000D01*
G75*
G02*
X87550000Y-141099998I0J-249998D01*
G01*
X87550000Y-142000002D01*
G75*
G02*
X87300002Y-142250000I-249998J0D01*
G01*
X86774998Y-142250000D01*
G75*
G02*
X86525000Y-142000002I0J249998D01*
G01*
G37*
G36*
G01*
X58175000Y-137025000D02*
X58175000Y-136475000D01*
G75*
G02*
X58375000Y-136275000I200000J0D01*
G01*
X58775000Y-136275000D01*
G75*
G02*
X58975000Y-136475000I0J-200000D01*
G01*
X58975000Y-137025000D01*
G75*
G02*
X58775000Y-137225000I-200000J0D01*
G01*
X58375000Y-137225000D01*
G75*
G02*
X58175000Y-137025000I0J200000D01*
G01*
G37*
G36*
G01*
X56525000Y-137025000D02*
X56525000Y-136475000D01*
G75*
G02*
X56725000Y-136275000I200000J0D01*
G01*
X57125000Y-136275000D01*
G75*
G02*
X57325000Y-136475000I0J-200000D01*
G01*
X57325000Y-137025000D01*
G75*
G02*
X57125000Y-137225000I-200000J0D01*
G01*
X56725000Y-137225000D01*
G75*
G02*
X56525000Y-137025000I0J200000D01*
G01*
G37*
G36*
G01*
X58175000Y-138775000D02*
X58175000Y-138225000D01*
G75*
G02*
X58375000Y-138025000I200000J0D01*
G01*
X58775000Y-138025000D01*
G75*
G02*
X58975000Y-138225000I0J-200000D01*
G01*
X58975000Y-138775000D01*
G75*
G02*
X58775000Y-138975000I-200000J0D01*
G01*
X58375000Y-138975000D01*
G75*
G02*
X58175000Y-138775000I0J200000D01*
G01*
G37*
G36*
G01*
X56525000Y-138775000D02*
X56525000Y-138225000D01*
G75*
G02*
X56725000Y-138025000I200000J0D01*
G01*
X57125000Y-138025000D01*
G75*
G02*
X57325000Y-138225000I0J-200000D01*
G01*
X57325000Y-138775000D01*
G75*
G02*
X57125000Y-138975000I-200000J0D01*
G01*
X56725000Y-138975000D01*
G75*
G02*
X56525000Y-138775000I0J200000D01*
G01*
G37*
G36*
G01*
X43975000Y-123025000D02*
X43975000Y-122475000D01*
G75*
G02*
X44175000Y-122275000I200000J0D01*
G01*
X44575000Y-122275000D01*
G75*
G02*
X44775000Y-122475000I0J-200000D01*
G01*
X44775000Y-123025000D01*
G75*
G02*
X44575000Y-123225000I-200000J0D01*
G01*
X44175000Y-123225000D01*
G75*
G02*
X43975000Y-123025000I0J200000D01*
G01*
G37*
G36*
G01*
X42325000Y-123025000D02*
X42325000Y-122475000D01*
G75*
G02*
X42525000Y-122275000I200000J0D01*
G01*
X42925000Y-122275000D01*
G75*
G02*
X43125000Y-122475000I0J-200000D01*
G01*
X43125000Y-123025000D01*
G75*
G02*
X42925000Y-123225000I-200000J0D01*
G01*
X42525000Y-123225000D01*
G75*
G02*
X42325000Y-123025000I0J200000D01*
G01*
G37*
G36*
G01*
X48275000Y-58025000D02*
X48275000Y-57475000D01*
G75*
G02*
X48475000Y-57275000I200000J0D01*
G01*
X48875000Y-57275000D01*
G75*
G02*
X49075000Y-57475000I0J-200000D01*
G01*
X49075000Y-58025000D01*
G75*
G02*
X48875000Y-58225000I-200000J0D01*
G01*
X48475000Y-58225000D01*
G75*
G02*
X48275000Y-58025000I0J200000D01*
G01*
G37*
G36*
G01*
X46625000Y-58025000D02*
X46625000Y-57475000D01*
G75*
G02*
X46825000Y-57275000I200000J0D01*
G01*
X47225000Y-57275000D01*
G75*
G02*
X47425000Y-57475000I0J-200000D01*
G01*
X47425000Y-58025000D01*
G75*
G02*
X47225000Y-58225000I-200000J0D01*
G01*
X46825000Y-58225000D01*
G75*
G02*
X46625000Y-58025000I0J200000D01*
G01*
G37*
G36*
G01*
X51975000Y-58025000D02*
X51975000Y-57475000D01*
G75*
G02*
X52175000Y-57275000I200000J0D01*
G01*
X52575000Y-57275000D01*
G75*
G02*
X52775000Y-57475000I0J-200000D01*
G01*
X52775000Y-58025000D01*
G75*
G02*
X52575000Y-58225000I-200000J0D01*
G01*
X52175000Y-58225000D01*
G75*
G02*
X51975000Y-58025000I0J200000D01*
G01*
G37*
G36*
G01*
X50325000Y-58025000D02*
X50325000Y-57475000D01*
G75*
G02*
X50525000Y-57275000I200000J0D01*
G01*
X50925000Y-57275000D01*
G75*
G02*
X51125000Y-57475000I0J-200000D01*
G01*
X51125000Y-58025000D01*
G75*
G02*
X50925000Y-58225000I-200000J0D01*
G01*
X50525000Y-58225000D01*
G75*
G02*
X50325000Y-58025000I0J200000D01*
G01*
G37*
G36*
G01*
X69510000Y-91815000D02*
X69510000Y-92185000D01*
G75*
G02*
X69375000Y-92320000I-135000J0D01*
G01*
X69105000Y-92320000D01*
G75*
G02*
X68970000Y-92185000I0J135000D01*
G01*
X68970000Y-91815000D01*
G75*
G02*
X69105000Y-91680000I135000J0D01*
G01*
X69375000Y-91680000D01*
G75*
G02*
X69510000Y-91815000I0J-135000D01*
G01*
G37*
G36*
G01*
X70530000Y-91815000D02*
X70530000Y-92185000D01*
G75*
G02*
X70395000Y-92320000I-135000J0D01*
G01*
X70125000Y-92320000D01*
G75*
G02*
X69990000Y-92185000I0J135000D01*
G01*
X69990000Y-91815000D01*
G75*
G02*
X70125000Y-91680000I135000J0D01*
G01*
X70395000Y-91680000D01*
G75*
G02*
X70530000Y-91815000I0J-135000D01*
G01*
G37*
G36*
G01*
X75506250Y-83150000D02*
X74993750Y-83150000D01*
G75*
G02*
X74775000Y-82931250I0J218750D01*
G01*
X74775000Y-82493750D01*
G75*
G02*
X74993750Y-82275000I218750J0D01*
G01*
X75506250Y-82275000D01*
G75*
G02*
X75725000Y-82493750I0J-218750D01*
G01*
X75725000Y-82931250D01*
G75*
G02*
X75506250Y-83150000I-218750J0D01*
G01*
G37*
G36*
G01*
X75506250Y-84725000D02*
X74993750Y-84725000D01*
G75*
G02*
X74775000Y-84506250I0J218750D01*
G01*
X74775000Y-84068750D01*
G75*
G02*
X74993750Y-83850000I218750J0D01*
G01*
X75506250Y-83850000D01*
G75*
G02*
X75725000Y-84068750I0J-218750D01*
G01*
X75725000Y-84506250D01*
G75*
G02*
X75506250Y-84725000I-218750J0D01*
G01*
G37*
G36*
G01*
X90243750Y-88650000D02*
X90756250Y-88650000D01*
G75*
G02*
X90975000Y-88868750I0J-218750D01*
G01*
X90975000Y-89306250D01*
G75*
G02*
X90756250Y-89525000I-218750J0D01*
G01*
X90243750Y-89525000D01*
G75*
G02*
X90025000Y-89306250I0J218750D01*
G01*
X90025000Y-88868750D01*
G75*
G02*
X90243750Y-88650000I218750J0D01*
G01*
G37*
G36*
G01*
X90243750Y-87075000D02*
X90756250Y-87075000D01*
G75*
G02*
X90975000Y-87293750I0J-218750D01*
G01*
X90975000Y-87731250D01*
G75*
G02*
X90756250Y-87950000I-218750J0D01*
G01*
X90243750Y-87950000D01*
G75*
G02*
X90025000Y-87731250I0J218750D01*
G01*
X90025000Y-87293750D01*
G75*
G02*
X90243750Y-87075000I218750J0D01*
G01*
G37*
G36*
G01*
X68650000Y-98493750D02*
X68650000Y-99006250D01*
G75*
G02*
X68431250Y-99225000I-218750J0D01*
G01*
X67993750Y-99225000D01*
G75*
G02*
X67775000Y-99006250I0J218750D01*
G01*
X67775000Y-98493750D01*
G75*
G02*
X67993750Y-98275000I218750J0D01*
G01*
X68431250Y-98275000D01*
G75*
G02*
X68650000Y-98493750I0J-218750D01*
G01*
G37*
G36*
G01*
X70225000Y-98493750D02*
X70225000Y-99006250D01*
G75*
G02*
X70006250Y-99225000I-218750J0D01*
G01*
X69568750Y-99225000D01*
G75*
G02*
X69350000Y-99006250I0J218750D01*
G01*
X69350000Y-98493750D01*
G75*
G02*
X69568750Y-98275000I218750J0D01*
G01*
X70006250Y-98275000D01*
G75*
G02*
X70225000Y-98493750I0J-218750D01*
G01*
G37*
G36*
G01*
X81506250Y-83150000D02*
X80993750Y-83150000D01*
G75*
G02*
X80775000Y-82931250I0J218750D01*
G01*
X80775000Y-82493750D01*
G75*
G02*
X80993750Y-82275000I218750J0D01*
G01*
X81506250Y-82275000D01*
G75*
G02*
X81725000Y-82493750I0J-218750D01*
G01*
X81725000Y-82931250D01*
G75*
G02*
X81506250Y-83150000I-218750J0D01*
G01*
G37*
G36*
G01*
X81506250Y-84725000D02*
X80993750Y-84725000D01*
G75*
G02*
X80775000Y-84506250I0J218750D01*
G01*
X80775000Y-84068750D01*
G75*
G02*
X80993750Y-83850000I218750J0D01*
G01*
X81506250Y-83850000D01*
G75*
G02*
X81725000Y-84068750I0J-218750D01*
G01*
X81725000Y-84506250D01*
G75*
G02*
X81506250Y-84725000I-218750J0D01*
G01*
G37*
D15*
X128950000Y-115880000D03*
X128950000Y-113340000D03*
X128950000Y-110800000D03*
X128950000Y-108260000D03*
X128950000Y-105720000D03*
X128950000Y-103180000D03*
X128950000Y-100640000D03*
D16*
X128950000Y-98100000D03*
D15*
X105790000Y-123830000D03*
X103250000Y-123830000D03*
X105790000Y-121290000D03*
X103250000Y-121290000D03*
X105790000Y-118750000D03*
D16*
X103250000Y-118750000D03*
D15*
X43290000Y-93790000D03*
X40750000Y-93790000D03*
X43290000Y-91250000D03*
D16*
X40750000Y-91250000D03*
D15*
X75420000Y-141540000D03*
X75420000Y-139000000D03*
X77960000Y-141540000D03*
X77960000Y-139000000D03*
X80500000Y-141540000D03*
D16*
X80500000Y-139000000D03*
D15*
X119800000Y-71690000D03*
D16*
X119800000Y-69150000D03*
D15*
X43290000Y-108790000D03*
X40750000Y-108790000D03*
X43290000Y-106250000D03*
X40750000Y-106250000D03*
X43290000Y-103710000D03*
D16*
X40750000Y-103710000D03*
D15*
X108390000Y-78490000D03*
X105850000Y-78490000D03*
X108390000Y-75950000D03*
D16*
X105850000Y-75950000D03*
D15*
X116150000Y-71690000D03*
D16*
X116150000Y-69150000D03*
D15*
X72900000Y-73390000D03*
X72900000Y-70850000D03*
X75440000Y-73390000D03*
X75440000Y-70850000D03*
X77980000Y-73390000D03*
X77980000Y-70850000D03*
X80520000Y-73390000D03*
X80520000Y-70850000D03*
X83060000Y-73390000D03*
X83060000Y-70850000D03*
X85600000Y-73390000D03*
X85600000Y-70850000D03*
X88140000Y-73390000D03*
X88140000Y-70850000D03*
X90680000Y-73390000D03*
X90680000Y-70850000D03*
X93220000Y-73390000D03*
D16*
X93220000Y-70850000D03*
D15*
X105710000Y-88430000D03*
X108250000Y-88430000D03*
X105710000Y-90970000D03*
X108250000Y-90970000D03*
X105710000Y-93510000D03*
X108250000Y-93510000D03*
X105710000Y-96050000D03*
X108250000Y-96050000D03*
X105710000Y-98590000D03*
X108250000Y-98590000D03*
X105710000Y-101130000D03*
X108250000Y-101130000D03*
X105710000Y-103670000D03*
X108250000Y-103670000D03*
X105710000Y-106210000D03*
X108250000Y-106210000D03*
X105710000Y-108750000D03*
D16*
X108250000Y-108750000D03*
D15*
X90700000Y-122710000D03*
X90700000Y-125250000D03*
X88160000Y-122710000D03*
X88160000Y-125250000D03*
X85620000Y-122710000D03*
X85620000Y-125250000D03*
X83080000Y-122710000D03*
X83080000Y-125250000D03*
X80540000Y-122710000D03*
X80540000Y-125250000D03*
X78000000Y-122710000D03*
X78000000Y-125250000D03*
X75460000Y-122710000D03*
X75460000Y-125250000D03*
X72920000Y-122710000D03*
X72920000Y-125250000D03*
X70380000Y-122710000D03*
X70380000Y-125250000D03*
X67840000Y-122710000D03*
X67840000Y-125250000D03*
X65300000Y-122710000D03*
D16*
X65300000Y-125250000D03*
D15*
X58250000Y-107120000D03*
X55710000Y-107120000D03*
X58250000Y-104580000D03*
X55710000Y-104580000D03*
X58250000Y-102040000D03*
X55710000Y-102040000D03*
X58250000Y-99500000D03*
X55710000Y-99500000D03*
X58250000Y-96960000D03*
X55710000Y-96960000D03*
X58250000Y-94420000D03*
X55710000Y-94420000D03*
X58250000Y-91880000D03*
D16*
X55710000Y-91880000D03*
D15*
X93500000Y-59540000D03*
D16*
X93500000Y-57000000D03*
D15*
X72250000Y-56960000D03*
D16*
X72250000Y-59500000D03*
D17*
X101520000Y-147150000D03*
X98980000Y-147150000D03*
D15*
X88640000Y-145000000D03*
D16*
X86100000Y-145000000D03*
D18*
X38750000Y-139450000D03*
X38750000Y-135050000D03*
D19*
X41350000Y-138850000D03*
X41350000Y-138050000D03*
X41350000Y-137250000D03*
X41350000Y-136450000D03*
X41350000Y-135650000D03*
D20*
X41350000Y-141650000D03*
X41350000Y-132850000D03*
X35850000Y-141650000D03*
X35850000Y-132850000D03*
D21*
X38900000Y-63550000D03*
X38900000Y-64200000D03*
X38900000Y-64850000D03*
X38900000Y-65500000D03*
X38900000Y-66150000D03*
D22*
X36050000Y-61100000D03*
X36050000Y-68600000D03*
D23*
X36050000Y-63700000D03*
X36050000Y-66000000D03*
D15*
X114790000Y-132590000D03*
X112250000Y-132590000D03*
X114790000Y-130050000D03*
D16*
X112250000Y-130050000D03*
D24*
X126050000Y-136900000D03*
D25*
X126050000Y-142700000D03*
D26*
X130850000Y-139900000D03*
D27*
X100905000Y-140200000D03*
X99635000Y-140200000D03*
X98365000Y-140200000D03*
X97095000Y-140200000D03*
X97095000Y-134800000D03*
X98365000Y-134800000D03*
X99635000Y-134800000D03*
X100905000Y-134800000D03*
D28*
X48800000Y-139310000D03*
X48800000Y-138040000D03*
X48800000Y-136770000D03*
X48800000Y-135500000D03*
X48800000Y-134230000D03*
X48800000Y-132960000D03*
X48800000Y-131690000D03*
X54200000Y-131690000D03*
X54200000Y-132960000D03*
X54200000Y-134230000D03*
X54200000Y-135500000D03*
X54200000Y-136770000D03*
X54200000Y-138040000D03*
X54200000Y-139310000D03*
D29*
X46745000Y-115400000D03*
X48015000Y-115400000D03*
X49285000Y-115400000D03*
X50555000Y-115400000D03*
X50555000Y-122700000D03*
X49285000Y-122700000D03*
X48015000Y-122700000D03*
X46745000Y-122700000D03*
D30*
X120600000Y-128435000D03*
D31*
X127780000Y-126150000D03*
D30*
X120600000Y-123865000D03*
D32*
X107750000Y-133850000D03*
X108700000Y-136150000D03*
X106800000Y-136150000D03*
D33*
X77250000Y-93512000D03*
X77750000Y-93512000D03*
X78250000Y-93512000D03*
X78750000Y-93512000D03*
X79250000Y-93512000D03*
X79750000Y-93512000D03*
X80250000Y-93512000D03*
X80750000Y-93512000D03*
X81250000Y-93512000D03*
X81750000Y-93512000D03*
X82250000Y-93512000D03*
X82750000Y-93512000D03*
X83250000Y-93512000D03*
X83750000Y-93512000D03*
X84250000Y-93512000D03*
X84750000Y-93512000D03*
X85250000Y-93512000D03*
X85750000Y-93512000D03*
X86250000Y-93512000D03*
X86750000Y-93512000D03*
X87250000Y-93512000D03*
X87750000Y-93512000D03*
X88250000Y-93512000D03*
X88750000Y-93512000D03*
X89250000Y-93512000D03*
D34*
X90988000Y-95250000D03*
X90988000Y-95750000D03*
X90988000Y-96250000D03*
X90988000Y-96750000D03*
X90988000Y-97250000D03*
X90988000Y-97750000D03*
X90988000Y-98250000D03*
X90988000Y-98750000D03*
X90988000Y-99250000D03*
X90988000Y-99750000D03*
X90988000Y-100250000D03*
X90988000Y-100750000D03*
X90988000Y-101250000D03*
X90988000Y-101750000D03*
X90988000Y-102250000D03*
X90988000Y-102750000D03*
X90988000Y-103250000D03*
X90988000Y-103750000D03*
X90988000Y-104250000D03*
X90988000Y-104750000D03*
X90988000Y-105250000D03*
X90988000Y-105750000D03*
X90988000Y-106250000D03*
X90988000Y-106750000D03*
X90988000Y-107250000D03*
D33*
X89250000Y-108988000D03*
X88750000Y-108988000D03*
X88250000Y-108988000D03*
X87750000Y-108988000D03*
X87250000Y-108988000D03*
X86750000Y-108988000D03*
X86250000Y-108988000D03*
X85750000Y-108988000D03*
X85250000Y-108988000D03*
X84750000Y-108988000D03*
X84250000Y-108988000D03*
X83750000Y-108988000D03*
X83250000Y-108988000D03*
X82750000Y-108988000D03*
X82250000Y-108988000D03*
X81750000Y-108988000D03*
X81250000Y-108988000D03*
X80750000Y-108988000D03*
X80250000Y-108988000D03*
X79750000Y-108988000D03*
X79250000Y-108988000D03*
X78750000Y-108988000D03*
X78250000Y-108988000D03*
X77750000Y-108988000D03*
X77250000Y-108988000D03*
D34*
X75512000Y-107250000D03*
X75512000Y-106750000D03*
X75512000Y-106250000D03*
X75512000Y-105750000D03*
X75512000Y-105250000D03*
X75512000Y-104750000D03*
X75512000Y-104250000D03*
X75512000Y-103750000D03*
X75512000Y-103250000D03*
X75512000Y-102750000D03*
X75512000Y-102250000D03*
X75512000Y-101750000D03*
X75512000Y-101250000D03*
X75512000Y-100750000D03*
X75512000Y-100250000D03*
X75512000Y-99750000D03*
X75512000Y-99250000D03*
X75512000Y-98750000D03*
X75512000Y-98250000D03*
X75512000Y-97750000D03*
X75512000Y-97250000D03*
X75512000Y-96750000D03*
X75512000Y-96250000D03*
X75512000Y-95750000D03*
X75512000Y-95250000D03*
G36*
G01*
X112906250Y-140850000D02*
X112393750Y-140850000D01*
G75*
G02*
X112175000Y-140631250I0J218750D01*
G01*
X112175000Y-140193750D01*
G75*
G02*
X112393750Y-139975000I218750J0D01*
G01*
X112906250Y-139975000D01*
G75*
G02*
X113125000Y-140193750I0J-218750D01*
G01*
X113125000Y-140631250D01*
G75*
G02*
X112906250Y-140850000I-218750J0D01*
G01*
G37*
G36*
G01*
X112906250Y-142425000D02*
X112393750Y-142425000D01*
G75*
G02*
X112175000Y-142206250I0J218750D01*
G01*
X112175000Y-141768750D01*
G75*
G02*
X112393750Y-141550000I218750J0D01*
G01*
X112906250Y-141550000D01*
G75*
G02*
X113125000Y-141768750I0J-218750D01*
G01*
X113125000Y-142206250D01*
G75*
G02*
X112906250Y-142425000I-218750J0D01*
G01*
G37*
D35*
X127700000Y-133150000D03*
X124400000Y-133150000D03*
G36*
G01*
X117906250Y-140850000D02*
X117393750Y-140850000D01*
G75*
G02*
X117175000Y-140631250I0J218750D01*
G01*
X117175000Y-140193750D01*
G75*
G02*
X117393750Y-139975000I218750J0D01*
G01*
X117906250Y-139975000D01*
G75*
G02*
X118125000Y-140193750I0J-218750D01*
G01*
X118125000Y-140631250D01*
G75*
G02*
X117906250Y-140850000I-218750J0D01*
G01*
G37*
G36*
G01*
X117906250Y-142425000D02*
X117393750Y-142425000D01*
G75*
G02*
X117175000Y-142206250I0J218750D01*
G01*
X117175000Y-141768750D01*
G75*
G02*
X117393750Y-141550000I218750J0D01*
G01*
X117906250Y-141550000D01*
G75*
G02*
X118125000Y-141768750I0J-218750D01*
G01*
X118125000Y-142206250D01*
G75*
G02*
X117906250Y-142425000I-218750J0D01*
G01*
G37*
G36*
G01*
X87956250Y-60050000D02*
X87043750Y-60050000D01*
G75*
G02*
X86800000Y-59806250I0J243750D01*
G01*
X86800000Y-59318750D01*
G75*
G02*
X87043750Y-59075000I243750J0D01*
G01*
X87956250Y-59075000D01*
G75*
G02*
X88200000Y-59318750I0J-243750D01*
G01*
X88200000Y-59806250D01*
G75*
G02*
X87956250Y-60050000I-243750J0D01*
G01*
G37*
G36*
G01*
X87956250Y-61925000D02*
X87043750Y-61925000D01*
G75*
G02*
X86800000Y-61681250I0J243750D01*
G01*
X86800000Y-61193750D01*
G75*
G02*
X87043750Y-60950000I243750J0D01*
G01*
X87956250Y-60950000D01*
G75*
G02*
X88200000Y-61193750I0J-243750D01*
G01*
X88200000Y-61681250D01*
G75*
G02*
X87956250Y-61925000I-243750J0D01*
G01*
G37*
G36*
G01*
X84922916Y-60050000D02*
X84010416Y-60050000D01*
G75*
G02*
X83766666Y-59806250I0J243750D01*
G01*
X83766666Y-59318750D01*
G75*
G02*
X84010416Y-59075000I243750J0D01*
G01*
X84922916Y-59075000D01*
G75*
G02*
X85166666Y-59318750I0J-243750D01*
G01*
X85166666Y-59806250D01*
G75*
G02*
X84922916Y-60050000I-243750J0D01*
G01*
G37*
G36*
G01*
X84922916Y-61925000D02*
X84010416Y-61925000D01*
G75*
G02*
X83766666Y-61681250I0J243750D01*
G01*
X83766666Y-61193750D01*
G75*
G02*
X84010416Y-60950000I243750J0D01*
G01*
X84922916Y-60950000D01*
G75*
G02*
X85166666Y-61193750I0J-243750D01*
G01*
X85166666Y-61681250D01*
G75*
G02*
X84922916Y-61925000I-243750J0D01*
G01*
G37*
G36*
G01*
X81889583Y-60050000D02*
X80977083Y-60050000D01*
G75*
G02*
X80733333Y-59806250I0J243750D01*
G01*
X80733333Y-59318750D01*
G75*
G02*
X80977083Y-59075000I243750J0D01*
G01*
X81889583Y-59075000D01*
G75*
G02*
X82133333Y-59318750I0J-243750D01*
G01*
X82133333Y-59806250D01*
G75*
G02*
X81889583Y-60050000I-243750J0D01*
G01*
G37*
G36*
G01*
X81889583Y-61925000D02*
X80977083Y-61925000D01*
G75*
G02*
X80733333Y-61681250I0J243750D01*
G01*
X80733333Y-61193750D01*
G75*
G02*
X80977083Y-60950000I243750J0D01*
G01*
X81889583Y-60950000D01*
G75*
G02*
X82133333Y-61193750I0J-243750D01*
G01*
X82133333Y-61681250D01*
G75*
G02*
X81889583Y-61925000I-243750J0D01*
G01*
G37*
G36*
G01*
X78856250Y-60050000D02*
X77943750Y-60050000D01*
G75*
G02*
X77700000Y-59806250I0J243750D01*
G01*
X77700000Y-59318750D01*
G75*
G02*
X77943750Y-59075000I243750J0D01*
G01*
X78856250Y-59075000D01*
G75*
G02*
X79100000Y-59318750I0J-243750D01*
G01*
X79100000Y-59806250D01*
G75*
G02*
X78856250Y-60050000I-243750J0D01*
G01*
G37*
G36*
G01*
X78856250Y-61925000D02*
X77943750Y-61925000D01*
G75*
G02*
X77700000Y-61681250I0J243750D01*
G01*
X77700000Y-61193750D01*
G75*
G02*
X77943750Y-60950000I243750J0D01*
G01*
X78856250Y-60950000D01*
G75*
G02*
X79100000Y-61193750I0J-243750D01*
G01*
X79100000Y-61681250D01*
G75*
G02*
X78856250Y-61925000I-243750J0D01*
G01*
G37*
G36*
G01*
X64243750Y-141100000D02*
X64756250Y-141100000D01*
G75*
G02*
X64975000Y-141318750I0J-218750D01*
G01*
X64975000Y-141756250D01*
G75*
G02*
X64756250Y-141975000I-218750J0D01*
G01*
X64243750Y-141975000D01*
G75*
G02*
X64025000Y-141756250I0J218750D01*
G01*
X64025000Y-141318750D01*
G75*
G02*
X64243750Y-141100000I218750J0D01*
G01*
G37*
G36*
G01*
X64243750Y-139525000D02*
X64756250Y-139525000D01*
G75*
G02*
X64975000Y-139743750I0J-218750D01*
G01*
X64975000Y-140181250D01*
G75*
G02*
X64756250Y-140400000I-218750J0D01*
G01*
X64243750Y-140400000D01*
G75*
G02*
X64025000Y-140181250I0J218750D01*
G01*
X64025000Y-139743750D01*
G75*
G02*
X64243750Y-139525000I218750J0D01*
G01*
G37*
G36*
G01*
X60993750Y-141100000D02*
X61506250Y-141100000D01*
G75*
G02*
X61725000Y-141318750I0J-218750D01*
G01*
X61725000Y-141756250D01*
G75*
G02*
X61506250Y-141975000I-218750J0D01*
G01*
X60993750Y-141975000D01*
G75*
G02*
X60775000Y-141756250I0J218750D01*
G01*
X60775000Y-141318750D01*
G75*
G02*
X60993750Y-141100000I218750J0D01*
G01*
G37*
G36*
G01*
X60993750Y-139525000D02*
X61506250Y-139525000D01*
G75*
G02*
X61725000Y-139743750I0J-218750D01*
G01*
X61725000Y-140181250D01*
G75*
G02*
X61506250Y-140400000I-218750J0D01*
G01*
X60993750Y-140400000D01*
G75*
G02*
X60775000Y-140181250I0J218750D01*
G01*
X60775000Y-139743750D01*
G75*
G02*
X60993750Y-139525000I218750J0D01*
G01*
G37*
X45850000Y-145000000D03*
X49150000Y-145000000D03*
D36*
X44050000Y-63300000D03*
X44050000Y-60000000D03*
G36*
G01*
X95000000Y-138425000D02*
X94500000Y-138425000D01*
G75*
G02*
X94275000Y-138200000I0J225000D01*
G01*
X94275000Y-137750000D01*
G75*
G02*
X94500000Y-137525000I225000J0D01*
G01*
X95000000Y-137525000D01*
G75*
G02*
X95225000Y-137750000I0J-225000D01*
G01*
X95225000Y-138200000D01*
G75*
G02*
X95000000Y-138425000I-225000J0D01*
G01*
G37*
G36*
G01*
X95000000Y-139975000D02*
X94500000Y-139975000D01*
G75*
G02*
X94275000Y-139750000I0J225000D01*
G01*
X94275000Y-139300000D01*
G75*
G02*
X94500000Y-139075000I225000J0D01*
G01*
X95000000Y-139075000D01*
G75*
G02*
X95225000Y-139300000I0J-225000D01*
G01*
X95225000Y-139750000D01*
G75*
G02*
X95000000Y-139975000I-225000J0D01*
G01*
G37*
G36*
G01*
X98675000Y-132000000D02*
X98675000Y-132500000D01*
G75*
G02*
X98450000Y-132725000I-225000J0D01*
G01*
X98000000Y-132725000D01*
G75*
G02*
X97775000Y-132500000I0J225000D01*
G01*
X97775000Y-132000000D01*
G75*
G02*
X98000000Y-131775000I225000J0D01*
G01*
X98450000Y-131775000D01*
G75*
G02*
X98675000Y-132000000I0J-225000D01*
G01*
G37*
G36*
G01*
X100225000Y-132000000D02*
X100225000Y-132500000D01*
G75*
G02*
X100000000Y-132725000I-225000J0D01*
G01*
X99550000Y-132725000D01*
G75*
G02*
X99325000Y-132500000I0J225000D01*
G01*
X99325000Y-132000000D01*
G75*
G02*
X99550000Y-131775000I225000J0D01*
G01*
X100000000Y-131775000D01*
G75*
G02*
X100225000Y-132000000I0J-225000D01*
G01*
G37*
G36*
G01*
X46000000Y-133175000D02*
X45500000Y-133175000D01*
G75*
G02*
X45275000Y-132950000I0J225000D01*
G01*
X45275000Y-132500000D01*
G75*
G02*
X45500000Y-132275000I225000J0D01*
G01*
X46000000Y-132275000D01*
G75*
G02*
X46225000Y-132500000I0J-225000D01*
G01*
X46225000Y-132950000D01*
G75*
G02*
X46000000Y-133175000I-225000J0D01*
G01*
G37*
G36*
G01*
X46000000Y-134725000D02*
X45500000Y-134725000D01*
G75*
G02*
X45275000Y-134500000I0J225000D01*
G01*
X45275000Y-134050000D01*
G75*
G02*
X45500000Y-133825000I225000J0D01*
G01*
X46000000Y-133825000D01*
G75*
G02*
X46225000Y-134050000I0J-225000D01*
G01*
X46225000Y-134500000D01*
G75*
G02*
X46000000Y-134725000I-225000J0D01*
G01*
G37*
G36*
G01*
X44500000Y-115825000D02*
X44000000Y-115825000D01*
G75*
G02*
X43775000Y-115600000I0J225000D01*
G01*
X43775000Y-115150000D01*
G75*
G02*
X44000000Y-114925000I225000J0D01*
G01*
X44500000Y-114925000D01*
G75*
G02*
X44725000Y-115150000I0J-225000D01*
G01*
X44725000Y-115600000D01*
G75*
G02*
X44500000Y-115825000I-225000J0D01*
G01*
G37*
G36*
G01*
X44500000Y-117375000D02*
X44000000Y-117375000D01*
G75*
G02*
X43775000Y-117150000I0J225000D01*
G01*
X43775000Y-116700000D01*
G75*
G02*
X44000000Y-116475000I225000J0D01*
G01*
X44500000Y-116475000D01*
G75*
G02*
X44725000Y-116700000I0J-225000D01*
G01*
X44725000Y-117150000D01*
G75*
G02*
X44500000Y-117375000I-225000J0D01*
G01*
G37*
G36*
G01*
X51825000Y-141750000D02*
X51825000Y-141250000D01*
G75*
G02*
X52050000Y-141025000I225000J0D01*
G01*
X52500000Y-141025000D01*
G75*
G02*
X52725000Y-141250000I0J-225000D01*
G01*
X52725000Y-141750000D01*
G75*
G02*
X52500000Y-141975000I-225000J0D01*
G01*
X52050000Y-141975000D01*
G75*
G02*
X51825000Y-141750000I0J225000D01*
G01*
G37*
G36*
G01*
X50275000Y-141750000D02*
X50275000Y-141250000D01*
G75*
G02*
X50500000Y-141025000I225000J0D01*
G01*
X50950000Y-141025000D01*
G75*
G02*
X51175000Y-141250000I0J-225000D01*
G01*
X51175000Y-141750000D01*
G75*
G02*
X50950000Y-141975000I-225000J0D01*
G01*
X50500000Y-141975000D01*
G75*
G02*
X50275000Y-141750000I0J225000D01*
G01*
G37*
G36*
G01*
X76640000Y-83490000D02*
X76300000Y-83490000D01*
G75*
G02*
X76160000Y-83350000I0J140000D01*
G01*
X76160000Y-83070000D01*
G75*
G02*
X76300000Y-82930000I140000J0D01*
G01*
X76640000Y-82930000D01*
G75*
G02*
X76780000Y-83070000I0J-140000D01*
G01*
X76780000Y-83350000D01*
G75*
G02*
X76640000Y-83490000I-140000J0D01*
G01*
G37*
G36*
G01*
X76640000Y-84450000D02*
X76300000Y-84450000D01*
G75*
G02*
X76160000Y-84310000I0J140000D01*
G01*
X76160000Y-84030000D01*
G75*
G02*
X76300000Y-83890000I140000J0D01*
G01*
X76640000Y-83890000D01*
G75*
G02*
X76780000Y-84030000I0J-140000D01*
G01*
X76780000Y-84310000D01*
G75*
G02*
X76640000Y-84450000I-140000J0D01*
G01*
G37*
G36*
G01*
X91730000Y-88250000D02*
X92070000Y-88250000D01*
G75*
G02*
X92210000Y-88390000I0J-140000D01*
G01*
X92210000Y-88670000D01*
G75*
G02*
X92070000Y-88810000I-140000J0D01*
G01*
X91730000Y-88810000D01*
G75*
G02*
X91590000Y-88670000I0J140000D01*
G01*
X91590000Y-88390000D01*
G75*
G02*
X91730000Y-88250000I140000J0D01*
G01*
G37*
G36*
G01*
X91730000Y-87290000D02*
X92070000Y-87290000D01*
G75*
G02*
X92210000Y-87430000I0J-140000D01*
G01*
X92210000Y-87710000D01*
G75*
G02*
X92070000Y-87850000I-140000J0D01*
G01*
X91730000Y-87850000D01*
G75*
G02*
X91590000Y-87710000I0J140000D01*
G01*
X91590000Y-87430000D01*
G75*
G02*
X91730000Y-87290000I140000J0D01*
G01*
G37*
G36*
G01*
X70700000Y-96420000D02*
X70700000Y-96080000D01*
G75*
G02*
X70840000Y-95940000I140000J0D01*
G01*
X71120000Y-95940000D01*
G75*
G02*
X71260000Y-96080000I0J-140000D01*
G01*
X71260000Y-96420000D01*
G75*
G02*
X71120000Y-96560000I-140000J0D01*
G01*
X70840000Y-96560000D01*
G75*
G02*
X70700000Y-96420000I0J140000D01*
G01*
G37*
G36*
G01*
X69740000Y-96420000D02*
X69740000Y-96080000D01*
G75*
G02*
X69880000Y-95940000I140000J0D01*
G01*
X70160000Y-95940000D01*
G75*
G02*
X70300000Y-96080000I0J-140000D01*
G01*
X70300000Y-96420000D01*
G75*
G02*
X70160000Y-96560000I-140000J0D01*
G01*
X69880000Y-96560000D01*
G75*
G02*
X69740000Y-96420000I0J140000D01*
G01*
G37*
G36*
G01*
X72300000Y-96080000D02*
X72300000Y-96420000D01*
G75*
G02*
X72160000Y-96560000I-140000J0D01*
G01*
X71880000Y-96560000D01*
G75*
G02*
X71740000Y-96420000I0J140000D01*
G01*
X71740000Y-96080000D01*
G75*
G02*
X71880000Y-95940000I140000J0D01*
G01*
X72160000Y-95940000D01*
G75*
G02*
X72300000Y-96080000I0J-140000D01*
G01*
G37*
G36*
G01*
X73260000Y-96080000D02*
X73260000Y-96420000D01*
G75*
G02*
X73120000Y-96560000I-140000J0D01*
G01*
X72840000Y-96560000D01*
G75*
G02*
X72700000Y-96420000I0J140000D01*
G01*
X72700000Y-96080000D01*
G75*
G02*
X72840000Y-95940000I140000J0D01*
G01*
X73120000Y-95940000D01*
G75*
G02*
X73260000Y-96080000I0J-140000D01*
G01*
G37*
G36*
G01*
X90200000Y-91920000D02*
X90200000Y-91580000D01*
G75*
G02*
X90340000Y-91440000I140000J0D01*
G01*
X90620000Y-91440000D01*
G75*
G02*
X90760000Y-91580000I0J-140000D01*
G01*
X90760000Y-91920000D01*
G75*
G02*
X90620000Y-92060000I-140000J0D01*
G01*
X90340000Y-92060000D01*
G75*
G02*
X90200000Y-91920000I0J140000D01*
G01*
G37*
G36*
G01*
X89240000Y-91920000D02*
X89240000Y-91580000D01*
G75*
G02*
X89380000Y-91440000I140000J0D01*
G01*
X89660000Y-91440000D01*
G75*
G02*
X89800000Y-91580000I0J-140000D01*
G01*
X89800000Y-91920000D01*
G75*
G02*
X89660000Y-92060000I-140000J0D01*
G01*
X89380000Y-92060000D01*
G75*
G02*
X89240000Y-91920000I0J140000D01*
G01*
G37*
G36*
G01*
X43025000Y-56900000D02*
X43025000Y-57400000D01*
G75*
G02*
X42800000Y-57625000I-225000J0D01*
G01*
X42350000Y-57625000D01*
G75*
G02*
X42125000Y-57400000I0J225000D01*
G01*
X42125000Y-56900000D01*
G75*
G02*
X42350000Y-56675000I225000J0D01*
G01*
X42800000Y-56675000D01*
G75*
G02*
X43025000Y-56900000I0J-225000D01*
G01*
G37*
G36*
G01*
X44575000Y-56900000D02*
X44575000Y-57400000D01*
G75*
G02*
X44350000Y-57625000I-225000J0D01*
G01*
X43900000Y-57625000D01*
G75*
G02*
X43675000Y-57400000I0J225000D01*
G01*
X43675000Y-56900000D01*
G75*
G02*
X43900000Y-56675000I225000J0D01*
G01*
X44350000Y-56675000D01*
G75*
G02*
X44575000Y-56900000I0J-225000D01*
G01*
G37*
G36*
G01*
X71800000Y-106330000D02*
X71800000Y-106670000D01*
G75*
G02*
X71660000Y-106810000I-140000J0D01*
G01*
X71380000Y-106810000D01*
G75*
G02*
X71240000Y-106670000I0J140000D01*
G01*
X71240000Y-106330000D01*
G75*
G02*
X71380000Y-106190000I140000J0D01*
G01*
X71660000Y-106190000D01*
G75*
G02*
X71800000Y-106330000I0J-140000D01*
G01*
G37*
G36*
G01*
X72760000Y-106330000D02*
X72760000Y-106670000D01*
G75*
G02*
X72620000Y-106810000I-140000J0D01*
G01*
X72340000Y-106810000D01*
G75*
G02*
X72200000Y-106670000I0J140000D01*
G01*
X72200000Y-106330000D01*
G75*
G02*
X72340000Y-106190000I140000J0D01*
G01*
X72620000Y-106190000D01*
G75*
G02*
X72760000Y-106330000I0J-140000D01*
G01*
G37*
G36*
G01*
X83580000Y-111700000D02*
X83920000Y-111700000D01*
G75*
G02*
X84060000Y-111840000I0J-140000D01*
G01*
X84060000Y-112120000D01*
G75*
G02*
X83920000Y-112260000I-140000J0D01*
G01*
X83580000Y-112260000D01*
G75*
G02*
X83440000Y-112120000I0J140000D01*
G01*
X83440000Y-111840000D01*
G75*
G02*
X83580000Y-111700000I140000J0D01*
G01*
G37*
G36*
G01*
X83580000Y-110740000D02*
X83920000Y-110740000D01*
G75*
G02*
X84060000Y-110880000I0J-140000D01*
G01*
X84060000Y-111160000D01*
G75*
G02*
X83920000Y-111300000I-140000J0D01*
G01*
X83580000Y-111300000D01*
G75*
G02*
X83440000Y-111160000I0J140000D01*
G01*
X83440000Y-110880000D01*
G75*
G02*
X83580000Y-110740000I140000J0D01*
G01*
G37*
G36*
G01*
X71800000Y-103330000D02*
X71800000Y-103670000D01*
G75*
G02*
X71660000Y-103810000I-140000J0D01*
G01*
X71380000Y-103810000D01*
G75*
G02*
X71240000Y-103670000I0J140000D01*
G01*
X71240000Y-103330000D01*
G75*
G02*
X71380000Y-103190000I140000J0D01*
G01*
X71660000Y-103190000D01*
G75*
G02*
X71800000Y-103330000I0J-140000D01*
G01*
G37*
G36*
G01*
X72760000Y-103330000D02*
X72760000Y-103670000D01*
G75*
G02*
X72620000Y-103810000I-140000J0D01*
G01*
X72340000Y-103810000D01*
G75*
G02*
X72200000Y-103670000I0J140000D01*
G01*
X72200000Y-103330000D01*
G75*
G02*
X72340000Y-103190000I140000J0D01*
G01*
X72620000Y-103190000D01*
G75*
G02*
X72760000Y-103330000I0J-140000D01*
G01*
G37*
G36*
G01*
X72200000Y-98920000D02*
X72200000Y-98580000D01*
G75*
G02*
X72340000Y-98440000I140000J0D01*
G01*
X72620000Y-98440000D01*
G75*
G02*
X72760000Y-98580000I0J-140000D01*
G01*
X72760000Y-98920000D01*
G75*
G02*
X72620000Y-99060000I-140000J0D01*
G01*
X72340000Y-99060000D01*
G75*
G02*
X72200000Y-98920000I0J140000D01*
G01*
G37*
G36*
G01*
X71240000Y-98920000D02*
X71240000Y-98580000D01*
G75*
G02*
X71380000Y-98440000I140000J0D01*
G01*
X71660000Y-98440000D01*
G75*
G02*
X71800000Y-98580000I0J-140000D01*
G01*
X71800000Y-98920000D01*
G75*
G02*
X71660000Y-99060000I-140000J0D01*
G01*
X71380000Y-99060000D01*
G75*
G02*
X71240000Y-98920000I0J140000D01*
G01*
G37*
G36*
G01*
X83000000Y-83175000D02*
X82500000Y-83175000D01*
G75*
G02*
X82275000Y-82950000I0J225000D01*
G01*
X82275000Y-82500000D01*
G75*
G02*
X82500000Y-82275000I225000J0D01*
G01*
X83000000Y-82275000D01*
G75*
G02*
X83225000Y-82500000I0J-225000D01*
G01*
X83225000Y-82950000D01*
G75*
G02*
X83000000Y-83175000I-225000J0D01*
G01*
G37*
G36*
G01*
X83000000Y-84725000D02*
X82500000Y-84725000D01*
G75*
G02*
X82275000Y-84500000I0J225000D01*
G01*
X82275000Y-84050000D01*
G75*
G02*
X82500000Y-83825000I225000J0D01*
G01*
X83000000Y-83825000D01*
G75*
G02*
X83225000Y-84050000I0J-225000D01*
G01*
X83225000Y-84500000D01*
G75*
G02*
X83000000Y-84725000I-225000J0D01*
G01*
G37*
G36*
G01*
X80920000Y-90300000D02*
X80580000Y-90300000D01*
G75*
G02*
X80440000Y-90160000I0J140000D01*
G01*
X80440000Y-89880000D01*
G75*
G02*
X80580000Y-89740000I140000J0D01*
G01*
X80920000Y-89740000D01*
G75*
G02*
X81060000Y-89880000I0J-140000D01*
G01*
X81060000Y-90160000D01*
G75*
G02*
X80920000Y-90300000I-140000J0D01*
G01*
G37*
G36*
G01*
X80920000Y-91260000D02*
X80580000Y-91260000D01*
G75*
G02*
X80440000Y-91120000I0J140000D01*
G01*
X80440000Y-90840000D01*
G75*
G02*
X80580000Y-90700000I140000J0D01*
G01*
X80920000Y-90700000D01*
G75*
G02*
X81060000Y-90840000I0J-140000D01*
G01*
X81060000Y-91120000D01*
G75*
G02*
X80920000Y-91260000I-140000J0D01*
G01*
G37*
G36*
G01*
X107425000Y-138250000D02*
X107425000Y-138750000D01*
G75*
G02*
X107200000Y-138975000I-225000J0D01*
G01*
X106750000Y-138975000D01*
G75*
G02*
X106525000Y-138750000I0J225000D01*
G01*
X106525000Y-138250000D01*
G75*
G02*
X106750000Y-138025000I225000J0D01*
G01*
X107200000Y-138025000D01*
G75*
G02*
X107425000Y-138250000I0J-225000D01*
G01*
G37*
G36*
G01*
X108975000Y-138250000D02*
X108975000Y-138750000D01*
G75*
G02*
X108750000Y-138975000I-225000J0D01*
G01*
X108300000Y-138975000D01*
G75*
G02*
X108075000Y-138750000I0J225000D01*
G01*
X108075000Y-138250000D01*
G75*
G02*
X108300000Y-138025000I225000J0D01*
G01*
X108750000Y-138025000D01*
G75*
G02*
X108975000Y-138250000I0J-225000D01*
G01*
G37*
G36*
G01*
X120875000Y-132400000D02*
X120875000Y-131900000D01*
G75*
G02*
X121100000Y-131675000I225000J0D01*
G01*
X121550000Y-131675000D01*
G75*
G02*
X121775000Y-131900000I0J-225000D01*
G01*
X121775000Y-132400000D01*
G75*
G02*
X121550000Y-132625000I-225000J0D01*
G01*
X121100000Y-132625000D01*
G75*
G02*
X120875000Y-132400000I0J225000D01*
G01*
G37*
G36*
G01*
X119325000Y-132400000D02*
X119325000Y-131900000D01*
G75*
G02*
X119550000Y-131675000I225000J0D01*
G01*
X120000000Y-131675000D01*
G75*
G02*
X120225000Y-131900000I0J-225000D01*
G01*
X120225000Y-132400000D01*
G75*
G02*
X120000000Y-132625000I-225000J0D01*
G01*
X119550000Y-132625000D01*
G75*
G02*
X119325000Y-132400000I0J225000D01*
G01*
G37*
G36*
G01*
X86920000Y-90300000D02*
X86580000Y-90300000D01*
G75*
G02*
X86440000Y-90160000I0J140000D01*
G01*
X86440000Y-89880000D01*
G75*
G02*
X86580000Y-89740000I140000J0D01*
G01*
X86920000Y-89740000D01*
G75*
G02*
X87060000Y-89880000I0J-140000D01*
G01*
X87060000Y-90160000D01*
G75*
G02*
X86920000Y-90300000I-140000J0D01*
G01*
G37*
G36*
G01*
X86920000Y-91260000D02*
X86580000Y-91260000D01*
G75*
G02*
X86440000Y-91120000I0J140000D01*
G01*
X86440000Y-90840000D01*
G75*
G02*
X86580000Y-90700000I140000J0D01*
G01*
X86920000Y-90700000D01*
G75*
G02*
X87060000Y-90840000I0J-140000D01*
G01*
X87060000Y-91120000D01*
G75*
G02*
X86920000Y-91260000I-140000J0D01*
G01*
G37*
G36*
G01*
X122525000Y-120750000D02*
X122525000Y-120250000D01*
G75*
G02*
X122750000Y-120025000I225000J0D01*
G01*
X123200000Y-120025000D01*
G75*
G02*
X123425000Y-120250000I0J-225000D01*
G01*
X123425000Y-120750000D01*
G75*
G02*
X123200000Y-120975000I-225000J0D01*
G01*
X122750000Y-120975000D01*
G75*
G02*
X122525000Y-120750000I0J225000D01*
G01*
G37*
G36*
G01*
X120975000Y-120750000D02*
X120975000Y-120250000D01*
G75*
G02*
X121200000Y-120025000I225000J0D01*
G01*
X121650000Y-120025000D01*
G75*
G02*
X121875000Y-120250000I0J-225000D01*
G01*
X121875000Y-120750000D01*
G75*
G02*
X121650000Y-120975000I-225000J0D01*
G01*
X121200000Y-120975000D01*
G75*
G02*
X120975000Y-120750000I0J225000D01*
G01*
G37*
G36*
G01*
X94200000Y-99170000D02*
X94200000Y-98830000D01*
G75*
G02*
X94340000Y-98690000I140000J0D01*
G01*
X94620000Y-98690000D01*
G75*
G02*
X94760000Y-98830000I0J-140000D01*
G01*
X94760000Y-99170000D01*
G75*
G02*
X94620000Y-99310000I-140000J0D01*
G01*
X94340000Y-99310000D01*
G75*
G02*
X94200000Y-99170000I0J140000D01*
G01*
G37*
G36*
G01*
X93240000Y-99170000D02*
X93240000Y-98830000D01*
G75*
G02*
X93380000Y-98690000I140000J0D01*
G01*
X93660000Y-98690000D01*
G75*
G02*
X93800000Y-98830000I0J-140000D01*
G01*
X93800000Y-99170000D01*
G75*
G02*
X93660000Y-99310000I-140000J0D01*
G01*
X93380000Y-99310000D01*
G75*
G02*
X93240000Y-99170000I0J140000D01*
G01*
G37*
G36*
G01*
X78330000Y-111700000D02*
X78670000Y-111700000D01*
G75*
G02*
X78810000Y-111840000I0J-140000D01*
G01*
X78810000Y-112120000D01*
G75*
G02*
X78670000Y-112260000I-140000J0D01*
G01*
X78330000Y-112260000D01*
G75*
G02*
X78190000Y-112120000I0J140000D01*
G01*
X78190000Y-111840000D01*
G75*
G02*
X78330000Y-111700000I140000J0D01*
G01*
G37*
G36*
G01*
X78330000Y-110740000D02*
X78670000Y-110740000D01*
G75*
G02*
X78810000Y-110880000I0J-140000D01*
G01*
X78810000Y-111160000D01*
G75*
G02*
X78670000Y-111300000I-140000J0D01*
G01*
X78330000Y-111300000D01*
G75*
G02*
X78190000Y-111160000I0J140000D01*
G01*
X78190000Y-110880000D01*
G75*
G02*
X78330000Y-110740000I140000J0D01*
G01*
G37*
G36*
G01*
X104500000Y-135325000D02*
X105000000Y-135325000D01*
G75*
G02*
X105225000Y-135550000I0J-225000D01*
G01*
X105225000Y-136000000D01*
G75*
G02*
X105000000Y-136225000I-225000J0D01*
G01*
X104500000Y-136225000D01*
G75*
G02*
X104275000Y-136000000I0J225000D01*
G01*
X104275000Y-135550000D01*
G75*
G02*
X104500000Y-135325000I225000J0D01*
G01*
G37*
G36*
G01*
X104500000Y-133775000D02*
X105000000Y-133775000D01*
G75*
G02*
X105225000Y-134000000I0J-225000D01*
G01*
X105225000Y-134450000D01*
G75*
G02*
X105000000Y-134675000I-225000J0D01*
G01*
X104500000Y-134675000D01*
G75*
G02*
X104275000Y-134450000I0J225000D01*
G01*
X104275000Y-134000000D01*
G75*
G02*
X104500000Y-133775000I225000J0D01*
G01*
G37*
G36*
G01*
X71800000Y-104330000D02*
X71800000Y-104670000D01*
G75*
G02*
X71660000Y-104810000I-140000J0D01*
G01*
X71380000Y-104810000D01*
G75*
G02*
X71240000Y-104670000I0J140000D01*
G01*
X71240000Y-104330000D01*
G75*
G02*
X71380000Y-104190000I140000J0D01*
G01*
X71660000Y-104190000D01*
G75*
G02*
X71800000Y-104330000I0J-140000D01*
G01*
G37*
G36*
G01*
X72760000Y-104330000D02*
X72760000Y-104670000D01*
G75*
G02*
X72620000Y-104810000I-140000J0D01*
G01*
X72340000Y-104810000D01*
G75*
G02*
X72200000Y-104670000I0J140000D01*
G01*
X72200000Y-104330000D01*
G75*
G02*
X72340000Y-104190000I140000J0D01*
G01*
X72620000Y-104190000D01*
G75*
G02*
X72760000Y-104330000I0J-140000D01*
G01*
G37*
G36*
G01*
X71800000Y-97580000D02*
X71800000Y-97920000D01*
G75*
G02*
X71660000Y-98060000I-140000J0D01*
G01*
X71380000Y-98060000D01*
G75*
G02*
X71240000Y-97920000I0J140000D01*
G01*
X71240000Y-97580000D01*
G75*
G02*
X71380000Y-97440000I140000J0D01*
G01*
X71660000Y-97440000D01*
G75*
G02*
X71800000Y-97580000I0J-140000D01*
G01*
G37*
G36*
G01*
X72760000Y-97580000D02*
X72760000Y-97920000D01*
G75*
G02*
X72620000Y-98060000I-140000J0D01*
G01*
X72340000Y-98060000D01*
G75*
G02*
X72200000Y-97920000I0J140000D01*
G01*
X72200000Y-97580000D01*
G75*
G02*
X72340000Y-97440000I140000J0D01*
G01*
X72620000Y-97440000D01*
G75*
G02*
X72760000Y-97580000I0J-140000D01*
G01*
G37*
G36*
G01*
X69425000Y-90250000D02*
X69425000Y-90750000D01*
G75*
G02*
X69200000Y-90975000I-225000J0D01*
G01*
X68750000Y-90975000D01*
G75*
G02*
X68525000Y-90750000I0J225000D01*
G01*
X68525000Y-90250000D01*
G75*
G02*
X68750000Y-90025000I225000J0D01*
G01*
X69200000Y-90025000D01*
G75*
G02*
X69425000Y-90250000I0J-225000D01*
G01*
G37*
G36*
G01*
X70975000Y-90250000D02*
X70975000Y-90750000D01*
G75*
G02*
X70750000Y-90975000I-225000J0D01*
G01*
X70300000Y-90975000D01*
G75*
G02*
X70075000Y-90750000I0J225000D01*
G01*
X70075000Y-90250000D01*
G75*
G02*
X70300000Y-90025000I225000J0D01*
G01*
X70750000Y-90025000D01*
G75*
G02*
X70975000Y-90250000I0J-225000D01*
G01*
G37*
G36*
G01*
X68050000Y-112425000D02*
X68050000Y-111925000D01*
G75*
G02*
X68275000Y-111700000I225000J0D01*
G01*
X68725000Y-111700000D01*
G75*
G02*
X68950000Y-111925000I0J-225000D01*
G01*
X68950000Y-112425000D01*
G75*
G02*
X68725000Y-112650000I-225000J0D01*
G01*
X68275000Y-112650000D01*
G75*
G02*
X68050000Y-112425000I0J225000D01*
G01*
G37*
G36*
G01*
X66500000Y-112425000D02*
X66500000Y-111925000D01*
G75*
G02*
X66725000Y-111700000I225000J0D01*
G01*
X67175000Y-111700000D01*
G75*
G02*
X67400000Y-111925000I0J-225000D01*
G01*
X67400000Y-112425000D01*
G75*
G02*
X67175000Y-112650000I-225000J0D01*
G01*
X66725000Y-112650000D01*
G75*
G02*
X66500000Y-112425000I0J225000D01*
G01*
G37*
G36*
G01*
X68050000Y-110925000D02*
X68050000Y-110425000D01*
G75*
G02*
X68275000Y-110200000I225000J0D01*
G01*
X68725000Y-110200000D01*
G75*
G02*
X68950000Y-110425000I0J-225000D01*
G01*
X68950000Y-110925000D01*
G75*
G02*
X68725000Y-111150000I-225000J0D01*
G01*
X68275000Y-111150000D01*
G75*
G02*
X68050000Y-110925000I0J225000D01*
G01*
G37*
G36*
G01*
X66500000Y-110925000D02*
X66500000Y-110425000D01*
G75*
G02*
X66725000Y-110200000I225000J0D01*
G01*
X67175000Y-110200000D01*
G75*
G02*
X67400000Y-110425000I0J-225000D01*
G01*
X67400000Y-110925000D01*
G75*
G02*
X67175000Y-111150000I-225000J0D01*
G01*
X66725000Y-111150000D01*
G75*
G02*
X66500000Y-110925000I0J225000D01*
G01*
G37*
G36*
G01*
X73830000Y-89700000D02*
X74170000Y-89700000D01*
G75*
G02*
X74310000Y-89840000I0J-140000D01*
G01*
X74310000Y-90120000D01*
G75*
G02*
X74170000Y-90260000I-140000J0D01*
G01*
X73830000Y-90260000D01*
G75*
G02*
X73690000Y-90120000I0J140000D01*
G01*
X73690000Y-89840000D01*
G75*
G02*
X73830000Y-89700000I140000J0D01*
G01*
G37*
G36*
G01*
X73830000Y-88740000D02*
X74170000Y-88740000D01*
G75*
G02*
X74310000Y-88880000I0J-140000D01*
G01*
X74310000Y-89160000D01*
G75*
G02*
X74170000Y-89300000I-140000J0D01*
G01*
X73830000Y-89300000D01*
G75*
G02*
X73690000Y-89160000I0J140000D01*
G01*
X73690000Y-88880000D01*
G75*
G02*
X73830000Y-88740000I140000J0D01*
G01*
G37*
M02*
