G04 #@! TF.GenerationSoftware,KiCad,Pcbnew,(5.1.8)-1*
G04 #@! TF.CreationDate,2021-10-18T13:10:10-06:00*
G04 #@! TF.ProjectId,SAMduino,53414d64-7569-46e6-9f2e-6b696361645f,rev?*
G04 #@! TF.SameCoordinates,Original*
G04 #@! TF.FileFunction,Legend,Bot*
G04 #@! TF.FilePolarity,Positive*
%FSLAX46Y46*%
G04 Gerber Fmt 4.6, Leading zero omitted, Abs format (unit mm)*
G04 Created by KiCad (PCBNEW (5.1.8)-1) date 2021-10-18 13:10:10*
%MOMM*%
%LPD*%
G01*
G04 APERTURE LIST*
%ADD10C,0.160000*%
%ADD11C,0.300000*%
%ADD12C,0.500000*%
G04 APERTURE END LIST*
D10*
X64119047Y-148802380D02*
X64119047Y-149516666D01*
X64166666Y-149659523D01*
X64261904Y-149754761D01*
X64404761Y-149802380D01*
X64500000Y-149802380D01*
X63166666Y-149802380D02*
X63642857Y-149802380D01*
X63642857Y-148802380D01*
X62261904Y-149707142D02*
X62309523Y-149754761D01*
X62452380Y-149802380D01*
X62547619Y-149802380D01*
X62690476Y-149754761D01*
X62785714Y-149659523D01*
X62833333Y-149564285D01*
X62880952Y-149373809D01*
X62880952Y-149230952D01*
X62833333Y-149040476D01*
X62785714Y-148945238D01*
X62690476Y-148850000D01*
X62547619Y-148802380D01*
X62452380Y-148802380D01*
X62309523Y-148850000D01*
X62261904Y-148897619D01*
X61547619Y-148802380D02*
X61547619Y-149516666D01*
X61595238Y-149659523D01*
X61690476Y-149754761D01*
X61833333Y-149802380D01*
X61928571Y-149802380D01*
X60595238Y-149802380D02*
X61071428Y-149802380D01*
X61071428Y-148802380D01*
X59690476Y-149707142D02*
X59738095Y-149754761D01*
X59880952Y-149802380D01*
X59976190Y-149802380D01*
X60119047Y-149754761D01*
X60214285Y-149659523D01*
X60261904Y-149564285D01*
X60309523Y-149373809D01*
X60309523Y-149230952D01*
X60261904Y-149040476D01*
X60214285Y-148945238D01*
X60119047Y-148850000D01*
X59976190Y-148802380D01*
X59880952Y-148802380D01*
X59738095Y-148850000D01*
X59690476Y-148897619D01*
X58976190Y-148802380D02*
X58976190Y-149516666D01*
X59023809Y-149659523D01*
X59119047Y-149754761D01*
X59261904Y-149802380D01*
X59357142Y-149802380D01*
X58023809Y-149802380D02*
X58500000Y-149802380D01*
X58500000Y-148802380D01*
X57119047Y-149707142D02*
X57166666Y-149754761D01*
X57309523Y-149802380D01*
X57404761Y-149802380D01*
X57547619Y-149754761D01*
X57642857Y-149659523D01*
X57690476Y-149564285D01*
X57738095Y-149373809D01*
X57738095Y-149230952D01*
X57690476Y-149040476D01*
X57642857Y-148945238D01*
X57547619Y-148850000D01*
X57404761Y-148802380D01*
X57309523Y-148802380D01*
X57166666Y-148850000D01*
X57119047Y-148897619D01*
X56404761Y-148802380D02*
X56404761Y-149516666D01*
X56452380Y-149659523D01*
X56547619Y-149754761D01*
X56690476Y-149802380D01*
X56785714Y-149802380D01*
X55452380Y-149802380D02*
X55928571Y-149802380D01*
X55928571Y-148802380D01*
X54547619Y-149707142D02*
X54595238Y-149754761D01*
X54738095Y-149802380D01*
X54833333Y-149802380D01*
X54976190Y-149754761D01*
X55071428Y-149659523D01*
X55119047Y-149564285D01*
X55166666Y-149373809D01*
X55166666Y-149230952D01*
X55119047Y-149040476D01*
X55071428Y-148945238D01*
X54976190Y-148850000D01*
X54833333Y-148802380D01*
X54738095Y-148802380D01*
X54595238Y-148850000D01*
X54547619Y-148897619D01*
D11*
X67166666Y-86195238D02*
X67357142Y-86100000D01*
X67547619Y-85909523D01*
X67833333Y-85623809D01*
X68023809Y-85528571D01*
X68214285Y-85528571D01*
X68119047Y-86004761D02*
X68309523Y-85909523D01*
X68500000Y-85719047D01*
X68595238Y-85338095D01*
X68595238Y-84671428D01*
X68500000Y-84290476D01*
X68309523Y-84100000D01*
X68119047Y-84004761D01*
X67738095Y-84004761D01*
X67547619Y-84100000D01*
X67357142Y-84290476D01*
X67261904Y-84671428D01*
X67261904Y-85338095D01*
X67357142Y-85719047D01*
X67547619Y-85909523D01*
X67738095Y-86004761D01*
X68119047Y-86004761D01*
X66404761Y-84957142D02*
X65738095Y-84957142D01*
X65452380Y-86004761D02*
X66404761Y-86004761D01*
X66404761Y-84004761D01*
X65452380Y-84004761D01*
X64690476Y-85909523D02*
X64404761Y-86004761D01*
X63928571Y-86004761D01*
X63738095Y-85909523D01*
X63642857Y-85814285D01*
X63547619Y-85623809D01*
X63547619Y-85433333D01*
X63642857Y-85242857D01*
X63738095Y-85147619D01*
X63928571Y-85052380D01*
X64309523Y-84957142D01*
X64500000Y-84861904D01*
X64595238Y-84766666D01*
X64690476Y-84576190D01*
X64690476Y-84385714D01*
X64595238Y-84195238D01*
X64500000Y-84100000D01*
X64309523Y-84004761D01*
X63833333Y-84004761D01*
X63547619Y-84100000D01*
X61261904Y-84195238D02*
X61166666Y-84100000D01*
X60976190Y-84004761D01*
X60500000Y-84004761D01*
X60309523Y-84100000D01*
X60214285Y-84195238D01*
X60119047Y-84385714D01*
X60119047Y-84576190D01*
X60214285Y-84861904D01*
X61357142Y-86004761D01*
X60119047Y-86004761D01*
X58880952Y-84004761D02*
X58690476Y-84004761D01*
X58500000Y-84100000D01*
X58404761Y-84195238D01*
X58309523Y-84385714D01*
X58214285Y-84766666D01*
X58214285Y-85242857D01*
X58309523Y-85623809D01*
X58404761Y-85814285D01*
X58500000Y-85909523D01*
X58690476Y-86004761D01*
X58880952Y-86004761D01*
X59071428Y-85909523D01*
X59166666Y-85814285D01*
X59261904Y-85623809D01*
X59357142Y-85242857D01*
X59357142Y-84766666D01*
X59261904Y-84385714D01*
X59166666Y-84195238D01*
X59071428Y-84100000D01*
X58880952Y-84004761D01*
X57452380Y-84195238D02*
X57357142Y-84100000D01*
X57166666Y-84004761D01*
X56690476Y-84004761D01*
X56500000Y-84100000D01*
X56404761Y-84195238D01*
X56309523Y-84385714D01*
X56309523Y-84576190D01*
X56404761Y-84861904D01*
X57547619Y-86004761D01*
X56309523Y-86004761D01*
X54404761Y-86004761D02*
X55547619Y-86004761D01*
X54976190Y-86004761D02*
X54976190Y-84004761D01*
X55166666Y-84290476D01*
X55357142Y-84480952D01*
X55547619Y-84576190D01*
D10*
X61722190Y-114922380D02*
X61722190Y-115636666D01*
X61769809Y-115779523D01*
X61865047Y-115874761D01*
X62007904Y-115922380D01*
X62103142Y-115922380D01*
X60817428Y-115255714D02*
X60817428Y-115922380D01*
X61246000Y-115255714D02*
X61246000Y-115779523D01*
X61198380Y-115874761D01*
X61103142Y-115922380D01*
X60960285Y-115922380D01*
X60865047Y-115874761D01*
X60817428Y-115827142D01*
X60341238Y-115922380D02*
X60341238Y-115255714D01*
X60341238Y-115350952D02*
X60293619Y-115303333D01*
X60198380Y-115255714D01*
X60055523Y-115255714D01*
X59960285Y-115303333D01*
X59912666Y-115398571D01*
X59912666Y-115922380D01*
X59912666Y-115398571D02*
X59865047Y-115303333D01*
X59769809Y-115255714D01*
X59626952Y-115255714D01*
X59531714Y-115303333D01*
X59484095Y-115398571D01*
X59484095Y-115922380D01*
X59007904Y-115255714D02*
X59007904Y-116255714D01*
X59007904Y-115303333D02*
X58912666Y-115255714D01*
X58722190Y-115255714D01*
X58626952Y-115303333D01*
X58579333Y-115350952D01*
X58531714Y-115446190D01*
X58531714Y-115731904D01*
X58579333Y-115827142D01*
X58626952Y-115874761D01*
X58722190Y-115922380D01*
X58912666Y-115922380D01*
X59007904Y-115874761D01*
X57722190Y-115874761D02*
X57817428Y-115922380D01*
X58007904Y-115922380D01*
X58103142Y-115874761D01*
X58150761Y-115779523D01*
X58150761Y-115398571D01*
X58103142Y-115303333D01*
X58007904Y-115255714D01*
X57817428Y-115255714D01*
X57722190Y-115303333D01*
X57674571Y-115398571D01*
X57674571Y-115493809D01*
X58150761Y-115589047D01*
X57246000Y-115922380D02*
X57246000Y-115255714D01*
X57246000Y-115446190D02*
X57198380Y-115350952D01*
X57150761Y-115303333D01*
X57055523Y-115255714D01*
X56960285Y-115255714D01*
X56674571Y-115874761D02*
X56579333Y-115922380D01*
X56388857Y-115922380D01*
X56293619Y-115874761D01*
X56246000Y-115779523D01*
X56246000Y-115731904D01*
X56293619Y-115636666D01*
X56388857Y-115589047D01*
X56531714Y-115589047D01*
X56626952Y-115541428D01*
X56674571Y-115446190D01*
X56674571Y-115398571D01*
X56626952Y-115303333D01*
X56531714Y-115255714D01*
X56388857Y-115255714D01*
X56293619Y-115303333D01*
X61722190Y-116582380D02*
X61722190Y-117296666D01*
X61769809Y-117439523D01*
X61865047Y-117534761D01*
X62007904Y-117582380D01*
X62103142Y-117582380D01*
X61293619Y-116677619D02*
X61246000Y-116630000D01*
X61150761Y-116582380D01*
X60912666Y-116582380D01*
X60817428Y-116630000D01*
X60769809Y-116677619D01*
X60722190Y-116772857D01*
X60722190Y-116868095D01*
X60769809Y-117010952D01*
X61341238Y-117582380D01*
X60722190Y-117582380D01*
X59531714Y-117201428D02*
X58769809Y-117201428D01*
X57531714Y-117582380D02*
X57531714Y-116582380D01*
X57150761Y-116582380D01*
X57055523Y-116630000D01*
X57007904Y-116677619D01*
X56960285Y-116772857D01*
X56960285Y-116915714D01*
X57007904Y-117010952D01*
X57055523Y-117058571D01*
X57150761Y-117106190D01*
X57531714Y-117106190D01*
X56388857Y-117582380D02*
X56484095Y-117534761D01*
X56531714Y-117487142D01*
X56579333Y-117391904D01*
X56579333Y-117106190D01*
X56531714Y-117010952D01*
X56484095Y-116963333D01*
X56388857Y-116915714D01*
X56246000Y-116915714D01*
X56150761Y-116963333D01*
X56103142Y-117010952D01*
X56055523Y-117106190D01*
X56055523Y-117391904D01*
X56103142Y-117487142D01*
X56150761Y-117534761D01*
X56246000Y-117582380D01*
X56388857Y-117582380D01*
X55674571Y-117534761D02*
X55579333Y-117582380D01*
X55388857Y-117582380D01*
X55293619Y-117534761D01*
X55246000Y-117439523D01*
X55246000Y-117391904D01*
X55293619Y-117296666D01*
X55388857Y-117249047D01*
X55531714Y-117249047D01*
X55626952Y-117201428D01*
X55674571Y-117106190D01*
X55674571Y-117058571D01*
X55626952Y-116963333D01*
X55531714Y-116915714D01*
X55388857Y-116915714D01*
X55293619Y-116963333D01*
X54817428Y-117582380D02*
X54817428Y-116915714D01*
X54817428Y-116582380D02*
X54865047Y-116630000D01*
X54817428Y-116677619D01*
X54769809Y-116630000D01*
X54817428Y-116582380D01*
X54817428Y-116677619D01*
X54484095Y-116915714D02*
X54103142Y-116915714D01*
X54341238Y-116582380D02*
X54341238Y-117439523D01*
X54293619Y-117534761D01*
X54198380Y-117582380D01*
X54103142Y-117582380D01*
X53769809Y-117582380D02*
X53769809Y-116915714D01*
X53769809Y-116582380D02*
X53817428Y-116630000D01*
X53769809Y-116677619D01*
X53722190Y-116630000D01*
X53769809Y-116582380D01*
X53769809Y-116677619D01*
X53150761Y-117582380D02*
X53246000Y-117534761D01*
X53293619Y-117487142D01*
X53341238Y-117391904D01*
X53341238Y-117106190D01*
X53293619Y-117010952D01*
X53246000Y-116963333D01*
X53150761Y-116915714D01*
X53007904Y-116915714D01*
X52912666Y-116963333D01*
X52865047Y-117010952D01*
X52817428Y-117106190D01*
X52817428Y-117391904D01*
X52865047Y-117487142D01*
X52912666Y-117534761D01*
X53007904Y-117582380D01*
X53150761Y-117582380D01*
X52388857Y-116915714D02*
X52388857Y-117582380D01*
X52388857Y-117010952D02*
X52341238Y-116963333D01*
X52246000Y-116915714D01*
X52103142Y-116915714D01*
X52007904Y-116963333D01*
X51960285Y-117058571D01*
X51960285Y-117582380D01*
X50198380Y-117582380D02*
X50769809Y-117582380D01*
X50484095Y-117582380D02*
X50484095Y-116582380D01*
X50579333Y-116725238D01*
X50674571Y-116820476D01*
X50769809Y-116868095D01*
X49769809Y-117201428D02*
X49007904Y-117201428D01*
X48579333Y-116677619D02*
X48531714Y-116630000D01*
X48436476Y-116582380D01*
X48198380Y-116582380D01*
X48103142Y-116630000D01*
X48055523Y-116677619D01*
X48007904Y-116772857D01*
X48007904Y-116868095D01*
X48055523Y-117010952D01*
X48626952Y-117582380D01*
X48007904Y-117582380D01*
X46817428Y-117058571D02*
X46055523Y-117058571D01*
X46055523Y-117344285D02*
X46817428Y-117344285D01*
X44341238Y-116582380D02*
X44817428Y-116582380D01*
X44865047Y-117058571D01*
X44817428Y-117010952D01*
X44722190Y-116963333D01*
X44484095Y-116963333D01*
X44388857Y-117010952D01*
X44341238Y-117058571D01*
X44293619Y-117153809D01*
X44293619Y-117391904D01*
X44341238Y-117487142D01*
X44388857Y-117534761D01*
X44484095Y-117582380D01*
X44722190Y-117582380D01*
X44817428Y-117534761D01*
X44865047Y-117487142D01*
X44007904Y-116582380D02*
X43674571Y-117582380D01*
X43341238Y-116582380D01*
X42388857Y-116915714D02*
X42007904Y-116915714D01*
X42246000Y-117582380D02*
X42246000Y-116725238D01*
X42198380Y-116630000D01*
X42103142Y-116582380D01*
X42007904Y-116582380D01*
X41674571Y-117582380D02*
X41674571Y-116915714D01*
X41674571Y-117106190D02*
X41626952Y-117010952D01*
X41579333Y-116963333D01*
X41484095Y-116915714D01*
X41388857Y-116915714D01*
X40912666Y-117582380D02*
X41007904Y-117534761D01*
X41055523Y-117487142D01*
X41103142Y-117391904D01*
X41103142Y-117106190D01*
X41055523Y-117010952D01*
X41007904Y-116963333D01*
X40912666Y-116915714D01*
X40769809Y-116915714D01*
X40674571Y-116963333D01*
X40626952Y-117010952D01*
X40579333Y-117106190D01*
X40579333Y-117391904D01*
X40626952Y-117487142D01*
X40674571Y-117534761D01*
X40769809Y-117582380D01*
X40912666Y-117582380D01*
X40150761Y-117582380D02*
X40150761Y-116915714D01*
X40150761Y-117010952D02*
X40103142Y-116963333D01*
X40007904Y-116915714D01*
X39865047Y-116915714D01*
X39769809Y-116963333D01*
X39722190Y-117058571D01*
X39722190Y-117582380D01*
X39722190Y-117058571D02*
X39674571Y-116963333D01*
X39579333Y-116915714D01*
X39436476Y-116915714D01*
X39341238Y-116963333D01*
X39293619Y-117058571D01*
X39293619Y-117582380D01*
X38198380Y-116582380D02*
X37865047Y-117582380D01*
X37531714Y-116582380D01*
X37198380Y-117582380D02*
X37198380Y-116915714D01*
X37198380Y-116582380D02*
X37246000Y-116630000D01*
X37198380Y-116677619D01*
X37150761Y-116630000D01*
X37198380Y-116582380D01*
X37198380Y-116677619D01*
X36722190Y-116915714D02*
X36722190Y-117582380D01*
X36722190Y-117010952D02*
X36674571Y-116963333D01*
X36579333Y-116915714D01*
X36436476Y-116915714D01*
X36341238Y-116963333D01*
X36293619Y-117058571D01*
X36293619Y-117582380D01*
X57436476Y-119242380D02*
X57436476Y-118242380D01*
X57055523Y-118242380D01*
X56960285Y-118290000D01*
X56912666Y-118337619D01*
X56865047Y-118432857D01*
X56865047Y-118575714D01*
X56912666Y-118670952D01*
X56960285Y-118718571D01*
X57055523Y-118766190D01*
X57436476Y-118766190D01*
X56293619Y-119242380D02*
X56388857Y-119194761D01*
X56436476Y-119147142D01*
X56484095Y-119051904D01*
X56484095Y-118766190D01*
X56436476Y-118670952D01*
X56388857Y-118623333D01*
X56293619Y-118575714D01*
X56150761Y-118575714D01*
X56055523Y-118623333D01*
X56007904Y-118670952D01*
X55960285Y-118766190D01*
X55960285Y-119051904D01*
X56007904Y-119147142D01*
X56055523Y-119194761D01*
X56150761Y-119242380D01*
X56293619Y-119242380D01*
X55579333Y-119194761D02*
X55484095Y-119242380D01*
X55293619Y-119242380D01*
X55198380Y-119194761D01*
X55150761Y-119099523D01*
X55150761Y-119051904D01*
X55198380Y-118956666D01*
X55293619Y-118909047D01*
X55436476Y-118909047D01*
X55531714Y-118861428D01*
X55579333Y-118766190D01*
X55579333Y-118718571D01*
X55531714Y-118623333D01*
X55436476Y-118575714D01*
X55293619Y-118575714D01*
X55198380Y-118623333D01*
X54722190Y-119242380D02*
X54722190Y-118575714D01*
X54722190Y-118242380D02*
X54769809Y-118290000D01*
X54722190Y-118337619D01*
X54674571Y-118290000D01*
X54722190Y-118242380D01*
X54722190Y-118337619D01*
X54388857Y-118575714D02*
X54007904Y-118575714D01*
X54246000Y-118242380D02*
X54246000Y-119099523D01*
X54198380Y-119194761D01*
X54103142Y-119242380D01*
X54007904Y-119242380D01*
X53674571Y-119242380D02*
X53674571Y-118575714D01*
X53674571Y-118242380D02*
X53722190Y-118290000D01*
X53674571Y-118337619D01*
X53626952Y-118290000D01*
X53674571Y-118242380D01*
X53674571Y-118337619D01*
X53055523Y-119242380D02*
X53150761Y-119194761D01*
X53198380Y-119147142D01*
X53246000Y-119051904D01*
X53246000Y-118766190D01*
X53198380Y-118670952D01*
X53150761Y-118623333D01*
X53055523Y-118575714D01*
X52912666Y-118575714D01*
X52817428Y-118623333D01*
X52769809Y-118670952D01*
X52722190Y-118766190D01*
X52722190Y-119051904D01*
X52769809Y-119147142D01*
X52817428Y-119194761D01*
X52912666Y-119242380D01*
X53055523Y-119242380D01*
X52293619Y-118575714D02*
X52293619Y-119242380D01*
X52293619Y-118670952D02*
X52246000Y-118623333D01*
X52150761Y-118575714D01*
X52007904Y-118575714D01*
X51912666Y-118623333D01*
X51865047Y-118718571D01*
X51865047Y-119242380D01*
X50722190Y-118242380D02*
X50103142Y-118242380D01*
X50436476Y-118623333D01*
X50293619Y-118623333D01*
X50198380Y-118670952D01*
X50150761Y-118718571D01*
X50103142Y-118813809D01*
X50103142Y-119051904D01*
X50150761Y-119147142D01*
X50198380Y-119194761D01*
X50293619Y-119242380D01*
X50579333Y-119242380D01*
X50674571Y-119194761D01*
X50722190Y-119147142D01*
X49674571Y-118861428D02*
X48912666Y-118861428D01*
X48007904Y-118575714D02*
X48007904Y-119242380D01*
X48246000Y-118194761D02*
X48484095Y-118909047D01*
X47865047Y-118909047D01*
X46722190Y-118718571D02*
X45960285Y-118718571D01*
X45960285Y-119004285D02*
X46722190Y-119004285D01*
X44246000Y-118242380D02*
X44722190Y-118242380D01*
X44769809Y-118718571D01*
X44722190Y-118670952D01*
X44626952Y-118623333D01*
X44388857Y-118623333D01*
X44293619Y-118670952D01*
X44246000Y-118718571D01*
X44198380Y-118813809D01*
X44198380Y-119051904D01*
X44246000Y-119147142D01*
X44293619Y-119194761D01*
X44388857Y-119242380D01*
X44626952Y-119242380D01*
X44722190Y-119194761D01*
X44769809Y-119147142D01*
X43912666Y-118242380D02*
X43579333Y-119242380D01*
X43246000Y-118242380D01*
X42293619Y-118575714D02*
X41912666Y-118575714D01*
X42150761Y-119242380D02*
X42150761Y-118385238D01*
X42103142Y-118290000D01*
X42007904Y-118242380D01*
X41912666Y-118242380D01*
X41579333Y-119242380D02*
X41579333Y-118575714D01*
X41579333Y-118766190D02*
X41531714Y-118670952D01*
X41484095Y-118623333D01*
X41388857Y-118575714D01*
X41293619Y-118575714D01*
X40817428Y-119242380D02*
X40912666Y-119194761D01*
X40960285Y-119147142D01*
X41007904Y-119051904D01*
X41007904Y-118766190D01*
X40960285Y-118670952D01*
X40912666Y-118623333D01*
X40817428Y-118575714D01*
X40674571Y-118575714D01*
X40579333Y-118623333D01*
X40531714Y-118670952D01*
X40484095Y-118766190D01*
X40484095Y-119051904D01*
X40531714Y-119147142D01*
X40579333Y-119194761D01*
X40674571Y-119242380D01*
X40817428Y-119242380D01*
X40055523Y-119242380D02*
X40055523Y-118575714D01*
X40055523Y-118670952D02*
X40007904Y-118623333D01*
X39912666Y-118575714D01*
X39769809Y-118575714D01*
X39674571Y-118623333D01*
X39626952Y-118718571D01*
X39626952Y-119242380D01*
X39626952Y-118718571D02*
X39579333Y-118623333D01*
X39484095Y-118575714D01*
X39341238Y-118575714D01*
X39246000Y-118623333D01*
X39198380Y-118718571D01*
X39198380Y-119242380D01*
X37960285Y-118242380D02*
X37960285Y-119051904D01*
X37912666Y-119147142D01*
X37865047Y-119194761D01*
X37769809Y-119242380D01*
X37579333Y-119242380D01*
X37484095Y-119194761D01*
X37436476Y-119147142D01*
X37388857Y-119051904D01*
X37388857Y-118242380D01*
X36960285Y-119194761D02*
X36817428Y-119242380D01*
X36579333Y-119242380D01*
X36484095Y-119194761D01*
X36436476Y-119147142D01*
X36388857Y-119051904D01*
X36388857Y-118956666D01*
X36436476Y-118861428D01*
X36484095Y-118813809D01*
X36579333Y-118766190D01*
X36769809Y-118718571D01*
X36865047Y-118670952D01*
X36912666Y-118623333D01*
X36960285Y-118528095D01*
X36960285Y-118432857D01*
X36912666Y-118337619D01*
X36865047Y-118290000D01*
X36769809Y-118242380D01*
X36531714Y-118242380D01*
X36388857Y-118290000D01*
X35626952Y-118718571D02*
X35484095Y-118766190D01*
X35436476Y-118813809D01*
X35388857Y-118909047D01*
X35388857Y-119051904D01*
X35436476Y-119147142D01*
X35484095Y-119194761D01*
X35579333Y-119242380D01*
X35960285Y-119242380D01*
X35960285Y-118242380D01*
X35626952Y-118242380D01*
X35531714Y-118290000D01*
X35484095Y-118337619D01*
X35436476Y-118432857D01*
X35436476Y-118528095D01*
X35484095Y-118623333D01*
X35531714Y-118670952D01*
X35626952Y-118718571D01*
X35960285Y-118718571D01*
X61722190Y-119902380D02*
X61722190Y-120616666D01*
X61769809Y-120759523D01*
X61865047Y-120854761D01*
X62007904Y-120902380D01*
X62103142Y-120902380D01*
X60769809Y-119902380D02*
X61246000Y-119902380D01*
X61293619Y-120378571D01*
X61246000Y-120330952D01*
X61150761Y-120283333D01*
X60912666Y-120283333D01*
X60817428Y-120330952D01*
X60769809Y-120378571D01*
X60722190Y-120473809D01*
X60722190Y-120711904D01*
X60769809Y-120807142D01*
X60817428Y-120854761D01*
X60912666Y-120902380D01*
X61150761Y-120902380D01*
X61246000Y-120854761D01*
X61293619Y-120807142D01*
X58960285Y-120807142D02*
X59007904Y-120854761D01*
X59150761Y-120902380D01*
X59246000Y-120902380D01*
X59388857Y-120854761D01*
X59484095Y-120759523D01*
X59531714Y-120664285D01*
X59579333Y-120473809D01*
X59579333Y-120330952D01*
X59531714Y-120140476D01*
X59484095Y-120045238D01*
X59388857Y-119950000D01*
X59246000Y-119902380D01*
X59150761Y-119902380D01*
X59007904Y-119950000D01*
X58960285Y-119997619D01*
X58579333Y-120616666D02*
X58103142Y-120616666D01*
X58674571Y-120902380D02*
X58341238Y-119902380D01*
X58007904Y-120902380D01*
X57674571Y-120902380D02*
X57674571Y-119902380D01*
X57103142Y-120902380D01*
X57103142Y-119902380D01*
X56007904Y-120235714D02*
X55626952Y-120235714D01*
X55865047Y-119902380D02*
X55865047Y-120759523D01*
X55817428Y-120854761D01*
X55722190Y-120902380D01*
X55626952Y-120902380D01*
X54912666Y-120854761D02*
X55007904Y-120902380D01*
X55198380Y-120902380D01*
X55293619Y-120854761D01*
X55341238Y-120759523D01*
X55341238Y-120378571D01*
X55293619Y-120283333D01*
X55198380Y-120235714D01*
X55007904Y-120235714D01*
X54912666Y-120283333D01*
X54865047Y-120378571D01*
X54865047Y-120473809D01*
X55341238Y-120569047D01*
X54436476Y-120902380D02*
X54436476Y-120235714D01*
X54436476Y-120426190D02*
X54388857Y-120330952D01*
X54341238Y-120283333D01*
X54246000Y-120235714D01*
X54150761Y-120235714D01*
X53817428Y-120902380D02*
X53817428Y-120235714D01*
X53817428Y-120330952D02*
X53769809Y-120283333D01*
X53674571Y-120235714D01*
X53531714Y-120235714D01*
X53436476Y-120283333D01*
X53388857Y-120378571D01*
X53388857Y-120902380D01*
X53388857Y-120378571D02*
X53341238Y-120283333D01*
X53246000Y-120235714D01*
X53103142Y-120235714D01*
X53007904Y-120283333D01*
X52960285Y-120378571D01*
X52960285Y-120902380D01*
X52484095Y-120902380D02*
X52484095Y-120235714D01*
X52484095Y-119902380D02*
X52531714Y-119950000D01*
X52484095Y-119997619D01*
X52436476Y-119950000D01*
X52484095Y-119902380D01*
X52484095Y-119997619D01*
X52007904Y-120235714D02*
X52007904Y-120902380D01*
X52007904Y-120330952D02*
X51960285Y-120283333D01*
X51865047Y-120235714D01*
X51722190Y-120235714D01*
X51626952Y-120283333D01*
X51579333Y-120378571D01*
X51579333Y-120902380D01*
X50674571Y-120902380D02*
X50674571Y-120378571D01*
X50722190Y-120283333D01*
X50817428Y-120235714D01*
X51007904Y-120235714D01*
X51103142Y-120283333D01*
X50674571Y-120854761D02*
X50769809Y-120902380D01*
X51007904Y-120902380D01*
X51103142Y-120854761D01*
X51150761Y-120759523D01*
X51150761Y-120664285D01*
X51103142Y-120569047D01*
X51007904Y-120521428D01*
X50769809Y-120521428D01*
X50674571Y-120473809D01*
X50341238Y-120235714D02*
X49960285Y-120235714D01*
X50198380Y-119902380D02*
X50198380Y-120759523D01*
X50150761Y-120854761D01*
X50055523Y-120902380D01*
X49960285Y-120902380D01*
X49626952Y-120902380D02*
X49626952Y-120235714D01*
X49626952Y-119902380D02*
X49674571Y-119950000D01*
X49626952Y-119997619D01*
X49579333Y-119950000D01*
X49626952Y-119902380D01*
X49626952Y-119997619D01*
X49007904Y-120902380D02*
X49103142Y-120854761D01*
X49150761Y-120807142D01*
X49198380Y-120711904D01*
X49198380Y-120426190D01*
X49150761Y-120330952D01*
X49103142Y-120283333D01*
X49007904Y-120235714D01*
X48865047Y-120235714D01*
X48769809Y-120283333D01*
X48722190Y-120330952D01*
X48674571Y-120426190D01*
X48674571Y-120711904D01*
X48722190Y-120807142D01*
X48769809Y-120854761D01*
X48865047Y-120902380D01*
X49007904Y-120902380D01*
X48246000Y-120235714D02*
X48246000Y-120902380D01*
X48246000Y-120330952D02*
X48198380Y-120283333D01*
X48103142Y-120235714D01*
X47960285Y-120235714D01*
X47865047Y-120283333D01*
X47817428Y-120378571D01*
X47817428Y-120902380D01*
X46198380Y-120854761D02*
X46293619Y-120902380D01*
X46484095Y-120902380D01*
X46579333Y-120854761D01*
X46626952Y-120759523D01*
X46626952Y-120378571D01*
X46579333Y-120283333D01*
X46484095Y-120235714D01*
X46293619Y-120235714D01*
X46198380Y-120283333D01*
X46150761Y-120378571D01*
X46150761Y-120473809D01*
X46626952Y-120569047D01*
X45722190Y-120235714D02*
X45722190Y-120902380D01*
X45722190Y-120330952D02*
X45674571Y-120283333D01*
X45579333Y-120235714D01*
X45436476Y-120235714D01*
X45341238Y-120283333D01*
X45293619Y-120378571D01*
X45293619Y-120902380D01*
X44388857Y-120902380D02*
X44388857Y-120378571D01*
X44436476Y-120283333D01*
X44531714Y-120235714D01*
X44722190Y-120235714D01*
X44817428Y-120283333D01*
X44388857Y-120854761D02*
X44484095Y-120902380D01*
X44722190Y-120902380D01*
X44817428Y-120854761D01*
X44865047Y-120759523D01*
X44865047Y-120664285D01*
X44817428Y-120569047D01*
X44722190Y-120521428D01*
X44484095Y-120521428D01*
X44388857Y-120473809D01*
X43912666Y-120902380D02*
X43912666Y-119902380D01*
X43912666Y-120283333D02*
X43817428Y-120235714D01*
X43626952Y-120235714D01*
X43531714Y-120283333D01*
X43484095Y-120330952D01*
X43436476Y-120426190D01*
X43436476Y-120711904D01*
X43484095Y-120807142D01*
X43531714Y-120854761D01*
X43626952Y-120902380D01*
X43817428Y-120902380D01*
X43912666Y-120854761D01*
X42865047Y-120902380D02*
X42960285Y-120854761D01*
X43007904Y-120759523D01*
X43007904Y-119902380D01*
X42103142Y-120854761D02*
X42198380Y-120902380D01*
X42388857Y-120902380D01*
X42484095Y-120854761D01*
X42531714Y-120759523D01*
X42531714Y-120378571D01*
X42484095Y-120283333D01*
X42388857Y-120235714D01*
X42198380Y-120235714D01*
X42103142Y-120283333D01*
X42055523Y-120378571D01*
X42055523Y-120473809D01*
X42531714Y-120569047D01*
X61722190Y-121562380D02*
X61722190Y-122276666D01*
X61769809Y-122419523D01*
X61865047Y-122514761D01*
X62007904Y-122562380D01*
X62103142Y-122562380D01*
X61341238Y-121562380D02*
X60674571Y-121562380D01*
X61103142Y-122562380D01*
X59055523Y-122562380D02*
X59531714Y-122562380D01*
X59531714Y-121562380D01*
X58722190Y-122038571D02*
X58388857Y-122038571D01*
X58246000Y-122562380D02*
X58722190Y-122562380D01*
X58722190Y-121562380D01*
X58246000Y-121562380D01*
X57817428Y-122562380D02*
X57817428Y-121562380D01*
X57579333Y-121562380D01*
X57436476Y-121610000D01*
X57341238Y-121705238D01*
X57293619Y-121800476D01*
X57246000Y-121990952D01*
X57246000Y-122133809D01*
X57293619Y-122324285D01*
X57341238Y-122419523D01*
X57436476Y-122514761D01*
X57579333Y-122562380D01*
X57817428Y-122562380D01*
X56055523Y-122562380D02*
X56055523Y-121562380D01*
X55817428Y-121562380D01*
X55674571Y-121610000D01*
X55579333Y-121705238D01*
X55531714Y-121800476D01*
X55484095Y-121990952D01*
X55484095Y-122133809D01*
X55531714Y-122324285D01*
X55579333Y-122419523D01*
X55674571Y-122514761D01*
X55817428Y-122562380D01*
X56055523Y-122562380D01*
X54579333Y-121562380D02*
X55055523Y-121562380D01*
X55103142Y-122038571D01*
X55055523Y-121990952D01*
X54960285Y-121943333D01*
X54722190Y-121943333D01*
X54626952Y-121990952D01*
X54579333Y-122038571D01*
X54531714Y-122133809D01*
X54531714Y-122371904D01*
X54579333Y-122467142D01*
X54626952Y-122514761D01*
X54722190Y-122562380D01*
X54960285Y-122562380D01*
X55055523Y-122514761D01*
X55103142Y-122467142D01*
X54055523Y-122514761D02*
X54055523Y-122562380D01*
X54103142Y-122657619D01*
X54150761Y-122705238D01*
X52865047Y-122562380D02*
X52865047Y-121562380D01*
X52626952Y-121562380D01*
X52484095Y-121610000D01*
X52388857Y-121705238D01*
X52341238Y-121800476D01*
X52293619Y-121990952D01*
X52293619Y-122133809D01*
X52341238Y-122324285D01*
X52388857Y-122419523D01*
X52484095Y-122514761D01*
X52626952Y-122562380D01*
X52865047Y-122562380D01*
X51436476Y-121562380D02*
X51626952Y-121562380D01*
X51722190Y-121610000D01*
X51769809Y-121657619D01*
X51865047Y-121800476D01*
X51912666Y-121990952D01*
X51912666Y-122371904D01*
X51865047Y-122467142D01*
X51817428Y-122514761D01*
X51722190Y-122562380D01*
X51531714Y-122562380D01*
X51436476Y-122514761D01*
X51388857Y-122467142D01*
X51341238Y-122371904D01*
X51341238Y-122133809D01*
X51388857Y-122038571D01*
X51436476Y-121990952D01*
X51531714Y-121943333D01*
X51722190Y-121943333D01*
X51817428Y-121990952D01*
X51865047Y-122038571D01*
X51912666Y-122133809D01*
X49769809Y-122514761D02*
X49865047Y-122562380D01*
X50055523Y-122562380D01*
X50150761Y-122514761D01*
X50198380Y-122419523D01*
X50198380Y-122038571D01*
X50150761Y-121943333D01*
X50055523Y-121895714D01*
X49865047Y-121895714D01*
X49769809Y-121943333D01*
X49722190Y-122038571D01*
X49722190Y-122133809D01*
X50198380Y-122229047D01*
X49293619Y-121895714D02*
X49293619Y-122562380D01*
X49293619Y-121990952D02*
X49246000Y-121943333D01*
X49150761Y-121895714D01*
X49007904Y-121895714D01*
X48912666Y-121943333D01*
X48865047Y-122038571D01*
X48865047Y-122562380D01*
X47960285Y-122562380D02*
X47960285Y-122038571D01*
X48007904Y-121943333D01*
X48103142Y-121895714D01*
X48293619Y-121895714D01*
X48388857Y-121943333D01*
X47960285Y-122514761D02*
X48055523Y-122562380D01*
X48293619Y-122562380D01*
X48388857Y-122514761D01*
X48436476Y-122419523D01*
X48436476Y-122324285D01*
X48388857Y-122229047D01*
X48293619Y-122181428D01*
X48055523Y-122181428D01*
X47960285Y-122133809D01*
X47484095Y-122562380D02*
X47484095Y-121562380D01*
X47484095Y-121943333D02*
X47388857Y-121895714D01*
X47198380Y-121895714D01*
X47103142Y-121943333D01*
X47055523Y-121990952D01*
X47007904Y-122086190D01*
X47007904Y-122371904D01*
X47055523Y-122467142D01*
X47103142Y-122514761D01*
X47198380Y-122562380D01*
X47388857Y-122562380D01*
X47484095Y-122514761D01*
X46436476Y-122562380D02*
X46531714Y-122514761D01*
X46579333Y-122419523D01*
X46579333Y-121562380D01*
X45674571Y-122514761D02*
X45769809Y-122562380D01*
X45960285Y-122562380D01*
X46055523Y-122514761D01*
X46103142Y-122419523D01*
X46103142Y-122038571D01*
X46055523Y-121943333D01*
X45960285Y-121895714D01*
X45769809Y-121895714D01*
X45674571Y-121943333D01*
X45626952Y-122038571D01*
X45626952Y-122133809D01*
X46103142Y-122229047D01*
X61722190Y-123222380D02*
X61722190Y-123936666D01*
X61769809Y-124079523D01*
X61865047Y-124174761D01*
X62007904Y-124222380D01*
X62103142Y-124222380D01*
X61103142Y-123650952D02*
X61198380Y-123603333D01*
X61246000Y-123555714D01*
X61293619Y-123460476D01*
X61293619Y-123412857D01*
X61246000Y-123317619D01*
X61198380Y-123270000D01*
X61103142Y-123222380D01*
X60912666Y-123222380D01*
X60817428Y-123270000D01*
X60769809Y-123317619D01*
X60722190Y-123412857D01*
X60722190Y-123460476D01*
X60769809Y-123555714D01*
X60817428Y-123603333D01*
X60912666Y-123650952D01*
X61103142Y-123650952D01*
X61198380Y-123698571D01*
X61246000Y-123746190D01*
X61293619Y-123841428D01*
X61293619Y-124031904D01*
X61246000Y-124127142D01*
X61198380Y-124174761D01*
X61103142Y-124222380D01*
X60912666Y-124222380D01*
X60817428Y-124174761D01*
X60769809Y-124127142D01*
X60722190Y-124031904D01*
X60722190Y-123841428D01*
X60769809Y-123746190D01*
X60817428Y-123698571D01*
X60912666Y-123650952D01*
X59055523Y-124222380D02*
X59531714Y-124222380D01*
X59531714Y-123222380D01*
X58722190Y-123698571D02*
X58388857Y-123698571D01*
X58246000Y-124222380D02*
X58722190Y-124222380D01*
X58722190Y-123222380D01*
X58246000Y-123222380D01*
X57817428Y-124222380D02*
X57817428Y-123222380D01*
X57579333Y-123222380D01*
X57436476Y-123270000D01*
X57341238Y-123365238D01*
X57293619Y-123460476D01*
X57246000Y-123650952D01*
X57246000Y-123793809D01*
X57293619Y-123984285D01*
X57341238Y-124079523D01*
X57436476Y-124174761D01*
X57579333Y-124222380D01*
X57817428Y-124222380D01*
X56055523Y-124222380D02*
X56055523Y-123222380D01*
X55817428Y-123222380D01*
X55674571Y-123270000D01*
X55579333Y-123365238D01*
X55531714Y-123460476D01*
X55484095Y-123650952D01*
X55484095Y-123793809D01*
X55531714Y-123984285D01*
X55579333Y-124079523D01*
X55674571Y-124174761D01*
X55817428Y-124222380D01*
X56055523Y-124222380D01*
X55150761Y-123222380D02*
X54484095Y-123222380D01*
X54912666Y-124222380D01*
X54055523Y-124174761D02*
X54055523Y-124222380D01*
X54103142Y-124317619D01*
X54150761Y-124365238D01*
X52865047Y-124222380D02*
X52865047Y-123222380D01*
X52626952Y-123222380D01*
X52484095Y-123270000D01*
X52388857Y-123365238D01*
X52341238Y-123460476D01*
X52293619Y-123650952D01*
X52293619Y-123793809D01*
X52341238Y-123984285D01*
X52388857Y-124079523D01*
X52484095Y-124174761D01*
X52626952Y-124222380D01*
X52865047Y-124222380D01*
X51722190Y-123650952D02*
X51817428Y-123603333D01*
X51865047Y-123555714D01*
X51912666Y-123460476D01*
X51912666Y-123412857D01*
X51865047Y-123317619D01*
X51817428Y-123270000D01*
X51722190Y-123222380D01*
X51531714Y-123222380D01*
X51436476Y-123270000D01*
X51388857Y-123317619D01*
X51341238Y-123412857D01*
X51341238Y-123460476D01*
X51388857Y-123555714D01*
X51436476Y-123603333D01*
X51531714Y-123650952D01*
X51722190Y-123650952D01*
X51817428Y-123698571D01*
X51865047Y-123746190D01*
X51912666Y-123841428D01*
X51912666Y-124031904D01*
X51865047Y-124127142D01*
X51817428Y-124174761D01*
X51722190Y-124222380D01*
X51531714Y-124222380D01*
X51436476Y-124174761D01*
X51388857Y-124127142D01*
X51341238Y-124031904D01*
X51341238Y-123841428D01*
X51388857Y-123746190D01*
X51436476Y-123698571D01*
X51531714Y-123650952D01*
X49769809Y-124174761D02*
X49865047Y-124222380D01*
X50055523Y-124222380D01*
X50150761Y-124174761D01*
X50198380Y-124079523D01*
X50198380Y-123698571D01*
X50150761Y-123603333D01*
X50055523Y-123555714D01*
X49865047Y-123555714D01*
X49769809Y-123603333D01*
X49722190Y-123698571D01*
X49722190Y-123793809D01*
X50198380Y-123889047D01*
X49293619Y-123555714D02*
X49293619Y-124222380D01*
X49293619Y-123650952D02*
X49246000Y-123603333D01*
X49150761Y-123555714D01*
X49007904Y-123555714D01*
X48912666Y-123603333D01*
X48865047Y-123698571D01*
X48865047Y-124222380D01*
X47960285Y-124222380D02*
X47960285Y-123698571D01*
X48007904Y-123603333D01*
X48103142Y-123555714D01*
X48293619Y-123555714D01*
X48388857Y-123603333D01*
X47960285Y-124174761D02*
X48055523Y-124222380D01*
X48293619Y-124222380D01*
X48388857Y-124174761D01*
X48436476Y-124079523D01*
X48436476Y-123984285D01*
X48388857Y-123889047D01*
X48293619Y-123841428D01*
X48055523Y-123841428D01*
X47960285Y-123793809D01*
X47484095Y-124222380D02*
X47484095Y-123222380D01*
X47484095Y-123603333D02*
X47388857Y-123555714D01*
X47198380Y-123555714D01*
X47103142Y-123603333D01*
X47055523Y-123650952D01*
X47007904Y-123746190D01*
X47007904Y-124031904D01*
X47055523Y-124127142D01*
X47103142Y-124174761D01*
X47198380Y-124222380D01*
X47388857Y-124222380D01*
X47484095Y-124174761D01*
X46436476Y-124222380D02*
X46531714Y-124174761D01*
X46579333Y-124079523D01*
X46579333Y-123222380D01*
X45674571Y-124174761D02*
X45769809Y-124222380D01*
X45960285Y-124222380D01*
X46055523Y-124174761D01*
X46103142Y-124079523D01*
X46103142Y-123698571D01*
X46055523Y-123603333D01*
X45960285Y-123555714D01*
X45769809Y-123555714D01*
X45674571Y-123603333D01*
X45626952Y-123698571D01*
X45626952Y-123793809D01*
X46103142Y-123889047D01*
X61722190Y-124882380D02*
X61722190Y-125596666D01*
X61769809Y-125739523D01*
X61865047Y-125834761D01*
X62007904Y-125882380D01*
X62103142Y-125882380D01*
X60722190Y-125882380D02*
X61293619Y-125882380D01*
X61007904Y-125882380D02*
X61007904Y-124882380D01*
X61103142Y-125025238D01*
X61198380Y-125120476D01*
X61293619Y-125168095D01*
X60388857Y-124882380D02*
X59769809Y-124882380D01*
X60103142Y-125263333D01*
X59960285Y-125263333D01*
X59865047Y-125310952D01*
X59817428Y-125358571D01*
X59769809Y-125453809D01*
X59769809Y-125691904D01*
X59817428Y-125787142D01*
X59865047Y-125834761D01*
X59960285Y-125882380D01*
X60246000Y-125882380D01*
X60341238Y-125834761D01*
X60388857Y-125787142D01*
X59293619Y-125834761D02*
X59293619Y-125882380D01*
X59341238Y-125977619D01*
X59388857Y-126025238D01*
X57817428Y-124882380D02*
X57817428Y-125596666D01*
X57865047Y-125739523D01*
X57960285Y-125834761D01*
X58103142Y-125882380D01*
X58198380Y-125882380D01*
X56817428Y-125882380D02*
X57388857Y-125882380D01*
X57103142Y-125882380D02*
X57103142Y-124882380D01*
X57198380Y-125025238D01*
X57293619Y-125120476D01*
X57388857Y-125168095D01*
X55960285Y-124882380D02*
X56150761Y-124882380D01*
X56246000Y-124930000D01*
X56293619Y-124977619D01*
X56388857Y-125120476D01*
X56436476Y-125310952D01*
X56436476Y-125691904D01*
X56388857Y-125787142D01*
X56341238Y-125834761D01*
X56246000Y-125882380D01*
X56055523Y-125882380D01*
X55960285Y-125834761D01*
X55912666Y-125787142D01*
X55865047Y-125691904D01*
X55865047Y-125453809D01*
X55912666Y-125358571D01*
X55960285Y-125310952D01*
X56055523Y-125263333D01*
X56246000Y-125263333D01*
X56341238Y-125310952D01*
X56388857Y-125358571D01*
X56436476Y-125453809D01*
X54817428Y-124882380D02*
X54246000Y-124882380D01*
X54531714Y-125882380D02*
X54531714Y-124882380D01*
X54007904Y-124882380D02*
X53769809Y-125882380D01*
X53579333Y-125168095D01*
X53388857Y-125882380D01*
X53150761Y-124882380D01*
X52769809Y-125882380D02*
X52769809Y-124882380D01*
X51531714Y-125215714D02*
X51531714Y-126215714D01*
X51531714Y-125263333D02*
X51436476Y-125215714D01*
X51246000Y-125215714D01*
X51150761Y-125263333D01*
X51103142Y-125310952D01*
X51055523Y-125406190D01*
X51055523Y-125691904D01*
X51103142Y-125787142D01*
X51150761Y-125834761D01*
X51246000Y-125882380D01*
X51436476Y-125882380D01*
X51531714Y-125834761D01*
X50198380Y-125215714D02*
X50198380Y-125882380D01*
X50626952Y-125215714D02*
X50626952Y-125739523D01*
X50579333Y-125834761D01*
X50484095Y-125882380D01*
X50341238Y-125882380D01*
X50246000Y-125834761D01*
X50198380Y-125787142D01*
X49579333Y-125882380D02*
X49674571Y-125834761D01*
X49722190Y-125739523D01*
X49722190Y-124882380D01*
X49055523Y-125882380D02*
X49150761Y-125834761D01*
X49198380Y-125739523D01*
X49198380Y-124882380D01*
X48246000Y-125215714D02*
X48246000Y-125882380D01*
X48674571Y-125215714D02*
X48674571Y-125739523D01*
X48626952Y-125834761D01*
X48531714Y-125882380D01*
X48388857Y-125882380D01*
X48293619Y-125834761D01*
X48246000Y-125787142D01*
X47769809Y-125215714D02*
X47769809Y-126215714D01*
X47769809Y-125263333D02*
X47674571Y-125215714D01*
X47484095Y-125215714D01*
X47388857Y-125263333D01*
X47341238Y-125310952D01*
X47293619Y-125406190D01*
X47293619Y-125691904D01*
X47341238Y-125787142D01*
X47388857Y-125834761D01*
X47484095Y-125882380D01*
X47674571Y-125882380D01*
X47769809Y-125834761D01*
X45722190Y-125834761D02*
X45817428Y-125882380D01*
X46007904Y-125882380D01*
X46103142Y-125834761D01*
X46150761Y-125739523D01*
X46150761Y-125358571D01*
X46103142Y-125263333D01*
X46007904Y-125215714D01*
X45817428Y-125215714D01*
X45722190Y-125263333D01*
X45674571Y-125358571D01*
X45674571Y-125453809D01*
X46150761Y-125549047D01*
X45246000Y-125215714D02*
X45246000Y-125882380D01*
X45246000Y-125310952D02*
X45198380Y-125263333D01*
X45103142Y-125215714D01*
X44960285Y-125215714D01*
X44865047Y-125263333D01*
X44817428Y-125358571D01*
X44817428Y-125882380D01*
X43912666Y-125882380D02*
X43912666Y-125358571D01*
X43960285Y-125263333D01*
X44055523Y-125215714D01*
X44246000Y-125215714D01*
X44341238Y-125263333D01*
X43912666Y-125834761D02*
X44007904Y-125882380D01*
X44246000Y-125882380D01*
X44341238Y-125834761D01*
X44388857Y-125739523D01*
X44388857Y-125644285D01*
X44341238Y-125549047D01*
X44246000Y-125501428D01*
X44007904Y-125501428D01*
X43912666Y-125453809D01*
X43436476Y-125882380D02*
X43436476Y-124882380D01*
X43436476Y-125263333D02*
X43341238Y-125215714D01*
X43150761Y-125215714D01*
X43055523Y-125263333D01*
X43007904Y-125310952D01*
X42960285Y-125406190D01*
X42960285Y-125691904D01*
X43007904Y-125787142D01*
X43055523Y-125834761D01*
X43150761Y-125882380D01*
X43341238Y-125882380D01*
X43436476Y-125834761D01*
X42388857Y-125882380D02*
X42484095Y-125834761D01*
X42531714Y-125739523D01*
X42531714Y-124882380D01*
X41626952Y-125834761D02*
X41722190Y-125882380D01*
X41912666Y-125882380D01*
X42007904Y-125834761D01*
X42055523Y-125739523D01*
X42055523Y-125358571D01*
X42007904Y-125263333D01*
X41912666Y-125215714D01*
X41722190Y-125215714D01*
X41626952Y-125263333D01*
X41579333Y-125358571D01*
X41579333Y-125453809D01*
X42055523Y-125549047D01*
D12*
X68433333Y-73969047D02*
X67861904Y-74159523D01*
X66909523Y-74159523D01*
X66528571Y-73969047D01*
X66338095Y-73778571D01*
X66147619Y-73397619D01*
X66147619Y-73016666D01*
X66338095Y-72635714D01*
X66528571Y-72445238D01*
X66909523Y-72254761D01*
X67671428Y-72064285D01*
X68052380Y-71873809D01*
X68242857Y-71683333D01*
X68433333Y-71302380D01*
X68433333Y-70921428D01*
X68242857Y-70540476D01*
X68052380Y-70350000D01*
X67671428Y-70159523D01*
X66719047Y-70159523D01*
X66147619Y-70350000D01*
X64623809Y-73016666D02*
X62719047Y-73016666D01*
X65004761Y-74159523D02*
X63671428Y-70159523D01*
X62338095Y-74159523D01*
X61004761Y-74159523D02*
X61004761Y-70159523D01*
X59671428Y-73016666D01*
X58338095Y-70159523D01*
X58338095Y-74159523D01*
X54719047Y-74159523D02*
X54719047Y-70159523D01*
X54719047Y-73969047D02*
X55100000Y-74159523D01*
X55861904Y-74159523D01*
X56242857Y-73969047D01*
X56433333Y-73778571D01*
X56623809Y-73397619D01*
X56623809Y-72254761D01*
X56433333Y-71873809D01*
X56242857Y-71683333D01*
X55861904Y-71492857D01*
X55100000Y-71492857D01*
X54719047Y-71683333D01*
X51100000Y-71492857D02*
X51100000Y-74159523D01*
X52814285Y-71492857D02*
X52814285Y-73588095D01*
X52623809Y-73969047D01*
X52242857Y-74159523D01*
X51671428Y-74159523D01*
X51290476Y-73969047D01*
X51100000Y-73778571D01*
X49195238Y-74159523D02*
X49195238Y-71492857D01*
X49195238Y-70159523D02*
X49385714Y-70350000D01*
X49195238Y-70540476D01*
X49004761Y-70350000D01*
X49195238Y-70159523D01*
X49195238Y-70540476D01*
X47290476Y-71492857D02*
X47290476Y-74159523D01*
X47290476Y-71873809D02*
X47100000Y-71683333D01*
X46719047Y-71492857D01*
X46147619Y-71492857D01*
X45766666Y-71683333D01*
X45576190Y-72064285D01*
X45576190Y-74159523D01*
X43100000Y-74159523D02*
X43480952Y-73969047D01*
X43671428Y-73778571D01*
X43861904Y-73397619D01*
X43861904Y-72254761D01*
X43671428Y-71873809D01*
X43480952Y-71683333D01*
X43100000Y-71492857D01*
X42528571Y-71492857D01*
X42147619Y-71683333D01*
X41957142Y-71873809D01*
X41766666Y-72254761D01*
X41766666Y-73397619D01*
X41957142Y-73778571D01*
X42147619Y-73969047D01*
X42528571Y-74159523D01*
X43100000Y-74159523D01*
X56814285Y-80659523D02*
X59100000Y-80659523D01*
X57957142Y-80659523D02*
X57957142Y-76659523D01*
X58338095Y-77230952D01*
X58719047Y-77611904D01*
X59100000Y-77802380D01*
X55100000Y-80278571D02*
X54909523Y-80469047D01*
X55100000Y-80659523D01*
X55290476Y-80469047D01*
X55100000Y-80278571D01*
X55100000Y-80659523D01*
X52433333Y-76659523D02*
X52052380Y-76659523D01*
X51671428Y-76850000D01*
X51480952Y-77040476D01*
X51290476Y-77421428D01*
X51100000Y-78183333D01*
X51100000Y-79135714D01*
X51290476Y-79897619D01*
X51480952Y-80278571D01*
X51671428Y-80469047D01*
X52052380Y-80659523D01*
X52433333Y-80659523D01*
X52814285Y-80469047D01*
X53004761Y-80278571D01*
X53195238Y-79897619D01*
X53385714Y-79135714D01*
X53385714Y-78183333D01*
X53195238Y-77421428D01*
X53004761Y-77040476D01*
X52814285Y-76850000D01*
X52433333Y-76659523D01*
M02*
