%FSLAX45Y45*%
G04 Gerber Fmt 4.5, Leading zero omitted, Abs format (unit mm)*
G04 Created by KiCad (PCBNEW (5.1.10)-1) date 2021-10-22 17:08:14*
%MOMM*%
%LPD*%
G01*
G04 APERTURE LIST*
%TA.AperFunction,Profile*%
%ADD10C,0.050000*%
%TD*%
%ADD11C,0.200000*%
%ADD12C,0.300000*%
G04 APERTURE END LIST*
D10*
X3325000Y-5375000D02*
G75*
G02*
X3575000Y-5125000I250000J0D01*
G01*
X13075000Y-5125000D02*
G75*
G02*
X13325000Y-5375000I0J-250000D01*
G01*
X13325000Y-14875000D02*
G75*
G02*
X13075000Y-15125000I-250000J0D01*
G01*
X3575000Y-15125000D02*
G75*
G02*
X3325000Y-14875000I0J250000D01*
G01*
X3460000Y-6925000D02*
G75*
G02*
X3325000Y-7060000I-135000J0D01*
G01*
X3325000Y-5920000D02*
G75*
G02*
X3460000Y-6055000I0J-135000D01*
G01*
X3325000Y-5375000D02*
X3325000Y-5920000D01*
X3460000Y-6055000D02*
X3460000Y-6925000D01*
X3325000Y-7060000D02*
X3325000Y-14875000D01*
X13075000Y-5125000D02*
X3575000Y-5125000D01*
X13325000Y-14875000D02*
X13325000Y-5375000D01*
X3575000Y-15125000D02*
X13075000Y-15125000D01*
D11*
X3565000Y-13265000D02*
X3585000Y-13285000D01*
X3585000Y-13265000D02*
X3565000Y-13285000D01*
X3565000Y-14140000D02*
X3585000Y-14160000D01*
X3585000Y-14140000D02*
X3565000Y-14160000D01*
X3595000Y-6100000D02*
X3615000Y-6120000D01*
X3615000Y-6100000D02*
X3595000Y-6120000D01*
X3595000Y-6825000D02*
X3615000Y-6845000D01*
X3615000Y-6825000D02*
X3595000Y-6845000D01*
X3755000Y-6595000D02*
X3775000Y-6615000D01*
X3775000Y-6595000D02*
X3755000Y-6615000D01*
X4115000Y-13265000D02*
X4135000Y-13285000D01*
X4135000Y-13265000D02*
X4115000Y-13285000D01*
X4115000Y-14140000D02*
X4135000Y-14160000D01*
X4135000Y-14140000D02*
X4115000Y-14160000D01*
X4130000Y-5990000D02*
X4150000Y-6010000D01*
X4150000Y-5990000D02*
X4130000Y-6010000D01*
X4145000Y-12265000D02*
X4165000Y-12285000D01*
X4165000Y-12265000D02*
X4145000Y-12285000D01*
X4240000Y-5990000D02*
X4260000Y-6010000D01*
X4260000Y-5990000D02*
X4240000Y-6010000D01*
X4415000Y-11795000D02*
X4435000Y-11815000D01*
X4435000Y-11795000D02*
X4415000Y-11815000D01*
X4562500Y-11527500D02*
X4582500Y-11547500D01*
X4582500Y-11527500D02*
X4562500Y-11547500D01*
X4590000Y-6280000D02*
X4610000Y-6300000D01*
X4610000Y-6280000D02*
X4590000Y-6300000D01*
X4925000Y-12485000D02*
X4945000Y-12505000D01*
X4945000Y-12485000D02*
X4925000Y-12505000D01*
X4951250Y-14028750D02*
X4971250Y-14048750D01*
X4971250Y-14028750D02*
X4951250Y-14048750D01*
X4960000Y-5765000D02*
X4980000Y-5785000D01*
X4980000Y-5765000D02*
X4960000Y-5785000D01*
X5045500Y-12404500D02*
X5065500Y-12424500D01*
X5065500Y-12404500D02*
X5045500Y-12424500D01*
X5092500Y-13670000D02*
X5112500Y-13690000D01*
X5112500Y-13670000D02*
X5092500Y-13690000D01*
X5200000Y-14490000D02*
X5220000Y-14510000D01*
X5220000Y-14490000D02*
X5200000Y-14510000D01*
X5290000Y-14490000D02*
X5310000Y-14510000D01*
X5310000Y-14490000D02*
X5290000Y-14510000D01*
X5325000Y-5765000D02*
X5345000Y-5785000D01*
X5345000Y-5765000D02*
X5325000Y-5785000D01*
X5335000Y-12285000D02*
X5355000Y-12305000D01*
X5355000Y-12285000D02*
X5335000Y-12305000D01*
X5505000Y-7355000D02*
X5525000Y-7375000D01*
X5525000Y-7355000D02*
X5505000Y-7375000D01*
X5635000Y-11805000D02*
X5655000Y-11825000D01*
X5655000Y-11805000D02*
X5635000Y-11825000D01*
X6235000Y-10745000D02*
X6255000Y-10765000D01*
X6255000Y-10745000D02*
X6235000Y-10765000D01*
X6261250Y-14143750D02*
X6281250Y-14163750D01*
X6281250Y-14143750D02*
X6261250Y-14163750D01*
X6515000Y-13535000D02*
X6535000Y-13555000D01*
X6535000Y-13535000D02*
X6515000Y-13555000D01*
X6555000Y-11675000D02*
X6575000Y-11695000D01*
X6575000Y-11675000D02*
X6555000Y-11695000D01*
X6590000Y-11127500D02*
X6610000Y-11147500D01*
X6610000Y-11127500D02*
X6590000Y-11147500D01*
X6690000Y-9865000D02*
X6710000Y-9885000D01*
X6710000Y-9865000D02*
X6690000Y-9885000D01*
X6737500Y-9085000D02*
X6757500Y-9105000D01*
X6757500Y-9085000D02*
X6737500Y-9105000D01*
X6955000Y-11530000D02*
X6975000Y-11550000D01*
X6975000Y-11530000D02*
X6955000Y-11550000D01*
X7040000Y-9715000D02*
X7060000Y-9735000D01*
X7060000Y-9715000D02*
X7040000Y-9735000D01*
X7065000Y-10340000D02*
X7085000Y-10360000D01*
X7085000Y-10340000D02*
X7065000Y-10360000D01*
X7065000Y-10640000D02*
X7085000Y-10660000D01*
X7085000Y-10640000D02*
X7065000Y-10660000D01*
X7097500Y-8840000D02*
X7117500Y-8860000D01*
X7117500Y-8840000D02*
X7097500Y-8860000D01*
X7115000Y-8025000D02*
X7135000Y-8045000D01*
X7135000Y-8025000D02*
X7115000Y-8045000D01*
X7115000Y-8085000D02*
X7135000Y-8105000D01*
X7135000Y-8085000D02*
X7115000Y-8105000D01*
X7130000Y-10992500D02*
X7150000Y-11012500D01*
X7150000Y-10992500D02*
X7130000Y-11012500D01*
X7140000Y-11282500D02*
X7160000Y-11302500D01*
X7160000Y-11282500D02*
X7140000Y-11302500D01*
X7157500Y-9117500D02*
X7177500Y-9137500D01*
X7177500Y-9117500D02*
X7157500Y-9137500D01*
X7297500Y-8762500D02*
X7317500Y-8782500D01*
X7317500Y-8762500D02*
X7297500Y-8782500D01*
X7325000Y-9465000D02*
X7345000Y-9485000D01*
X7345000Y-9465000D02*
X7325000Y-9485000D01*
X7365000Y-9715000D02*
X7385000Y-9735000D01*
X7385000Y-9715000D02*
X7365000Y-9735000D01*
X7365000Y-9865000D02*
X7385000Y-9885000D01*
X7385000Y-9865000D02*
X7365000Y-9885000D01*
X7390000Y-9615000D02*
X7410000Y-9635000D01*
X7410000Y-9615000D02*
X7390000Y-9635000D01*
X7415000Y-10415000D02*
X7435000Y-10435000D01*
X7435000Y-10415000D02*
X7415000Y-10435000D01*
X7515000Y-8140000D02*
X7535000Y-8160000D01*
X7535000Y-8140000D02*
X7515000Y-8160000D01*
X7542500Y-8837500D02*
X7562500Y-8857500D01*
X7562500Y-8837500D02*
X7542500Y-8857500D01*
X7630000Y-11190000D02*
X7650000Y-11210000D01*
X7650000Y-11190000D02*
X7630000Y-11210000D01*
X7637000Y-8243000D02*
X7657000Y-8263000D01*
X7657000Y-8243000D02*
X7637000Y-8263000D01*
X7665000Y-9765000D02*
X7685000Y-9785000D01*
X7685000Y-9765000D02*
X7665000Y-9785000D01*
X7665000Y-9965000D02*
X7685000Y-9985000D01*
X7685000Y-9965000D02*
X7665000Y-9985000D01*
X7672500Y-9180000D02*
X7692500Y-9200000D01*
X7692500Y-9180000D02*
X7672500Y-9200000D01*
X7715000Y-10265000D02*
X7735000Y-10285000D01*
X7735000Y-10265000D02*
X7715000Y-10285000D01*
X7730000Y-8945000D02*
X7750000Y-8965000D01*
X7750000Y-8945000D02*
X7730000Y-8965000D01*
X7735000Y-10105000D02*
X7755000Y-10125000D01*
X7755000Y-10105000D02*
X7735000Y-10125000D01*
X7765000Y-11265000D02*
X7785000Y-11285000D01*
X7785000Y-11265000D02*
X7765000Y-11285000D01*
X7790000Y-9665000D02*
X7810000Y-9685000D01*
X7810000Y-9665000D02*
X7790000Y-9685000D01*
X7810000Y-10255000D02*
X7830000Y-10275000D01*
X7830000Y-10255000D02*
X7810000Y-10275000D01*
X7840000Y-11015000D02*
X7860000Y-11035000D01*
X7860000Y-11015000D02*
X7840000Y-11035000D01*
X7865000Y-10745000D02*
X7885000Y-10765000D01*
X7885000Y-10745000D02*
X7865000Y-10765000D01*
X7964998Y-8794998D02*
X7984998Y-8814998D01*
X7984998Y-8794998D02*
X7964998Y-8814998D01*
X8035000Y-8815000D02*
X8055000Y-8835000D01*
X8055000Y-8815000D02*
X8035000Y-8835000D01*
X8065000Y-8925000D02*
X8085000Y-8945000D01*
X8085000Y-8925000D02*
X8065000Y-8945000D01*
X8065000Y-9190000D02*
X8085000Y-9210000D01*
X8085000Y-9190000D02*
X8065000Y-9210000D01*
X8075000Y-10725000D02*
X8095000Y-10745000D01*
X8095000Y-10725000D02*
X8075000Y-10745000D01*
X8115000Y-8165000D02*
X8135000Y-8185000D01*
X8135000Y-8165000D02*
X8115000Y-8185000D01*
X8115001Y-12904999D02*
X8135001Y-12924999D01*
X8135001Y-12904999D02*
X8115001Y-12924999D01*
X8130000Y-6500000D02*
X8150000Y-6520000D01*
X8150000Y-6500000D02*
X8130000Y-6520000D01*
X8145000Y-10105000D02*
X8165000Y-10125000D01*
X8165000Y-10105000D02*
X8145000Y-10125000D01*
X8265000Y-8165000D02*
X8285000Y-8185000D01*
X8285000Y-8165000D02*
X8265000Y-8185000D01*
X8364999Y-11250000D02*
X8384999Y-11270000D01*
X8384999Y-11250000D02*
X8364999Y-11270000D01*
X8385000Y-11495000D02*
X8405000Y-11515000D01*
X8405000Y-11495000D02*
X8385000Y-11515000D01*
X8415000Y-9025000D02*
X8435000Y-9045000D01*
X8435000Y-9025000D02*
X8415000Y-9045000D01*
X8565000Y-11412500D02*
X8585000Y-11432500D01*
X8585000Y-11412500D02*
X8565000Y-11432500D01*
X8595000Y-10070000D02*
X8615000Y-10090000D01*
X8615000Y-10070000D02*
X8595000Y-10090000D01*
X8615000Y-11105000D02*
X8635000Y-11125000D01*
X8635000Y-11105000D02*
X8615000Y-11125000D01*
X8665000Y-8940000D02*
X8685000Y-8960000D01*
X8685000Y-8940000D02*
X8665000Y-8960000D01*
X8665000Y-9190000D02*
X8685000Y-9210000D01*
X8685000Y-9190000D02*
X8665000Y-9210000D01*
X8665000Y-11307500D02*
X8685000Y-11327500D01*
X8685000Y-11307500D02*
X8665000Y-11327500D01*
X8718501Y-8356499D02*
X8738501Y-8376499D01*
X8738501Y-8356499D02*
X8718501Y-8376499D01*
X8730000Y-6470000D02*
X8750000Y-6490000D01*
X8750000Y-6470000D02*
X8730000Y-6490000D01*
X8815000Y-11195000D02*
X8835000Y-11215000D01*
X8835000Y-11195000D02*
X8815000Y-11215000D01*
X8865000Y-9075000D02*
X8885000Y-9095000D01*
X8885000Y-9075000D02*
X8865000Y-9095000D01*
X8880000Y-10012500D02*
X8900000Y-10032500D01*
X8900000Y-10012500D02*
X8880000Y-10032500D01*
X8930000Y-8735000D02*
X8950000Y-8755000D01*
X8950000Y-8735000D02*
X8930000Y-8755000D01*
X8965000Y-9615000D02*
X8985000Y-9635000D01*
X8985000Y-9615000D02*
X8965000Y-9635000D01*
X8965000Y-9915000D02*
X8985000Y-9935000D01*
X8985000Y-9915000D02*
X8965000Y-9935000D01*
X8965000Y-10265000D02*
X8985000Y-10285000D01*
X8985000Y-10265000D02*
X8965000Y-10285000D01*
X9180000Y-9000000D02*
X9200000Y-9020000D01*
X9200000Y-9000000D02*
X9180000Y-9020000D01*
X9240000Y-9865000D02*
X9260000Y-9885000D01*
X9260000Y-9865000D02*
X9240000Y-9885000D01*
X9245258Y-10322499D02*
X9265258Y-10342499D01*
X9265258Y-10322499D02*
X9245258Y-10342499D01*
X9305000Y-10895000D02*
X9325000Y-10915000D01*
X9325000Y-10895000D02*
X9305000Y-10915000D01*
X9447500Y-11165000D02*
X9467500Y-11185000D01*
X9467500Y-11165000D02*
X9447500Y-11185000D01*
X9490000Y-10115000D02*
X9510000Y-10135000D01*
X9510000Y-10115000D02*
X9490000Y-10135000D01*
X9515000Y-9890000D02*
X9535000Y-9910000D01*
X9535000Y-9890000D02*
X9515000Y-9910000D01*
X9515000Y-10365000D02*
X9535000Y-10385000D01*
X9535000Y-10365000D02*
X9515000Y-10385000D01*
X9565000Y-13740000D02*
X9585000Y-13760000D01*
X9585000Y-13740000D02*
X9565000Y-13760000D01*
X9587500Y-13942500D02*
X9607500Y-13962500D01*
X9607500Y-13942500D02*
X9587500Y-13962500D01*
X9724999Y-10420001D02*
X9744999Y-10440001D01*
X9744999Y-10420001D02*
X9724999Y-10440001D01*
X9825000Y-10215000D02*
X9845000Y-10235000D01*
X9845000Y-10215000D02*
X9825000Y-10235000D01*
X9965000Y-13615000D02*
X9985000Y-13635000D01*
X9985000Y-13615000D02*
X9965000Y-13635000D01*
X10135000Y-13175000D02*
X10155000Y-13195000D01*
X10155000Y-13175000D02*
X10135000Y-13195000D01*
X10197500Y-14007500D02*
X10217500Y-14027500D01*
X10217500Y-14007500D02*
X10197500Y-14027500D01*
X10885000Y-12285000D02*
X10905000Y-12305000D01*
X10905000Y-12285000D02*
X10885000Y-12305000D01*
X11280000Y-9210000D02*
X11300000Y-9230000D01*
X11300000Y-9210000D02*
X11280000Y-9230000D01*
X11300000Y-10440000D02*
X11320000Y-10460000D01*
X11320000Y-10440000D02*
X11300000Y-10460000D01*
X11357500Y-14190000D02*
X11377500Y-14210000D01*
X11377500Y-14190000D02*
X11357500Y-14210000D01*
X11430000Y-8890000D02*
X11450000Y-8910000D01*
X11450000Y-8890000D02*
X11430000Y-8910000D01*
X11490000Y-8440000D02*
X11510000Y-8460000D01*
X11510000Y-8440000D02*
X11490000Y-8460000D01*
X11510000Y-14070000D02*
X11530000Y-14090000D01*
X11530000Y-14070000D02*
X11510000Y-14090000D01*
X11542500Y-13415000D02*
X11562500Y-13435000D01*
X11562500Y-13415000D02*
X11542500Y-13435000D01*
X11565000Y-14070000D02*
X11585000Y-14090000D01*
X11585000Y-14070000D02*
X11565000Y-14090000D01*
X11627500Y-14905000D02*
X11647500Y-14925000D01*
X11647500Y-14905000D02*
X11627500Y-14925000D01*
X11712500Y-14510000D02*
X11732500Y-14530000D01*
X11732500Y-14510000D02*
X11712500Y-14530000D01*
X11790000Y-6905000D02*
X11810000Y-6925000D01*
X11810000Y-6905000D02*
X11790000Y-6925000D01*
X12105000Y-12255000D02*
X12125000Y-12275000D01*
X12125000Y-12255000D02*
X12105000Y-12275000D01*
X12160000Y-12410000D02*
X12180000Y-12430000D01*
X12180000Y-12410000D02*
X12160000Y-12430000D01*
X12167500Y-10397500D02*
X12187500Y-10417500D01*
X12187500Y-10397500D02*
X12167500Y-10417500D01*
X12205000Y-12255000D02*
X12225000Y-12275000D01*
X12225000Y-12255000D02*
X12205000Y-12275000D01*
X12340000Y-12025000D02*
X12360000Y-12045000D01*
X12360000Y-12025000D02*
X12340000Y-12045000D01*
X12340000Y-12120000D02*
X12360000Y-12140000D01*
X12360000Y-12120000D02*
X12340000Y-12140000D01*
X12435000Y-9905000D02*
X12455000Y-9925000D01*
X12455000Y-9905000D02*
X12435000Y-9925000D01*
X12540000Y-12455000D02*
X12560000Y-12475000D01*
X12560000Y-12455000D02*
X12540000Y-12475000D01*
X12702500Y-13002500D02*
X12722500Y-13022500D01*
X12722500Y-13002500D02*
X12702500Y-13022500D01*
X12717500Y-7762500D02*
X12737500Y-7782500D01*
X12737500Y-7762500D02*
X12717500Y-7782500D01*
X12717500Y-8712500D02*
X12737500Y-8732500D01*
X12737500Y-8712500D02*
X12717500Y-8732500D01*
X12752500Y-12455000D02*
X12772500Y-12475000D01*
X12772500Y-12455000D02*
X12752500Y-12475000D01*
X12960000Y-12455000D02*
X12980000Y-12475000D01*
X12980000Y-12455000D02*
X12960000Y-12475000D01*
X12645000Y-13690000D02*
G75*
G03*
X12645000Y-13690000I-40000J0D01*
G01*
X12475000Y-13720000D02*
X12735000Y-13720000D01*
X12475000Y-13660000D02*
X12735000Y-13660000D01*
X12735000Y-13720000D02*
G75*
G03*
X12735000Y-13660000I0J30000D01*
G01*
X12475000Y-13660000D02*
G75*
G03*
X12475000Y-13720000I0J-30000D01*
G01*
X12645000Y-14270000D02*
G75*
G03*
X12645000Y-14270000I-40000J0D01*
G01*
X12495000Y-14300000D02*
X12715000Y-14300000D01*
X12495000Y-14240000D02*
X12715000Y-14240000D01*
X12715000Y-14300000D02*
G75*
G03*
X12715000Y-14240000I0J30000D01*
G01*
X12495000Y-14240000D02*
G75*
G03*
X12495000Y-14300000I0J-30000D01*
G01*
X13125000Y-13990000D02*
G75*
G03*
X13125000Y-13990000I-40000J0D01*
G01*
X13115000Y-14100000D02*
X13115000Y-13880000D01*
X13055000Y-14100000D02*
X13055000Y-13880000D01*
X13115000Y-13880000D02*
G75*
G03*
X13055000Y-13880000I-30000J0D01*
G01*
X13055000Y-14100000D02*
G75*
G03*
X13115000Y-14100000I30000J0D01*
G01*
X10425000Y-5675500D02*
X10425000Y-5774500D01*
X10375500Y-5725000D02*
X10474500Y-5725000D01*
X10425000Y-6125500D02*
X10425000Y-6224500D01*
X10375500Y-6175000D02*
X10474500Y-6175000D01*
X11075000Y-5675500D02*
X11075000Y-5774500D01*
X11025500Y-5725000D02*
X11124500Y-5725000D01*
X11075000Y-6125500D02*
X11075000Y-6224500D01*
X11025500Y-6175000D02*
X11124500Y-6175000D01*
X11855000Y-5675500D02*
X11855000Y-5774500D01*
X11805500Y-5725000D02*
X11904500Y-5725000D01*
X11855000Y-6125500D02*
X11855000Y-6224500D01*
X11805500Y-6175000D02*
X11904500Y-6175000D01*
X12505000Y-5675500D02*
X12505000Y-5774500D01*
X12455500Y-5725000D02*
X12554500Y-5725000D01*
X12505000Y-6125500D02*
X12505000Y-6224500D01*
X12455500Y-6175000D02*
X12554500Y-6175000D01*
X4110356Y-9160356D02*
X4110356Y-9089644D01*
X4039644Y-9089644D01*
X4039644Y-9160356D01*
X4110356Y-9160356D01*
X4110356Y-9414356D02*
X4110356Y-9343644D01*
X4039644Y-9343644D01*
X4039644Y-9414356D01*
X4110356Y-9414356D01*
X4110356Y-10406356D02*
X4110356Y-10335644D01*
X4039644Y-10335644D01*
X4039644Y-10406356D01*
X4110356Y-10406356D01*
X4110356Y-10660356D02*
X4110356Y-10589644D01*
X4039644Y-10589644D01*
X4039644Y-10660356D01*
X4110356Y-10660356D01*
X4110356Y-10914356D02*
X4110356Y-10843644D01*
X4039644Y-10843644D01*
X4039644Y-10914356D01*
X4110356Y-10914356D01*
X4364356Y-9160356D02*
X4364356Y-9089644D01*
X4293644Y-9089644D01*
X4293644Y-9160356D01*
X4364356Y-9160356D01*
X4364356Y-9414356D02*
X4364356Y-9343644D01*
X4293644Y-9343644D01*
X4293644Y-9414356D01*
X4364356Y-9414356D01*
X4364356Y-10406356D02*
X4364356Y-10335644D01*
X4293644Y-10335644D01*
X4293644Y-10406356D01*
X4364356Y-10406356D01*
X4364356Y-10660356D02*
X4364356Y-10589644D01*
X4293644Y-10589644D01*
X4293644Y-10660356D01*
X4364356Y-10660356D01*
X4364356Y-10914356D02*
X4364356Y-10843644D01*
X4293644Y-10843644D01*
X4293644Y-10914356D01*
X4364356Y-10914356D01*
X5606356Y-9223356D02*
X5606356Y-9152644D01*
X5535644Y-9152644D01*
X5535644Y-9223356D01*
X5606356Y-9223356D01*
X5606356Y-9477356D02*
X5606356Y-9406644D01*
X5535644Y-9406644D01*
X5535644Y-9477356D01*
X5606356Y-9477356D01*
X5606356Y-9731356D02*
X5606356Y-9660644D01*
X5535644Y-9660644D01*
X5535644Y-9731356D01*
X5606356Y-9731356D01*
X5606356Y-9985356D02*
X5606356Y-9914644D01*
X5535644Y-9914644D01*
X5535644Y-9985356D01*
X5606356Y-9985356D01*
X5606356Y-10239356D02*
X5606356Y-10168644D01*
X5535644Y-10168644D01*
X5535644Y-10239356D01*
X5606356Y-10239356D01*
X5606356Y-10493356D02*
X5606356Y-10422644D01*
X5535644Y-10422644D01*
X5535644Y-10493356D01*
X5606356Y-10493356D01*
X5606356Y-10747356D02*
X5606356Y-10676644D01*
X5535644Y-10676644D01*
X5535644Y-10747356D01*
X5606356Y-10747356D01*
X5860356Y-9223356D02*
X5860356Y-9152644D01*
X5789644Y-9152644D01*
X5789644Y-9223356D01*
X5860356Y-9223356D01*
X5860356Y-9477356D02*
X5860356Y-9406644D01*
X5789644Y-9406644D01*
X5789644Y-9477356D01*
X5860356Y-9477356D01*
X5860356Y-9731356D02*
X5860356Y-9660644D01*
X5789644Y-9660644D01*
X5789644Y-9731356D01*
X5860356Y-9731356D01*
X5860356Y-9985356D02*
X5860356Y-9914644D01*
X5789644Y-9914644D01*
X5789644Y-9985356D01*
X5860356Y-9985356D01*
X5860356Y-10239356D02*
X5860356Y-10168644D01*
X5789644Y-10168644D01*
X5789644Y-10239356D01*
X5860356Y-10239356D01*
X5860356Y-10493356D02*
X5860356Y-10422644D01*
X5789644Y-10422644D01*
X5789644Y-10493356D01*
X5860356Y-10493356D01*
X5860356Y-10747356D02*
X5860356Y-10676644D01*
X5789644Y-10676644D01*
X5789644Y-10747356D01*
X5860356Y-10747356D01*
X6565356Y-12306356D02*
X6565356Y-12235644D01*
X6494644Y-12235644D01*
X6494644Y-12306356D01*
X6565356Y-12306356D01*
X6565356Y-12560356D02*
X6565356Y-12489644D01*
X6494644Y-12489644D01*
X6494644Y-12560356D01*
X6565356Y-12560356D01*
X6819356Y-12306356D02*
X6819356Y-12235644D01*
X6748644Y-12235644D01*
X6748644Y-12306356D01*
X6819356Y-12306356D01*
X6819356Y-12560356D02*
X6819356Y-12489644D01*
X6748644Y-12489644D01*
X6748644Y-12560356D01*
X6819356Y-12560356D01*
X7073356Y-12306356D02*
X7073356Y-12235644D01*
X7002644Y-12235644D01*
X7002644Y-12306356D01*
X7073356Y-12306356D01*
X7073356Y-12560356D02*
X7073356Y-12489644D01*
X7002644Y-12489644D01*
X7002644Y-12560356D01*
X7073356Y-12560356D01*
X7260356Y-5731356D02*
X7260356Y-5660644D01*
X7189644Y-5660644D01*
X7189644Y-5731356D01*
X7260356Y-5731356D01*
X7260356Y-5985356D02*
X7260356Y-5914644D01*
X7189644Y-5914644D01*
X7189644Y-5985356D01*
X7260356Y-5985356D01*
X7325356Y-7120356D02*
X7325356Y-7049644D01*
X7254644Y-7049644D01*
X7254644Y-7120356D01*
X7325356Y-7120356D01*
X7325356Y-7374356D02*
X7325356Y-7303644D01*
X7254644Y-7303644D01*
X7254644Y-7374356D01*
X7325356Y-7374356D01*
X7327356Y-12306356D02*
X7327356Y-12235644D01*
X7256644Y-12235644D01*
X7256644Y-12306356D01*
X7327356Y-12306356D01*
X7327356Y-12560356D02*
X7327356Y-12489644D01*
X7256644Y-12489644D01*
X7256644Y-12560356D01*
X7327356Y-12560356D01*
X7577356Y-13935356D02*
X7577356Y-13864644D01*
X7506644Y-13864644D01*
X7506644Y-13935356D01*
X7577356Y-13935356D01*
X7577356Y-14189356D02*
X7577356Y-14118644D01*
X7506644Y-14118644D01*
X7506644Y-14189356D01*
X7577356Y-14189356D01*
X7579356Y-7120356D02*
X7579356Y-7049644D01*
X7508644Y-7049644D01*
X7508644Y-7120356D01*
X7579356Y-7120356D01*
X7579356Y-7374356D02*
X7579356Y-7303644D01*
X7508644Y-7303644D01*
X7508644Y-7374356D01*
X7579356Y-7374356D01*
X7581356Y-12306356D02*
X7581356Y-12235644D01*
X7510644Y-12235644D01*
X7510644Y-12306356D01*
X7581356Y-12306356D01*
X7581356Y-12560356D02*
X7581356Y-12489644D01*
X7510644Y-12489644D01*
X7510644Y-12560356D01*
X7581356Y-12560356D01*
X7831356Y-13935356D02*
X7831356Y-13864644D01*
X7760644Y-13864644D01*
X7760644Y-13935356D01*
X7831356Y-13935356D01*
X7831356Y-14189356D02*
X7831356Y-14118644D01*
X7760644Y-14118644D01*
X7760644Y-14189356D01*
X7831356Y-14189356D01*
X7833356Y-7120356D02*
X7833356Y-7049644D01*
X7762644Y-7049644D01*
X7762644Y-7120356D01*
X7833356Y-7120356D01*
X7833356Y-7374356D02*
X7833356Y-7303644D01*
X7762644Y-7303644D01*
X7762644Y-7374356D01*
X7833356Y-7374356D01*
X7835356Y-12306356D02*
X7835356Y-12235644D01*
X7764644Y-12235644D01*
X7764644Y-12306356D01*
X7835356Y-12306356D01*
X7835356Y-12560356D02*
X7835356Y-12489644D01*
X7764644Y-12489644D01*
X7764644Y-12560356D01*
X7835356Y-12560356D01*
X8085356Y-13935356D02*
X8085356Y-13864644D01*
X8014644Y-13864644D01*
X8014644Y-13935356D01*
X8085356Y-13935356D01*
X8085356Y-14189356D02*
X8085356Y-14118644D01*
X8014644Y-14118644D01*
X8014644Y-14189356D01*
X8085356Y-14189356D01*
X8087356Y-7120356D02*
X8087356Y-7049644D01*
X8016644Y-7049644D01*
X8016644Y-7120356D01*
X8087356Y-7120356D01*
X8087356Y-7374356D02*
X8087356Y-7303644D01*
X8016644Y-7303644D01*
X8016644Y-7374356D01*
X8087356Y-7374356D01*
X8089356Y-12306356D02*
X8089356Y-12235644D01*
X8018644Y-12235644D01*
X8018644Y-12306356D01*
X8089356Y-12306356D01*
X8089356Y-12560356D02*
X8089356Y-12489644D01*
X8018644Y-12489644D01*
X8018644Y-12560356D01*
X8089356Y-12560356D01*
X8341356Y-7120356D02*
X8341356Y-7049644D01*
X8270644Y-7049644D01*
X8270644Y-7120356D01*
X8341356Y-7120356D01*
X8341356Y-7374356D02*
X8341356Y-7303644D01*
X8270644Y-7303644D01*
X8270644Y-7374356D01*
X8341356Y-7374356D01*
X8343356Y-12306356D02*
X8343356Y-12235644D01*
X8272644Y-12235644D01*
X8272644Y-12306356D01*
X8343356Y-12306356D01*
X8343356Y-12560356D02*
X8343356Y-12489644D01*
X8272644Y-12489644D01*
X8272644Y-12560356D01*
X8343356Y-12560356D01*
X8595356Y-7120356D02*
X8595356Y-7049644D01*
X8524644Y-7049644D01*
X8524644Y-7120356D01*
X8595356Y-7120356D01*
X8595356Y-7374356D02*
X8595356Y-7303644D01*
X8524644Y-7303644D01*
X8524644Y-7374356D01*
X8595356Y-7374356D01*
X8597356Y-12306356D02*
X8597356Y-12235644D01*
X8526644Y-12235644D01*
X8526644Y-12306356D01*
X8597356Y-12306356D01*
X8597356Y-12560356D02*
X8597356Y-12489644D01*
X8526644Y-12489644D01*
X8526644Y-12560356D01*
X8597356Y-12560356D01*
X8645356Y-14535356D02*
X8645356Y-14464644D01*
X8574644Y-14464644D01*
X8574644Y-14535356D01*
X8645356Y-14535356D01*
X8849356Y-7120356D02*
X8849356Y-7049644D01*
X8778644Y-7049644D01*
X8778644Y-7120356D01*
X8849356Y-7120356D01*
X8849356Y-7374356D02*
X8849356Y-7303644D01*
X8778644Y-7303644D01*
X8778644Y-7374356D01*
X8849356Y-7374356D01*
X8851356Y-12306356D02*
X8851356Y-12235644D01*
X8780644Y-12235644D01*
X8780644Y-12306356D01*
X8851356Y-12306356D01*
X8851356Y-12560356D02*
X8851356Y-12489644D01*
X8780644Y-12489644D01*
X8780644Y-12560356D01*
X8851356Y-12560356D01*
X8899356Y-14535356D02*
X8899356Y-14464644D01*
X8828644Y-14464644D01*
X8828644Y-14535356D01*
X8899356Y-14535356D01*
X9103356Y-7120356D02*
X9103356Y-7049644D01*
X9032644Y-7049644D01*
X9032644Y-7120356D01*
X9103356Y-7120356D01*
X9103356Y-7374356D02*
X9103356Y-7303644D01*
X9032644Y-7303644D01*
X9032644Y-7374356D01*
X9103356Y-7374356D01*
X9105356Y-12306356D02*
X9105356Y-12235644D01*
X9034644Y-12235644D01*
X9034644Y-12306356D01*
X9105356Y-12306356D01*
X9105356Y-12560356D02*
X9105356Y-12489644D01*
X9034644Y-12489644D01*
X9034644Y-12560356D01*
X9105356Y-12560356D01*
X9357356Y-7120356D02*
X9357356Y-7049644D01*
X9286644Y-7049644D01*
X9286644Y-7120356D01*
X9357356Y-7120356D01*
X9357356Y-7374356D02*
X9357356Y-7303644D01*
X9286644Y-7303644D01*
X9286644Y-7374356D01*
X9357356Y-7374356D01*
X9385356Y-5735356D02*
X9385356Y-5664644D01*
X9314644Y-5664644D01*
X9314644Y-5735356D01*
X9385356Y-5735356D01*
X9385356Y-5989356D02*
X9385356Y-5918644D01*
X9314644Y-5918644D01*
X9314644Y-5989356D01*
X9385356Y-5989356D01*
X10360356Y-11910356D02*
X10360356Y-11839644D01*
X10289644Y-11839644D01*
X10289644Y-11910356D01*
X10360356Y-11910356D01*
X10360356Y-12164356D02*
X10360356Y-12093644D01*
X10289644Y-12093644D01*
X10289644Y-12164356D01*
X10360356Y-12164356D01*
X10360356Y-12418356D02*
X10360356Y-12347644D01*
X10289644Y-12347644D01*
X10289644Y-12418356D01*
X10360356Y-12418356D01*
X10606356Y-8878356D02*
X10606356Y-8807644D01*
X10535644Y-8807644D01*
X10535644Y-8878356D01*
X10606356Y-8878356D01*
X10606356Y-9132356D02*
X10606356Y-9061644D01*
X10535644Y-9061644D01*
X10535644Y-9132356D01*
X10606356Y-9132356D01*
X10606356Y-9386356D02*
X10606356Y-9315644D01*
X10535644Y-9315644D01*
X10535644Y-9386356D01*
X10606356Y-9386356D01*
X10606356Y-9640356D02*
X10606356Y-9569644D01*
X10535644Y-9569644D01*
X10535644Y-9640356D01*
X10606356Y-9640356D01*
X10606356Y-9894356D02*
X10606356Y-9823644D01*
X10535644Y-9823644D01*
X10535644Y-9894356D01*
X10606356Y-9894356D01*
X10606356Y-10148356D02*
X10606356Y-10077644D01*
X10535644Y-10077644D01*
X10535644Y-10148356D01*
X10606356Y-10148356D01*
X10606356Y-10402356D02*
X10606356Y-10331644D01*
X10535644Y-10331644D01*
X10535644Y-10402356D01*
X10606356Y-10402356D01*
X10606356Y-10656356D02*
X10606356Y-10585644D01*
X10535644Y-10585644D01*
X10535644Y-10656356D01*
X10606356Y-10656356D01*
X10606356Y-10910356D02*
X10606356Y-10839644D01*
X10535644Y-10839644D01*
X10535644Y-10910356D01*
X10606356Y-10910356D01*
X10614356Y-11910356D02*
X10614356Y-11839644D01*
X10543644Y-11839644D01*
X10543644Y-11910356D01*
X10614356Y-11910356D01*
X10614356Y-12164356D02*
X10614356Y-12093644D01*
X10543644Y-12093644D01*
X10543644Y-12164356D01*
X10614356Y-12164356D01*
X10614356Y-12418356D02*
X10614356Y-12347644D01*
X10543644Y-12347644D01*
X10543644Y-12418356D01*
X10614356Y-12418356D01*
X10620356Y-7630356D02*
X10620356Y-7559644D01*
X10549644Y-7559644D01*
X10549644Y-7630356D01*
X10620356Y-7630356D01*
X10620356Y-7884356D02*
X10620356Y-7813644D01*
X10549644Y-7813644D01*
X10549644Y-7884356D01*
X10620356Y-7884356D01*
X10860356Y-8878356D02*
X10860356Y-8807644D01*
X10789644Y-8807644D01*
X10789644Y-8878356D01*
X10860356Y-8878356D01*
X10860356Y-9132356D02*
X10860356Y-9061644D01*
X10789644Y-9061644D01*
X10789644Y-9132356D01*
X10860356Y-9132356D01*
X10860356Y-9386356D02*
X10860356Y-9315644D01*
X10789644Y-9315644D01*
X10789644Y-9386356D01*
X10860356Y-9386356D01*
X10860356Y-9640356D02*
X10860356Y-9569644D01*
X10789644Y-9569644D01*
X10789644Y-9640356D01*
X10860356Y-9640356D01*
X10860356Y-9894356D02*
X10860356Y-9823644D01*
X10789644Y-9823644D01*
X10789644Y-9894356D01*
X10860356Y-9894356D01*
X10860356Y-10148356D02*
X10860356Y-10077644D01*
X10789644Y-10077644D01*
X10789644Y-10148356D01*
X10860356Y-10148356D01*
X10860356Y-10402356D02*
X10860356Y-10331644D01*
X10789644Y-10331644D01*
X10789644Y-10402356D01*
X10860356Y-10402356D01*
X10860356Y-10656356D02*
X10860356Y-10585644D01*
X10789644Y-10585644D01*
X10789644Y-10656356D01*
X10860356Y-10656356D01*
X10860356Y-10910356D02*
X10860356Y-10839644D01*
X10789644Y-10839644D01*
X10789644Y-10910356D01*
X10860356Y-10910356D01*
X10874356Y-7630356D02*
X10874356Y-7559644D01*
X10803644Y-7559644D01*
X10803644Y-7630356D01*
X10874356Y-7630356D01*
X10874356Y-7884356D02*
X10874356Y-7813644D01*
X10803644Y-7813644D01*
X10803644Y-7884356D01*
X10874356Y-7884356D01*
X11407856Y-12727856D02*
X11407856Y-12657144D01*
X11337144Y-12657144D01*
X11337144Y-12727856D01*
X11407856Y-12727856D01*
X11407856Y-12981856D02*
X11407856Y-12911144D01*
X11337144Y-12911144D01*
X11337144Y-12981856D01*
X11407856Y-12981856D01*
X11650356Y-6950356D02*
X11650356Y-6879644D01*
X11579644Y-6879644D01*
X11579644Y-6950356D01*
X11650356Y-6950356D01*
X11650356Y-7204356D02*
X11650356Y-7133644D01*
X11579644Y-7133644D01*
X11579644Y-7204356D01*
X11650356Y-7204356D01*
X11661856Y-12727856D02*
X11661856Y-12657144D01*
X11591144Y-12657144D01*
X11591144Y-12727856D01*
X11661856Y-12727856D01*
X11661856Y-12981856D02*
X11661856Y-12911144D01*
X11591144Y-12911144D01*
X11591144Y-12981856D01*
X11661856Y-12981856D01*
X12015356Y-6950356D02*
X12015356Y-6879644D01*
X11944644Y-6879644D01*
X11944644Y-6950356D01*
X12015356Y-6950356D01*
X12015356Y-7204356D02*
X12015356Y-7133644D01*
X11944644Y-7133644D01*
X11944644Y-7204356D01*
X12015356Y-7204356D01*
X12930356Y-9845356D02*
X12930356Y-9774644D01*
X12859644Y-9774644D01*
X12859644Y-9845356D01*
X12930356Y-9845356D01*
X12930356Y-10099356D02*
X12930356Y-10028644D01*
X12859644Y-10028644D01*
X12859644Y-10099356D01*
X12930356Y-10099356D01*
X12930356Y-10353356D02*
X12930356Y-10282644D01*
X12859644Y-10282644D01*
X12859644Y-10353356D01*
X12930356Y-10353356D01*
X12930356Y-10607356D02*
X12930356Y-10536644D01*
X12859644Y-10536644D01*
X12859644Y-10607356D01*
X12930356Y-10607356D01*
X12930356Y-10861356D02*
X12930356Y-10790644D01*
X12859644Y-10790644D01*
X12859644Y-10861356D01*
X12930356Y-10861356D01*
X12930356Y-11115356D02*
X12930356Y-11044644D01*
X12859644Y-11044644D01*
X12859644Y-11115356D01*
X12930356Y-11115356D01*
X12930356Y-11369356D02*
X12930356Y-11298644D01*
X12859644Y-11298644D01*
X12859644Y-11369356D01*
X12930356Y-11369356D01*
X12930356Y-11623356D02*
X12930356Y-11552644D01*
X12859644Y-11552644D01*
X12859644Y-11623356D01*
X12930356Y-11623356D01*
X9898000Y-14770000D02*
X9953000Y-14715000D01*
X9898000Y-14660000D01*
X9843000Y-14715000D01*
X9898000Y-14770000D01*
X10152000Y-14770000D02*
X10207000Y-14715000D01*
X10152000Y-14660000D01*
X10097000Y-14715000D01*
X10152000Y-14770000D01*
D12*
X3608928Y-15593214D02*
X3608928Y-15293214D01*
X3680357Y-15293214D01*
X3723214Y-15307500D01*
X3751786Y-15336071D01*
X3766071Y-15364643D01*
X3780357Y-15421786D01*
X3780357Y-15464643D01*
X3766071Y-15521786D01*
X3751786Y-15550357D01*
X3723214Y-15578929D01*
X3680357Y-15593214D01*
X3608928Y-15593214D01*
X3908928Y-15593214D02*
X3908928Y-15393214D01*
X3908928Y-15450357D02*
X3923214Y-15421786D01*
X3937500Y-15407500D01*
X3966071Y-15393214D01*
X3994643Y-15393214D01*
X4094643Y-15593214D02*
X4094643Y-15393214D01*
X4094643Y-15293214D02*
X4080357Y-15307500D01*
X4094643Y-15321786D01*
X4108928Y-15307500D01*
X4094643Y-15293214D01*
X4094643Y-15321786D01*
X4280357Y-15593214D02*
X4251786Y-15578929D01*
X4237500Y-15550357D01*
X4237500Y-15293214D01*
X4437500Y-15593214D02*
X4408928Y-15578929D01*
X4394643Y-15550357D01*
X4394643Y-15293214D01*
X4780357Y-15593214D02*
X4780357Y-15293214D01*
X4880357Y-15507500D01*
X4980357Y-15293214D01*
X4980357Y-15593214D01*
X5251786Y-15593214D02*
X5251786Y-15436071D01*
X5237500Y-15407500D01*
X5208928Y-15393214D01*
X5151786Y-15393214D01*
X5123214Y-15407500D01*
X5251786Y-15578929D02*
X5223214Y-15593214D01*
X5151786Y-15593214D01*
X5123214Y-15578929D01*
X5108928Y-15550357D01*
X5108928Y-15521786D01*
X5123214Y-15493214D01*
X5151786Y-15478929D01*
X5223214Y-15478929D01*
X5251786Y-15464643D01*
X5394643Y-15393214D02*
X5394643Y-15693214D01*
X5394643Y-15407500D02*
X5423214Y-15393214D01*
X5480357Y-15393214D01*
X5508928Y-15407500D01*
X5523214Y-15421786D01*
X5537500Y-15450357D01*
X5537500Y-15536071D01*
X5523214Y-15564643D01*
X5508928Y-15578929D01*
X5480357Y-15593214D01*
X5423214Y-15593214D01*
X5394643Y-15578929D01*
X5666071Y-15564643D02*
X5680357Y-15578929D01*
X5666071Y-15593214D01*
X5651786Y-15578929D01*
X5666071Y-15564643D01*
X5666071Y-15593214D01*
X5666071Y-15407500D02*
X5680357Y-15421786D01*
X5666071Y-15436071D01*
X5651786Y-15421786D01*
X5666071Y-15407500D01*
X5666071Y-15436071D01*
X3302500Y-16077500D02*
X3322500Y-16097500D01*
X3322500Y-16077500D02*
X3302500Y-16097500D01*
X3666071Y-15923214D02*
X3694643Y-15923214D01*
X3723214Y-15937500D01*
X3737500Y-15951786D01*
X3751786Y-15980357D01*
X3766071Y-16037500D01*
X3766071Y-16108929D01*
X3751786Y-16166071D01*
X3737500Y-16194643D01*
X3723214Y-16208929D01*
X3694643Y-16223214D01*
X3666071Y-16223214D01*
X3637500Y-16208929D01*
X3623214Y-16194643D01*
X3608928Y-16166071D01*
X3594643Y-16108929D01*
X3594643Y-16037500D01*
X3608928Y-15980357D01*
X3623214Y-15951786D01*
X3637500Y-15937500D01*
X3666071Y-15923214D01*
X3894643Y-16194643D02*
X3908928Y-16208929D01*
X3894643Y-16223214D01*
X3880357Y-16208929D01*
X3894643Y-16194643D01*
X3894643Y-16223214D01*
X4023214Y-15951786D02*
X4037500Y-15937500D01*
X4066071Y-15923214D01*
X4137500Y-15923214D01*
X4166071Y-15937500D01*
X4180357Y-15951786D01*
X4194643Y-15980357D01*
X4194643Y-16008929D01*
X4180357Y-16051786D01*
X4008928Y-16223214D01*
X4194643Y-16223214D01*
X4380357Y-15923214D02*
X4408928Y-15923214D01*
X4437500Y-15937500D01*
X4451786Y-15951786D01*
X4466071Y-15980357D01*
X4480357Y-16037500D01*
X4480357Y-16108929D01*
X4466071Y-16166071D01*
X4451786Y-16194643D01*
X4437500Y-16208929D01*
X4408928Y-16223214D01*
X4380357Y-16223214D01*
X4351786Y-16208929D01*
X4337500Y-16194643D01*
X4323214Y-16166071D01*
X4308928Y-16108929D01*
X4308928Y-16037500D01*
X4323214Y-15980357D01*
X4337500Y-15951786D01*
X4351786Y-15937500D01*
X4380357Y-15923214D01*
X4666071Y-15923214D02*
X4694643Y-15923214D01*
X4723214Y-15937500D01*
X4737500Y-15951786D01*
X4751786Y-15980357D01*
X4766071Y-16037500D01*
X4766071Y-16108929D01*
X4751786Y-16166071D01*
X4737500Y-16194643D01*
X4723214Y-16208929D01*
X4694643Y-16223214D01*
X4666071Y-16223214D01*
X4637500Y-16208929D01*
X4623214Y-16194643D01*
X4608928Y-16166071D01*
X4594643Y-16108929D01*
X4594643Y-16037500D01*
X4608928Y-15980357D01*
X4623214Y-15951786D01*
X4637500Y-15937500D01*
X4666071Y-15923214D01*
X4894643Y-16223214D02*
X4894643Y-16023214D01*
X4894643Y-16051786D02*
X4908928Y-16037500D01*
X4937500Y-16023214D01*
X4980357Y-16023214D01*
X5008928Y-16037500D01*
X5023214Y-16066071D01*
X5023214Y-16223214D01*
X5023214Y-16066071D02*
X5037500Y-16037500D01*
X5066071Y-16023214D01*
X5108928Y-16023214D01*
X5137500Y-16037500D01*
X5151786Y-16066071D01*
X5151786Y-16223214D01*
X5294643Y-16223214D02*
X5294643Y-16023214D01*
X5294643Y-16051786D02*
X5308928Y-16037500D01*
X5337500Y-16023214D01*
X5380357Y-16023214D01*
X5408928Y-16037500D01*
X5423214Y-16066071D01*
X5423214Y-16223214D01*
X5423214Y-16066071D02*
X5437500Y-16037500D01*
X5466071Y-16023214D01*
X5508928Y-16023214D01*
X5537500Y-16037500D01*
X5551786Y-16066071D01*
X5551786Y-16223214D01*
X6137500Y-15908929D02*
X5880357Y-16294643D01*
X6523214Y-15923214D02*
X6551786Y-15923214D01*
X6580357Y-15937500D01*
X6594643Y-15951786D01*
X6608928Y-15980357D01*
X6623214Y-16037500D01*
X6623214Y-16108929D01*
X6608928Y-16166071D01*
X6594643Y-16194643D01*
X6580357Y-16208929D01*
X6551786Y-16223214D01*
X6523214Y-16223214D01*
X6494643Y-16208929D01*
X6480357Y-16194643D01*
X6466071Y-16166071D01*
X6451786Y-16108929D01*
X6451786Y-16037500D01*
X6466071Y-15980357D01*
X6480357Y-15951786D01*
X6494643Y-15937500D01*
X6523214Y-15923214D01*
X6751786Y-16194643D02*
X6766071Y-16208929D01*
X6751786Y-16223214D01*
X6737500Y-16208929D01*
X6751786Y-16194643D01*
X6751786Y-16223214D01*
X6951786Y-15923214D02*
X6980357Y-15923214D01*
X7008928Y-15937500D01*
X7023214Y-15951786D01*
X7037500Y-15980357D01*
X7051786Y-16037500D01*
X7051786Y-16108929D01*
X7037500Y-16166071D01*
X7023214Y-16194643D01*
X7008928Y-16208929D01*
X6980357Y-16223214D01*
X6951786Y-16223214D01*
X6923214Y-16208929D01*
X6908928Y-16194643D01*
X6894643Y-16166071D01*
X6880357Y-16108929D01*
X6880357Y-16037500D01*
X6894643Y-15980357D01*
X6908928Y-15951786D01*
X6923214Y-15937500D01*
X6951786Y-15923214D01*
X7237500Y-15923214D02*
X7266071Y-15923214D01*
X7294643Y-15937500D01*
X7308928Y-15951786D01*
X7323214Y-15980357D01*
X7337500Y-16037500D01*
X7337500Y-16108929D01*
X7323214Y-16166071D01*
X7308928Y-16194643D01*
X7294643Y-16208929D01*
X7266071Y-16223214D01*
X7237500Y-16223214D01*
X7208928Y-16208929D01*
X7194643Y-16194643D01*
X7180357Y-16166071D01*
X7166071Y-16108929D01*
X7166071Y-16037500D01*
X7180357Y-15980357D01*
X7194643Y-15951786D01*
X7208928Y-15937500D01*
X7237500Y-15923214D01*
X7437500Y-15923214D02*
X7637500Y-15923214D01*
X7508928Y-16223214D01*
X7766071Y-16223214D02*
X7823214Y-16223214D01*
X7851786Y-16208929D01*
X7866071Y-16194643D01*
X7894643Y-16151786D01*
X7908928Y-16094643D01*
X7908928Y-15980357D01*
X7894643Y-15951786D01*
X7880357Y-15937500D01*
X7851786Y-15923214D01*
X7794643Y-15923214D01*
X7766071Y-15937500D01*
X7751786Y-15951786D01*
X7737500Y-15980357D01*
X7737500Y-16051786D01*
X7751786Y-16080357D01*
X7766071Y-16094643D01*
X7794643Y-16108929D01*
X7851786Y-16108929D01*
X7880357Y-16094643D01*
X7894643Y-16080357D01*
X7908928Y-16051786D01*
X8023214Y-15923214D02*
X8023214Y-15980357D01*
X8137500Y-15923214D02*
X8137500Y-15980357D01*
X8580357Y-16337500D02*
X8566071Y-16323214D01*
X8537500Y-16280357D01*
X8523214Y-16251786D01*
X8508928Y-16208929D01*
X8494643Y-16137500D01*
X8494643Y-16080357D01*
X8508928Y-16008929D01*
X8523214Y-15966071D01*
X8537500Y-15937500D01*
X8566071Y-15894643D01*
X8580357Y-15880357D01*
X8851786Y-16223214D02*
X8680357Y-16223214D01*
X8766071Y-16223214D02*
X8766071Y-15923214D01*
X8737500Y-15966071D01*
X8708928Y-15994643D01*
X8680357Y-16008929D01*
X8951786Y-15923214D02*
X9137500Y-15923214D01*
X9037500Y-16037500D01*
X9080357Y-16037500D01*
X9108928Y-16051786D01*
X9123214Y-16066071D01*
X9137500Y-16094643D01*
X9137500Y-16166071D01*
X9123214Y-16194643D01*
X9108928Y-16208929D01*
X9080357Y-16223214D01*
X8994643Y-16223214D01*
X8966071Y-16208929D01*
X8951786Y-16194643D01*
X9323214Y-15923214D02*
X9351786Y-15923214D01*
X9380357Y-15937500D01*
X9394643Y-15951786D01*
X9408928Y-15980357D01*
X9423214Y-16037500D01*
X9423214Y-16108929D01*
X9408928Y-16166071D01*
X9394643Y-16194643D01*
X9380357Y-16208929D01*
X9351786Y-16223214D01*
X9323214Y-16223214D01*
X9294643Y-16208929D01*
X9280357Y-16194643D01*
X9266071Y-16166071D01*
X9251786Y-16108929D01*
X9251786Y-16037500D01*
X9266071Y-15980357D01*
X9280357Y-15951786D01*
X9294643Y-15937500D01*
X9323214Y-15923214D01*
X9780357Y-16223214D02*
X9780357Y-15923214D01*
X9908928Y-16223214D02*
X9908928Y-16066071D01*
X9894643Y-16037500D01*
X9866071Y-16023214D01*
X9823214Y-16023214D01*
X9794643Y-16037500D01*
X9780357Y-16051786D01*
X10094643Y-16223214D02*
X10066071Y-16208929D01*
X10051786Y-16194643D01*
X10037500Y-16166071D01*
X10037500Y-16080357D01*
X10051786Y-16051786D01*
X10066071Y-16037500D01*
X10094643Y-16023214D01*
X10137500Y-16023214D01*
X10166071Y-16037500D01*
X10180357Y-16051786D01*
X10194643Y-16080357D01*
X10194643Y-16166071D01*
X10180357Y-16194643D01*
X10166071Y-16208929D01*
X10137500Y-16223214D01*
X10094643Y-16223214D01*
X10366071Y-16223214D02*
X10337500Y-16208929D01*
X10323214Y-16180357D01*
X10323214Y-15923214D01*
X10594643Y-16208929D02*
X10566071Y-16223214D01*
X10508928Y-16223214D01*
X10480357Y-16208929D01*
X10466071Y-16180357D01*
X10466071Y-16066071D01*
X10480357Y-16037500D01*
X10508928Y-16023214D01*
X10566071Y-16023214D01*
X10594643Y-16037500D01*
X10608928Y-16066071D01*
X10608928Y-16094643D01*
X10466071Y-16123214D01*
X10723214Y-16208929D02*
X10751786Y-16223214D01*
X10808928Y-16223214D01*
X10837500Y-16208929D01*
X10851786Y-16180357D01*
X10851786Y-16166071D01*
X10837500Y-16137500D01*
X10808928Y-16123214D01*
X10766071Y-16123214D01*
X10737500Y-16108929D01*
X10723214Y-16080357D01*
X10723214Y-16066071D01*
X10737500Y-16037500D01*
X10766071Y-16023214D01*
X10808928Y-16023214D01*
X10837500Y-16037500D01*
X10951786Y-16337500D02*
X10966071Y-16323214D01*
X10994643Y-16280357D01*
X11008928Y-16251786D01*
X11023214Y-16208929D01*
X11037500Y-16137500D01*
X11037500Y-16080357D01*
X11023214Y-16008929D01*
X11008928Y-15966071D01*
X10994643Y-15937500D01*
X10966071Y-15894643D01*
X10951786Y-15880357D01*
X3322500Y-16483500D02*
G75*
G03*
X3322500Y-16483500I-40000J0D01*
G01*
X3666071Y-16319214D02*
X3694643Y-16319214D01*
X3723214Y-16333500D01*
X3737500Y-16347786D01*
X3751786Y-16376357D01*
X3766071Y-16433500D01*
X3766071Y-16504929D01*
X3751786Y-16562071D01*
X3737500Y-16590643D01*
X3723214Y-16604929D01*
X3694643Y-16619214D01*
X3666071Y-16619214D01*
X3637500Y-16604929D01*
X3623214Y-16590643D01*
X3608928Y-16562071D01*
X3594643Y-16504929D01*
X3594643Y-16433500D01*
X3608928Y-16376357D01*
X3623214Y-16347786D01*
X3637500Y-16333500D01*
X3666071Y-16319214D01*
X3894643Y-16590643D02*
X3908928Y-16604929D01*
X3894643Y-16619214D01*
X3880357Y-16604929D01*
X3894643Y-16590643D01*
X3894643Y-16619214D01*
X4080357Y-16447786D02*
X4051786Y-16433500D01*
X4037500Y-16419214D01*
X4023214Y-16390643D01*
X4023214Y-16376357D01*
X4037500Y-16347786D01*
X4051786Y-16333500D01*
X4080357Y-16319214D01*
X4137500Y-16319214D01*
X4166071Y-16333500D01*
X4180357Y-16347786D01*
X4194643Y-16376357D01*
X4194643Y-16390643D01*
X4180357Y-16419214D01*
X4166071Y-16433500D01*
X4137500Y-16447786D01*
X4080357Y-16447786D01*
X4051786Y-16462071D01*
X4037500Y-16476357D01*
X4023214Y-16504929D01*
X4023214Y-16562071D01*
X4037500Y-16590643D01*
X4051786Y-16604929D01*
X4080357Y-16619214D01*
X4137500Y-16619214D01*
X4166071Y-16604929D01*
X4180357Y-16590643D01*
X4194643Y-16562071D01*
X4194643Y-16504929D01*
X4180357Y-16476357D01*
X4166071Y-16462071D01*
X4137500Y-16447786D01*
X4380357Y-16319214D02*
X4408928Y-16319214D01*
X4437500Y-16333500D01*
X4451786Y-16347786D01*
X4466071Y-16376357D01*
X4480357Y-16433500D01*
X4480357Y-16504929D01*
X4466071Y-16562071D01*
X4451786Y-16590643D01*
X4437500Y-16604929D01*
X4408928Y-16619214D01*
X4380357Y-16619214D01*
X4351786Y-16604929D01*
X4337500Y-16590643D01*
X4323214Y-16562071D01*
X4308928Y-16504929D01*
X4308928Y-16433500D01*
X4323214Y-16376357D01*
X4337500Y-16347786D01*
X4351786Y-16333500D01*
X4380357Y-16319214D01*
X4666071Y-16319214D02*
X4694643Y-16319214D01*
X4723214Y-16333500D01*
X4737500Y-16347786D01*
X4751786Y-16376357D01*
X4766071Y-16433500D01*
X4766071Y-16504929D01*
X4751786Y-16562071D01*
X4737500Y-16590643D01*
X4723214Y-16604929D01*
X4694643Y-16619214D01*
X4666071Y-16619214D01*
X4637500Y-16604929D01*
X4623214Y-16590643D01*
X4608928Y-16562071D01*
X4594643Y-16504929D01*
X4594643Y-16433500D01*
X4608928Y-16376357D01*
X4623214Y-16347786D01*
X4637500Y-16333500D01*
X4666071Y-16319214D01*
X4894643Y-16619214D02*
X4894643Y-16419214D01*
X4894643Y-16447786D02*
X4908928Y-16433500D01*
X4937500Y-16419214D01*
X4980357Y-16419214D01*
X5008928Y-16433500D01*
X5023214Y-16462071D01*
X5023214Y-16619214D01*
X5023214Y-16462071D02*
X5037500Y-16433500D01*
X5066071Y-16419214D01*
X5108928Y-16419214D01*
X5137500Y-16433500D01*
X5151786Y-16462071D01*
X5151786Y-16619214D01*
X5294643Y-16619214D02*
X5294643Y-16419214D01*
X5294643Y-16447786D02*
X5308928Y-16433500D01*
X5337500Y-16419214D01*
X5380357Y-16419214D01*
X5408928Y-16433500D01*
X5423214Y-16462071D01*
X5423214Y-16619214D01*
X5423214Y-16462071D02*
X5437500Y-16433500D01*
X5466071Y-16419214D01*
X5508928Y-16419214D01*
X5537500Y-16433500D01*
X5551786Y-16462071D01*
X5551786Y-16619214D01*
X6137500Y-16304929D02*
X5880357Y-16690643D01*
X6523214Y-16319214D02*
X6551786Y-16319214D01*
X6580357Y-16333500D01*
X6594643Y-16347786D01*
X6608928Y-16376357D01*
X6623214Y-16433500D01*
X6623214Y-16504929D01*
X6608928Y-16562071D01*
X6594643Y-16590643D01*
X6580357Y-16604929D01*
X6551786Y-16619214D01*
X6523214Y-16619214D01*
X6494643Y-16604929D01*
X6480357Y-16590643D01*
X6466071Y-16562071D01*
X6451786Y-16504929D01*
X6451786Y-16433500D01*
X6466071Y-16376357D01*
X6480357Y-16347786D01*
X6494643Y-16333500D01*
X6523214Y-16319214D01*
X6751786Y-16590643D02*
X6766071Y-16604929D01*
X6751786Y-16619214D01*
X6737500Y-16604929D01*
X6751786Y-16590643D01*
X6751786Y-16619214D01*
X6951786Y-16319214D02*
X6980357Y-16319214D01*
X7008928Y-16333500D01*
X7023214Y-16347786D01*
X7037500Y-16376357D01*
X7051786Y-16433500D01*
X7051786Y-16504929D01*
X7037500Y-16562071D01*
X7023214Y-16590643D01*
X7008928Y-16604929D01*
X6980357Y-16619214D01*
X6951786Y-16619214D01*
X6923214Y-16604929D01*
X6908928Y-16590643D01*
X6894643Y-16562071D01*
X6880357Y-16504929D01*
X6880357Y-16433500D01*
X6894643Y-16376357D01*
X6908928Y-16347786D01*
X6923214Y-16333500D01*
X6951786Y-16319214D01*
X7151786Y-16319214D02*
X7337500Y-16319214D01*
X7237500Y-16433500D01*
X7280357Y-16433500D01*
X7308928Y-16447786D01*
X7323214Y-16462071D01*
X7337500Y-16490643D01*
X7337500Y-16562071D01*
X7323214Y-16590643D01*
X7308928Y-16604929D01*
X7280357Y-16619214D01*
X7194643Y-16619214D01*
X7166071Y-16604929D01*
X7151786Y-16590643D01*
X7623214Y-16619214D02*
X7451786Y-16619214D01*
X7537500Y-16619214D02*
X7537500Y-16319214D01*
X7508928Y-16362071D01*
X7480357Y-16390643D01*
X7451786Y-16404929D01*
X7894643Y-16319214D02*
X7751786Y-16319214D01*
X7737500Y-16462071D01*
X7751786Y-16447786D01*
X7780357Y-16433500D01*
X7851786Y-16433500D01*
X7880357Y-16447786D01*
X7894643Y-16462071D01*
X7908928Y-16490643D01*
X7908928Y-16562071D01*
X7894643Y-16590643D01*
X7880357Y-16604929D01*
X7851786Y-16619214D01*
X7780357Y-16619214D01*
X7751786Y-16604929D01*
X7737500Y-16590643D01*
X8023214Y-16319214D02*
X8023214Y-16376357D01*
X8137500Y-16319214D02*
X8137500Y-16376357D01*
X8580357Y-16733500D02*
X8566071Y-16719214D01*
X8537500Y-16676357D01*
X8523214Y-16647786D01*
X8508928Y-16604929D01*
X8494643Y-16533500D01*
X8494643Y-16476357D01*
X8508928Y-16404929D01*
X8523214Y-16362071D01*
X8537500Y-16333500D01*
X8566071Y-16290643D01*
X8580357Y-16276357D01*
X8751786Y-16319214D02*
X8780357Y-16319214D01*
X8808928Y-16333500D01*
X8823214Y-16347786D01*
X8837500Y-16376357D01*
X8851786Y-16433500D01*
X8851786Y-16504929D01*
X8837500Y-16562071D01*
X8823214Y-16590643D01*
X8808928Y-16604929D01*
X8780357Y-16619214D01*
X8751786Y-16619214D01*
X8723214Y-16604929D01*
X8708928Y-16590643D01*
X8694643Y-16562071D01*
X8680357Y-16504929D01*
X8680357Y-16433500D01*
X8694643Y-16376357D01*
X8708928Y-16347786D01*
X8723214Y-16333500D01*
X8751786Y-16319214D01*
X9208928Y-16619214D02*
X9208928Y-16319214D01*
X9337500Y-16619214D02*
X9337500Y-16462071D01*
X9323214Y-16433500D01*
X9294643Y-16419214D01*
X9251786Y-16419214D01*
X9223214Y-16433500D01*
X9208928Y-16447786D01*
X9523214Y-16619214D02*
X9494643Y-16604929D01*
X9480357Y-16590643D01*
X9466071Y-16562071D01*
X9466071Y-16476357D01*
X9480357Y-16447786D01*
X9494643Y-16433500D01*
X9523214Y-16419214D01*
X9566071Y-16419214D01*
X9594643Y-16433500D01*
X9608928Y-16447786D01*
X9623214Y-16476357D01*
X9623214Y-16562071D01*
X9608928Y-16590643D01*
X9594643Y-16604929D01*
X9566071Y-16619214D01*
X9523214Y-16619214D01*
X9794643Y-16619214D02*
X9766071Y-16604929D01*
X9751786Y-16576357D01*
X9751786Y-16319214D01*
X10023214Y-16604929D02*
X9994643Y-16619214D01*
X9937500Y-16619214D01*
X9908928Y-16604929D01*
X9894643Y-16576357D01*
X9894643Y-16462071D01*
X9908928Y-16433500D01*
X9937500Y-16419214D01*
X9994643Y-16419214D01*
X10023214Y-16433500D01*
X10037500Y-16462071D01*
X10037500Y-16490643D01*
X9894643Y-16519214D01*
X10151786Y-16604929D02*
X10180357Y-16619214D01*
X10237500Y-16619214D01*
X10266071Y-16604929D01*
X10280357Y-16576357D01*
X10280357Y-16562071D01*
X10266071Y-16533500D01*
X10237500Y-16519214D01*
X10194643Y-16519214D01*
X10166071Y-16504929D01*
X10151786Y-16476357D01*
X10151786Y-16462071D01*
X10166071Y-16433500D01*
X10194643Y-16419214D01*
X10237500Y-16419214D01*
X10266071Y-16433500D01*
X10637500Y-16504929D02*
X10866071Y-16504929D01*
X10751786Y-16619214D02*
X10751786Y-16390643D01*
X11208928Y-16319214D02*
X11394643Y-16319214D01*
X11294643Y-16433500D01*
X11337500Y-16433500D01*
X11366071Y-16447786D01*
X11380357Y-16462071D01*
X11394643Y-16490643D01*
X11394643Y-16562071D01*
X11380357Y-16590643D01*
X11366071Y-16604929D01*
X11337500Y-16619214D01*
X11251786Y-16619214D01*
X11223214Y-16604929D01*
X11208928Y-16590643D01*
X11737500Y-16604929D02*
X11766071Y-16619214D01*
X11823214Y-16619214D01*
X11851786Y-16604929D01*
X11866071Y-16576357D01*
X11866071Y-16562071D01*
X11851786Y-16533500D01*
X11823214Y-16519214D01*
X11780357Y-16519214D01*
X11751786Y-16504929D01*
X11737500Y-16476357D01*
X11737500Y-16462071D01*
X11751786Y-16433500D01*
X11780357Y-16419214D01*
X11823214Y-16419214D01*
X11851786Y-16433500D01*
X12037500Y-16619214D02*
X12008928Y-16604929D01*
X11994643Y-16576357D01*
X11994643Y-16319214D01*
X12194643Y-16619214D02*
X12166071Y-16604929D01*
X12151786Y-16590643D01*
X12137500Y-16562071D01*
X12137500Y-16476357D01*
X12151786Y-16447786D01*
X12166071Y-16433500D01*
X12194643Y-16419214D01*
X12237500Y-16419214D01*
X12266071Y-16433500D01*
X12280357Y-16447786D01*
X12294643Y-16476357D01*
X12294643Y-16562071D01*
X12280357Y-16590643D01*
X12266071Y-16604929D01*
X12237500Y-16619214D01*
X12194643Y-16619214D01*
X12380357Y-16419214D02*
X12494643Y-16419214D01*
X12423214Y-16319214D02*
X12423214Y-16576357D01*
X12437500Y-16604929D01*
X12466071Y-16619214D01*
X12494643Y-16619214D01*
X12580357Y-16604929D02*
X12608928Y-16619214D01*
X12666071Y-16619214D01*
X12694643Y-16604929D01*
X12708928Y-16576357D01*
X12708928Y-16562071D01*
X12694643Y-16533500D01*
X12666071Y-16519214D01*
X12623214Y-16519214D01*
X12594643Y-16504929D01*
X12580357Y-16476357D01*
X12580357Y-16462071D01*
X12594643Y-16433500D01*
X12623214Y-16419214D01*
X12666071Y-16419214D01*
X12694643Y-16433500D01*
X12808928Y-16733500D02*
X12823214Y-16719214D01*
X12851786Y-16676357D01*
X12866071Y-16647786D01*
X12880357Y-16604929D01*
X12894643Y-16533500D01*
X12894643Y-16476357D01*
X12880357Y-16404929D01*
X12866071Y-16362071D01*
X12851786Y-16333500D01*
X12823214Y-16290643D01*
X12808928Y-16276357D01*
X3273000Y-16830000D02*
X3273000Y-16929000D01*
X3223500Y-16879500D02*
X3322500Y-16879500D01*
X3666071Y-16715214D02*
X3694643Y-16715214D01*
X3723214Y-16729500D01*
X3737500Y-16743786D01*
X3751786Y-16772357D01*
X3766071Y-16829500D01*
X3766071Y-16900929D01*
X3751786Y-16958072D01*
X3737500Y-16986643D01*
X3723214Y-17000929D01*
X3694643Y-17015214D01*
X3666071Y-17015214D01*
X3637500Y-17000929D01*
X3623214Y-16986643D01*
X3608928Y-16958072D01*
X3594643Y-16900929D01*
X3594643Y-16829500D01*
X3608928Y-16772357D01*
X3623214Y-16743786D01*
X3637500Y-16729500D01*
X3666071Y-16715214D01*
X3894643Y-16986643D02*
X3908928Y-17000929D01*
X3894643Y-17015214D01*
X3880357Y-17000929D01*
X3894643Y-16986643D01*
X3894643Y-17015214D01*
X4051786Y-17015214D02*
X4108928Y-17015214D01*
X4137500Y-17000929D01*
X4151786Y-16986643D01*
X4180357Y-16943786D01*
X4194643Y-16886643D01*
X4194643Y-16772357D01*
X4180357Y-16743786D01*
X4166071Y-16729500D01*
X4137500Y-16715214D01*
X4080357Y-16715214D01*
X4051786Y-16729500D01*
X4037500Y-16743786D01*
X4023214Y-16772357D01*
X4023214Y-16843786D01*
X4037500Y-16872357D01*
X4051786Y-16886643D01*
X4080357Y-16900929D01*
X4137500Y-16900929D01*
X4166071Y-16886643D01*
X4180357Y-16872357D01*
X4194643Y-16843786D01*
X4337500Y-17015214D02*
X4394643Y-17015214D01*
X4423214Y-17000929D01*
X4437500Y-16986643D01*
X4466071Y-16943786D01*
X4480357Y-16886643D01*
X4480357Y-16772357D01*
X4466071Y-16743786D01*
X4451786Y-16729500D01*
X4423214Y-16715214D01*
X4366071Y-16715214D01*
X4337500Y-16729500D01*
X4323214Y-16743786D01*
X4308928Y-16772357D01*
X4308928Y-16843786D01*
X4323214Y-16872357D01*
X4337500Y-16886643D01*
X4366071Y-16900929D01*
X4423214Y-16900929D01*
X4451786Y-16886643D01*
X4466071Y-16872357D01*
X4480357Y-16843786D01*
X4666071Y-16715214D02*
X4694643Y-16715214D01*
X4723214Y-16729500D01*
X4737500Y-16743786D01*
X4751786Y-16772357D01*
X4766071Y-16829500D01*
X4766071Y-16900929D01*
X4751786Y-16958072D01*
X4737500Y-16986643D01*
X4723214Y-17000929D01*
X4694643Y-17015214D01*
X4666071Y-17015214D01*
X4637500Y-17000929D01*
X4623214Y-16986643D01*
X4608928Y-16958072D01*
X4594643Y-16900929D01*
X4594643Y-16829500D01*
X4608928Y-16772357D01*
X4623214Y-16743786D01*
X4637500Y-16729500D01*
X4666071Y-16715214D01*
X4894643Y-17015214D02*
X4894643Y-16815214D01*
X4894643Y-16843786D02*
X4908928Y-16829500D01*
X4937500Y-16815214D01*
X4980357Y-16815214D01*
X5008928Y-16829500D01*
X5023214Y-16858072D01*
X5023214Y-17015214D01*
X5023214Y-16858072D02*
X5037500Y-16829500D01*
X5066071Y-16815214D01*
X5108928Y-16815214D01*
X5137500Y-16829500D01*
X5151786Y-16858072D01*
X5151786Y-17015214D01*
X5294643Y-17015214D02*
X5294643Y-16815214D01*
X5294643Y-16843786D02*
X5308928Y-16829500D01*
X5337500Y-16815214D01*
X5380357Y-16815214D01*
X5408928Y-16829500D01*
X5423214Y-16858072D01*
X5423214Y-17015214D01*
X5423214Y-16858072D02*
X5437500Y-16829500D01*
X5466071Y-16815214D01*
X5508928Y-16815214D01*
X5537500Y-16829500D01*
X5551786Y-16858072D01*
X5551786Y-17015214D01*
X6137500Y-16700929D02*
X5880357Y-17086643D01*
X6523214Y-16715214D02*
X6551786Y-16715214D01*
X6580357Y-16729500D01*
X6594643Y-16743786D01*
X6608928Y-16772357D01*
X6623214Y-16829500D01*
X6623214Y-16900929D01*
X6608928Y-16958072D01*
X6594643Y-16986643D01*
X6580357Y-17000929D01*
X6551786Y-17015214D01*
X6523214Y-17015214D01*
X6494643Y-17000929D01*
X6480357Y-16986643D01*
X6466071Y-16958072D01*
X6451786Y-16900929D01*
X6451786Y-16829500D01*
X6466071Y-16772357D01*
X6480357Y-16743786D01*
X6494643Y-16729500D01*
X6523214Y-16715214D01*
X6751786Y-16986643D02*
X6766071Y-17000929D01*
X6751786Y-17015214D01*
X6737500Y-17000929D01*
X6751786Y-16986643D01*
X6751786Y-17015214D01*
X6951786Y-16715214D02*
X6980357Y-16715214D01*
X7008928Y-16729500D01*
X7023214Y-16743786D01*
X7037500Y-16772357D01*
X7051786Y-16829500D01*
X7051786Y-16900929D01*
X7037500Y-16958072D01*
X7023214Y-16986643D01*
X7008928Y-17000929D01*
X6980357Y-17015214D01*
X6951786Y-17015214D01*
X6923214Y-17000929D01*
X6908928Y-16986643D01*
X6894643Y-16958072D01*
X6880357Y-16900929D01*
X6880357Y-16829500D01*
X6894643Y-16772357D01*
X6908928Y-16743786D01*
X6923214Y-16729500D01*
X6951786Y-16715214D01*
X7151786Y-16715214D02*
X7337500Y-16715214D01*
X7237500Y-16829500D01*
X7280357Y-16829500D01*
X7308928Y-16843786D01*
X7323214Y-16858072D01*
X7337500Y-16886643D01*
X7337500Y-16958072D01*
X7323214Y-16986643D01*
X7308928Y-17000929D01*
X7280357Y-17015214D01*
X7194643Y-17015214D01*
X7166071Y-17000929D01*
X7151786Y-16986643D01*
X7480357Y-17015214D02*
X7537500Y-17015214D01*
X7566071Y-17000929D01*
X7580357Y-16986643D01*
X7608928Y-16943786D01*
X7623214Y-16886643D01*
X7623214Y-16772357D01*
X7608928Y-16743786D01*
X7594643Y-16729500D01*
X7566071Y-16715214D01*
X7508928Y-16715214D01*
X7480357Y-16729500D01*
X7466071Y-16743786D01*
X7451786Y-16772357D01*
X7451786Y-16843786D01*
X7466071Y-16872357D01*
X7480357Y-16886643D01*
X7508928Y-16900929D01*
X7566071Y-16900929D01*
X7594643Y-16886643D01*
X7608928Y-16872357D01*
X7623214Y-16843786D01*
X7808928Y-16715214D02*
X7837500Y-16715214D01*
X7866071Y-16729500D01*
X7880357Y-16743786D01*
X7894643Y-16772357D01*
X7908928Y-16829500D01*
X7908928Y-16900929D01*
X7894643Y-16958072D01*
X7880357Y-16986643D01*
X7866071Y-17000929D01*
X7837500Y-17015214D01*
X7808928Y-17015214D01*
X7780357Y-17000929D01*
X7766071Y-16986643D01*
X7751786Y-16958072D01*
X7737500Y-16900929D01*
X7737500Y-16829500D01*
X7751786Y-16772357D01*
X7766071Y-16743786D01*
X7780357Y-16729500D01*
X7808928Y-16715214D01*
X8023214Y-16715214D02*
X8023214Y-16772357D01*
X8137500Y-16715214D02*
X8137500Y-16772357D01*
X8580357Y-17129500D02*
X8566071Y-17115214D01*
X8537500Y-17072357D01*
X8523214Y-17043786D01*
X8508928Y-17000929D01*
X8494643Y-16929500D01*
X8494643Y-16872357D01*
X8508928Y-16800929D01*
X8523214Y-16758071D01*
X8537500Y-16729500D01*
X8566071Y-16686643D01*
X8580357Y-16672357D01*
X8737500Y-16843786D02*
X8708928Y-16829500D01*
X8694643Y-16815214D01*
X8680357Y-16786643D01*
X8680357Y-16772357D01*
X8694643Y-16743786D01*
X8708928Y-16729500D01*
X8737500Y-16715214D01*
X8794643Y-16715214D01*
X8823214Y-16729500D01*
X8837500Y-16743786D01*
X8851786Y-16772357D01*
X8851786Y-16786643D01*
X8837500Y-16815214D01*
X8823214Y-16829500D01*
X8794643Y-16843786D01*
X8737500Y-16843786D01*
X8708928Y-16858072D01*
X8694643Y-16872357D01*
X8680357Y-16900929D01*
X8680357Y-16958072D01*
X8694643Y-16986643D01*
X8708928Y-17000929D01*
X8737500Y-17015214D01*
X8794643Y-17015214D01*
X8823214Y-17000929D01*
X8837500Y-16986643D01*
X8851786Y-16958072D01*
X8851786Y-16900929D01*
X8837500Y-16872357D01*
X8823214Y-16858072D01*
X8794643Y-16843786D01*
X9208928Y-17015214D02*
X9208928Y-16715214D01*
X9337500Y-17015214D02*
X9337500Y-16858072D01*
X9323214Y-16829500D01*
X9294643Y-16815214D01*
X9251786Y-16815214D01*
X9223214Y-16829500D01*
X9208928Y-16843786D01*
X9523214Y-17015214D02*
X9494643Y-17000929D01*
X9480357Y-16986643D01*
X9466071Y-16958072D01*
X9466071Y-16872357D01*
X9480357Y-16843786D01*
X9494643Y-16829500D01*
X9523214Y-16815214D01*
X9566071Y-16815214D01*
X9594643Y-16829500D01*
X9608928Y-16843786D01*
X9623214Y-16872357D01*
X9623214Y-16958072D01*
X9608928Y-16986643D01*
X9594643Y-17000929D01*
X9566071Y-17015214D01*
X9523214Y-17015214D01*
X9794643Y-17015214D02*
X9766071Y-17000929D01*
X9751786Y-16972357D01*
X9751786Y-16715214D01*
X10023214Y-17000929D02*
X9994643Y-17015214D01*
X9937500Y-17015214D01*
X9908928Y-17000929D01*
X9894643Y-16972357D01*
X9894643Y-16858072D01*
X9908928Y-16829500D01*
X9937500Y-16815214D01*
X9994643Y-16815214D01*
X10023214Y-16829500D01*
X10037500Y-16858072D01*
X10037500Y-16886643D01*
X9894643Y-16915214D01*
X10151786Y-17000929D02*
X10180357Y-17015214D01*
X10237500Y-17015214D01*
X10266071Y-17000929D01*
X10280357Y-16972357D01*
X10280357Y-16958072D01*
X10266071Y-16929500D01*
X10237500Y-16915214D01*
X10194643Y-16915214D01*
X10166071Y-16900929D01*
X10151786Y-16872357D01*
X10151786Y-16858072D01*
X10166071Y-16829500D01*
X10194643Y-16815214D01*
X10237500Y-16815214D01*
X10266071Y-16829500D01*
X10380357Y-17129500D02*
X10394643Y-17115214D01*
X10423214Y-17072357D01*
X10437500Y-17043786D01*
X10451786Y-17000929D01*
X10466071Y-16929500D01*
X10466071Y-16872357D01*
X10451786Y-16800929D01*
X10437500Y-16758071D01*
X10423214Y-16729500D01*
X10394643Y-16686643D01*
X10380357Y-16672357D01*
X3307856Y-17310856D02*
X3307856Y-17240144D01*
X3237144Y-17240144D01*
X3237144Y-17310856D01*
X3307856Y-17310856D01*
X3766071Y-17411214D02*
X3594643Y-17411214D01*
X3680357Y-17411214D02*
X3680357Y-17111214D01*
X3651786Y-17154072D01*
X3623214Y-17182643D01*
X3594643Y-17196929D01*
X3894643Y-17382643D02*
X3908928Y-17396929D01*
X3894643Y-17411214D01*
X3880357Y-17396929D01*
X3894643Y-17382643D01*
X3894643Y-17411214D01*
X4094643Y-17111214D02*
X4123214Y-17111214D01*
X4151786Y-17125500D01*
X4166071Y-17139786D01*
X4180357Y-17168357D01*
X4194643Y-17225500D01*
X4194643Y-17296929D01*
X4180357Y-17354072D01*
X4166071Y-17382643D01*
X4151786Y-17396929D01*
X4123214Y-17411214D01*
X4094643Y-17411214D01*
X4066071Y-17396929D01*
X4051786Y-17382643D01*
X4037500Y-17354072D01*
X4023214Y-17296929D01*
X4023214Y-17225500D01*
X4037500Y-17168357D01*
X4051786Y-17139786D01*
X4066071Y-17125500D01*
X4094643Y-17111214D01*
X4380357Y-17111214D02*
X4408928Y-17111214D01*
X4437500Y-17125500D01*
X4451786Y-17139786D01*
X4466071Y-17168357D01*
X4480357Y-17225500D01*
X4480357Y-17296929D01*
X4466071Y-17354072D01*
X4451786Y-17382643D01*
X4437500Y-17396929D01*
X4408928Y-17411214D01*
X4380357Y-17411214D01*
X4351786Y-17396929D01*
X4337500Y-17382643D01*
X4323214Y-17354072D01*
X4308928Y-17296929D01*
X4308928Y-17225500D01*
X4323214Y-17168357D01*
X4337500Y-17139786D01*
X4351786Y-17125500D01*
X4380357Y-17111214D01*
X4666071Y-17111214D02*
X4694643Y-17111214D01*
X4723214Y-17125500D01*
X4737500Y-17139786D01*
X4751786Y-17168357D01*
X4766071Y-17225500D01*
X4766071Y-17296929D01*
X4751786Y-17354072D01*
X4737500Y-17382643D01*
X4723214Y-17396929D01*
X4694643Y-17411214D01*
X4666071Y-17411214D01*
X4637500Y-17396929D01*
X4623214Y-17382643D01*
X4608928Y-17354072D01*
X4594643Y-17296929D01*
X4594643Y-17225500D01*
X4608928Y-17168357D01*
X4623214Y-17139786D01*
X4637500Y-17125500D01*
X4666071Y-17111214D01*
X4894643Y-17411214D02*
X4894643Y-17211214D01*
X4894643Y-17239786D02*
X4908928Y-17225500D01*
X4937500Y-17211214D01*
X4980357Y-17211214D01*
X5008928Y-17225500D01*
X5023214Y-17254072D01*
X5023214Y-17411214D01*
X5023214Y-17254072D02*
X5037500Y-17225500D01*
X5066071Y-17211214D01*
X5108928Y-17211214D01*
X5137500Y-17225500D01*
X5151786Y-17254072D01*
X5151786Y-17411214D01*
X5294643Y-17411214D02*
X5294643Y-17211214D01*
X5294643Y-17239786D02*
X5308928Y-17225500D01*
X5337500Y-17211214D01*
X5380357Y-17211214D01*
X5408928Y-17225500D01*
X5423214Y-17254072D01*
X5423214Y-17411214D01*
X5423214Y-17254072D02*
X5437500Y-17225500D01*
X5466071Y-17211214D01*
X5508928Y-17211214D01*
X5537500Y-17225500D01*
X5551786Y-17254072D01*
X5551786Y-17411214D01*
X6137500Y-17096929D02*
X5880357Y-17482643D01*
X6523214Y-17111214D02*
X6551786Y-17111214D01*
X6580357Y-17125500D01*
X6594643Y-17139786D01*
X6608928Y-17168357D01*
X6623214Y-17225500D01*
X6623214Y-17296929D01*
X6608928Y-17354072D01*
X6594643Y-17382643D01*
X6580357Y-17396929D01*
X6551786Y-17411214D01*
X6523214Y-17411214D01*
X6494643Y-17396929D01*
X6480357Y-17382643D01*
X6466071Y-17354072D01*
X6451786Y-17296929D01*
X6451786Y-17225500D01*
X6466071Y-17168357D01*
X6480357Y-17139786D01*
X6494643Y-17125500D01*
X6523214Y-17111214D01*
X6751786Y-17382643D02*
X6766071Y-17396929D01*
X6751786Y-17411214D01*
X6737500Y-17396929D01*
X6751786Y-17382643D01*
X6751786Y-17411214D01*
X6951786Y-17111214D02*
X6980357Y-17111214D01*
X7008928Y-17125500D01*
X7023214Y-17139786D01*
X7037500Y-17168357D01*
X7051786Y-17225500D01*
X7051786Y-17296929D01*
X7037500Y-17354072D01*
X7023214Y-17382643D01*
X7008928Y-17396929D01*
X6980357Y-17411214D01*
X6951786Y-17411214D01*
X6923214Y-17396929D01*
X6908928Y-17382643D01*
X6894643Y-17354072D01*
X6880357Y-17296929D01*
X6880357Y-17225500D01*
X6894643Y-17168357D01*
X6908928Y-17139786D01*
X6923214Y-17125500D01*
X6951786Y-17111214D01*
X7151786Y-17111214D02*
X7337500Y-17111214D01*
X7237500Y-17225500D01*
X7280357Y-17225500D01*
X7308928Y-17239786D01*
X7323214Y-17254072D01*
X7337500Y-17282643D01*
X7337500Y-17354072D01*
X7323214Y-17382643D01*
X7308928Y-17396929D01*
X7280357Y-17411214D01*
X7194643Y-17411214D01*
X7166071Y-17396929D01*
X7151786Y-17382643D01*
X7480357Y-17411214D02*
X7537500Y-17411214D01*
X7566071Y-17396929D01*
X7580357Y-17382643D01*
X7608928Y-17339786D01*
X7623214Y-17282643D01*
X7623214Y-17168357D01*
X7608928Y-17139786D01*
X7594643Y-17125500D01*
X7566071Y-17111214D01*
X7508928Y-17111214D01*
X7480357Y-17125500D01*
X7466071Y-17139786D01*
X7451786Y-17168357D01*
X7451786Y-17239786D01*
X7466071Y-17268357D01*
X7480357Y-17282643D01*
X7508928Y-17296929D01*
X7566071Y-17296929D01*
X7594643Y-17282643D01*
X7608928Y-17268357D01*
X7623214Y-17239786D01*
X7880357Y-17211214D02*
X7880357Y-17411214D01*
X7808928Y-17096929D02*
X7737500Y-17311214D01*
X7923214Y-17311214D01*
X8023214Y-17111214D02*
X8023214Y-17168357D01*
X8137500Y-17111214D02*
X8137500Y-17168357D01*
X8580357Y-17525500D02*
X8566071Y-17511214D01*
X8537500Y-17468357D01*
X8523214Y-17439786D01*
X8508928Y-17396929D01*
X8494643Y-17325500D01*
X8494643Y-17268357D01*
X8508928Y-17196929D01*
X8523214Y-17154072D01*
X8537500Y-17125500D01*
X8566071Y-17082643D01*
X8580357Y-17068357D01*
X8851786Y-17411214D02*
X8680357Y-17411214D01*
X8766071Y-17411214D02*
X8766071Y-17111214D01*
X8737500Y-17154072D01*
X8708928Y-17182643D01*
X8680357Y-17196929D01*
X8966071Y-17139786D02*
X8980357Y-17125500D01*
X9008928Y-17111214D01*
X9080357Y-17111214D01*
X9108928Y-17125500D01*
X9123214Y-17139786D01*
X9137500Y-17168357D01*
X9137500Y-17196929D01*
X9123214Y-17239786D01*
X8951786Y-17411214D01*
X9137500Y-17411214D01*
X9323214Y-17111214D02*
X9351786Y-17111214D01*
X9380357Y-17125500D01*
X9394643Y-17139786D01*
X9408928Y-17168357D01*
X9423214Y-17225500D01*
X9423214Y-17296929D01*
X9408928Y-17354072D01*
X9394643Y-17382643D01*
X9380357Y-17396929D01*
X9351786Y-17411214D01*
X9323214Y-17411214D01*
X9294643Y-17396929D01*
X9280357Y-17382643D01*
X9266071Y-17354072D01*
X9251786Y-17296929D01*
X9251786Y-17225500D01*
X9266071Y-17168357D01*
X9280357Y-17139786D01*
X9294643Y-17125500D01*
X9323214Y-17111214D01*
X9780357Y-17411214D02*
X9780357Y-17111214D01*
X9908928Y-17411214D02*
X9908928Y-17254072D01*
X9894643Y-17225500D01*
X9866071Y-17211214D01*
X9823214Y-17211214D01*
X9794643Y-17225500D01*
X9780357Y-17239786D01*
X10094643Y-17411214D02*
X10066071Y-17396929D01*
X10051786Y-17382643D01*
X10037500Y-17354072D01*
X10037500Y-17268357D01*
X10051786Y-17239786D01*
X10066071Y-17225500D01*
X10094643Y-17211214D01*
X10137500Y-17211214D01*
X10166071Y-17225500D01*
X10180357Y-17239786D01*
X10194643Y-17268357D01*
X10194643Y-17354072D01*
X10180357Y-17382643D01*
X10166071Y-17396929D01*
X10137500Y-17411214D01*
X10094643Y-17411214D01*
X10366071Y-17411214D02*
X10337500Y-17396929D01*
X10323214Y-17368357D01*
X10323214Y-17111214D01*
X10594643Y-17396929D02*
X10566071Y-17411214D01*
X10508928Y-17411214D01*
X10480357Y-17396929D01*
X10466071Y-17368357D01*
X10466071Y-17254072D01*
X10480357Y-17225500D01*
X10508928Y-17211214D01*
X10566071Y-17211214D01*
X10594643Y-17225500D01*
X10608928Y-17254072D01*
X10608928Y-17282643D01*
X10466071Y-17311214D01*
X10723214Y-17396929D02*
X10751786Y-17411214D01*
X10808928Y-17411214D01*
X10837500Y-17396929D01*
X10851786Y-17368357D01*
X10851786Y-17354072D01*
X10837500Y-17325500D01*
X10808928Y-17311214D01*
X10766071Y-17311214D01*
X10737500Y-17296929D01*
X10723214Y-17268357D01*
X10723214Y-17254072D01*
X10737500Y-17225500D01*
X10766071Y-17211214D01*
X10808928Y-17211214D01*
X10837500Y-17225500D01*
X10951786Y-17525500D02*
X10966071Y-17511214D01*
X10994643Y-17468357D01*
X11008928Y-17439786D01*
X11023214Y-17396929D01*
X11037500Y-17325500D01*
X11037500Y-17268357D01*
X11023214Y-17196929D01*
X11008928Y-17154072D01*
X10994643Y-17125500D01*
X10966071Y-17082643D01*
X10951786Y-17068357D01*
X3267500Y-17726500D02*
X3322500Y-17671500D01*
X3267500Y-17616500D01*
X3212500Y-17671500D01*
X3267500Y-17726500D01*
X3766071Y-17807214D02*
X3594643Y-17807214D01*
X3680357Y-17807214D02*
X3680357Y-17507214D01*
X3651786Y-17550072D01*
X3623214Y-17578643D01*
X3594643Y-17592929D01*
X3894643Y-17778643D02*
X3908928Y-17792929D01*
X3894643Y-17807214D01*
X3880357Y-17792929D01*
X3894643Y-17778643D01*
X3894643Y-17807214D01*
X4194643Y-17807214D02*
X4023214Y-17807214D01*
X4108928Y-17807214D02*
X4108928Y-17507214D01*
X4080357Y-17550072D01*
X4051786Y-17578643D01*
X4023214Y-17592929D01*
X4380357Y-17507214D02*
X4408928Y-17507214D01*
X4437500Y-17521500D01*
X4451786Y-17535786D01*
X4466071Y-17564357D01*
X4480357Y-17621500D01*
X4480357Y-17692929D01*
X4466071Y-17750072D01*
X4451786Y-17778643D01*
X4437500Y-17792929D01*
X4408928Y-17807214D01*
X4380357Y-17807214D01*
X4351786Y-17792929D01*
X4337500Y-17778643D01*
X4323214Y-17750072D01*
X4308928Y-17692929D01*
X4308928Y-17621500D01*
X4323214Y-17564357D01*
X4337500Y-17535786D01*
X4351786Y-17521500D01*
X4380357Y-17507214D01*
X4666071Y-17507214D02*
X4694643Y-17507214D01*
X4723214Y-17521500D01*
X4737500Y-17535786D01*
X4751786Y-17564357D01*
X4766071Y-17621500D01*
X4766071Y-17692929D01*
X4751786Y-17750072D01*
X4737500Y-17778643D01*
X4723214Y-17792929D01*
X4694643Y-17807214D01*
X4666071Y-17807214D01*
X4637500Y-17792929D01*
X4623214Y-17778643D01*
X4608928Y-17750072D01*
X4594643Y-17692929D01*
X4594643Y-17621500D01*
X4608928Y-17564357D01*
X4623214Y-17535786D01*
X4637500Y-17521500D01*
X4666071Y-17507214D01*
X4894643Y-17807214D02*
X4894643Y-17607214D01*
X4894643Y-17635786D02*
X4908928Y-17621500D01*
X4937500Y-17607214D01*
X4980357Y-17607214D01*
X5008928Y-17621500D01*
X5023214Y-17650072D01*
X5023214Y-17807214D01*
X5023214Y-17650072D02*
X5037500Y-17621500D01*
X5066071Y-17607214D01*
X5108928Y-17607214D01*
X5137500Y-17621500D01*
X5151786Y-17650072D01*
X5151786Y-17807214D01*
X5294643Y-17807214D02*
X5294643Y-17607214D01*
X5294643Y-17635786D02*
X5308928Y-17621500D01*
X5337500Y-17607214D01*
X5380357Y-17607214D01*
X5408928Y-17621500D01*
X5423214Y-17650072D01*
X5423214Y-17807214D01*
X5423214Y-17650072D02*
X5437500Y-17621500D01*
X5466071Y-17607214D01*
X5508928Y-17607214D01*
X5537500Y-17621500D01*
X5551786Y-17650072D01*
X5551786Y-17807214D01*
X6137500Y-17492929D02*
X5880357Y-17878643D01*
X6523214Y-17507214D02*
X6551786Y-17507214D01*
X6580357Y-17521500D01*
X6594643Y-17535786D01*
X6608928Y-17564357D01*
X6623214Y-17621500D01*
X6623214Y-17692929D01*
X6608928Y-17750072D01*
X6594643Y-17778643D01*
X6580357Y-17792929D01*
X6551786Y-17807214D01*
X6523214Y-17807214D01*
X6494643Y-17792929D01*
X6480357Y-17778643D01*
X6466071Y-17750072D01*
X6451786Y-17692929D01*
X6451786Y-17621500D01*
X6466071Y-17564357D01*
X6480357Y-17535786D01*
X6494643Y-17521500D01*
X6523214Y-17507214D01*
X6751786Y-17778643D02*
X6766071Y-17792929D01*
X6751786Y-17807214D01*
X6737500Y-17792929D01*
X6751786Y-17778643D01*
X6751786Y-17807214D01*
X6951786Y-17507214D02*
X6980357Y-17507214D01*
X7008928Y-17521500D01*
X7023214Y-17535786D01*
X7037500Y-17564357D01*
X7051786Y-17621500D01*
X7051786Y-17692929D01*
X7037500Y-17750072D01*
X7023214Y-17778643D01*
X7008928Y-17792929D01*
X6980357Y-17807214D01*
X6951786Y-17807214D01*
X6923214Y-17792929D01*
X6908928Y-17778643D01*
X6894643Y-17750072D01*
X6880357Y-17692929D01*
X6880357Y-17621500D01*
X6894643Y-17564357D01*
X6908928Y-17535786D01*
X6923214Y-17521500D01*
X6951786Y-17507214D01*
X7308928Y-17607214D02*
X7308928Y-17807214D01*
X7237500Y-17492929D02*
X7166071Y-17707214D01*
X7351786Y-17707214D01*
X7437500Y-17507214D02*
X7623214Y-17507214D01*
X7523214Y-17621500D01*
X7566071Y-17621500D01*
X7594643Y-17635786D01*
X7608928Y-17650072D01*
X7623214Y-17678643D01*
X7623214Y-17750072D01*
X7608928Y-17778643D01*
X7594643Y-17792929D01*
X7566071Y-17807214D01*
X7480357Y-17807214D01*
X7451786Y-17792929D01*
X7437500Y-17778643D01*
X7723214Y-17507214D02*
X7908928Y-17507214D01*
X7808928Y-17621500D01*
X7851786Y-17621500D01*
X7880357Y-17635786D01*
X7894643Y-17650072D01*
X7908928Y-17678643D01*
X7908928Y-17750072D01*
X7894643Y-17778643D01*
X7880357Y-17792929D01*
X7851786Y-17807214D01*
X7766071Y-17807214D01*
X7737500Y-17792929D01*
X7723214Y-17778643D01*
X8023214Y-17507214D02*
X8023214Y-17564357D01*
X8137500Y-17507214D02*
X8137500Y-17564357D01*
X8580357Y-17921500D02*
X8566071Y-17907214D01*
X8537500Y-17864357D01*
X8523214Y-17835786D01*
X8508928Y-17792929D01*
X8494643Y-17721500D01*
X8494643Y-17664357D01*
X8508928Y-17592929D01*
X8523214Y-17550072D01*
X8537500Y-17521500D01*
X8566071Y-17478643D01*
X8580357Y-17464357D01*
X8680357Y-17535786D02*
X8694643Y-17521500D01*
X8723214Y-17507214D01*
X8794643Y-17507214D01*
X8823214Y-17521500D01*
X8837500Y-17535786D01*
X8851786Y-17564357D01*
X8851786Y-17592929D01*
X8837500Y-17635786D01*
X8666071Y-17807214D01*
X8851786Y-17807214D01*
X9208928Y-17807214D02*
X9208928Y-17507214D01*
X9337500Y-17807214D02*
X9337500Y-17650072D01*
X9323214Y-17621500D01*
X9294643Y-17607214D01*
X9251786Y-17607214D01*
X9223214Y-17621500D01*
X9208928Y-17635786D01*
X9523214Y-17807214D02*
X9494643Y-17792929D01*
X9480357Y-17778643D01*
X9466071Y-17750072D01*
X9466071Y-17664357D01*
X9480357Y-17635786D01*
X9494643Y-17621500D01*
X9523214Y-17607214D01*
X9566071Y-17607214D01*
X9594643Y-17621500D01*
X9608928Y-17635786D01*
X9623214Y-17664357D01*
X9623214Y-17750072D01*
X9608928Y-17778643D01*
X9594643Y-17792929D01*
X9566071Y-17807214D01*
X9523214Y-17807214D01*
X9794643Y-17807214D02*
X9766071Y-17792929D01*
X9751786Y-17764357D01*
X9751786Y-17507214D01*
X10023214Y-17792929D02*
X9994643Y-17807214D01*
X9937500Y-17807214D01*
X9908928Y-17792929D01*
X9894643Y-17764357D01*
X9894643Y-17650072D01*
X9908928Y-17621500D01*
X9937500Y-17607214D01*
X9994643Y-17607214D01*
X10023214Y-17621500D01*
X10037500Y-17650072D01*
X10037500Y-17678643D01*
X9894643Y-17707214D01*
X10151786Y-17792929D02*
X10180357Y-17807214D01*
X10237500Y-17807214D01*
X10266071Y-17792929D01*
X10280357Y-17764357D01*
X10280357Y-17750072D01*
X10266071Y-17721500D01*
X10237500Y-17707214D01*
X10194643Y-17707214D01*
X10166071Y-17692929D01*
X10151786Y-17664357D01*
X10151786Y-17650072D01*
X10166071Y-17621500D01*
X10194643Y-17607214D01*
X10237500Y-17607214D01*
X10266071Y-17621500D01*
X10380357Y-17921500D02*
X10394643Y-17907214D01*
X10423214Y-17864357D01*
X10437500Y-17835786D01*
X10451786Y-17792929D01*
X10466071Y-17721500D01*
X10466071Y-17664357D01*
X10451786Y-17592929D01*
X10437500Y-17550072D01*
X10423214Y-17521500D01*
X10394643Y-17478643D01*
X10380357Y-17464357D01*
M02*
