%FSLAX45Y45*%
G04 Gerber Fmt 4.5, Leading zero omitted, Abs format (unit mm)*
G04 Created by KiCad (PCBNEW (5.1.10)-1) date 2021-10-22 17:08:14*
%MOMM*%
%LPD*%
G01*
G04 APERTURE LIST*
%TA.AperFunction,Profile*%
%ADD10C,0.050000*%
%TD*%
%ADD11C,0.200000*%
%ADD12C,0.300000*%
G04 APERTURE END LIST*
D10*
X3325000Y-5375000D02*
G75*
G02*
X3575000Y-5125000I250000J0D01*
G01*
X13075000Y-5125000D02*
G75*
G02*
X13325000Y-5375000I0J-250000D01*
G01*
X13325000Y-14875000D02*
G75*
G02*
X13075000Y-15125000I-250000J0D01*
G01*
X3575000Y-15125000D02*
G75*
G02*
X3325000Y-14875000I0J250000D01*
G01*
X3460000Y-6925000D02*
G75*
G02*
X3325000Y-7060000I-135000J0D01*
G01*
X3325000Y-5920000D02*
G75*
G02*
X3460000Y-6055000I0J-135000D01*
G01*
X3325000Y-5375000D02*
X3325000Y-5920000D01*
X3460000Y-6055000D02*
X3460000Y-6925000D01*
X3325000Y-7060000D02*
X3325000Y-14875000D01*
X13075000Y-5125000D02*
X3575000Y-5125000D01*
X13325000Y-14875000D02*
X13325000Y-5375000D01*
X3575000Y-15125000D02*
X13075000Y-15125000D01*
D11*
X3830000Y-13460000D02*
X3920000Y-13550000D01*
X3920000Y-13460000D02*
X3830000Y-13550000D01*
X3830000Y-13900000D02*
X3920000Y-13990000D01*
X3920000Y-13900000D02*
X3830000Y-13990000D01*
X9953000Y-14969000D02*
G75*
G03*
X9953000Y-14969000I-55000J0D01*
G01*
X10207000Y-14969000D02*
G75*
G03*
X10207000Y-14969000I-55000J0D01*
G01*
D12*
X3608928Y-15593214D02*
X3608928Y-15293214D01*
X3680357Y-15293214D01*
X3723214Y-15307500D01*
X3751786Y-15336071D01*
X3766071Y-15364643D01*
X3780357Y-15421786D01*
X3780357Y-15464643D01*
X3766071Y-15521786D01*
X3751786Y-15550357D01*
X3723214Y-15578929D01*
X3680357Y-15593214D01*
X3608928Y-15593214D01*
X3908928Y-15593214D02*
X3908928Y-15393214D01*
X3908928Y-15450357D02*
X3923214Y-15421786D01*
X3937500Y-15407500D01*
X3966071Y-15393214D01*
X3994643Y-15393214D01*
X4094643Y-15593214D02*
X4094643Y-15393214D01*
X4094643Y-15293214D02*
X4080357Y-15307500D01*
X4094643Y-15321786D01*
X4108928Y-15307500D01*
X4094643Y-15293214D01*
X4094643Y-15321786D01*
X4280357Y-15593214D02*
X4251786Y-15578929D01*
X4237500Y-15550357D01*
X4237500Y-15293214D01*
X4437500Y-15593214D02*
X4408928Y-15578929D01*
X4394643Y-15550357D01*
X4394643Y-15293214D01*
X4780357Y-15593214D02*
X4780357Y-15293214D01*
X4880357Y-15507500D01*
X4980357Y-15293214D01*
X4980357Y-15593214D01*
X5251786Y-15593214D02*
X5251786Y-15436071D01*
X5237500Y-15407500D01*
X5208928Y-15393214D01*
X5151786Y-15393214D01*
X5123214Y-15407500D01*
X5251786Y-15578929D02*
X5223214Y-15593214D01*
X5151786Y-15593214D01*
X5123214Y-15578929D01*
X5108928Y-15550357D01*
X5108928Y-15521786D01*
X5123214Y-15493214D01*
X5151786Y-15478929D01*
X5223214Y-15478929D01*
X5251786Y-15464643D01*
X5394643Y-15393214D02*
X5394643Y-15693214D01*
X5394643Y-15407500D02*
X5423214Y-15393214D01*
X5480357Y-15393214D01*
X5508928Y-15407500D01*
X5523214Y-15421786D01*
X5537500Y-15450357D01*
X5537500Y-15536071D01*
X5523214Y-15564643D01*
X5508928Y-15578929D01*
X5480357Y-15593214D01*
X5423214Y-15593214D01*
X5394643Y-15578929D01*
X5666071Y-15564643D02*
X5680357Y-15578929D01*
X5666071Y-15593214D01*
X5651786Y-15578929D01*
X5666071Y-15564643D01*
X5666071Y-15593214D01*
X5666071Y-15407500D02*
X5680357Y-15421786D01*
X5666071Y-15436071D01*
X5651786Y-15421786D01*
X5666071Y-15407500D01*
X5666071Y-15436071D01*
X3232500Y-16042500D02*
X3322500Y-16132500D01*
X3322500Y-16042500D02*
X3232500Y-16132500D01*
X3666071Y-15923214D02*
X3694643Y-15923214D01*
X3723214Y-15937500D01*
X3737500Y-15951786D01*
X3751786Y-15980357D01*
X3766071Y-16037500D01*
X3766071Y-16108929D01*
X3751786Y-16166071D01*
X3737500Y-16194643D01*
X3723214Y-16208929D01*
X3694643Y-16223214D01*
X3666071Y-16223214D01*
X3637500Y-16208929D01*
X3623214Y-16194643D01*
X3608928Y-16166071D01*
X3594643Y-16108929D01*
X3594643Y-16037500D01*
X3608928Y-15980357D01*
X3623214Y-15951786D01*
X3637500Y-15937500D01*
X3666071Y-15923214D01*
X3894643Y-16194643D02*
X3908928Y-16208929D01*
X3894643Y-16223214D01*
X3880357Y-16208929D01*
X3894643Y-16194643D01*
X3894643Y-16223214D01*
X4051786Y-16223214D02*
X4108928Y-16223214D01*
X4137500Y-16208929D01*
X4151786Y-16194643D01*
X4180357Y-16151786D01*
X4194643Y-16094643D01*
X4194643Y-15980357D01*
X4180357Y-15951786D01*
X4166071Y-15937500D01*
X4137500Y-15923214D01*
X4080357Y-15923214D01*
X4051786Y-15937500D01*
X4037500Y-15951786D01*
X4023214Y-15980357D01*
X4023214Y-16051786D01*
X4037500Y-16080357D01*
X4051786Y-16094643D01*
X4080357Y-16108929D01*
X4137500Y-16108929D01*
X4166071Y-16094643D01*
X4180357Y-16080357D01*
X4194643Y-16051786D01*
X4380357Y-15923214D02*
X4408928Y-15923214D01*
X4437500Y-15937500D01*
X4451786Y-15951786D01*
X4466071Y-15980357D01*
X4480357Y-16037500D01*
X4480357Y-16108929D01*
X4466071Y-16166071D01*
X4451786Y-16194643D01*
X4437500Y-16208929D01*
X4408928Y-16223214D01*
X4380357Y-16223214D01*
X4351786Y-16208929D01*
X4337500Y-16194643D01*
X4323214Y-16166071D01*
X4308928Y-16108929D01*
X4308928Y-16037500D01*
X4323214Y-15980357D01*
X4337500Y-15951786D01*
X4351786Y-15937500D01*
X4380357Y-15923214D01*
X4666071Y-15923214D02*
X4694643Y-15923214D01*
X4723214Y-15937500D01*
X4737500Y-15951786D01*
X4751786Y-15980357D01*
X4766071Y-16037500D01*
X4766071Y-16108929D01*
X4751786Y-16166071D01*
X4737500Y-16194643D01*
X4723214Y-16208929D01*
X4694643Y-16223214D01*
X4666071Y-16223214D01*
X4637500Y-16208929D01*
X4623214Y-16194643D01*
X4608928Y-16166071D01*
X4594643Y-16108929D01*
X4594643Y-16037500D01*
X4608928Y-15980357D01*
X4623214Y-15951786D01*
X4637500Y-15937500D01*
X4666071Y-15923214D01*
X4894643Y-16223214D02*
X4894643Y-16023214D01*
X4894643Y-16051786D02*
X4908928Y-16037500D01*
X4937500Y-16023214D01*
X4980357Y-16023214D01*
X5008928Y-16037500D01*
X5023214Y-16066071D01*
X5023214Y-16223214D01*
X5023214Y-16066071D02*
X5037500Y-16037500D01*
X5066071Y-16023214D01*
X5108928Y-16023214D01*
X5137500Y-16037500D01*
X5151786Y-16066071D01*
X5151786Y-16223214D01*
X5294643Y-16223214D02*
X5294643Y-16023214D01*
X5294643Y-16051786D02*
X5308928Y-16037500D01*
X5337500Y-16023214D01*
X5380357Y-16023214D01*
X5408928Y-16037500D01*
X5423214Y-16066071D01*
X5423214Y-16223214D01*
X5423214Y-16066071D02*
X5437500Y-16037500D01*
X5466071Y-16023214D01*
X5508928Y-16023214D01*
X5537500Y-16037500D01*
X5551786Y-16066071D01*
X5551786Y-16223214D01*
X6137500Y-15908929D02*
X5880357Y-16294643D01*
X6523214Y-15923214D02*
X6551786Y-15923214D01*
X6580357Y-15937500D01*
X6594643Y-15951786D01*
X6608928Y-15980357D01*
X6623214Y-16037500D01*
X6623214Y-16108929D01*
X6608928Y-16166071D01*
X6594643Y-16194643D01*
X6580357Y-16208929D01*
X6551786Y-16223214D01*
X6523214Y-16223214D01*
X6494643Y-16208929D01*
X6480357Y-16194643D01*
X6466071Y-16166071D01*
X6451786Y-16108929D01*
X6451786Y-16037500D01*
X6466071Y-15980357D01*
X6480357Y-15951786D01*
X6494643Y-15937500D01*
X6523214Y-15923214D01*
X6751786Y-16194643D02*
X6766071Y-16208929D01*
X6751786Y-16223214D01*
X6737500Y-16208929D01*
X6751786Y-16194643D01*
X6751786Y-16223214D01*
X6951786Y-15923214D02*
X6980357Y-15923214D01*
X7008928Y-15937500D01*
X7023214Y-15951786D01*
X7037500Y-15980357D01*
X7051786Y-16037500D01*
X7051786Y-16108929D01*
X7037500Y-16166071D01*
X7023214Y-16194643D01*
X7008928Y-16208929D01*
X6980357Y-16223214D01*
X6951786Y-16223214D01*
X6923214Y-16208929D01*
X6908928Y-16194643D01*
X6894643Y-16166071D01*
X6880357Y-16108929D01*
X6880357Y-16037500D01*
X6894643Y-15980357D01*
X6908928Y-15951786D01*
X6923214Y-15937500D01*
X6951786Y-15923214D01*
X7151786Y-15923214D02*
X7337500Y-15923214D01*
X7237500Y-16037500D01*
X7280357Y-16037500D01*
X7308928Y-16051786D01*
X7323214Y-16066071D01*
X7337500Y-16094643D01*
X7337500Y-16166071D01*
X7323214Y-16194643D01*
X7308928Y-16208929D01*
X7280357Y-16223214D01*
X7194643Y-16223214D01*
X7166071Y-16208929D01*
X7151786Y-16194643D01*
X7608928Y-15923214D02*
X7466071Y-15923214D01*
X7451786Y-16066071D01*
X7466071Y-16051786D01*
X7494643Y-16037500D01*
X7566071Y-16037500D01*
X7594643Y-16051786D01*
X7608928Y-16066071D01*
X7623214Y-16094643D01*
X7623214Y-16166071D01*
X7608928Y-16194643D01*
X7594643Y-16208929D01*
X7566071Y-16223214D01*
X7494643Y-16223214D01*
X7466071Y-16208929D01*
X7451786Y-16194643D01*
X7880357Y-16023214D02*
X7880357Y-16223214D01*
X7808928Y-15908929D02*
X7737500Y-16123214D01*
X7923214Y-16123214D01*
X8023214Y-15923214D02*
X8023214Y-15980357D01*
X8137500Y-15923214D02*
X8137500Y-15980357D01*
X8580357Y-16337500D02*
X8566071Y-16323214D01*
X8537500Y-16280357D01*
X8523214Y-16251786D01*
X8508928Y-16208929D01*
X8494643Y-16137500D01*
X8494643Y-16080357D01*
X8508928Y-16008929D01*
X8523214Y-15966071D01*
X8537500Y-15937500D01*
X8566071Y-15894643D01*
X8580357Y-15880357D01*
X8680357Y-15951786D02*
X8694643Y-15937500D01*
X8723214Y-15923214D01*
X8794643Y-15923214D01*
X8823214Y-15937500D01*
X8837500Y-15951786D01*
X8851786Y-15980357D01*
X8851786Y-16008929D01*
X8837500Y-16051786D01*
X8666071Y-16223214D01*
X8851786Y-16223214D01*
X9208928Y-16223214D02*
X9208928Y-15923214D01*
X9337500Y-16223214D02*
X9337500Y-16066071D01*
X9323214Y-16037500D01*
X9294643Y-16023214D01*
X9251786Y-16023214D01*
X9223214Y-16037500D01*
X9208928Y-16051786D01*
X9523214Y-16223214D02*
X9494643Y-16208929D01*
X9480357Y-16194643D01*
X9466071Y-16166071D01*
X9466071Y-16080357D01*
X9480357Y-16051786D01*
X9494643Y-16037500D01*
X9523214Y-16023214D01*
X9566071Y-16023214D01*
X9594643Y-16037500D01*
X9608928Y-16051786D01*
X9623214Y-16080357D01*
X9623214Y-16166071D01*
X9608928Y-16194643D01*
X9594643Y-16208929D01*
X9566071Y-16223214D01*
X9523214Y-16223214D01*
X9794643Y-16223214D02*
X9766071Y-16208929D01*
X9751786Y-16180357D01*
X9751786Y-15923214D01*
X10023214Y-16208929D02*
X9994643Y-16223214D01*
X9937500Y-16223214D01*
X9908928Y-16208929D01*
X9894643Y-16180357D01*
X9894643Y-16066071D01*
X9908928Y-16037500D01*
X9937500Y-16023214D01*
X9994643Y-16023214D01*
X10023214Y-16037500D01*
X10037500Y-16066071D01*
X10037500Y-16094643D01*
X9894643Y-16123214D01*
X10151786Y-16208929D02*
X10180357Y-16223214D01*
X10237500Y-16223214D01*
X10266071Y-16208929D01*
X10280357Y-16180357D01*
X10280357Y-16166071D01*
X10266071Y-16137500D01*
X10237500Y-16123214D01*
X10194643Y-16123214D01*
X10166071Y-16108929D01*
X10151786Y-16080357D01*
X10151786Y-16066071D01*
X10166071Y-16037500D01*
X10194643Y-16023214D01*
X10237500Y-16023214D01*
X10266071Y-16037500D01*
X10380357Y-16337500D02*
X10394643Y-16323214D01*
X10423214Y-16280357D01*
X10437500Y-16251786D01*
X10451786Y-16208929D01*
X10466071Y-16137500D01*
X10466071Y-16080357D01*
X10451786Y-16008929D01*
X10437500Y-15966071D01*
X10423214Y-15937500D01*
X10394643Y-15894643D01*
X10380357Y-15880357D01*
X10923214Y-16337500D02*
X10908928Y-16323214D01*
X10880357Y-16280357D01*
X10866071Y-16251786D01*
X10851786Y-16208929D01*
X10837500Y-16137500D01*
X10837500Y-16080357D01*
X10851786Y-16008929D01*
X10866071Y-15966071D01*
X10880357Y-15937500D01*
X10908928Y-15894643D01*
X10923214Y-15880357D01*
X11037500Y-16023214D02*
X11037500Y-16223214D01*
X11037500Y-16051786D02*
X11051786Y-16037500D01*
X11080357Y-16023214D01*
X11123214Y-16023214D01*
X11151786Y-16037500D01*
X11166071Y-16066071D01*
X11166071Y-16223214D01*
X11351786Y-16223214D02*
X11323214Y-16208929D01*
X11308928Y-16194643D01*
X11294643Y-16166071D01*
X11294643Y-16080357D01*
X11308928Y-16051786D01*
X11323214Y-16037500D01*
X11351786Y-16023214D01*
X11394643Y-16023214D01*
X11423214Y-16037500D01*
X11437500Y-16051786D01*
X11451786Y-16080357D01*
X11451786Y-16166071D01*
X11437500Y-16194643D01*
X11423214Y-16208929D01*
X11394643Y-16223214D01*
X11351786Y-16223214D01*
X11537500Y-16023214D02*
X11651786Y-16023214D01*
X11580357Y-15923214D02*
X11580357Y-16180357D01*
X11594643Y-16208929D01*
X11623214Y-16223214D01*
X11651786Y-16223214D01*
X11980357Y-16023214D02*
X11980357Y-16323214D01*
X11980357Y-16037500D02*
X12008928Y-16023214D01*
X12066071Y-16023214D01*
X12094643Y-16037500D01*
X12108928Y-16051786D01*
X12123214Y-16080357D01*
X12123214Y-16166071D01*
X12108928Y-16194643D01*
X12094643Y-16208929D01*
X12066071Y-16223214D01*
X12008928Y-16223214D01*
X11980357Y-16208929D01*
X12294643Y-16223214D02*
X12266071Y-16208929D01*
X12251786Y-16180357D01*
X12251786Y-15923214D01*
X12537500Y-16223214D02*
X12537500Y-16066071D01*
X12523214Y-16037500D01*
X12494643Y-16023214D01*
X12437500Y-16023214D01*
X12408928Y-16037500D01*
X12537500Y-16208929D02*
X12508928Y-16223214D01*
X12437500Y-16223214D01*
X12408928Y-16208929D01*
X12394643Y-16180357D01*
X12394643Y-16151786D01*
X12408928Y-16123214D01*
X12437500Y-16108929D01*
X12508928Y-16108929D01*
X12537500Y-16094643D01*
X12637500Y-16023214D02*
X12751786Y-16023214D01*
X12680357Y-15923214D02*
X12680357Y-16180357D01*
X12694643Y-16208929D01*
X12723214Y-16223214D01*
X12751786Y-16223214D01*
X12966071Y-16208929D02*
X12937500Y-16223214D01*
X12880357Y-16223214D01*
X12851786Y-16208929D01*
X12837500Y-16180357D01*
X12837500Y-16066071D01*
X12851786Y-16037500D01*
X12880357Y-16023214D01*
X12937500Y-16023214D01*
X12966071Y-16037500D01*
X12980357Y-16066071D01*
X12980357Y-16094643D01*
X12837500Y-16123214D01*
X13237500Y-16223214D02*
X13237500Y-15923214D01*
X13237500Y-16208929D02*
X13208928Y-16223214D01*
X13151786Y-16223214D01*
X13123214Y-16208929D01*
X13108928Y-16194643D01*
X13094643Y-16166071D01*
X13094643Y-16080357D01*
X13108928Y-16051786D01*
X13123214Y-16037500D01*
X13151786Y-16023214D01*
X13208928Y-16023214D01*
X13237500Y-16037500D01*
X13351786Y-16337500D02*
X13366071Y-16323214D01*
X13394643Y-16280357D01*
X13408928Y-16251786D01*
X13423214Y-16208929D01*
X13437500Y-16137500D01*
X13437500Y-16080357D01*
X13423214Y-16008929D01*
X13408928Y-15966071D01*
X13394643Y-15937500D01*
X13366071Y-15894643D01*
X13351786Y-15880357D01*
X3322500Y-16483500D02*
G75*
G03*
X3322500Y-16483500I-55000J0D01*
G01*
X3766071Y-16619214D02*
X3594643Y-16619214D01*
X3680357Y-16619214D02*
X3680357Y-16319214D01*
X3651786Y-16362071D01*
X3623214Y-16390643D01*
X3594643Y-16404929D01*
X3894643Y-16590643D02*
X3908928Y-16604929D01*
X3894643Y-16619214D01*
X3880357Y-16604929D01*
X3894643Y-16590643D01*
X3894643Y-16619214D01*
X4194643Y-16619214D02*
X4023214Y-16619214D01*
X4108928Y-16619214D02*
X4108928Y-16319214D01*
X4080357Y-16362071D01*
X4051786Y-16390643D01*
X4023214Y-16404929D01*
X4380357Y-16319214D02*
X4408928Y-16319214D01*
X4437500Y-16333500D01*
X4451786Y-16347786D01*
X4466071Y-16376357D01*
X4480357Y-16433500D01*
X4480357Y-16504929D01*
X4466071Y-16562071D01*
X4451786Y-16590643D01*
X4437500Y-16604929D01*
X4408928Y-16619214D01*
X4380357Y-16619214D01*
X4351786Y-16604929D01*
X4337500Y-16590643D01*
X4323214Y-16562071D01*
X4308928Y-16504929D01*
X4308928Y-16433500D01*
X4323214Y-16376357D01*
X4337500Y-16347786D01*
X4351786Y-16333500D01*
X4380357Y-16319214D01*
X4666071Y-16319214D02*
X4694643Y-16319214D01*
X4723214Y-16333500D01*
X4737500Y-16347786D01*
X4751786Y-16376357D01*
X4766071Y-16433500D01*
X4766071Y-16504929D01*
X4751786Y-16562071D01*
X4737500Y-16590643D01*
X4723214Y-16604929D01*
X4694643Y-16619214D01*
X4666071Y-16619214D01*
X4637500Y-16604929D01*
X4623214Y-16590643D01*
X4608928Y-16562071D01*
X4594643Y-16504929D01*
X4594643Y-16433500D01*
X4608928Y-16376357D01*
X4623214Y-16347786D01*
X4637500Y-16333500D01*
X4666071Y-16319214D01*
X4894643Y-16619214D02*
X4894643Y-16419214D01*
X4894643Y-16447786D02*
X4908928Y-16433500D01*
X4937500Y-16419214D01*
X4980357Y-16419214D01*
X5008928Y-16433500D01*
X5023214Y-16462071D01*
X5023214Y-16619214D01*
X5023214Y-16462071D02*
X5037500Y-16433500D01*
X5066071Y-16419214D01*
X5108928Y-16419214D01*
X5137500Y-16433500D01*
X5151786Y-16462071D01*
X5151786Y-16619214D01*
X5294643Y-16619214D02*
X5294643Y-16419214D01*
X5294643Y-16447786D02*
X5308928Y-16433500D01*
X5337500Y-16419214D01*
X5380357Y-16419214D01*
X5408928Y-16433500D01*
X5423214Y-16462071D01*
X5423214Y-16619214D01*
X5423214Y-16462071D02*
X5437500Y-16433500D01*
X5466071Y-16419214D01*
X5508928Y-16419214D01*
X5537500Y-16433500D01*
X5551786Y-16462071D01*
X5551786Y-16619214D01*
X6137500Y-16304929D02*
X5880357Y-16690643D01*
X6523214Y-16319214D02*
X6551786Y-16319214D01*
X6580357Y-16333500D01*
X6594643Y-16347786D01*
X6608928Y-16376357D01*
X6623214Y-16433500D01*
X6623214Y-16504929D01*
X6608928Y-16562071D01*
X6594643Y-16590643D01*
X6580357Y-16604929D01*
X6551786Y-16619214D01*
X6523214Y-16619214D01*
X6494643Y-16604929D01*
X6480357Y-16590643D01*
X6466071Y-16562071D01*
X6451786Y-16504929D01*
X6451786Y-16433500D01*
X6466071Y-16376357D01*
X6480357Y-16347786D01*
X6494643Y-16333500D01*
X6523214Y-16319214D01*
X6751786Y-16590643D02*
X6766071Y-16604929D01*
X6751786Y-16619214D01*
X6737500Y-16604929D01*
X6751786Y-16590643D01*
X6751786Y-16619214D01*
X6951786Y-16319214D02*
X6980357Y-16319214D01*
X7008928Y-16333500D01*
X7023214Y-16347786D01*
X7037500Y-16376357D01*
X7051786Y-16433500D01*
X7051786Y-16504929D01*
X7037500Y-16562071D01*
X7023214Y-16590643D01*
X7008928Y-16604929D01*
X6980357Y-16619214D01*
X6951786Y-16619214D01*
X6923214Y-16604929D01*
X6908928Y-16590643D01*
X6894643Y-16562071D01*
X6880357Y-16504929D01*
X6880357Y-16433500D01*
X6894643Y-16376357D01*
X6908928Y-16347786D01*
X6923214Y-16333500D01*
X6951786Y-16319214D01*
X7308928Y-16419214D02*
X7308928Y-16619214D01*
X7237500Y-16304929D02*
X7166071Y-16519214D01*
X7351786Y-16519214D01*
X7437500Y-16319214D02*
X7623214Y-16319214D01*
X7523214Y-16433500D01*
X7566071Y-16433500D01*
X7594643Y-16447786D01*
X7608928Y-16462071D01*
X7623214Y-16490643D01*
X7623214Y-16562071D01*
X7608928Y-16590643D01*
X7594643Y-16604929D01*
X7566071Y-16619214D01*
X7480357Y-16619214D01*
X7451786Y-16604929D01*
X7437500Y-16590643D01*
X7723214Y-16319214D02*
X7908928Y-16319214D01*
X7808928Y-16433500D01*
X7851786Y-16433500D01*
X7880357Y-16447786D01*
X7894643Y-16462071D01*
X7908928Y-16490643D01*
X7908928Y-16562071D01*
X7894643Y-16590643D01*
X7880357Y-16604929D01*
X7851786Y-16619214D01*
X7766071Y-16619214D01*
X7737500Y-16604929D01*
X7723214Y-16590643D01*
X8023214Y-16319214D02*
X8023214Y-16376357D01*
X8137500Y-16319214D02*
X8137500Y-16376357D01*
X8580357Y-16733500D02*
X8566071Y-16719214D01*
X8537500Y-16676357D01*
X8523214Y-16647786D01*
X8508928Y-16604929D01*
X8494643Y-16533500D01*
X8494643Y-16476357D01*
X8508928Y-16404929D01*
X8523214Y-16362071D01*
X8537500Y-16333500D01*
X8566071Y-16290643D01*
X8580357Y-16276357D01*
X8680357Y-16347786D02*
X8694643Y-16333500D01*
X8723214Y-16319214D01*
X8794643Y-16319214D01*
X8823214Y-16333500D01*
X8837500Y-16347786D01*
X8851786Y-16376357D01*
X8851786Y-16404929D01*
X8837500Y-16447786D01*
X8666071Y-16619214D01*
X8851786Y-16619214D01*
X9208928Y-16619214D02*
X9208928Y-16319214D01*
X9337500Y-16619214D02*
X9337500Y-16462071D01*
X9323214Y-16433500D01*
X9294643Y-16419214D01*
X9251786Y-16419214D01*
X9223214Y-16433500D01*
X9208928Y-16447786D01*
X9523214Y-16619214D02*
X9494643Y-16604929D01*
X9480357Y-16590643D01*
X9466071Y-16562071D01*
X9466071Y-16476357D01*
X9480357Y-16447786D01*
X9494643Y-16433500D01*
X9523214Y-16419214D01*
X9566071Y-16419214D01*
X9594643Y-16433500D01*
X9608928Y-16447786D01*
X9623214Y-16476357D01*
X9623214Y-16562071D01*
X9608928Y-16590643D01*
X9594643Y-16604929D01*
X9566071Y-16619214D01*
X9523214Y-16619214D01*
X9794643Y-16619214D02*
X9766071Y-16604929D01*
X9751786Y-16576357D01*
X9751786Y-16319214D01*
X10023214Y-16604929D02*
X9994643Y-16619214D01*
X9937500Y-16619214D01*
X9908928Y-16604929D01*
X9894643Y-16576357D01*
X9894643Y-16462071D01*
X9908928Y-16433500D01*
X9937500Y-16419214D01*
X9994643Y-16419214D01*
X10023214Y-16433500D01*
X10037500Y-16462071D01*
X10037500Y-16490643D01*
X9894643Y-16519214D01*
X10151786Y-16604929D02*
X10180357Y-16619214D01*
X10237500Y-16619214D01*
X10266071Y-16604929D01*
X10280357Y-16576357D01*
X10280357Y-16562071D01*
X10266071Y-16533500D01*
X10237500Y-16519214D01*
X10194643Y-16519214D01*
X10166071Y-16504929D01*
X10151786Y-16476357D01*
X10151786Y-16462071D01*
X10166071Y-16433500D01*
X10194643Y-16419214D01*
X10237500Y-16419214D01*
X10266071Y-16433500D01*
X10380357Y-16733500D02*
X10394643Y-16719214D01*
X10423214Y-16676357D01*
X10437500Y-16647786D01*
X10451786Y-16604929D01*
X10466071Y-16533500D01*
X10466071Y-16476357D01*
X10451786Y-16404929D01*
X10437500Y-16362071D01*
X10423214Y-16333500D01*
X10394643Y-16290643D01*
X10380357Y-16276357D01*
X10923214Y-16733500D02*
X10908928Y-16719214D01*
X10880357Y-16676357D01*
X10866071Y-16647786D01*
X10851786Y-16604929D01*
X10837500Y-16533500D01*
X10837500Y-16476357D01*
X10851786Y-16404929D01*
X10866071Y-16362071D01*
X10880357Y-16333500D01*
X10908928Y-16290643D01*
X10923214Y-16276357D01*
X11037500Y-16419214D02*
X11037500Y-16619214D01*
X11037500Y-16447786D02*
X11051786Y-16433500D01*
X11080357Y-16419214D01*
X11123214Y-16419214D01*
X11151786Y-16433500D01*
X11166071Y-16462071D01*
X11166071Y-16619214D01*
X11351786Y-16619214D02*
X11323214Y-16604929D01*
X11308928Y-16590643D01*
X11294643Y-16562071D01*
X11294643Y-16476357D01*
X11308928Y-16447786D01*
X11323214Y-16433500D01*
X11351786Y-16419214D01*
X11394643Y-16419214D01*
X11423214Y-16433500D01*
X11437500Y-16447786D01*
X11451786Y-16476357D01*
X11451786Y-16562071D01*
X11437500Y-16590643D01*
X11423214Y-16604929D01*
X11394643Y-16619214D01*
X11351786Y-16619214D01*
X11537500Y-16419214D02*
X11651786Y-16419214D01*
X11580357Y-16319214D02*
X11580357Y-16576357D01*
X11594643Y-16604929D01*
X11623214Y-16619214D01*
X11651786Y-16619214D01*
X11980357Y-16419214D02*
X11980357Y-16719214D01*
X11980357Y-16433500D02*
X12008928Y-16419214D01*
X12066071Y-16419214D01*
X12094643Y-16433500D01*
X12108928Y-16447786D01*
X12123214Y-16476357D01*
X12123214Y-16562071D01*
X12108928Y-16590643D01*
X12094643Y-16604929D01*
X12066071Y-16619214D01*
X12008928Y-16619214D01*
X11980357Y-16604929D01*
X12294643Y-16619214D02*
X12266071Y-16604929D01*
X12251786Y-16576357D01*
X12251786Y-16319214D01*
X12537500Y-16619214D02*
X12537500Y-16462071D01*
X12523214Y-16433500D01*
X12494643Y-16419214D01*
X12437500Y-16419214D01*
X12408928Y-16433500D01*
X12537500Y-16604929D02*
X12508928Y-16619214D01*
X12437500Y-16619214D01*
X12408928Y-16604929D01*
X12394643Y-16576357D01*
X12394643Y-16547786D01*
X12408928Y-16519214D01*
X12437500Y-16504929D01*
X12508928Y-16504929D01*
X12537500Y-16490643D01*
X12637500Y-16419214D02*
X12751786Y-16419214D01*
X12680357Y-16319214D02*
X12680357Y-16576357D01*
X12694643Y-16604929D01*
X12723214Y-16619214D01*
X12751786Y-16619214D01*
X12966071Y-16604929D02*
X12937500Y-16619214D01*
X12880357Y-16619214D01*
X12851786Y-16604929D01*
X12837500Y-16576357D01*
X12837500Y-16462071D01*
X12851786Y-16433500D01*
X12880357Y-16419214D01*
X12937500Y-16419214D01*
X12966071Y-16433500D01*
X12980357Y-16462071D01*
X12980357Y-16490643D01*
X12837500Y-16519214D01*
X13237500Y-16619214D02*
X13237500Y-16319214D01*
X13237500Y-16604929D02*
X13208928Y-16619214D01*
X13151786Y-16619214D01*
X13123214Y-16604929D01*
X13108928Y-16590643D01*
X13094643Y-16562071D01*
X13094643Y-16476357D01*
X13108928Y-16447786D01*
X13123214Y-16433500D01*
X13151786Y-16419214D01*
X13208928Y-16419214D01*
X13237500Y-16433500D01*
X13351786Y-16733500D02*
X13366071Y-16719214D01*
X13394643Y-16676357D01*
X13408928Y-16647786D01*
X13423214Y-16604929D01*
X13437500Y-16533500D01*
X13437500Y-16476357D01*
X13423214Y-16404929D01*
X13408928Y-16362071D01*
X13394643Y-16333500D01*
X13366071Y-16290643D01*
X13351786Y-16276357D01*
M02*
