M48
; DRILL file {KiCad (5.1.10)-1} date 10/22/21 20:37:00
; FORMAT={-:-/ absolute / metric / decimal}
; #@! TF.CreationDate,2021-10-22T20:37:00-06:00
; #@! TF.GenerationSoftware,Kicad,Pcbnew,(5.1.10)-1
; #@! TF.FileFunction,Plated,1,4,PTH
FMAT,2
METRIC
T1C0.300
T2C0.800
T3C0.990
T4C1.000
T5C1.100
%
G90
G05
T1
X35.75Y-132.75
X35.75Y-141.5
X36.05Y-61.1
X36.05Y-68.35
X37.65Y-66.05
X41.25Y-132.75
X41.25Y-141.5
X41.4Y-60.0
X41.55Y-122.75
X42.5Y-60.0
X44.25Y-118.05
X45.725Y-115.375
X46.0Y-62.9
X49.35Y-124.95
X49.612Y-140.387
X49.7Y-57.75
X50.555Y-124.145
X51.025Y-136.8
X52.1Y-145.0
X53.0Y-145.0
X53.35Y-57.75
X53.45Y-122.95
X55.15Y-73.65
X56.45Y-118.15
X62.45Y-107.55
X62.712Y-141.537
X65.25Y-135.45
X65.65Y-116.85
X66.0Y-111.375
X67.0Y-98.75
X67.475Y-90.95
X69.65Y-115.4
X70.5Y-97.25
X70.55Y-80.9
X70.75Y-103.5
X70.75Y-106.5
X71.075Y-88.5
X71.25Y-79.975
X71.4Y-110.025
X71.475Y-91.375
X71.5Y-112.925
X73.075Y-87.725
X73.35Y-94.75
X73.35Y-97.4
X73.4Y-104.325
X73.65Y-98.575
X74.0Y-96.25
X75.525Y-88.475
X75.65Y-81.65
X76.4Y-112.0
X76.75Y-97.75
X76.75Y-99.75
X76.825Y-91.9
X77.275Y-102.5
X77.35Y-83.875
X77.4Y-89.55
X77.45Y-101.15
X77.75Y-112.75
X78.0Y-96.75
X78.2Y-102.65
X78.5Y-110.25
X78.75Y-107.55
X79.65Y-87.15
X80.45Y-88.25
X80.7Y-89.175
X80.75Y-92.0
X80.85Y-107.35
X81.25Y-81.75
X81.25Y-129.15
X81.4Y-65.1
X81.55Y-101.15
X82.75Y-81.75
X83.75Y-112.6
X83.95Y-115.05
X84.25Y-90.35
X85.75Y-114.225
X86.05Y-100.8
X86.25Y-111.15
X86.5Y-113.325
X86.75Y-92.0
X86.775Y-89.225
X86.9Y-83.6
X87.4Y-64.8
X88.4Y-112.15
X88.75Y-90.85
X88.9Y-100.225
X89.4Y-87.45
X89.75Y-96.25
X89.75Y-99.25
X89.75Y-102.75
X91.9Y-90.1
X92.475Y-98.95
X92.875Y-102.95
X93.15Y-109.05
X94.575Y-111.75
X94.85Y-101.45
X95.25Y-99.0
X95.25Y-103.35
X95.75Y-137.5
X95.975Y-139.525
X97.725Y-103.725
X98.35Y-102.25
X99.75Y-136.25
X101.45Y-131.85
X102.075Y-140.175
X108.95Y-122.95
X112.9Y-92.2
X113.1Y-104.5
X113.675Y-142.0
X114.4Y-89.0
X115.0Y-84.5
X115.45Y-140.825
X115.525Y-134.25
X116.375Y-149.15
X116.975Y-142.225
X117.225Y-145.2
X118.0Y-69.15
X121.15Y-122.65
X121.7Y-124.2
X121.775Y-104.075
X122.15Y-122.65
X123.5Y-120.35
X123.5Y-121.3
X124.45Y-99.15
X125.5Y-124.65
X127.125Y-130.125
X127.275Y-77.725
X127.275Y-87.225
X127.625Y-124.65
X129.7Y-124.65
T3
X104.25Y-57.25
X104.25Y-61.75
X110.75Y-57.25
X110.75Y-61.75
X118.55Y-57.25
X118.55Y-61.75
X125.05Y-57.25
X125.05Y-61.75
T4
X40.75Y-91.25
X40.75Y-93.79
X40.75Y-103.71
X40.75Y-106.25
X40.75Y-108.79
X43.29Y-91.25
X43.29Y-93.79
X43.29Y-103.71
X43.29Y-106.25
X43.29Y-108.79
X55.71Y-91.88
X55.71Y-94.42
X55.71Y-96.96
X55.71Y-99.5
X55.71Y-102.04
X55.71Y-104.58
X55.71Y-107.12
X58.25Y-91.88
X58.25Y-94.42
X58.25Y-96.96
X58.25Y-99.5
X58.25Y-102.04
X58.25Y-104.58
X58.25Y-107.12
X65.3Y-122.71
X65.3Y-125.25
X67.84Y-122.71
X67.84Y-125.25
X70.38Y-122.71
X70.38Y-125.25
X72.25Y-56.96
X72.25Y-59.5
X72.9Y-70.85
X72.9Y-73.39
X72.92Y-122.71
X72.92Y-125.25
X75.42Y-139.0
X75.42Y-141.54
X75.44Y-70.85
X75.44Y-73.39
X75.46Y-122.71
X75.46Y-125.25
X77.96Y-139.0
X77.96Y-141.54
X77.98Y-70.85
X77.98Y-73.39
X78.0Y-122.71
X78.0Y-125.25
X80.5Y-139.0
X80.5Y-141.54
X80.52Y-70.85
X80.52Y-73.39
X80.54Y-122.71
X80.54Y-125.25
X83.06Y-70.85
X83.06Y-73.39
X83.08Y-122.71
X83.08Y-125.25
X85.6Y-70.85
X85.6Y-73.39
X85.62Y-122.71
X85.62Y-125.25
X86.1Y-145.0
X88.14Y-70.85
X88.14Y-73.39
X88.16Y-122.71
X88.16Y-125.25
X88.64Y-145.0
X90.68Y-70.85
X90.68Y-73.39
X90.7Y-122.71
X90.7Y-125.25
X93.22Y-70.85
X93.22Y-73.39
X93.5Y-57.0
X93.5Y-59.54
X103.25Y-118.75
X103.25Y-121.29
X103.25Y-123.83
X105.71Y-88.43
X105.71Y-90.97
X105.71Y-93.51
X105.71Y-96.05
X105.71Y-98.59
X105.71Y-101.13
X105.71Y-103.67
X105.71Y-106.21
X105.71Y-108.75
X105.79Y-118.75
X105.79Y-121.29
X105.79Y-123.83
X105.85Y-75.95
X105.85Y-78.49
X108.25Y-88.43
X108.25Y-90.97
X108.25Y-93.51
X108.25Y-96.05
X108.25Y-98.59
X108.25Y-101.13
X108.25Y-103.67
X108.25Y-106.21
X108.25Y-108.75
X108.39Y-75.95
X108.39Y-78.49
X113.725Y-126.925
X113.725Y-129.465
X116.15Y-69.15
X116.15Y-71.69
X116.265Y-126.925
X116.265Y-129.465
X119.8Y-69.15
X119.8Y-71.69
X128.95Y-98.1
X128.95Y-100.64
X128.95Y-103.18
X128.95Y-105.72
X128.95Y-108.26
X128.95Y-110.8
X128.95Y-113.34
X128.95Y-115.88
T5
X98.98Y-147.15
X101.52Y-147.15
T2
X124.75Y-136.9G85X127.35Y-136.9
G05
X124.95Y-142.7G85X127.15Y-142.7
G05
X130.85Y-141.0G85X130.85Y-138.8
G05
T0
M30
