G04 #@! TF.GenerationSoftware,KiCad,Pcbnew,(5.1.8)-1*
G04 #@! TF.CreationDate,2021-10-16T18:10:37-06:00*
G04 #@! TF.ProjectId,SAMduino,53414d64-7569-46e6-9f2e-6b696361645f,rev?*
G04 #@! TF.SameCoordinates,Original*
G04 #@! TF.FileFunction,Soldermask,Bot*
G04 #@! TF.FilePolarity,Negative*
%FSLAX46Y46*%
G04 Gerber Fmt 4.6, Leading zero omitted, Abs format (unit mm)*
G04 Created by KiCad (PCBNEW (5.1.8)-1) date 2021-10-16 18:10:37*
%MOMM*%
%LPD*%
G01*
G04 APERTURE LIST*
%ADD10C,1.540000*%
%ADD11O,1.700000X1.700000*%
%ADD12R,1.700000X1.700000*%
%ADD13C,1.650000*%
%ADD14C,0.900000*%
%ADD15R,4.400000X1.800000*%
%ADD16O,4.000000X1.800000*%
%ADD17O,1.800000X4.000000*%
G04 APERTURE END LIST*
D10*
X104250000Y-57250000D03*
X110750000Y-57250000D03*
X104250000Y-61750000D03*
X110750000Y-61750000D03*
X118550000Y-57250000D03*
X125050000Y-57250000D03*
X118550000Y-61750000D03*
X125050000Y-61750000D03*
D11*
X128950000Y-115880000D03*
X128950000Y-113340000D03*
X128950000Y-110800000D03*
X128950000Y-108260000D03*
X128950000Y-105720000D03*
X128950000Y-103180000D03*
X128950000Y-100640000D03*
D12*
X128950000Y-98100000D03*
D11*
X105790000Y-123830000D03*
X103250000Y-123830000D03*
X105790000Y-121290000D03*
X103250000Y-121290000D03*
X105790000Y-118750000D03*
D12*
X103250000Y-118750000D03*
D11*
X43290000Y-93790000D03*
X40750000Y-93790000D03*
X43290000Y-91250000D03*
D12*
X40750000Y-91250000D03*
D11*
X75420000Y-141540000D03*
X75420000Y-139000000D03*
X77960000Y-141540000D03*
X77960000Y-139000000D03*
X80500000Y-141540000D03*
D12*
X80500000Y-139000000D03*
D11*
X119800000Y-71690000D03*
D12*
X119800000Y-69150000D03*
D11*
X43290000Y-108790000D03*
X40750000Y-108790000D03*
X43290000Y-106250000D03*
X40750000Y-106250000D03*
X43290000Y-103710000D03*
D12*
X40750000Y-103710000D03*
D11*
X108390000Y-78490000D03*
X105850000Y-78490000D03*
X108390000Y-75950000D03*
D12*
X105850000Y-75950000D03*
D11*
X116150000Y-71690000D03*
D12*
X116150000Y-69150000D03*
D11*
X72900000Y-73390000D03*
X72900000Y-70850000D03*
X75440000Y-73390000D03*
X75440000Y-70850000D03*
X77980000Y-73390000D03*
X77980000Y-70850000D03*
X80520000Y-73390000D03*
X80520000Y-70850000D03*
X83060000Y-73390000D03*
X83060000Y-70850000D03*
X85600000Y-73390000D03*
X85600000Y-70850000D03*
X88140000Y-73390000D03*
X88140000Y-70850000D03*
X90680000Y-73390000D03*
X90680000Y-70850000D03*
X93220000Y-73390000D03*
D12*
X93220000Y-70850000D03*
D11*
X105710000Y-88430000D03*
X108250000Y-88430000D03*
X105710000Y-90970000D03*
X108250000Y-90970000D03*
X105710000Y-93510000D03*
X108250000Y-93510000D03*
X105710000Y-96050000D03*
X108250000Y-96050000D03*
X105710000Y-98590000D03*
X108250000Y-98590000D03*
X105710000Y-101130000D03*
X108250000Y-101130000D03*
X105710000Y-103670000D03*
X108250000Y-103670000D03*
X105710000Y-106210000D03*
X108250000Y-106210000D03*
X105710000Y-108750000D03*
D12*
X108250000Y-108750000D03*
D11*
X90700000Y-122710000D03*
X90700000Y-125250000D03*
X88160000Y-122710000D03*
X88160000Y-125250000D03*
X85620000Y-122710000D03*
X85620000Y-125250000D03*
X83080000Y-122710000D03*
X83080000Y-125250000D03*
X80540000Y-122710000D03*
X80540000Y-125250000D03*
X78000000Y-122710000D03*
X78000000Y-125250000D03*
X75460000Y-122710000D03*
X75460000Y-125250000D03*
X72920000Y-122710000D03*
X72920000Y-125250000D03*
X70380000Y-122710000D03*
X70380000Y-125250000D03*
X67840000Y-122710000D03*
X67840000Y-125250000D03*
X65300000Y-122710000D03*
D12*
X65300000Y-125250000D03*
D11*
X58250000Y-107120000D03*
X55710000Y-107120000D03*
X58250000Y-104580000D03*
X55710000Y-104580000D03*
X58250000Y-102040000D03*
X55710000Y-102040000D03*
X58250000Y-99500000D03*
X55710000Y-99500000D03*
X58250000Y-96960000D03*
X55710000Y-96960000D03*
X58250000Y-94420000D03*
X55710000Y-94420000D03*
X58250000Y-91880000D03*
D12*
X55710000Y-91880000D03*
D11*
X93500000Y-59540000D03*
D12*
X93500000Y-57000000D03*
D11*
X72250000Y-56960000D03*
D12*
X72250000Y-59500000D03*
D13*
X101520000Y-147150000D03*
X98980000Y-147150000D03*
D11*
X88640000Y-145000000D03*
D12*
X86100000Y-145000000D03*
D14*
X38750000Y-139450000D03*
X38750000Y-135050000D03*
D11*
X114790000Y-132590000D03*
X112250000Y-132590000D03*
X114790000Y-130050000D03*
D12*
X112250000Y-130050000D03*
D15*
X126050000Y-136900000D03*
D16*
X126050000Y-142700000D03*
D17*
X130850000Y-139900000D03*
M02*
