G04 #@! TF.GenerationSoftware,KiCad,Pcbnew,(5.1.8)-1*
G04 #@! TF.CreationDate,2021-10-17T22:58:45-06:00*
G04 #@! TF.ProjectId,SAMduino,53414d64-7569-46e6-9f2e-6b696361645f,rev?*
G04 #@! TF.SameCoordinates,Original*
G04 #@! TF.FileFunction,Copper,L4,Bot*
G04 #@! TF.FilePolarity,Positive*
%FSLAX46Y46*%
G04 Gerber Fmt 4.6, Leading zero omitted, Abs format (unit mm)*
G04 Created by KiCad (PCBNEW (5.1.8)-1) date 2021-10-17 22:58:45*
%MOMM*%
%LPD*%
G01*
G04 APERTURE LIST*
G04 #@! TA.AperFunction,ComponentPad*
%ADD10C,1.540000*%
G04 #@! TD*
G04 #@! TA.AperFunction,ComponentPad*
%ADD11O,1.700000X1.700000*%
G04 #@! TD*
G04 #@! TA.AperFunction,ComponentPad*
%ADD12R,1.700000X1.700000*%
G04 #@! TD*
G04 #@! TA.AperFunction,ComponentPad*
%ADD13C,1.650000*%
G04 #@! TD*
G04 #@! TA.AperFunction,ComponentPad*
%ADD14R,4.400000X1.800000*%
G04 #@! TD*
G04 #@! TA.AperFunction,ComponentPad*
%ADD15O,4.000000X1.800000*%
G04 #@! TD*
G04 #@! TA.AperFunction,ComponentPad*
%ADD16O,1.800000X4.000000*%
G04 #@! TD*
G04 #@! TA.AperFunction,ViaPad*
%ADD17C,0.400000*%
G04 #@! TD*
G04 #@! TA.AperFunction,Conductor*
%ADD18C,0.400000*%
G04 #@! TD*
G04 #@! TA.AperFunction,Conductor*
%ADD19C,0.250000*%
G04 #@! TD*
G04 APERTURE END LIST*
D10*
X104250000Y-57250000D03*
X110750000Y-57250000D03*
X104250000Y-61750000D03*
X110750000Y-61750000D03*
X118550000Y-57250000D03*
X125050000Y-57250000D03*
X118550000Y-61750000D03*
X125050000Y-61750000D03*
D11*
X128950000Y-115880000D03*
X128950000Y-113340000D03*
X128950000Y-110800000D03*
X128950000Y-108260000D03*
X128950000Y-105720000D03*
X128950000Y-103180000D03*
X128950000Y-100640000D03*
D12*
X128950000Y-98100000D03*
D11*
X105790000Y-123830000D03*
X103250000Y-123830000D03*
X105790000Y-121290000D03*
X103250000Y-121290000D03*
X105790000Y-118750000D03*
D12*
X103250000Y-118750000D03*
D11*
X43290000Y-93790000D03*
X40750000Y-93790000D03*
X43290000Y-91250000D03*
D12*
X40750000Y-91250000D03*
D11*
X75420000Y-141540000D03*
X75420000Y-139000000D03*
X77960000Y-141540000D03*
X77960000Y-139000000D03*
X80500000Y-141540000D03*
D12*
X80500000Y-139000000D03*
D11*
X119800000Y-71690000D03*
D12*
X119800000Y-69150000D03*
D11*
X43290000Y-108790000D03*
X40750000Y-108790000D03*
X43290000Y-106250000D03*
X40750000Y-106250000D03*
X43290000Y-103710000D03*
D12*
X40750000Y-103710000D03*
D11*
X108390000Y-78490000D03*
X105850000Y-78490000D03*
X108390000Y-75950000D03*
D12*
X105850000Y-75950000D03*
D11*
X116150000Y-71690000D03*
D12*
X116150000Y-69150000D03*
D11*
X72900000Y-73390000D03*
X72900000Y-70850000D03*
X75440000Y-73390000D03*
X75440000Y-70850000D03*
X77980000Y-73390000D03*
X77980000Y-70850000D03*
X80520000Y-73390000D03*
X80520000Y-70850000D03*
X83060000Y-73390000D03*
X83060000Y-70850000D03*
X85600000Y-73390000D03*
X85600000Y-70850000D03*
X88140000Y-73390000D03*
X88140000Y-70850000D03*
X90680000Y-73390000D03*
X90680000Y-70850000D03*
X93220000Y-73390000D03*
D12*
X93220000Y-70850000D03*
D11*
X105710000Y-88430000D03*
X108250000Y-88430000D03*
X105710000Y-90970000D03*
X108250000Y-90970000D03*
X105710000Y-93510000D03*
X108250000Y-93510000D03*
X105710000Y-96050000D03*
X108250000Y-96050000D03*
X105710000Y-98590000D03*
X108250000Y-98590000D03*
X105710000Y-101130000D03*
X108250000Y-101130000D03*
X105710000Y-103670000D03*
X108250000Y-103670000D03*
X105710000Y-106210000D03*
X108250000Y-106210000D03*
X105710000Y-108750000D03*
D12*
X108250000Y-108750000D03*
D11*
X90700000Y-122710000D03*
X90700000Y-125250000D03*
X88160000Y-122710000D03*
X88160000Y-125250000D03*
X85620000Y-122710000D03*
X85620000Y-125250000D03*
X83080000Y-122710000D03*
X83080000Y-125250000D03*
X80540000Y-122710000D03*
X80540000Y-125250000D03*
X78000000Y-122710000D03*
X78000000Y-125250000D03*
X75460000Y-122710000D03*
X75460000Y-125250000D03*
X72920000Y-122710000D03*
X72920000Y-125250000D03*
X70380000Y-122710000D03*
X70380000Y-125250000D03*
X67840000Y-122710000D03*
X67840000Y-125250000D03*
X65300000Y-122710000D03*
D12*
X65300000Y-125250000D03*
D11*
X58250000Y-107120000D03*
X55710000Y-107120000D03*
X58250000Y-104580000D03*
X55710000Y-104580000D03*
X58250000Y-102040000D03*
X55710000Y-102040000D03*
X58250000Y-99500000D03*
X55710000Y-99500000D03*
X58250000Y-96960000D03*
X55710000Y-96960000D03*
X58250000Y-94420000D03*
X55710000Y-94420000D03*
X58250000Y-91880000D03*
D12*
X55710000Y-91880000D03*
D11*
X93500000Y-59540000D03*
D12*
X93500000Y-57000000D03*
D11*
X72250000Y-56960000D03*
D12*
X72250000Y-59500000D03*
D13*
X101520000Y-147150000D03*
X98980000Y-147150000D03*
D11*
X88640000Y-145000000D03*
D12*
X86100000Y-145000000D03*
D11*
X114790000Y-132590000D03*
X112250000Y-132590000D03*
X114790000Y-130050000D03*
D12*
X112250000Y-130050000D03*
D14*
X126050000Y-136900000D03*
D15*
X126050000Y-142700000D03*
D16*
X130850000Y-139900000D03*
D17*
X41250000Y-141500000D03*
X35750000Y-141500000D03*
X41250000Y-132750000D03*
X35750000Y-132750000D03*
X121300000Y-133400000D03*
X129800000Y-127650000D03*
X125800000Y-127650000D03*
X129800000Y-124150000D03*
X125800000Y-124150000D03*
X99750000Y-136250000D03*
X106975000Y-137275000D03*
X105725000Y-135775000D03*
X95750000Y-137500000D03*
X49612500Y-140387500D03*
X73750000Y-98750000D03*
X77750000Y-112750000D03*
X70750000Y-103500000D03*
X70750000Y-106500000D03*
X76750000Y-97750000D03*
X76750000Y-99750000D03*
X74000000Y-96250000D03*
X70500000Y-97250000D03*
X82750000Y-81750000D03*
X86750000Y-89500000D03*
X89750000Y-96250000D03*
X89750000Y-99250000D03*
X95250000Y-99000000D03*
X89750000Y-102750000D03*
X76470000Y-82530000D03*
X68000000Y-90500000D03*
X44250000Y-118050000D03*
X50555000Y-124145000D03*
X80750000Y-89350000D03*
X36050000Y-61100000D03*
X36050000Y-68350000D03*
X37650000Y-66050000D03*
X53350000Y-57750000D03*
X115000000Y-84500000D03*
X83749994Y-112600000D03*
X127275000Y-87225000D03*
X78750000Y-107550000D03*
X115125000Y-146775000D03*
X91900000Y-90099998D03*
X71500000Y-112925000D03*
X71400000Y-110025000D03*
X76450000Y-89500000D03*
X74650000Y-90775000D03*
X74300000Y-88150000D03*
X66000000Y-111375000D03*
X121300000Y-128400000D03*
X119800000Y-128400000D03*
X95975000Y-139525000D03*
X62712500Y-141537500D03*
X67000000Y-98750000D03*
X73750000Y-97250000D03*
X74730000Y-89020000D03*
X78500000Y-110250000D03*
X74250000Y-104250000D03*
X81250000Y-81750000D03*
X86750000Y-92000000D03*
X92500000Y-98750000D03*
X80750000Y-92000000D03*
X45725000Y-115375000D03*
X41550000Y-122750000D03*
X65250000Y-135450000D03*
X127275000Y-77725000D03*
X118000000Y-69150000D03*
X124450000Y-99150000D03*
X121775000Y-104075000D03*
X120600000Y-128435000D03*
X51025002Y-136799998D03*
X42500000Y-60000000D03*
X41400000Y-60000000D03*
X52100000Y-145000000D03*
X53000000Y-145000000D03*
X78000000Y-96750000D03*
X75250000Y-81500000D03*
X46000000Y-62900000D03*
X84250000Y-90350000D03*
X89400000Y-87450000D03*
X81400000Y-65100000D03*
X87400000Y-64800000D03*
X72250000Y-89056204D03*
X71250000Y-80950000D03*
X79749983Y-88049983D03*
X71250000Y-80350000D03*
X80450000Y-88250000D03*
X87285010Y-83664990D03*
X88750000Y-90850000D03*
X112900000Y-92200000D03*
X93150000Y-109050000D03*
X88900000Y-100225000D03*
X95000000Y-101250000D03*
X86050000Y-100800000D03*
X72200000Y-90700000D03*
X55150000Y-73650000D03*
X49700000Y-57750000D03*
X114400000Y-89000000D03*
X98349999Y-102250001D03*
X94575000Y-111750000D03*
X101450000Y-131850000D03*
X102075000Y-140175000D03*
X92552578Y-103324990D03*
X95250000Y-103750000D03*
X97349990Y-104300010D03*
X108950000Y-122950000D03*
X81250012Y-129149988D03*
X113100000Y-104500000D03*
X88250000Y-112050000D03*
X49350000Y-124950000D03*
X86750000Y-113175000D03*
X86250000Y-111150000D03*
X53450000Y-122950000D03*
X85750000Y-114225000D03*
X83950000Y-115050000D03*
X65650000Y-116850000D03*
X80850000Y-107350000D03*
X69650000Y-115400000D03*
X76400000Y-112000000D03*
X78200000Y-102650000D03*
X56450000Y-118150000D03*
X77250000Y-102750000D03*
X81550000Y-101150000D03*
X77450000Y-101150000D03*
X62450000Y-107550000D03*
X73350000Y-94750000D03*
D18*
X42500000Y-60000000D02*
X41400000Y-60000000D01*
X52125001Y-135625001D02*
X52125001Y-144974999D01*
X46250000Y-129750000D02*
X52125001Y-135625001D01*
X52125001Y-144974999D02*
X52100000Y-145000000D01*
X35650000Y-126409998D02*
X38990002Y-129750000D01*
X38990002Y-129750000D02*
X46250000Y-129750000D01*
X35650000Y-83350000D02*
X35650000Y-126409998D01*
X41400000Y-77600000D02*
X35650000Y-83350000D01*
X41400000Y-60000000D02*
X41400000Y-77600000D01*
X52100000Y-145000000D02*
X53000000Y-145000000D01*
X116550000Y-131810000D02*
X114790000Y-130050000D01*
X116550000Y-134400000D02*
X116550000Y-131810000D01*
X109410000Y-141540000D02*
X116550000Y-134400000D01*
X80500000Y-141540000D02*
X109410000Y-141540000D01*
D19*
X78000000Y-96750000D02*
X78000000Y-88250000D01*
X78000000Y-88250000D02*
X75250000Y-85500000D01*
X75250000Y-85500000D02*
X75250000Y-81500000D01*
X110990000Y-132590000D02*
X112250000Y-132590000D01*
X109000000Y-130600000D02*
X110990000Y-132590000D01*
X52250000Y-130600000D02*
X109000000Y-130600000D01*
X48750000Y-127100000D02*
X52250000Y-130600000D01*
X38500000Y-127100000D02*
X48750000Y-127100000D01*
X37950000Y-126550000D02*
X38500000Y-127100000D01*
X37950000Y-84250000D02*
X37950000Y-126550000D01*
X46000000Y-76200000D02*
X37950000Y-84250000D01*
X46000000Y-62900000D02*
X46000000Y-76200000D01*
X84250000Y-90350000D02*
X84250000Y-89500000D01*
X84250000Y-89500000D02*
X86300000Y-87450000D01*
X86300000Y-87450000D02*
X89400000Y-87450000D01*
X81800000Y-65500000D02*
X81400000Y-65100000D01*
X81800000Y-72130000D02*
X81800000Y-65500000D01*
X83060000Y-73390000D02*
X81800000Y-72130000D01*
X86900000Y-65300000D02*
X87400000Y-64800000D01*
X86900000Y-72090000D02*
X86900000Y-65300000D01*
X85600000Y-73390000D02*
X86900000Y-72090000D01*
X43290000Y-106250000D02*
X48725000Y-100815000D01*
X48725000Y-100815000D02*
X48725000Y-94325000D01*
X53993796Y-89056204D02*
X72250000Y-89056204D01*
X48725000Y-94325000D02*
X53993796Y-89056204D01*
X71250000Y-80950000D02*
X77750000Y-80950000D01*
X77750000Y-80950000D02*
X79749983Y-82949983D01*
X79749983Y-82949983D02*
X79749983Y-88049983D01*
X71250000Y-80350000D02*
X77950000Y-80350000D01*
X77950000Y-80350000D02*
X80450000Y-82850000D01*
X80450000Y-82850000D02*
X80450000Y-88250000D01*
X104250000Y-61750000D02*
X104250000Y-66700000D01*
X104250000Y-66700000D02*
X87285010Y-83664990D01*
X88750000Y-90850000D02*
X91500000Y-90850000D01*
X91500000Y-90850000D02*
X92800000Y-92150000D01*
X112850000Y-92150000D02*
X112900000Y-92200000D01*
X92800000Y-92150000D02*
X112850000Y-92150000D01*
X93150000Y-109050000D02*
X93150000Y-107950000D01*
X93150000Y-107950000D02*
X88925000Y-103725000D01*
X88925000Y-100250000D02*
X88900000Y-100225000D01*
X88925000Y-103725000D02*
X88925000Y-100250000D01*
X126900000Y-105800000D02*
X128870000Y-105800000D01*
X118750000Y-113950000D02*
X126900000Y-105800000D01*
X128870000Y-105800000D02*
X128950000Y-105720000D01*
X105950000Y-113950000D02*
X118750000Y-113950000D01*
X96500000Y-104500000D02*
X105950000Y-113950000D01*
X96500000Y-102750000D02*
X96500000Y-104500000D01*
X95000000Y-101250000D02*
X96500000Y-102750000D01*
X86050000Y-100800000D02*
X83000000Y-97750000D01*
X83000000Y-97750000D02*
X77950000Y-97750000D01*
X77950000Y-97750000D02*
X72200000Y-92000000D01*
X72200000Y-92000000D02*
X72200000Y-90700000D01*
X55150000Y-73650000D02*
X55150000Y-64250000D01*
X49700000Y-58800000D02*
X49700000Y-57750000D01*
X55150000Y-64250000D02*
X49700000Y-58800000D01*
X114350000Y-89050000D02*
X114400000Y-89000000D01*
X114400000Y-95400000D02*
X112500000Y-97300000D01*
X114400000Y-89000000D02*
X114400000Y-95400000D01*
X103300000Y-97300000D02*
X98349999Y-102250001D01*
X112500000Y-97300000D02*
X103300000Y-97300000D01*
X101450000Y-131850000D02*
X101450000Y-132500000D01*
X101450000Y-132500000D02*
X102175000Y-133225000D01*
X102175000Y-140075000D02*
X102075000Y-140175000D01*
X102175000Y-133225000D02*
X102175000Y-140075000D01*
X94575000Y-105347412D02*
X92552578Y-103324990D01*
X94575000Y-111750000D02*
X94575000Y-105347412D01*
X127870000Y-114800000D02*
X128950000Y-115880000D01*
X105650000Y-114800000D02*
X127870000Y-114800000D01*
X102300000Y-111450000D02*
X105650000Y-114800000D01*
X95900000Y-104400000D02*
X95900000Y-105050000D01*
X95250000Y-103750000D02*
X95900000Y-104400000D01*
X95900000Y-105050000D02*
X102300000Y-111450000D01*
X128250000Y-97400000D02*
X128950000Y-98100000D01*
X125700000Y-105600000D02*
X125700000Y-101000000D01*
X118300000Y-113000000D02*
X125700000Y-105600000D01*
X106150000Y-113000000D02*
X118300000Y-113000000D01*
X125700000Y-101000000D02*
X128600000Y-98100000D01*
X97450010Y-104300010D02*
X106150000Y-113000000D01*
X128600000Y-98100000D02*
X128950000Y-98100000D01*
X97349990Y-104300010D02*
X97450010Y-104300010D01*
X108950000Y-122950000D02*
X102750012Y-129149988D01*
X102750012Y-129149988D02*
X81250012Y-129149988D01*
X113100000Y-104500000D02*
X113100000Y-103900000D01*
X111794999Y-102594999D02*
X106855001Y-102594999D01*
X113100000Y-103900000D02*
X111794999Y-102594999D01*
X105780000Y-103670000D02*
X105710000Y-103670000D01*
X106855001Y-102594999D02*
X105780000Y-103670000D01*
X58250000Y-119050000D02*
X52350000Y-124950000D01*
X78350000Y-119050000D02*
X58250000Y-119050000D01*
X85350000Y-112050000D02*
X78350000Y-119050000D01*
X52350000Y-124950000D02*
X49350000Y-124950000D01*
X88250000Y-112050000D02*
X85350000Y-112050000D01*
X100215000Y-113175000D02*
X105790000Y-118750000D01*
X86750000Y-113175000D02*
X100215000Y-113175000D01*
X86250000Y-111150000D02*
X80450000Y-111150000D01*
X80450000Y-111150000D02*
X73250000Y-118350000D01*
X73250000Y-118350000D02*
X58050000Y-118350000D01*
X58050000Y-118350000D02*
X53450000Y-122950000D01*
X98725000Y-114225000D02*
X103250000Y-118750000D01*
X85750000Y-114225000D02*
X98725000Y-114225000D01*
X97010000Y-115050000D02*
X103250000Y-121290000D01*
X83950000Y-115050000D02*
X97010000Y-115050000D01*
X80450000Y-106950000D02*
X80850000Y-107350000D01*
X71750000Y-113650000D02*
X78450000Y-106950000D01*
X69900000Y-113650000D02*
X71750000Y-113650000D01*
X78450000Y-106950000D02*
X80450000Y-106950000D01*
X66700000Y-116850000D02*
X69900000Y-113650000D01*
X65650000Y-116850000D02*
X66700000Y-116850000D01*
X69650000Y-115400000D02*
X72950000Y-115400000D01*
X76350000Y-112000000D02*
X76400000Y-112000000D01*
X72950000Y-115400000D02*
X76350000Y-112000000D01*
X58250000Y-102100000D02*
X58250000Y-102040000D01*
X57025000Y-103325000D02*
X58250000Y-102100000D01*
X53750000Y-103325000D02*
X57025000Y-103325000D01*
X49525000Y-107550000D02*
X53750000Y-103325000D01*
X42050000Y-107550000D02*
X49525000Y-107550000D01*
X40750000Y-106250000D02*
X42050000Y-107550000D01*
X107175000Y-119905000D02*
X105790000Y-121290000D01*
X107175000Y-117825000D02*
X107175000Y-119905000D01*
X101650000Y-112300000D02*
X107175000Y-117825000D01*
X93050000Y-112300000D02*
X101650000Y-112300000D01*
X83400000Y-102650000D02*
X93050000Y-112300000D01*
X78200000Y-102650000D02*
X83400000Y-102650000D01*
X56450000Y-118150000D02*
X68050000Y-106550000D01*
X68050000Y-106550000D02*
X68050000Y-104750000D01*
X68050000Y-104750000D02*
X70050000Y-102750000D01*
X70050000Y-102750000D02*
X77250000Y-102750000D01*
X81550000Y-101150000D02*
X77450000Y-101150000D01*
X62450000Y-107550000D02*
X62450000Y-100950000D01*
X62450000Y-100950000D02*
X68850000Y-94550000D01*
X73150000Y-94550000D02*
X73350000Y-94750000D01*
X68850000Y-94550000D02*
X73150000Y-94550000D01*
M02*
