G04 #@! TF.GenerationSoftware,KiCad,Pcbnew,(5.1.8)-1*
G04 #@! TF.CreationDate,2021-10-17T22:58:45-06:00*
G04 #@! TF.ProjectId,SAMduino,53414d64-7569-46e6-9f2e-6b696361645f,rev?*
G04 #@! TF.SameCoordinates,Original*
G04 #@! TF.FileFunction,Copper,L1,Top*
G04 #@! TF.FilePolarity,Positive*
%FSLAX46Y46*%
G04 Gerber Fmt 4.6, Leading zero omitted, Abs format (unit mm)*
G04 Created by KiCad (PCBNEW (5.1.8)-1) date 2021-10-17 22:58:45*
%MOMM*%
%LPD*%
G01*
G04 APERTURE LIST*
G04 #@! TA.AperFunction,SMDPad,CuDef*
%ADD10R,1.200000X0.600000*%
G04 #@! TD*
G04 #@! TA.AperFunction,SMDPad,CuDef*
%ADD11R,0.700000X0.500000*%
G04 #@! TD*
G04 #@! TA.AperFunction,SMDPad,CuDef*
%ADD12R,0.700000X0.600000*%
G04 #@! TD*
G04 #@! TA.AperFunction,SMDPad,CuDef*
%ADD13R,1.550000X1.000000*%
G04 #@! TD*
G04 #@! TA.AperFunction,ComponentPad*
%ADD14C,1.540000*%
G04 #@! TD*
G04 #@! TA.AperFunction,ComponentPad*
%ADD15O,1.700000X1.700000*%
G04 #@! TD*
G04 #@! TA.AperFunction,ComponentPad*
%ADD16R,1.700000X1.700000*%
G04 #@! TD*
G04 #@! TA.AperFunction,ComponentPad*
%ADD17C,1.650000*%
G04 #@! TD*
G04 #@! TA.AperFunction,SMDPad,CuDef*
%ADD18R,2.500000X0.500000*%
G04 #@! TD*
G04 #@! TA.AperFunction,SMDPad,CuDef*
%ADD19R,2.500000X2.000000*%
G04 #@! TD*
G04 #@! TA.AperFunction,SMDPad,CuDef*
%ADD20R,1.400000X0.400000*%
G04 #@! TD*
G04 #@! TA.AperFunction,SMDPad,CuDef*
%ADD21R,1.900000X2.300000*%
G04 #@! TD*
G04 #@! TA.AperFunction,SMDPad,CuDef*
%ADD22R,1.900000X1.800000*%
G04 #@! TD*
G04 #@! TA.AperFunction,ComponentPad*
%ADD23R,4.400000X1.800000*%
G04 #@! TD*
G04 #@! TA.AperFunction,ComponentPad*
%ADD24O,4.000000X1.800000*%
G04 #@! TD*
G04 #@! TA.AperFunction,ComponentPad*
%ADD25O,1.800000X4.000000*%
G04 #@! TD*
G04 #@! TA.AperFunction,SMDPad,CuDef*
%ADD26R,0.650000X1.500000*%
G04 #@! TD*
G04 #@! TA.AperFunction,SMDPad,CuDef*
%ADD27R,1.500000X0.650000*%
G04 #@! TD*
G04 #@! TA.AperFunction,SMDPad,CuDef*
%ADD28R,0.700000X1.550000*%
G04 #@! TD*
G04 #@! TA.AperFunction,SMDPad,CuDef*
%ADD29R,3.000000X1.600000*%
G04 #@! TD*
G04 #@! TA.AperFunction,SMDPad,CuDef*
%ADD30R,6.200000X5.800000*%
G04 #@! TD*
G04 #@! TA.AperFunction,SMDPad,CuDef*
%ADD31R,0.600000X1.400000*%
G04 #@! TD*
G04 #@! TA.AperFunction,SMDPad,CuDef*
%ADD32R,0.300000X1.475000*%
G04 #@! TD*
G04 #@! TA.AperFunction,SMDPad,CuDef*
%ADD33R,1.475000X0.300000*%
G04 #@! TD*
G04 #@! TA.AperFunction,SMDPad,CuDef*
%ADD34R,0.900000X1.200000*%
G04 #@! TD*
G04 #@! TA.AperFunction,SMDPad,CuDef*
%ADD35R,1.200000X0.900000*%
G04 #@! TD*
G04 #@! TA.AperFunction,ViaPad*
%ADD36C,0.400000*%
G04 #@! TD*
G04 #@! TA.AperFunction,Conductor*
%ADD37C,0.250000*%
G04 #@! TD*
G04 #@! TA.AperFunction,Conductor*
%ADD38C,0.400000*%
G04 #@! TD*
G04 #@! TA.AperFunction,Conductor*
%ADD39C,0.200000*%
G04 #@! TD*
G04 #@! TA.AperFunction,Conductor*
%ADD40C,0.100000*%
G04 #@! TD*
G04 APERTURE END LIST*
D10*
X70500000Y-112100000D03*
X70500000Y-110900000D03*
G04 #@! TA.AperFunction,SMDPad,CuDef*
G36*
G01*
X62925000Y-135175000D02*
X62925000Y-135725000D01*
G75*
G02*
X62725000Y-135925000I-200000J0D01*
G01*
X62325000Y-135925000D01*
G75*
G02*
X62125000Y-135725000I0J200000D01*
G01*
X62125000Y-135175000D01*
G75*
G02*
X62325000Y-134975000I200000J0D01*
G01*
X62725000Y-134975000D01*
G75*
G02*
X62925000Y-135175000I0J-200000D01*
G01*
G37*
G04 #@! TD.AperFunction*
G04 #@! TA.AperFunction,SMDPad,CuDef*
G36*
G01*
X64575000Y-135175000D02*
X64575000Y-135725000D01*
G75*
G02*
X64375000Y-135925000I-200000J0D01*
G01*
X63975000Y-135925000D01*
G75*
G02*
X63775000Y-135725000I0J200000D01*
G01*
X63775000Y-135175000D01*
G75*
G02*
X63975000Y-134975000I200000J0D01*
G01*
X64375000Y-134975000D01*
G75*
G02*
X64575000Y-135175000I0J-200000D01*
G01*
G37*
G04 #@! TD.AperFunction*
D11*
X76475000Y-88725000D03*
X76475000Y-90275000D03*
X75525000Y-90275000D03*
D12*
X75525000Y-88775000D03*
D13*
X122025000Y-78950000D03*
X127275000Y-78950000D03*
X122025000Y-82150000D03*
X127275000Y-82150000D03*
X122025000Y-88550000D03*
X127275000Y-88550000D03*
X122025000Y-91750000D03*
X127275000Y-91750000D03*
D14*
X104250000Y-57250000D03*
X110750000Y-57250000D03*
X104250000Y-61750000D03*
X110750000Y-61750000D03*
X118550000Y-57250000D03*
X125050000Y-57250000D03*
X118550000Y-61750000D03*
X125050000Y-61750000D03*
G04 #@! TA.AperFunction,SMDPad,CuDef*
G36*
G01*
X112375000Y-146375000D02*
X112925000Y-146375000D01*
G75*
G02*
X113125000Y-146575000I0J-200000D01*
G01*
X113125000Y-146975000D01*
G75*
G02*
X112925000Y-147175000I-200000J0D01*
G01*
X112375000Y-147175000D01*
G75*
G02*
X112175000Y-146975000I0J200000D01*
G01*
X112175000Y-146575000D01*
G75*
G02*
X112375000Y-146375000I200000J0D01*
G01*
G37*
G04 #@! TD.AperFunction*
G04 #@! TA.AperFunction,SMDPad,CuDef*
G36*
G01*
X112375000Y-144725000D02*
X112925000Y-144725000D01*
G75*
G02*
X113125000Y-144925000I0J-200000D01*
G01*
X113125000Y-145325000D01*
G75*
G02*
X112925000Y-145525000I-200000J0D01*
G01*
X112375000Y-145525000D01*
G75*
G02*
X112175000Y-145325000I0J200000D01*
G01*
X112175000Y-144925000D01*
G75*
G02*
X112375000Y-144725000I200000J0D01*
G01*
G37*
G04 #@! TD.AperFunction*
G04 #@! TA.AperFunction,SMDPad,CuDef*
G36*
G01*
X117325000Y-146375000D02*
X117875000Y-146375000D01*
G75*
G02*
X118075000Y-146575000I0J-200000D01*
G01*
X118075000Y-146975000D01*
G75*
G02*
X117875000Y-147175000I-200000J0D01*
G01*
X117325000Y-147175000D01*
G75*
G02*
X117125000Y-146975000I0J200000D01*
G01*
X117125000Y-146575000D01*
G75*
G02*
X117325000Y-146375000I200000J0D01*
G01*
G37*
G04 #@! TD.AperFunction*
G04 #@! TA.AperFunction,SMDPad,CuDef*
G36*
G01*
X117325000Y-144725000D02*
X117875000Y-144725000D01*
G75*
G02*
X118075000Y-144925000I0J-200000D01*
G01*
X118075000Y-145325000D01*
G75*
G02*
X117875000Y-145525000I-200000J0D01*
G01*
X117325000Y-145525000D01*
G75*
G02*
X117125000Y-145325000I0J200000D01*
G01*
X117125000Y-144925000D01*
G75*
G02*
X117325000Y-144725000I200000J0D01*
G01*
G37*
G04 #@! TD.AperFunction*
G04 #@! TA.AperFunction,SMDPad,CuDef*
G36*
G01*
X122725000Y-105325000D02*
X123275000Y-105325000D01*
G75*
G02*
X123475000Y-105525000I0J-200000D01*
G01*
X123475000Y-105925000D01*
G75*
G02*
X123275000Y-106125000I-200000J0D01*
G01*
X122725000Y-106125000D01*
G75*
G02*
X122525000Y-105925000I0J200000D01*
G01*
X122525000Y-105525000D01*
G75*
G02*
X122725000Y-105325000I200000J0D01*
G01*
G37*
G04 #@! TD.AperFunction*
G04 #@! TA.AperFunction,SMDPad,CuDef*
G36*
G01*
X122725000Y-103675000D02*
X123275000Y-103675000D01*
G75*
G02*
X123475000Y-103875000I0J-200000D01*
G01*
X123475000Y-104275000D01*
G75*
G02*
X123275000Y-104475000I-200000J0D01*
G01*
X122725000Y-104475000D01*
G75*
G02*
X122525000Y-104275000I0J200000D01*
G01*
X122525000Y-103875000D01*
G75*
G02*
X122725000Y-103675000I200000J0D01*
G01*
G37*
G04 #@! TD.AperFunction*
G04 #@! TA.AperFunction,SMDPad,CuDef*
G36*
G01*
X123575000Y-97775000D02*
X123025000Y-97775000D01*
G75*
G02*
X122825000Y-97575000I0J200000D01*
G01*
X122825000Y-97175000D01*
G75*
G02*
X123025000Y-96975000I200000J0D01*
G01*
X123575000Y-96975000D01*
G75*
G02*
X123775000Y-97175000I0J-200000D01*
G01*
X123775000Y-97575000D01*
G75*
G02*
X123575000Y-97775000I-200000J0D01*
G01*
G37*
G04 #@! TD.AperFunction*
G04 #@! TA.AperFunction,SMDPad,CuDef*
G36*
G01*
X123575000Y-99425000D02*
X123025000Y-99425000D01*
G75*
G02*
X122825000Y-99225000I0J200000D01*
G01*
X122825000Y-98825000D01*
G75*
G02*
X123025000Y-98625000I200000J0D01*
G01*
X123575000Y-98625000D01*
G75*
G02*
X123775000Y-98825000I0J-200000D01*
G01*
X123775000Y-99225000D01*
G75*
G02*
X123575000Y-99425000I-200000J0D01*
G01*
G37*
G04 #@! TD.AperFunction*
G04 #@! TA.AperFunction,SMDPad,CuDef*
G36*
G01*
X109975000Y-71425000D02*
X109975000Y-71975000D01*
G75*
G02*
X109775000Y-72175000I-200000J0D01*
G01*
X109375000Y-72175000D01*
G75*
G02*
X109175000Y-71975000I0J200000D01*
G01*
X109175000Y-71425000D01*
G75*
G02*
X109375000Y-71225000I200000J0D01*
G01*
X109775000Y-71225000D01*
G75*
G02*
X109975000Y-71425000I0J-200000D01*
G01*
G37*
G04 #@! TD.AperFunction*
G04 #@! TA.AperFunction,SMDPad,CuDef*
G36*
G01*
X111625000Y-71425000D02*
X111625000Y-71975000D01*
G75*
G02*
X111425000Y-72175000I-200000J0D01*
G01*
X111025000Y-72175000D01*
G75*
G02*
X110825000Y-71975000I0J200000D01*
G01*
X110825000Y-71425000D01*
G75*
G02*
X111025000Y-71225000I200000J0D01*
G01*
X111425000Y-71225000D01*
G75*
G02*
X111625000Y-71425000I0J-200000D01*
G01*
G37*
G04 #@! TD.AperFunction*
G04 #@! TA.AperFunction,SMDPad,CuDef*
G36*
G01*
X110050000Y-68675000D02*
X110050000Y-69225000D01*
G75*
G02*
X109850000Y-69425000I-200000J0D01*
G01*
X109450000Y-69425000D01*
G75*
G02*
X109250000Y-69225000I0J200000D01*
G01*
X109250000Y-68675000D01*
G75*
G02*
X109450000Y-68475000I200000J0D01*
G01*
X109850000Y-68475000D01*
G75*
G02*
X110050000Y-68675000I0J-200000D01*
G01*
G37*
G04 #@! TD.AperFunction*
G04 #@! TA.AperFunction,SMDPad,CuDef*
G36*
G01*
X111700000Y-68675000D02*
X111700000Y-69225000D01*
G75*
G02*
X111500000Y-69425000I-200000J0D01*
G01*
X111100000Y-69425000D01*
G75*
G02*
X110900000Y-69225000I0J200000D01*
G01*
X110900000Y-68675000D01*
G75*
G02*
X111100000Y-68475000I200000J0D01*
G01*
X111500000Y-68475000D01*
G75*
G02*
X111700000Y-68675000I0J-200000D01*
G01*
G37*
G04 #@! TD.AperFunction*
G04 #@! TA.AperFunction,SMDPad,CuDef*
G36*
G01*
X115275000Y-85825000D02*
X114725000Y-85825000D01*
G75*
G02*
X114525000Y-85625000I0J200000D01*
G01*
X114525000Y-85225000D01*
G75*
G02*
X114725000Y-85025000I200000J0D01*
G01*
X115275000Y-85025000D01*
G75*
G02*
X115475000Y-85225000I0J-200000D01*
G01*
X115475000Y-85625000D01*
G75*
G02*
X115275000Y-85825000I-200000J0D01*
G01*
G37*
G04 #@! TD.AperFunction*
G04 #@! TA.AperFunction,SMDPad,CuDef*
G36*
G01*
X115275000Y-87475000D02*
X114725000Y-87475000D01*
G75*
G02*
X114525000Y-87275000I0J200000D01*
G01*
X114525000Y-86875000D01*
G75*
G02*
X114725000Y-86675000I200000J0D01*
G01*
X115275000Y-86675000D01*
G75*
G02*
X115475000Y-86875000I0J-200000D01*
G01*
X115475000Y-87275000D01*
G75*
G02*
X115275000Y-87475000I-200000J0D01*
G01*
G37*
G04 #@! TD.AperFunction*
G04 #@! TA.AperFunction,SMDPad,CuDef*
G36*
G01*
X87825000Y-56725000D02*
X87825000Y-57275000D01*
G75*
G02*
X87625000Y-57475000I-200000J0D01*
G01*
X87225000Y-57475000D01*
G75*
G02*
X87025000Y-57275000I0J200000D01*
G01*
X87025000Y-56725000D01*
G75*
G02*
X87225000Y-56525000I200000J0D01*
G01*
X87625000Y-56525000D01*
G75*
G02*
X87825000Y-56725000I0J-200000D01*
G01*
G37*
G04 #@! TD.AperFunction*
G04 #@! TA.AperFunction,SMDPad,CuDef*
G36*
G01*
X89475000Y-56725000D02*
X89475000Y-57275000D01*
G75*
G02*
X89275000Y-57475000I-200000J0D01*
G01*
X88875000Y-57475000D01*
G75*
G02*
X88675000Y-57275000I0J200000D01*
G01*
X88675000Y-56725000D01*
G75*
G02*
X88875000Y-56525000I200000J0D01*
G01*
X89275000Y-56525000D01*
G75*
G02*
X89475000Y-56725000I0J-200000D01*
G01*
G37*
G04 #@! TD.AperFunction*
G04 #@! TA.AperFunction,SMDPad,CuDef*
G36*
G01*
X84225000Y-56925000D02*
X84775000Y-56925000D01*
G75*
G02*
X84975000Y-57125000I0J-200000D01*
G01*
X84975000Y-57525000D01*
G75*
G02*
X84775000Y-57725000I-200000J0D01*
G01*
X84225000Y-57725000D01*
G75*
G02*
X84025000Y-57525000I0J200000D01*
G01*
X84025000Y-57125000D01*
G75*
G02*
X84225000Y-56925000I200000J0D01*
G01*
G37*
G04 #@! TD.AperFunction*
G04 #@! TA.AperFunction,SMDPad,CuDef*
G36*
G01*
X84225000Y-55275000D02*
X84775000Y-55275000D01*
G75*
G02*
X84975000Y-55475000I0J-200000D01*
G01*
X84975000Y-55875000D01*
G75*
G02*
X84775000Y-56075000I-200000J0D01*
G01*
X84225000Y-56075000D01*
G75*
G02*
X84025000Y-55875000I0J200000D01*
G01*
X84025000Y-55475000D01*
G75*
G02*
X84225000Y-55275000I200000J0D01*
G01*
G37*
G04 #@! TD.AperFunction*
G04 #@! TA.AperFunction,SMDPad,CuDef*
G36*
G01*
X81225000Y-56925000D02*
X81775000Y-56925000D01*
G75*
G02*
X81975000Y-57125000I0J-200000D01*
G01*
X81975000Y-57525000D01*
G75*
G02*
X81775000Y-57725000I-200000J0D01*
G01*
X81225000Y-57725000D01*
G75*
G02*
X81025000Y-57525000I0J200000D01*
G01*
X81025000Y-57125000D01*
G75*
G02*
X81225000Y-56925000I200000J0D01*
G01*
G37*
G04 #@! TD.AperFunction*
G04 #@! TA.AperFunction,SMDPad,CuDef*
G36*
G01*
X81225000Y-55275000D02*
X81775000Y-55275000D01*
G75*
G02*
X81975000Y-55475000I0J-200000D01*
G01*
X81975000Y-55875000D01*
G75*
G02*
X81775000Y-56075000I-200000J0D01*
G01*
X81225000Y-56075000D01*
G75*
G02*
X81025000Y-55875000I0J200000D01*
G01*
X81025000Y-55475000D01*
G75*
G02*
X81225000Y-55275000I200000J0D01*
G01*
G37*
G04 #@! TD.AperFunction*
G04 #@! TA.AperFunction,SMDPad,CuDef*
G36*
G01*
X77925000Y-57275000D02*
X77925000Y-56725000D01*
G75*
G02*
X78125000Y-56525000I200000J0D01*
G01*
X78525000Y-56525000D01*
G75*
G02*
X78725000Y-56725000I0J-200000D01*
G01*
X78725000Y-57275000D01*
G75*
G02*
X78525000Y-57475000I-200000J0D01*
G01*
X78125000Y-57475000D01*
G75*
G02*
X77925000Y-57275000I0J200000D01*
G01*
G37*
G04 #@! TD.AperFunction*
G04 #@! TA.AperFunction,SMDPad,CuDef*
G36*
G01*
X76275000Y-57275000D02*
X76275000Y-56725000D01*
G75*
G02*
X76475000Y-56525000I200000J0D01*
G01*
X76875000Y-56525000D01*
G75*
G02*
X77075000Y-56725000I0J-200000D01*
G01*
X77075000Y-57275000D01*
G75*
G02*
X76875000Y-57475000I-200000J0D01*
G01*
X76475000Y-57475000D01*
G75*
G02*
X76275000Y-57275000I0J200000D01*
G01*
G37*
G04 #@! TD.AperFunction*
G04 #@! TA.AperFunction,SMDPad,CuDef*
G36*
G01*
X125625000Y-113825000D02*
X125075000Y-113825000D01*
G75*
G02*
X124875000Y-113625000I0J200000D01*
G01*
X124875000Y-113225000D01*
G75*
G02*
X125075000Y-113025000I200000J0D01*
G01*
X125625000Y-113025000D01*
G75*
G02*
X125825000Y-113225000I0J-200000D01*
G01*
X125825000Y-113625000D01*
G75*
G02*
X125625000Y-113825000I-200000J0D01*
G01*
G37*
G04 #@! TD.AperFunction*
G04 #@! TA.AperFunction,SMDPad,CuDef*
G36*
G01*
X125625000Y-115475000D02*
X125075000Y-115475000D01*
G75*
G02*
X124875000Y-115275000I0J200000D01*
G01*
X124875000Y-114875000D01*
G75*
G02*
X125075000Y-114675000I200000J0D01*
G01*
X125625000Y-114675000D01*
G75*
G02*
X125825000Y-114875000I0J-200000D01*
G01*
X125825000Y-115275000D01*
G75*
G02*
X125625000Y-115475000I-200000J0D01*
G01*
G37*
G04 #@! TD.AperFunction*
G04 #@! TA.AperFunction,SMDPad,CuDef*
G36*
G01*
X88350000Y-142000002D02*
X88350000Y-141099998D01*
G75*
G02*
X88599998Y-140850000I249998J0D01*
G01*
X89125002Y-140850000D01*
G75*
G02*
X89375000Y-141099998I0J-249998D01*
G01*
X89375000Y-142000002D01*
G75*
G02*
X89125002Y-142250000I-249998J0D01*
G01*
X88599998Y-142250000D01*
G75*
G02*
X88350000Y-142000002I0J249998D01*
G01*
G37*
G04 #@! TD.AperFunction*
G04 #@! TA.AperFunction,SMDPad,CuDef*
G36*
G01*
X86525000Y-142000002D02*
X86525000Y-141099998D01*
G75*
G02*
X86774998Y-140850000I249998J0D01*
G01*
X87300002Y-140850000D01*
G75*
G02*
X87550000Y-141099998I0J-249998D01*
G01*
X87550000Y-142000002D01*
G75*
G02*
X87300002Y-142250000I-249998J0D01*
G01*
X86774998Y-142250000D01*
G75*
G02*
X86525000Y-142000002I0J249998D01*
G01*
G37*
G04 #@! TD.AperFunction*
G04 #@! TA.AperFunction,SMDPad,CuDef*
G36*
G01*
X58175000Y-137025000D02*
X58175000Y-136475000D01*
G75*
G02*
X58375000Y-136275000I200000J0D01*
G01*
X58775000Y-136275000D01*
G75*
G02*
X58975000Y-136475000I0J-200000D01*
G01*
X58975000Y-137025000D01*
G75*
G02*
X58775000Y-137225000I-200000J0D01*
G01*
X58375000Y-137225000D01*
G75*
G02*
X58175000Y-137025000I0J200000D01*
G01*
G37*
G04 #@! TD.AperFunction*
G04 #@! TA.AperFunction,SMDPad,CuDef*
G36*
G01*
X56525000Y-137025000D02*
X56525000Y-136475000D01*
G75*
G02*
X56725000Y-136275000I200000J0D01*
G01*
X57125000Y-136275000D01*
G75*
G02*
X57325000Y-136475000I0J-200000D01*
G01*
X57325000Y-137025000D01*
G75*
G02*
X57125000Y-137225000I-200000J0D01*
G01*
X56725000Y-137225000D01*
G75*
G02*
X56525000Y-137025000I0J200000D01*
G01*
G37*
G04 #@! TD.AperFunction*
G04 #@! TA.AperFunction,SMDPad,CuDef*
G36*
G01*
X58175000Y-138775000D02*
X58175000Y-138225000D01*
G75*
G02*
X58375000Y-138025000I200000J0D01*
G01*
X58775000Y-138025000D01*
G75*
G02*
X58975000Y-138225000I0J-200000D01*
G01*
X58975000Y-138775000D01*
G75*
G02*
X58775000Y-138975000I-200000J0D01*
G01*
X58375000Y-138975000D01*
G75*
G02*
X58175000Y-138775000I0J200000D01*
G01*
G37*
G04 #@! TD.AperFunction*
G04 #@! TA.AperFunction,SMDPad,CuDef*
G36*
G01*
X56525000Y-138775000D02*
X56525000Y-138225000D01*
G75*
G02*
X56725000Y-138025000I200000J0D01*
G01*
X57125000Y-138025000D01*
G75*
G02*
X57325000Y-138225000I0J-200000D01*
G01*
X57325000Y-138775000D01*
G75*
G02*
X57125000Y-138975000I-200000J0D01*
G01*
X56725000Y-138975000D01*
G75*
G02*
X56525000Y-138775000I0J200000D01*
G01*
G37*
G04 #@! TD.AperFunction*
G04 #@! TA.AperFunction,SMDPad,CuDef*
G36*
G01*
X43975000Y-123025000D02*
X43975000Y-122475000D01*
G75*
G02*
X44175000Y-122275000I200000J0D01*
G01*
X44575000Y-122275000D01*
G75*
G02*
X44775000Y-122475000I0J-200000D01*
G01*
X44775000Y-123025000D01*
G75*
G02*
X44575000Y-123225000I-200000J0D01*
G01*
X44175000Y-123225000D01*
G75*
G02*
X43975000Y-123025000I0J200000D01*
G01*
G37*
G04 #@! TD.AperFunction*
G04 #@! TA.AperFunction,SMDPad,CuDef*
G36*
G01*
X42325000Y-123025000D02*
X42325000Y-122475000D01*
G75*
G02*
X42525000Y-122275000I200000J0D01*
G01*
X42925000Y-122275000D01*
G75*
G02*
X43125000Y-122475000I0J-200000D01*
G01*
X43125000Y-123025000D01*
G75*
G02*
X42925000Y-123225000I-200000J0D01*
G01*
X42525000Y-123225000D01*
G75*
G02*
X42325000Y-123025000I0J200000D01*
G01*
G37*
G04 #@! TD.AperFunction*
G04 #@! TA.AperFunction,SMDPad,CuDef*
G36*
G01*
X48275000Y-58025000D02*
X48275000Y-57475000D01*
G75*
G02*
X48475000Y-57275000I200000J0D01*
G01*
X48875000Y-57275000D01*
G75*
G02*
X49075000Y-57475000I0J-200000D01*
G01*
X49075000Y-58025000D01*
G75*
G02*
X48875000Y-58225000I-200000J0D01*
G01*
X48475000Y-58225000D01*
G75*
G02*
X48275000Y-58025000I0J200000D01*
G01*
G37*
G04 #@! TD.AperFunction*
G04 #@! TA.AperFunction,SMDPad,CuDef*
G36*
G01*
X46625000Y-58025000D02*
X46625000Y-57475000D01*
G75*
G02*
X46825000Y-57275000I200000J0D01*
G01*
X47225000Y-57275000D01*
G75*
G02*
X47425000Y-57475000I0J-200000D01*
G01*
X47425000Y-58025000D01*
G75*
G02*
X47225000Y-58225000I-200000J0D01*
G01*
X46825000Y-58225000D01*
G75*
G02*
X46625000Y-58025000I0J200000D01*
G01*
G37*
G04 #@! TD.AperFunction*
G04 #@! TA.AperFunction,SMDPad,CuDef*
G36*
G01*
X51975000Y-58025000D02*
X51975000Y-57475000D01*
G75*
G02*
X52175000Y-57275000I200000J0D01*
G01*
X52575000Y-57275000D01*
G75*
G02*
X52775000Y-57475000I0J-200000D01*
G01*
X52775000Y-58025000D01*
G75*
G02*
X52575000Y-58225000I-200000J0D01*
G01*
X52175000Y-58225000D01*
G75*
G02*
X51975000Y-58025000I0J200000D01*
G01*
G37*
G04 #@! TD.AperFunction*
G04 #@! TA.AperFunction,SMDPad,CuDef*
G36*
G01*
X50325000Y-58025000D02*
X50325000Y-57475000D01*
G75*
G02*
X50525000Y-57275000I200000J0D01*
G01*
X50925000Y-57275000D01*
G75*
G02*
X51125000Y-57475000I0J-200000D01*
G01*
X51125000Y-58025000D01*
G75*
G02*
X50925000Y-58225000I-200000J0D01*
G01*
X50525000Y-58225000D01*
G75*
G02*
X50325000Y-58025000I0J200000D01*
G01*
G37*
G04 #@! TD.AperFunction*
G04 #@! TA.AperFunction,SMDPad,CuDef*
G36*
G01*
X69510000Y-91815000D02*
X69510000Y-92185000D01*
G75*
G02*
X69375000Y-92320000I-135000J0D01*
G01*
X69105000Y-92320000D01*
G75*
G02*
X68970000Y-92185000I0J135000D01*
G01*
X68970000Y-91815000D01*
G75*
G02*
X69105000Y-91680000I135000J0D01*
G01*
X69375000Y-91680000D01*
G75*
G02*
X69510000Y-91815000I0J-135000D01*
G01*
G37*
G04 #@! TD.AperFunction*
G04 #@! TA.AperFunction,SMDPad,CuDef*
G36*
G01*
X70530000Y-91815000D02*
X70530000Y-92185000D01*
G75*
G02*
X70395000Y-92320000I-135000J0D01*
G01*
X70125000Y-92320000D01*
G75*
G02*
X69990000Y-92185000I0J135000D01*
G01*
X69990000Y-91815000D01*
G75*
G02*
X70125000Y-91680000I135000J0D01*
G01*
X70395000Y-91680000D01*
G75*
G02*
X70530000Y-91815000I0J-135000D01*
G01*
G37*
G04 #@! TD.AperFunction*
G04 #@! TA.AperFunction,SMDPad,CuDef*
G36*
G01*
X75506250Y-83150000D02*
X74993750Y-83150000D01*
G75*
G02*
X74775000Y-82931250I0J218750D01*
G01*
X74775000Y-82493750D01*
G75*
G02*
X74993750Y-82275000I218750J0D01*
G01*
X75506250Y-82275000D01*
G75*
G02*
X75725000Y-82493750I0J-218750D01*
G01*
X75725000Y-82931250D01*
G75*
G02*
X75506250Y-83150000I-218750J0D01*
G01*
G37*
G04 #@! TD.AperFunction*
G04 #@! TA.AperFunction,SMDPad,CuDef*
G36*
G01*
X75506250Y-84725000D02*
X74993750Y-84725000D01*
G75*
G02*
X74775000Y-84506250I0J218750D01*
G01*
X74775000Y-84068750D01*
G75*
G02*
X74993750Y-83850000I218750J0D01*
G01*
X75506250Y-83850000D01*
G75*
G02*
X75725000Y-84068750I0J-218750D01*
G01*
X75725000Y-84506250D01*
G75*
G02*
X75506250Y-84725000I-218750J0D01*
G01*
G37*
G04 #@! TD.AperFunction*
G04 #@! TA.AperFunction,SMDPad,CuDef*
G36*
G01*
X90243750Y-88650000D02*
X90756250Y-88650000D01*
G75*
G02*
X90975000Y-88868750I0J-218750D01*
G01*
X90975000Y-89306250D01*
G75*
G02*
X90756250Y-89525000I-218750J0D01*
G01*
X90243750Y-89525000D01*
G75*
G02*
X90025000Y-89306250I0J218750D01*
G01*
X90025000Y-88868750D01*
G75*
G02*
X90243750Y-88650000I218750J0D01*
G01*
G37*
G04 #@! TD.AperFunction*
G04 #@! TA.AperFunction,SMDPad,CuDef*
G36*
G01*
X90243750Y-87075000D02*
X90756250Y-87075000D01*
G75*
G02*
X90975000Y-87293750I0J-218750D01*
G01*
X90975000Y-87731250D01*
G75*
G02*
X90756250Y-87950000I-218750J0D01*
G01*
X90243750Y-87950000D01*
G75*
G02*
X90025000Y-87731250I0J218750D01*
G01*
X90025000Y-87293750D01*
G75*
G02*
X90243750Y-87075000I218750J0D01*
G01*
G37*
G04 #@! TD.AperFunction*
G04 #@! TA.AperFunction,SMDPad,CuDef*
G36*
G01*
X68650000Y-98493750D02*
X68650000Y-99006250D01*
G75*
G02*
X68431250Y-99225000I-218750J0D01*
G01*
X67993750Y-99225000D01*
G75*
G02*
X67775000Y-99006250I0J218750D01*
G01*
X67775000Y-98493750D01*
G75*
G02*
X67993750Y-98275000I218750J0D01*
G01*
X68431250Y-98275000D01*
G75*
G02*
X68650000Y-98493750I0J-218750D01*
G01*
G37*
G04 #@! TD.AperFunction*
G04 #@! TA.AperFunction,SMDPad,CuDef*
G36*
G01*
X70225000Y-98493750D02*
X70225000Y-99006250D01*
G75*
G02*
X70006250Y-99225000I-218750J0D01*
G01*
X69568750Y-99225000D01*
G75*
G02*
X69350000Y-99006250I0J218750D01*
G01*
X69350000Y-98493750D01*
G75*
G02*
X69568750Y-98275000I218750J0D01*
G01*
X70006250Y-98275000D01*
G75*
G02*
X70225000Y-98493750I0J-218750D01*
G01*
G37*
G04 #@! TD.AperFunction*
G04 #@! TA.AperFunction,SMDPad,CuDef*
G36*
G01*
X81506250Y-83150000D02*
X80993750Y-83150000D01*
G75*
G02*
X80775000Y-82931250I0J218750D01*
G01*
X80775000Y-82493750D01*
G75*
G02*
X80993750Y-82275000I218750J0D01*
G01*
X81506250Y-82275000D01*
G75*
G02*
X81725000Y-82493750I0J-218750D01*
G01*
X81725000Y-82931250D01*
G75*
G02*
X81506250Y-83150000I-218750J0D01*
G01*
G37*
G04 #@! TD.AperFunction*
G04 #@! TA.AperFunction,SMDPad,CuDef*
G36*
G01*
X81506250Y-84725000D02*
X80993750Y-84725000D01*
G75*
G02*
X80775000Y-84506250I0J218750D01*
G01*
X80775000Y-84068750D01*
G75*
G02*
X80993750Y-83850000I218750J0D01*
G01*
X81506250Y-83850000D01*
G75*
G02*
X81725000Y-84068750I0J-218750D01*
G01*
X81725000Y-84506250D01*
G75*
G02*
X81506250Y-84725000I-218750J0D01*
G01*
G37*
G04 #@! TD.AperFunction*
D15*
X128950000Y-115880000D03*
X128950000Y-113340000D03*
X128950000Y-110800000D03*
X128950000Y-108260000D03*
X128950000Y-105720000D03*
X128950000Y-103180000D03*
X128950000Y-100640000D03*
D16*
X128950000Y-98100000D03*
D15*
X105790000Y-123830000D03*
X103250000Y-123830000D03*
X105790000Y-121290000D03*
X103250000Y-121290000D03*
X105790000Y-118750000D03*
D16*
X103250000Y-118750000D03*
D15*
X43290000Y-93790000D03*
X40750000Y-93790000D03*
X43290000Y-91250000D03*
D16*
X40750000Y-91250000D03*
D15*
X75420000Y-141540000D03*
X75420000Y-139000000D03*
X77960000Y-141540000D03*
X77960000Y-139000000D03*
X80500000Y-141540000D03*
D16*
X80500000Y-139000000D03*
D15*
X119800000Y-71690000D03*
D16*
X119800000Y-69150000D03*
D15*
X43290000Y-108790000D03*
X40750000Y-108790000D03*
X43290000Y-106250000D03*
X40750000Y-106250000D03*
X43290000Y-103710000D03*
D16*
X40750000Y-103710000D03*
D15*
X108390000Y-78490000D03*
X105850000Y-78490000D03*
X108390000Y-75950000D03*
D16*
X105850000Y-75950000D03*
D15*
X116150000Y-71690000D03*
D16*
X116150000Y-69150000D03*
D15*
X72900000Y-73390000D03*
X72900000Y-70850000D03*
X75440000Y-73390000D03*
X75440000Y-70850000D03*
X77980000Y-73390000D03*
X77980000Y-70850000D03*
X80520000Y-73390000D03*
X80520000Y-70850000D03*
X83060000Y-73390000D03*
X83060000Y-70850000D03*
X85600000Y-73390000D03*
X85600000Y-70850000D03*
X88140000Y-73390000D03*
X88140000Y-70850000D03*
X90680000Y-73390000D03*
X90680000Y-70850000D03*
X93220000Y-73390000D03*
D16*
X93220000Y-70850000D03*
D15*
X105710000Y-88430000D03*
X108250000Y-88430000D03*
X105710000Y-90970000D03*
X108250000Y-90970000D03*
X105710000Y-93510000D03*
X108250000Y-93510000D03*
X105710000Y-96050000D03*
X108250000Y-96050000D03*
X105710000Y-98590000D03*
X108250000Y-98590000D03*
X105710000Y-101130000D03*
X108250000Y-101130000D03*
X105710000Y-103670000D03*
X108250000Y-103670000D03*
X105710000Y-106210000D03*
X108250000Y-106210000D03*
X105710000Y-108750000D03*
D16*
X108250000Y-108750000D03*
D15*
X90700000Y-122710000D03*
X90700000Y-125250000D03*
X88160000Y-122710000D03*
X88160000Y-125250000D03*
X85620000Y-122710000D03*
X85620000Y-125250000D03*
X83080000Y-122710000D03*
X83080000Y-125250000D03*
X80540000Y-122710000D03*
X80540000Y-125250000D03*
X78000000Y-122710000D03*
X78000000Y-125250000D03*
X75460000Y-122710000D03*
X75460000Y-125250000D03*
X72920000Y-122710000D03*
X72920000Y-125250000D03*
X70380000Y-122710000D03*
X70380000Y-125250000D03*
X67840000Y-122710000D03*
X67840000Y-125250000D03*
X65300000Y-122710000D03*
D16*
X65300000Y-125250000D03*
D15*
X58250000Y-107120000D03*
X55710000Y-107120000D03*
X58250000Y-104580000D03*
X55710000Y-104580000D03*
X58250000Y-102040000D03*
X55710000Y-102040000D03*
X58250000Y-99500000D03*
X55710000Y-99500000D03*
X58250000Y-96960000D03*
X55710000Y-96960000D03*
X58250000Y-94420000D03*
X55710000Y-94420000D03*
X58250000Y-91880000D03*
D16*
X55710000Y-91880000D03*
D15*
X93500000Y-59540000D03*
D16*
X93500000Y-57000000D03*
D15*
X72250000Y-56960000D03*
D16*
X72250000Y-59500000D03*
D17*
X101520000Y-147150000D03*
X98980000Y-147150000D03*
D15*
X88640000Y-145000000D03*
D16*
X86100000Y-145000000D03*
D18*
X41350000Y-138850000D03*
X41350000Y-138050000D03*
X41350000Y-137250000D03*
X41350000Y-136450000D03*
X41350000Y-135650000D03*
D19*
X41350000Y-141650000D03*
X41350000Y-132850000D03*
X35850000Y-141650000D03*
X35850000Y-132850000D03*
D20*
X38900000Y-63550000D03*
X38900000Y-64200000D03*
X38900000Y-64850000D03*
X38900000Y-65500000D03*
X38900000Y-66150000D03*
D21*
X36050000Y-61100000D03*
X36050000Y-68600000D03*
D22*
X36050000Y-63700000D03*
X36050000Y-66000000D03*
D15*
X114790000Y-132590000D03*
X112250000Y-132590000D03*
X114790000Y-130050000D03*
D16*
X112250000Y-130050000D03*
D23*
X126050000Y-136900000D03*
D24*
X126050000Y-142700000D03*
D25*
X130850000Y-139900000D03*
D26*
X100905000Y-140200000D03*
X99635000Y-140200000D03*
X98365000Y-140200000D03*
X97095000Y-140200000D03*
X97095000Y-134800000D03*
X98365000Y-134800000D03*
X99635000Y-134800000D03*
X100905000Y-134800000D03*
D27*
X48800000Y-139310000D03*
X48800000Y-138040000D03*
X48800000Y-136770000D03*
X48800000Y-135500000D03*
X48800000Y-134230000D03*
X48800000Y-132960000D03*
X48800000Y-131690000D03*
X54200000Y-131690000D03*
X54200000Y-132960000D03*
X54200000Y-134230000D03*
X54200000Y-135500000D03*
X54200000Y-136770000D03*
X54200000Y-138040000D03*
X54200000Y-139310000D03*
D28*
X46745000Y-115400000D03*
X48015000Y-115400000D03*
X49285000Y-115400000D03*
X50555000Y-115400000D03*
X50555000Y-122700000D03*
X49285000Y-122700000D03*
X48015000Y-122700000D03*
X46745000Y-122700000D03*
D29*
X120600000Y-128435000D03*
D30*
X127780000Y-126150000D03*
D29*
X120600000Y-123865000D03*
D31*
X107750000Y-133850000D03*
X108700000Y-136150000D03*
X106800000Y-136150000D03*
D32*
X77250000Y-93512000D03*
X77750000Y-93512000D03*
X78250000Y-93512000D03*
X78750000Y-93512000D03*
X79250000Y-93512000D03*
X79750000Y-93512000D03*
X80250000Y-93512000D03*
X80750000Y-93512000D03*
X81250000Y-93512000D03*
X81750000Y-93512000D03*
X82250000Y-93512000D03*
X82750000Y-93512000D03*
X83250000Y-93512000D03*
X83750000Y-93512000D03*
X84250000Y-93512000D03*
X84750000Y-93512000D03*
X85250000Y-93512000D03*
X85750000Y-93512000D03*
X86250000Y-93512000D03*
X86750000Y-93512000D03*
X87250000Y-93512000D03*
X87750000Y-93512000D03*
X88250000Y-93512000D03*
X88750000Y-93512000D03*
X89250000Y-93512000D03*
D33*
X90988000Y-95250000D03*
X90988000Y-95750000D03*
X90988000Y-96250000D03*
X90988000Y-96750000D03*
X90988000Y-97250000D03*
X90988000Y-97750000D03*
X90988000Y-98250000D03*
X90988000Y-98750000D03*
X90988000Y-99250000D03*
X90988000Y-99750000D03*
X90988000Y-100250000D03*
X90988000Y-100750000D03*
X90988000Y-101250000D03*
X90988000Y-101750000D03*
X90988000Y-102250000D03*
X90988000Y-102750000D03*
X90988000Y-103250000D03*
X90988000Y-103750000D03*
X90988000Y-104250000D03*
X90988000Y-104750000D03*
X90988000Y-105250000D03*
X90988000Y-105750000D03*
X90988000Y-106250000D03*
X90988000Y-106750000D03*
X90988000Y-107250000D03*
D32*
X89250000Y-108988000D03*
X88750000Y-108988000D03*
X88250000Y-108988000D03*
X87750000Y-108988000D03*
X87250000Y-108988000D03*
X86750000Y-108988000D03*
X86250000Y-108988000D03*
X85750000Y-108988000D03*
X85250000Y-108988000D03*
X84750000Y-108988000D03*
X84250000Y-108988000D03*
X83750000Y-108988000D03*
X83250000Y-108988000D03*
X82750000Y-108988000D03*
X82250000Y-108988000D03*
X81750000Y-108988000D03*
X81250000Y-108988000D03*
X80750000Y-108988000D03*
X80250000Y-108988000D03*
X79750000Y-108988000D03*
X79250000Y-108988000D03*
X78750000Y-108988000D03*
X78250000Y-108988000D03*
X77750000Y-108988000D03*
X77250000Y-108988000D03*
D33*
X75512000Y-107250000D03*
X75512000Y-106750000D03*
X75512000Y-106250000D03*
X75512000Y-105750000D03*
X75512000Y-105250000D03*
X75512000Y-104750000D03*
X75512000Y-104250000D03*
X75512000Y-103750000D03*
X75512000Y-103250000D03*
X75512000Y-102750000D03*
X75512000Y-102250000D03*
X75512000Y-101750000D03*
X75512000Y-101250000D03*
X75512000Y-100750000D03*
X75512000Y-100250000D03*
X75512000Y-99750000D03*
X75512000Y-99250000D03*
X75512000Y-98750000D03*
X75512000Y-98250000D03*
X75512000Y-97750000D03*
X75512000Y-97250000D03*
X75512000Y-96750000D03*
X75512000Y-96250000D03*
X75512000Y-95750000D03*
X75512000Y-95250000D03*
G04 #@! TA.AperFunction,SMDPad,CuDef*
G36*
G01*
X112906250Y-140850000D02*
X112393750Y-140850000D01*
G75*
G02*
X112175000Y-140631250I0J218750D01*
G01*
X112175000Y-140193750D01*
G75*
G02*
X112393750Y-139975000I218750J0D01*
G01*
X112906250Y-139975000D01*
G75*
G02*
X113125000Y-140193750I0J-218750D01*
G01*
X113125000Y-140631250D01*
G75*
G02*
X112906250Y-140850000I-218750J0D01*
G01*
G37*
G04 #@! TD.AperFunction*
G04 #@! TA.AperFunction,SMDPad,CuDef*
G36*
G01*
X112906250Y-142425000D02*
X112393750Y-142425000D01*
G75*
G02*
X112175000Y-142206250I0J218750D01*
G01*
X112175000Y-141768750D01*
G75*
G02*
X112393750Y-141550000I218750J0D01*
G01*
X112906250Y-141550000D01*
G75*
G02*
X113125000Y-141768750I0J-218750D01*
G01*
X113125000Y-142206250D01*
G75*
G02*
X112906250Y-142425000I-218750J0D01*
G01*
G37*
G04 #@! TD.AperFunction*
D34*
X127700000Y-133150000D03*
X124400000Y-133150000D03*
G04 #@! TA.AperFunction,SMDPad,CuDef*
G36*
G01*
X117906250Y-140850000D02*
X117393750Y-140850000D01*
G75*
G02*
X117175000Y-140631250I0J218750D01*
G01*
X117175000Y-140193750D01*
G75*
G02*
X117393750Y-139975000I218750J0D01*
G01*
X117906250Y-139975000D01*
G75*
G02*
X118125000Y-140193750I0J-218750D01*
G01*
X118125000Y-140631250D01*
G75*
G02*
X117906250Y-140850000I-218750J0D01*
G01*
G37*
G04 #@! TD.AperFunction*
G04 #@! TA.AperFunction,SMDPad,CuDef*
G36*
G01*
X117906250Y-142425000D02*
X117393750Y-142425000D01*
G75*
G02*
X117175000Y-142206250I0J218750D01*
G01*
X117175000Y-141768750D01*
G75*
G02*
X117393750Y-141550000I218750J0D01*
G01*
X117906250Y-141550000D01*
G75*
G02*
X118125000Y-141768750I0J-218750D01*
G01*
X118125000Y-142206250D01*
G75*
G02*
X117906250Y-142425000I-218750J0D01*
G01*
G37*
G04 #@! TD.AperFunction*
G04 #@! TA.AperFunction,SMDPad,CuDef*
G36*
G01*
X87956250Y-60050000D02*
X87043750Y-60050000D01*
G75*
G02*
X86800000Y-59806250I0J243750D01*
G01*
X86800000Y-59318750D01*
G75*
G02*
X87043750Y-59075000I243750J0D01*
G01*
X87956250Y-59075000D01*
G75*
G02*
X88200000Y-59318750I0J-243750D01*
G01*
X88200000Y-59806250D01*
G75*
G02*
X87956250Y-60050000I-243750J0D01*
G01*
G37*
G04 #@! TD.AperFunction*
G04 #@! TA.AperFunction,SMDPad,CuDef*
G36*
G01*
X87956250Y-61925000D02*
X87043750Y-61925000D01*
G75*
G02*
X86800000Y-61681250I0J243750D01*
G01*
X86800000Y-61193750D01*
G75*
G02*
X87043750Y-60950000I243750J0D01*
G01*
X87956250Y-60950000D01*
G75*
G02*
X88200000Y-61193750I0J-243750D01*
G01*
X88200000Y-61681250D01*
G75*
G02*
X87956250Y-61925000I-243750J0D01*
G01*
G37*
G04 #@! TD.AperFunction*
G04 #@! TA.AperFunction,SMDPad,CuDef*
G36*
G01*
X84922916Y-60050000D02*
X84010416Y-60050000D01*
G75*
G02*
X83766666Y-59806250I0J243750D01*
G01*
X83766666Y-59318750D01*
G75*
G02*
X84010416Y-59075000I243750J0D01*
G01*
X84922916Y-59075000D01*
G75*
G02*
X85166666Y-59318750I0J-243750D01*
G01*
X85166666Y-59806250D01*
G75*
G02*
X84922916Y-60050000I-243750J0D01*
G01*
G37*
G04 #@! TD.AperFunction*
G04 #@! TA.AperFunction,SMDPad,CuDef*
G36*
G01*
X84922916Y-61925000D02*
X84010416Y-61925000D01*
G75*
G02*
X83766666Y-61681250I0J243750D01*
G01*
X83766666Y-61193750D01*
G75*
G02*
X84010416Y-60950000I243750J0D01*
G01*
X84922916Y-60950000D01*
G75*
G02*
X85166666Y-61193750I0J-243750D01*
G01*
X85166666Y-61681250D01*
G75*
G02*
X84922916Y-61925000I-243750J0D01*
G01*
G37*
G04 #@! TD.AperFunction*
G04 #@! TA.AperFunction,SMDPad,CuDef*
G36*
G01*
X81889583Y-60050000D02*
X80977083Y-60050000D01*
G75*
G02*
X80733333Y-59806250I0J243750D01*
G01*
X80733333Y-59318750D01*
G75*
G02*
X80977083Y-59075000I243750J0D01*
G01*
X81889583Y-59075000D01*
G75*
G02*
X82133333Y-59318750I0J-243750D01*
G01*
X82133333Y-59806250D01*
G75*
G02*
X81889583Y-60050000I-243750J0D01*
G01*
G37*
G04 #@! TD.AperFunction*
G04 #@! TA.AperFunction,SMDPad,CuDef*
G36*
G01*
X81889583Y-61925000D02*
X80977083Y-61925000D01*
G75*
G02*
X80733333Y-61681250I0J243750D01*
G01*
X80733333Y-61193750D01*
G75*
G02*
X80977083Y-60950000I243750J0D01*
G01*
X81889583Y-60950000D01*
G75*
G02*
X82133333Y-61193750I0J-243750D01*
G01*
X82133333Y-61681250D01*
G75*
G02*
X81889583Y-61925000I-243750J0D01*
G01*
G37*
G04 #@! TD.AperFunction*
G04 #@! TA.AperFunction,SMDPad,CuDef*
G36*
G01*
X78856250Y-60050000D02*
X77943750Y-60050000D01*
G75*
G02*
X77700000Y-59806250I0J243750D01*
G01*
X77700000Y-59318750D01*
G75*
G02*
X77943750Y-59075000I243750J0D01*
G01*
X78856250Y-59075000D01*
G75*
G02*
X79100000Y-59318750I0J-243750D01*
G01*
X79100000Y-59806250D01*
G75*
G02*
X78856250Y-60050000I-243750J0D01*
G01*
G37*
G04 #@! TD.AperFunction*
G04 #@! TA.AperFunction,SMDPad,CuDef*
G36*
G01*
X78856250Y-61925000D02*
X77943750Y-61925000D01*
G75*
G02*
X77700000Y-61681250I0J243750D01*
G01*
X77700000Y-61193750D01*
G75*
G02*
X77943750Y-60950000I243750J0D01*
G01*
X78856250Y-60950000D01*
G75*
G02*
X79100000Y-61193750I0J-243750D01*
G01*
X79100000Y-61681250D01*
G75*
G02*
X78856250Y-61925000I-243750J0D01*
G01*
G37*
G04 #@! TD.AperFunction*
G04 #@! TA.AperFunction,SMDPad,CuDef*
G36*
G01*
X64243750Y-141100000D02*
X64756250Y-141100000D01*
G75*
G02*
X64975000Y-141318750I0J-218750D01*
G01*
X64975000Y-141756250D01*
G75*
G02*
X64756250Y-141975000I-218750J0D01*
G01*
X64243750Y-141975000D01*
G75*
G02*
X64025000Y-141756250I0J218750D01*
G01*
X64025000Y-141318750D01*
G75*
G02*
X64243750Y-141100000I218750J0D01*
G01*
G37*
G04 #@! TD.AperFunction*
G04 #@! TA.AperFunction,SMDPad,CuDef*
G36*
G01*
X64243750Y-139525000D02*
X64756250Y-139525000D01*
G75*
G02*
X64975000Y-139743750I0J-218750D01*
G01*
X64975000Y-140181250D01*
G75*
G02*
X64756250Y-140400000I-218750J0D01*
G01*
X64243750Y-140400000D01*
G75*
G02*
X64025000Y-140181250I0J218750D01*
G01*
X64025000Y-139743750D01*
G75*
G02*
X64243750Y-139525000I218750J0D01*
G01*
G37*
G04 #@! TD.AperFunction*
G04 #@! TA.AperFunction,SMDPad,CuDef*
G36*
G01*
X60993750Y-141100000D02*
X61506250Y-141100000D01*
G75*
G02*
X61725000Y-141318750I0J-218750D01*
G01*
X61725000Y-141756250D01*
G75*
G02*
X61506250Y-141975000I-218750J0D01*
G01*
X60993750Y-141975000D01*
G75*
G02*
X60775000Y-141756250I0J218750D01*
G01*
X60775000Y-141318750D01*
G75*
G02*
X60993750Y-141100000I218750J0D01*
G01*
G37*
G04 #@! TD.AperFunction*
G04 #@! TA.AperFunction,SMDPad,CuDef*
G36*
G01*
X60993750Y-139525000D02*
X61506250Y-139525000D01*
G75*
G02*
X61725000Y-139743750I0J-218750D01*
G01*
X61725000Y-140181250D01*
G75*
G02*
X61506250Y-140400000I-218750J0D01*
G01*
X60993750Y-140400000D01*
G75*
G02*
X60775000Y-140181250I0J218750D01*
G01*
X60775000Y-139743750D01*
G75*
G02*
X60993750Y-139525000I218750J0D01*
G01*
G37*
G04 #@! TD.AperFunction*
X45850000Y-145000000D03*
X49150000Y-145000000D03*
D35*
X44050000Y-63300000D03*
X44050000Y-60000000D03*
G04 #@! TA.AperFunction,SMDPad,CuDef*
G36*
G01*
X95000000Y-138425000D02*
X94500000Y-138425000D01*
G75*
G02*
X94275000Y-138200000I0J225000D01*
G01*
X94275000Y-137750000D01*
G75*
G02*
X94500000Y-137525000I225000J0D01*
G01*
X95000000Y-137525000D01*
G75*
G02*
X95225000Y-137750000I0J-225000D01*
G01*
X95225000Y-138200000D01*
G75*
G02*
X95000000Y-138425000I-225000J0D01*
G01*
G37*
G04 #@! TD.AperFunction*
G04 #@! TA.AperFunction,SMDPad,CuDef*
G36*
G01*
X95000000Y-139975000D02*
X94500000Y-139975000D01*
G75*
G02*
X94275000Y-139750000I0J225000D01*
G01*
X94275000Y-139300000D01*
G75*
G02*
X94500000Y-139075000I225000J0D01*
G01*
X95000000Y-139075000D01*
G75*
G02*
X95225000Y-139300000I0J-225000D01*
G01*
X95225000Y-139750000D01*
G75*
G02*
X95000000Y-139975000I-225000J0D01*
G01*
G37*
G04 #@! TD.AperFunction*
G04 #@! TA.AperFunction,SMDPad,CuDef*
G36*
G01*
X98675000Y-132000000D02*
X98675000Y-132500000D01*
G75*
G02*
X98450000Y-132725000I-225000J0D01*
G01*
X98000000Y-132725000D01*
G75*
G02*
X97775000Y-132500000I0J225000D01*
G01*
X97775000Y-132000000D01*
G75*
G02*
X98000000Y-131775000I225000J0D01*
G01*
X98450000Y-131775000D01*
G75*
G02*
X98675000Y-132000000I0J-225000D01*
G01*
G37*
G04 #@! TD.AperFunction*
G04 #@! TA.AperFunction,SMDPad,CuDef*
G36*
G01*
X100225000Y-132000000D02*
X100225000Y-132500000D01*
G75*
G02*
X100000000Y-132725000I-225000J0D01*
G01*
X99550000Y-132725000D01*
G75*
G02*
X99325000Y-132500000I0J225000D01*
G01*
X99325000Y-132000000D01*
G75*
G02*
X99550000Y-131775000I225000J0D01*
G01*
X100000000Y-131775000D01*
G75*
G02*
X100225000Y-132000000I0J-225000D01*
G01*
G37*
G04 #@! TD.AperFunction*
G04 #@! TA.AperFunction,SMDPad,CuDef*
G36*
G01*
X46000000Y-133175000D02*
X45500000Y-133175000D01*
G75*
G02*
X45275000Y-132950000I0J225000D01*
G01*
X45275000Y-132500000D01*
G75*
G02*
X45500000Y-132275000I225000J0D01*
G01*
X46000000Y-132275000D01*
G75*
G02*
X46225000Y-132500000I0J-225000D01*
G01*
X46225000Y-132950000D01*
G75*
G02*
X46000000Y-133175000I-225000J0D01*
G01*
G37*
G04 #@! TD.AperFunction*
G04 #@! TA.AperFunction,SMDPad,CuDef*
G36*
G01*
X46000000Y-134725000D02*
X45500000Y-134725000D01*
G75*
G02*
X45275000Y-134500000I0J225000D01*
G01*
X45275000Y-134050000D01*
G75*
G02*
X45500000Y-133825000I225000J0D01*
G01*
X46000000Y-133825000D01*
G75*
G02*
X46225000Y-134050000I0J-225000D01*
G01*
X46225000Y-134500000D01*
G75*
G02*
X46000000Y-134725000I-225000J0D01*
G01*
G37*
G04 #@! TD.AperFunction*
G04 #@! TA.AperFunction,SMDPad,CuDef*
G36*
G01*
X44500000Y-115825000D02*
X44000000Y-115825000D01*
G75*
G02*
X43775000Y-115600000I0J225000D01*
G01*
X43775000Y-115150000D01*
G75*
G02*
X44000000Y-114925000I225000J0D01*
G01*
X44500000Y-114925000D01*
G75*
G02*
X44725000Y-115150000I0J-225000D01*
G01*
X44725000Y-115600000D01*
G75*
G02*
X44500000Y-115825000I-225000J0D01*
G01*
G37*
G04 #@! TD.AperFunction*
G04 #@! TA.AperFunction,SMDPad,CuDef*
G36*
G01*
X44500000Y-117375000D02*
X44000000Y-117375000D01*
G75*
G02*
X43775000Y-117150000I0J225000D01*
G01*
X43775000Y-116700000D01*
G75*
G02*
X44000000Y-116475000I225000J0D01*
G01*
X44500000Y-116475000D01*
G75*
G02*
X44725000Y-116700000I0J-225000D01*
G01*
X44725000Y-117150000D01*
G75*
G02*
X44500000Y-117375000I-225000J0D01*
G01*
G37*
G04 #@! TD.AperFunction*
G04 #@! TA.AperFunction,SMDPad,CuDef*
G36*
G01*
X51825000Y-141750000D02*
X51825000Y-141250000D01*
G75*
G02*
X52050000Y-141025000I225000J0D01*
G01*
X52500000Y-141025000D01*
G75*
G02*
X52725000Y-141250000I0J-225000D01*
G01*
X52725000Y-141750000D01*
G75*
G02*
X52500000Y-141975000I-225000J0D01*
G01*
X52050000Y-141975000D01*
G75*
G02*
X51825000Y-141750000I0J225000D01*
G01*
G37*
G04 #@! TD.AperFunction*
G04 #@! TA.AperFunction,SMDPad,CuDef*
G36*
G01*
X50275000Y-141750000D02*
X50275000Y-141250000D01*
G75*
G02*
X50500000Y-141025000I225000J0D01*
G01*
X50950000Y-141025000D01*
G75*
G02*
X51175000Y-141250000I0J-225000D01*
G01*
X51175000Y-141750000D01*
G75*
G02*
X50950000Y-141975000I-225000J0D01*
G01*
X50500000Y-141975000D01*
G75*
G02*
X50275000Y-141750000I0J225000D01*
G01*
G37*
G04 #@! TD.AperFunction*
G04 #@! TA.AperFunction,SMDPad,CuDef*
G36*
G01*
X76640000Y-83490000D02*
X76300000Y-83490000D01*
G75*
G02*
X76160000Y-83350000I0J140000D01*
G01*
X76160000Y-83070000D01*
G75*
G02*
X76300000Y-82930000I140000J0D01*
G01*
X76640000Y-82930000D01*
G75*
G02*
X76780000Y-83070000I0J-140000D01*
G01*
X76780000Y-83350000D01*
G75*
G02*
X76640000Y-83490000I-140000J0D01*
G01*
G37*
G04 #@! TD.AperFunction*
G04 #@! TA.AperFunction,SMDPad,CuDef*
G36*
G01*
X76640000Y-84450000D02*
X76300000Y-84450000D01*
G75*
G02*
X76160000Y-84310000I0J140000D01*
G01*
X76160000Y-84030000D01*
G75*
G02*
X76300000Y-83890000I140000J0D01*
G01*
X76640000Y-83890000D01*
G75*
G02*
X76780000Y-84030000I0J-140000D01*
G01*
X76780000Y-84310000D01*
G75*
G02*
X76640000Y-84450000I-140000J0D01*
G01*
G37*
G04 #@! TD.AperFunction*
G04 #@! TA.AperFunction,SMDPad,CuDef*
G36*
G01*
X91730000Y-88250000D02*
X92070000Y-88250000D01*
G75*
G02*
X92210000Y-88390000I0J-140000D01*
G01*
X92210000Y-88670000D01*
G75*
G02*
X92070000Y-88810000I-140000J0D01*
G01*
X91730000Y-88810000D01*
G75*
G02*
X91590000Y-88670000I0J140000D01*
G01*
X91590000Y-88390000D01*
G75*
G02*
X91730000Y-88250000I140000J0D01*
G01*
G37*
G04 #@! TD.AperFunction*
G04 #@! TA.AperFunction,SMDPad,CuDef*
G36*
G01*
X91730000Y-87290000D02*
X92070000Y-87290000D01*
G75*
G02*
X92210000Y-87430000I0J-140000D01*
G01*
X92210000Y-87710000D01*
G75*
G02*
X92070000Y-87850000I-140000J0D01*
G01*
X91730000Y-87850000D01*
G75*
G02*
X91590000Y-87710000I0J140000D01*
G01*
X91590000Y-87430000D01*
G75*
G02*
X91730000Y-87290000I140000J0D01*
G01*
G37*
G04 #@! TD.AperFunction*
G04 #@! TA.AperFunction,SMDPad,CuDef*
G36*
G01*
X70700000Y-96420000D02*
X70700000Y-96080000D01*
G75*
G02*
X70840000Y-95940000I140000J0D01*
G01*
X71120000Y-95940000D01*
G75*
G02*
X71260000Y-96080000I0J-140000D01*
G01*
X71260000Y-96420000D01*
G75*
G02*
X71120000Y-96560000I-140000J0D01*
G01*
X70840000Y-96560000D01*
G75*
G02*
X70700000Y-96420000I0J140000D01*
G01*
G37*
G04 #@! TD.AperFunction*
G04 #@! TA.AperFunction,SMDPad,CuDef*
G36*
G01*
X69740000Y-96420000D02*
X69740000Y-96080000D01*
G75*
G02*
X69880000Y-95940000I140000J0D01*
G01*
X70160000Y-95940000D01*
G75*
G02*
X70300000Y-96080000I0J-140000D01*
G01*
X70300000Y-96420000D01*
G75*
G02*
X70160000Y-96560000I-140000J0D01*
G01*
X69880000Y-96560000D01*
G75*
G02*
X69740000Y-96420000I0J140000D01*
G01*
G37*
G04 #@! TD.AperFunction*
G04 #@! TA.AperFunction,SMDPad,CuDef*
G36*
G01*
X72300000Y-96080000D02*
X72300000Y-96420000D01*
G75*
G02*
X72160000Y-96560000I-140000J0D01*
G01*
X71880000Y-96560000D01*
G75*
G02*
X71740000Y-96420000I0J140000D01*
G01*
X71740000Y-96080000D01*
G75*
G02*
X71880000Y-95940000I140000J0D01*
G01*
X72160000Y-95940000D01*
G75*
G02*
X72300000Y-96080000I0J-140000D01*
G01*
G37*
G04 #@! TD.AperFunction*
G04 #@! TA.AperFunction,SMDPad,CuDef*
G36*
G01*
X73260000Y-96080000D02*
X73260000Y-96420000D01*
G75*
G02*
X73120000Y-96560000I-140000J0D01*
G01*
X72840000Y-96560000D01*
G75*
G02*
X72700000Y-96420000I0J140000D01*
G01*
X72700000Y-96080000D01*
G75*
G02*
X72840000Y-95940000I140000J0D01*
G01*
X73120000Y-95940000D01*
G75*
G02*
X73260000Y-96080000I0J-140000D01*
G01*
G37*
G04 #@! TD.AperFunction*
G04 #@! TA.AperFunction,SMDPad,CuDef*
G36*
G01*
X90200000Y-91920000D02*
X90200000Y-91580000D01*
G75*
G02*
X90340000Y-91440000I140000J0D01*
G01*
X90620000Y-91440000D01*
G75*
G02*
X90760000Y-91580000I0J-140000D01*
G01*
X90760000Y-91920000D01*
G75*
G02*
X90620000Y-92060000I-140000J0D01*
G01*
X90340000Y-92060000D01*
G75*
G02*
X90200000Y-91920000I0J140000D01*
G01*
G37*
G04 #@! TD.AperFunction*
G04 #@! TA.AperFunction,SMDPad,CuDef*
G36*
G01*
X89240000Y-91920000D02*
X89240000Y-91580000D01*
G75*
G02*
X89380000Y-91440000I140000J0D01*
G01*
X89660000Y-91440000D01*
G75*
G02*
X89800000Y-91580000I0J-140000D01*
G01*
X89800000Y-91920000D01*
G75*
G02*
X89660000Y-92060000I-140000J0D01*
G01*
X89380000Y-92060000D01*
G75*
G02*
X89240000Y-91920000I0J140000D01*
G01*
G37*
G04 #@! TD.AperFunction*
G04 #@! TA.AperFunction,SMDPad,CuDef*
G36*
G01*
X43025000Y-56900000D02*
X43025000Y-57400000D01*
G75*
G02*
X42800000Y-57625000I-225000J0D01*
G01*
X42350000Y-57625000D01*
G75*
G02*
X42125000Y-57400000I0J225000D01*
G01*
X42125000Y-56900000D01*
G75*
G02*
X42350000Y-56675000I225000J0D01*
G01*
X42800000Y-56675000D01*
G75*
G02*
X43025000Y-56900000I0J-225000D01*
G01*
G37*
G04 #@! TD.AperFunction*
G04 #@! TA.AperFunction,SMDPad,CuDef*
G36*
G01*
X44575000Y-56900000D02*
X44575000Y-57400000D01*
G75*
G02*
X44350000Y-57625000I-225000J0D01*
G01*
X43900000Y-57625000D01*
G75*
G02*
X43675000Y-57400000I0J225000D01*
G01*
X43675000Y-56900000D01*
G75*
G02*
X43900000Y-56675000I225000J0D01*
G01*
X44350000Y-56675000D01*
G75*
G02*
X44575000Y-56900000I0J-225000D01*
G01*
G37*
G04 #@! TD.AperFunction*
G04 #@! TA.AperFunction,SMDPad,CuDef*
G36*
G01*
X71800000Y-106330000D02*
X71800000Y-106670000D01*
G75*
G02*
X71660000Y-106810000I-140000J0D01*
G01*
X71380000Y-106810000D01*
G75*
G02*
X71240000Y-106670000I0J140000D01*
G01*
X71240000Y-106330000D01*
G75*
G02*
X71380000Y-106190000I140000J0D01*
G01*
X71660000Y-106190000D01*
G75*
G02*
X71800000Y-106330000I0J-140000D01*
G01*
G37*
G04 #@! TD.AperFunction*
G04 #@! TA.AperFunction,SMDPad,CuDef*
G36*
G01*
X72760000Y-106330000D02*
X72760000Y-106670000D01*
G75*
G02*
X72620000Y-106810000I-140000J0D01*
G01*
X72340000Y-106810000D01*
G75*
G02*
X72200000Y-106670000I0J140000D01*
G01*
X72200000Y-106330000D01*
G75*
G02*
X72340000Y-106190000I140000J0D01*
G01*
X72620000Y-106190000D01*
G75*
G02*
X72760000Y-106330000I0J-140000D01*
G01*
G37*
G04 #@! TD.AperFunction*
G04 #@! TA.AperFunction,SMDPad,CuDef*
G36*
G01*
X83580000Y-111700000D02*
X83920000Y-111700000D01*
G75*
G02*
X84060000Y-111840000I0J-140000D01*
G01*
X84060000Y-112120000D01*
G75*
G02*
X83920000Y-112260000I-140000J0D01*
G01*
X83580000Y-112260000D01*
G75*
G02*
X83440000Y-112120000I0J140000D01*
G01*
X83440000Y-111840000D01*
G75*
G02*
X83580000Y-111700000I140000J0D01*
G01*
G37*
G04 #@! TD.AperFunction*
G04 #@! TA.AperFunction,SMDPad,CuDef*
G36*
G01*
X83580000Y-110740000D02*
X83920000Y-110740000D01*
G75*
G02*
X84060000Y-110880000I0J-140000D01*
G01*
X84060000Y-111160000D01*
G75*
G02*
X83920000Y-111300000I-140000J0D01*
G01*
X83580000Y-111300000D01*
G75*
G02*
X83440000Y-111160000I0J140000D01*
G01*
X83440000Y-110880000D01*
G75*
G02*
X83580000Y-110740000I140000J0D01*
G01*
G37*
G04 #@! TD.AperFunction*
G04 #@! TA.AperFunction,SMDPad,CuDef*
G36*
G01*
X71800000Y-103330000D02*
X71800000Y-103670000D01*
G75*
G02*
X71660000Y-103810000I-140000J0D01*
G01*
X71380000Y-103810000D01*
G75*
G02*
X71240000Y-103670000I0J140000D01*
G01*
X71240000Y-103330000D01*
G75*
G02*
X71380000Y-103190000I140000J0D01*
G01*
X71660000Y-103190000D01*
G75*
G02*
X71800000Y-103330000I0J-140000D01*
G01*
G37*
G04 #@! TD.AperFunction*
G04 #@! TA.AperFunction,SMDPad,CuDef*
G36*
G01*
X72760000Y-103330000D02*
X72760000Y-103670000D01*
G75*
G02*
X72620000Y-103810000I-140000J0D01*
G01*
X72340000Y-103810000D01*
G75*
G02*
X72200000Y-103670000I0J140000D01*
G01*
X72200000Y-103330000D01*
G75*
G02*
X72340000Y-103190000I140000J0D01*
G01*
X72620000Y-103190000D01*
G75*
G02*
X72760000Y-103330000I0J-140000D01*
G01*
G37*
G04 #@! TD.AperFunction*
G04 #@! TA.AperFunction,SMDPad,CuDef*
G36*
G01*
X72200000Y-98920000D02*
X72200000Y-98580000D01*
G75*
G02*
X72340000Y-98440000I140000J0D01*
G01*
X72620000Y-98440000D01*
G75*
G02*
X72760000Y-98580000I0J-140000D01*
G01*
X72760000Y-98920000D01*
G75*
G02*
X72620000Y-99060000I-140000J0D01*
G01*
X72340000Y-99060000D01*
G75*
G02*
X72200000Y-98920000I0J140000D01*
G01*
G37*
G04 #@! TD.AperFunction*
G04 #@! TA.AperFunction,SMDPad,CuDef*
G36*
G01*
X71240000Y-98920000D02*
X71240000Y-98580000D01*
G75*
G02*
X71380000Y-98440000I140000J0D01*
G01*
X71660000Y-98440000D01*
G75*
G02*
X71800000Y-98580000I0J-140000D01*
G01*
X71800000Y-98920000D01*
G75*
G02*
X71660000Y-99060000I-140000J0D01*
G01*
X71380000Y-99060000D01*
G75*
G02*
X71240000Y-98920000I0J140000D01*
G01*
G37*
G04 #@! TD.AperFunction*
G04 #@! TA.AperFunction,SMDPad,CuDef*
G36*
G01*
X83000000Y-83175000D02*
X82500000Y-83175000D01*
G75*
G02*
X82275000Y-82950000I0J225000D01*
G01*
X82275000Y-82500000D01*
G75*
G02*
X82500000Y-82275000I225000J0D01*
G01*
X83000000Y-82275000D01*
G75*
G02*
X83225000Y-82500000I0J-225000D01*
G01*
X83225000Y-82950000D01*
G75*
G02*
X83000000Y-83175000I-225000J0D01*
G01*
G37*
G04 #@! TD.AperFunction*
G04 #@! TA.AperFunction,SMDPad,CuDef*
G36*
G01*
X83000000Y-84725000D02*
X82500000Y-84725000D01*
G75*
G02*
X82275000Y-84500000I0J225000D01*
G01*
X82275000Y-84050000D01*
G75*
G02*
X82500000Y-83825000I225000J0D01*
G01*
X83000000Y-83825000D01*
G75*
G02*
X83225000Y-84050000I0J-225000D01*
G01*
X83225000Y-84500000D01*
G75*
G02*
X83000000Y-84725000I-225000J0D01*
G01*
G37*
G04 #@! TD.AperFunction*
G04 #@! TA.AperFunction,SMDPad,CuDef*
G36*
G01*
X80920000Y-90300000D02*
X80580000Y-90300000D01*
G75*
G02*
X80440000Y-90160000I0J140000D01*
G01*
X80440000Y-89880000D01*
G75*
G02*
X80580000Y-89740000I140000J0D01*
G01*
X80920000Y-89740000D01*
G75*
G02*
X81060000Y-89880000I0J-140000D01*
G01*
X81060000Y-90160000D01*
G75*
G02*
X80920000Y-90300000I-140000J0D01*
G01*
G37*
G04 #@! TD.AperFunction*
G04 #@! TA.AperFunction,SMDPad,CuDef*
G36*
G01*
X80920000Y-91260000D02*
X80580000Y-91260000D01*
G75*
G02*
X80440000Y-91120000I0J140000D01*
G01*
X80440000Y-90840000D01*
G75*
G02*
X80580000Y-90700000I140000J0D01*
G01*
X80920000Y-90700000D01*
G75*
G02*
X81060000Y-90840000I0J-140000D01*
G01*
X81060000Y-91120000D01*
G75*
G02*
X80920000Y-91260000I-140000J0D01*
G01*
G37*
G04 #@! TD.AperFunction*
G04 #@! TA.AperFunction,SMDPad,CuDef*
G36*
G01*
X107425000Y-138250000D02*
X107425000Y-138750000D01*
G75*
G02*
X107200000Y-138975000I-225000J0D01*
G01*
X106750000Y-138975000D01*
G75*
G02*
X106525000Y-138750000I0J225000D01*
G01*
X106525000Y-138250000D01*
G75*
G02*
X106750000Y-138025000I225000J0D01*
G01*
X107200000Y-138025000D01*
G75*
G02*
X107425000Y-138250000I0J-225000D01*
G01*
G37*
G04 #@! TD.AperFunction*
G04 #@! TA.AperFunction,SMDPad,CuDef*
G36*
G01*
X108975000Y-138250000D02*
X108975000Y-138750000D01*
G75*
G02*
X108750000Y-138975000I-225000J0D01*
G01*
X108300000Y-138975000D01*
G75*
G02*
X108075000Y-138750000I0J225000D01*
G01*
X108075000Y-138250000D01*
G75*
G02*
X108300000Y-138025000I225000J0D01*
G01*
X108750000Y-138025000D01*
G75*
G02*
X108975000Y-138250000I0J-225000D01*
G01*
G37*
G04 #@! TD.AperFunction*
G04 #@! TA.AperFunction,SMDPad,CuDef*
G36*
G01*
X120875000Y-132400000D02*
X120875000Y-131900000D01*
G75*
G02*
X121100000Y-131675000I225000J0D01*
G01*
X121550000Y-131675000D01*
G75*
G02*
X121775000Y-131900000I0J-225000D01*
G01*
X121775000Y-132400000D01*
G75*
G02*
X121550000Y-132625000I-225000J0D01*
G01*
X121100000Y-132625000D01*
G75*
G02*
X120875000Y-132400000I0J225000D01*
G01*
G37*
G04 #@! TD.AperFunction*
G04 #@! TA.AperFunction,SMDPad,CuDef*
G36*
G01*
X119325000Y-132400000D02*
X119325000Y-131900000D01*
G75*
G02*
X119550000Y-131675000I225000J0D01*
G01*
X120000000Y-131675000D01*
G75*
G02*
X120225000Y-131900000I0J-225000D01*
G01*
X120225000Y-132400000D01*
G75*
G02*
X120000000Y-132625000I-225000J0D01*
G01*
X119550000Y-132625000D01*
G75*
G02*
X119325000Y-132400000I0J225000D01*
G01*
G37*
G04 #@! TD.AperFunction*
G04 #@! TA.AperFunction,SMDPad,CuDef*
G36*
G01*
X86920000Y-90300000D02*
X86580000Y-90300000D01*
G75*
G02*
X86440000Y-90160000I0J140000D01*
G01*
X86440000Y-89880000D01*
G75*
G02*
X86580000Y-89740000I140000J0D01*
G01*
X86920000Y-89740000D01*
G75*
G02*
X87060000Y-89880000I0J-140000D01*
G01*
X87060000Y-90160000D01*
G75*
G02*
X86920000Y-90300000I-140000J0D01*
G01*
G37*
G04 #@! TD.AperFunction*
G04 #@! TA.AperFunction,SMDPad,CuDef*
G36*
G01*
X86920000Y-91260000D02*
X86580000Y-91260000D01*
G75*
G02*
X86440000Y-91120000I0J140000D01*
G01*
X86440000Y-90840000D01*
G75*
G02*
X86580000Y-90700000I140000J0D01*
G01*
X86920000Y-90700000D01*
G75*
G02*
X87060000Y-90840000I0J-140000D01*
G01*
X87060000Y-91120000D01*
G75*
G02*
X86920000Y-91260000I-140000J0D01*
G01*
G37*
G04 #@! TD.AperFunction*
G04 #@! TA.AperFunction,SMDPad,CuDef*
G36*
G01*
X122525000Y-120750000D02*
X122525000Y-120250000D01*
G75*
G02*
X122750000Y-120025000I225000J0D01*
G01*
X123200000Y-120025000D01*
G75*
G02*
X123425000Y-120250000I0J-225000D01*
G01*
X123425000Y-120750000D01*
G75*
G02*
X123200000Y-120975000I-225000J0D01*
G01*
X122750000Y-120975000D01*
G75*
G02*
X122525000Y-120750000I0J225000D01*
G01*
G37*
G04 #@! TD.AperFunction*
G04 #@! TA.AperFunction,SMDPad,CuDef*
G36*
G01*
X120975000Y-120750000D02*
X120975000Y-120250000D01*
G75*
G02*
X121200000Y-120025000I225000J0D01*
G01*
X121650000Y-120025000D01*
G75*
G02*
X121875000Y-120250000I0J-225000D01*
G01*
X121875000Y-120750000D01*
G75*
G02*
X121650000Y-120975000I-225000J0D01*
G01*
X121200000Y-120975000D01*
G75*
G02*
X120975000Y-120750000I0J225000D01*
G01*
G37*
G04 #@! TD.AperFunction*
G04 #@! TA.AperFunction,SMDPad,CuDef*
G36*
G01*
X94200000Y-99170000D02*
X94200000Y-98830000D01*
G75*
G02*
X94340000Y-98690000I140000J0D01*
G01*
X94620000Y-98690000D01*
G75*
G02*
X94760000Y-98830000I0J-140000D01*
G01*
X94760000Y-99170000D01*
G75*
G02*
X94620000Y-99310000I-140000J0D01*
G01*
X94340000Y-99310000D01*
G75*
G02*
X94200000Y-99170000I0J140000D01*
G01*
G37*
G04 #@! TD.AperFunction*
G04 #@! TA.AperFunction,SMDPad,CuDef*
G36*
G01*
X93240000Y-99170000D02*
X93240000Y-98830000D01*
G75*
G02*
X93380000Y-98690000I140000J0D01*
G01*
X93660000Y-98690000D01*
G75*
G02*
X93800000Y-98830000I0J-140000D01*
G01*
X93800000Y-99170000D01*
G75*
G02*
X93660000Y-99310000I-140000J0D01*
G01*
X93380000Y-99310000D01*
G75*
G02*
X93240000Y-99170000I0J140000D01*
G01*
G37*
G04 #@! TD.AperFunction*
G04 #@! TA.AperFunction,SMDPad,CuDef*
G36*
G01*
X78330000Y-111700000D02*
X78670000Y-111700000D01*
G75*
G02*
X78810000Y-111840000I0J-140000D01*
G01*
X78810000Y-112120000D01*
G75*
G02*
X78670000Y-112260000I-140000J0D01*
G01*
X78330000Y-112260000D01*
G75*
G02*
X78190000Y-112120000I0J140000D01*
G01*
X78190000Y-111840000D01*
G75*
G02*
X78330000Y-111700000I140000J0D01*
G01*
G37*
G04 #@! TD.AperFunction*
G04 #@! TA.AperFunction,SMDPad,CuDef*
G36*
G01*
X78330000Y-110740000D02*
X78670000Y-110740000D01*
G75*
G02*
X78810000Y-110880000I0J-140000D01*
G01*
X78810000Y-111160000D01*
G75*
G02*
X78670000Y-111300000I-140000J0D01*
G01*
X78330000Y-111300000D01*
G75*
G02*
X78190000Y-111160000I0J140000D01*
G01*
X78190000Y-110880000D01*
G75*
G02*
X78330000Y-110740000I140000J0D01*
G01*
G37*
G04 #@! TD.AperFunction*
G04 #@! TA.AperFunction,SMDPad,CuDef*
G36*
G01*
X104500000Y-135325000D02*
X105000000Y-135325000D01*
G75*
G02*
X105225000Y-135550000I0J-225000D01*
G01*
X105225000Y-136000000D01*
G75*
G02*
X105000000Y-136225000I-225000J0D01*
G01*
X104500000Y-136225000D01*
G75*
G02*
X104275000Y-136000000I0J225000D01*
G01*
X104275000Y-135550000D01*
G75*
G02*
X104500000Y-135325000I225000J0D01*
G01*
G37*
G04 #@! TD.AperFunction*
G04 #@! TA.AperFunction,SMDPad,CuDef*
G36*
G01*
X104500000Y-133775000D02*
X105000000Y-133775000D01*
G75*
G02*
X105225000Y-134000000I0J-225000D01*
G01*
X105225000Y-134450000D01*
G75*
G02*
X105000000Y-134675000I-225000J0D01*
G01*
X104500000Y-134675000D01*
G75*
G02*
X104275000Y-134450000I0J225000D01*
G01*
X104275000Y-134000000D01*
G75*
G02*
X104500000Y-133775000I225000J0D01*
G01*
G37*
G04 #@! TD.AperFunction*
G04 #@! TA.AperFunction,SMDPad,CuDef*
G36*
G01*
X71800000Y-104330000D02*
X71800000Y-104670000D01*
G75*
G02*
X71660000Y-104810000I-140000J0D01*
G01*
X71380000Y-104810000D01*
G75*
G02*
X71240000Y-104670000I0J140000D01*
G01*
X71240000Y-104330000D01*
G75*
G02*
X71380000Y-104190000I140000J0D01*
G01*
X71660000Y-104190000D01*
G75*
G02*
X71800000Y-104330000I0J-140000D01*
G01*
G37*
G04 #@! TD.AperFunction*
G04 #@! TA.AperFunction,SMDPad,CuDef*
G36*
G01*
X72760000Y-104330000D02*
X72760000Y-104670000D01*
G75*
G02*
X72620000Y-104810000I-140000J0D01*
G01*
X72340000Y-104810000D01*
G75*
G02*
X72200000Y-104670000I0J140000D01*
G01*
X72200000Y-104330000D01*
G75*
G02*
X72340000Y-104190000I140000J0D01*
G01*
X72620000Y-104190000D01*
G75*
G02*
X72760000Y-104330000I0J-140000D01*
G01*
G37*
G04 #@! TD.AperFunction*
G04 #@! TA.AperFunction,SMDPad,CuDef*
G36*
G01*
X71800000Y-97580000D02*
X71800000Y-97920000D01*
G75*
G02*
X71660000Y-98060000I-140000J0D01*
G01*
X71380000Y-98060000D01*
G75*
G02*
X71240000Y-97920000I0J140000D01*
G01*
X71240000Y-97580000D01*
G75*
G02*
X71380000Y-97440000I140000J0D01*
G01*
X71660000Y-97440000D01*
G75*
G02*
X71800000Y-97580000I0J-140000D01*
G01*
G37*
G04 #@! TD.AperFunction*
G04 #@! TA.AperFunction,SMDPad,CuDef*
G36*
G01*
X72760000Y-97580000D02*
X72760000Y-97920000D01*
G75*
G02*
X72620000Y-98060000I-140000J0D01*
G01*
X72340000Y-98060000D01*
G75*
G02*
X72200000Y-97920000I0J140000D01*
G01*
X72200000Y-97580000D01*
G75*
G02*
X72340000Y-97440000I140000J0D01*
G01*
X72620000Y-97440000D01*
G75*
G02*
X72760000Y-97580000I0J-140000D01*
G01*
G37*
G04 #@! TD.AperFunction*
G04 #@! TA.AperFunction,SMDPad,CuDef*
G36*
G01*
X69425000Y-90250000D02*
X69425000Y-90750000D01*
G75*
G02*
X69200000Y-90975000I-225000J0D01*
G01*
X68750000Y-90975000D01*
G75*
G02*
X68525000Y-90750000I0J225000D01*
G01*
X68525000Y-90250000D01*
G75*
G02*
X68750000Y-90025000I225000J0D01*
G01*
X69200000Y-90025000D01*
G75*
G02*
X69425000Y-90250000I0J-225000D01*
G01*
G37*
G04 #@! TD.AperFunction*
G04 #@! TA.AperFunction,SMDPad,CuDef*
G36*
G01*
X70975000Y-90250000D02*
X70975000Y-90750000D01*
G75*
G02*
X70750000Y-90975000I-225000J0D01*
G01*
X70300000Y-90975000D01*
G75*
G02*
X70075000Y-90750000I0J225000D01*
G01*
X70075000Y-90250000D01*
G75*
G02*
X70300000Y-90025000I225000J0D01*
G01*
X70750000Y-90025000D01*
G75*
G02*
X70975000Y-90250000I0J-225000D01*
G01*
G37*
G04 #@! TD.AperFunction*
G04 #@! TA.AperFunction,SMDPad,CuDef*
G36*
G01*
X68050000Y-112425000D02*
X68050000Y-111925000D01*
G75*
G02*
X68275000Y-111700000I225000J0D01*
G01*
X68725000Y-111700000D01*
G75*
G02*
X68950000Y-111925000I0J-225000D01*
G01*
X68950000Y-112425000D01*
G75*
G02*
X68725000Y-112650000I-225000J0D01*
G01*
X68275000Y-112650000D01*
G75*
G02*
X68050000Y-112425000I0J225000D01*
G01*
G37*
G04 #@! TD.AperFunction*
G04 #@! TA.AperFunction,SMDPad,CuDef*
G36*
G01*
X66500000Y-112425000D02*
X66500000Y-111925000D01*
G75*
G02*
X66725000Y-111700000I225000J0D01*
G01*
X67175000Y-111700000D01*
G75*
G02*
X67400000Y-111925000I0J-225000D01*
G01*
X67400000Y-112425000D01*
G75*
G02*
X67175000Y-112650000I-225000J0D01*
G01*
X66725000Y-112650000D01*
G75*
G02*
X66500000Y-112425000I0J225000D01*
G01*
G37*
G04 #@! TD.AperFunction*
G04 #@! TA.AperFunction,SMDPad,CuDef*
G36*
G01*
X68050000Y-110925000D02*
X68050000Y-110425000D01*
G75*
G02*
X68275000Y-110200000I225000J0D01*
G01*
X68725000Y-110200000D01*
G75*
G02*
X68950000Y-110425000I0J-225000D01*
G01*
X68950000Y-110925000D01*
G75*
G02*
X68725000Y-111150000I-225000J0D01*
G01*
X68275000Y-111150000D01*
G75*
G02*
X68050000Y-110925000I0J225000D01*
G01*
G37*
G04 #@! TD.AperFunction*
G04 #@! TA.AperFunction,SMDPad,CuDef*
G36*
G01*
X66500000Y-110925000D02*
X66500000Y-110425000D01*
G75*
G02*
X66725000Y-110200000I225000J0D01*
G01*
X67175000Y-110200000D01*
G75*
G02*
X67400000Y-110425000I0J-225000D01*
G01*
X67400000Y-110925000D01*
G75*
G02*
X67175000Y-111150000I-225000J0D01*
G01*
X66725000Y-111150000D01*
G75*
G02*
X66500000Y-110925000I0J225000D01*
G01*
G37*
G04 #@! TD.AperFunction*
G04 #@! TA.AperFunction,SMDPad,CuDef*
G36*
G01*
X73830000Y-89700000D02*
X74170000Y-89700000D01*
G75*
G02*
X74310000Y-89840000I0J-140000D01*
G01*
X74310000Y-90120000D01*
G75*
G02*
X74170000Y-90260000I-140000J0D01*
G01*
X73830000Y-90260000D01*
G75*
G02*
X73690000Y-90120000I0J140000D01*
G01*
X73690000Y-89840000D01*
G75*
G02*
X73830000Y-89700000I140000J0D01*
G01*
G37*
G04 #@! TD.AperFunction*
G04 #@! TA.AperFunction,SMDPad,CuDef*
G36*
G01*
X73830000Y-88740000D02*
X74170000Y-88740000D01*
G75*
G02*
X74310000Y-88880000I0J-140000D01*
G01*
X74310000Y-89160000D01*
G75*
G02*
X74170000Y-89300000I-140000J0D01*
G01*
X73830000Y-89300000D01*
G75*
G02*
X73690000Y-89160000I0J140000D01*
G01*
X73690000Y-88880000D01*
G75*
G02*
X73830000Y-88740000I140000J0D01*
G01*
G37*
G04 #@! TD.AperFunction*
D36*
X41250000Y-141500000D03*
X35750000Y-141500000D03*
X41250000Y-132750000D03*
X35750000Y-132750000D03*
X121300000Y-133400000D03*
X129800000Y-127650000D03*
X125800000Y-127650000D03*
X129800000Y-124150000D03*
X125800000Y-124150000D03*
X99750000Y-136250000D03*
X106975000Y-137275000D03*
X105725000Y-135775000D03*
X95750000Y-137500000D03*
X49612500Y-140387500D03*
X73750000Y-98750000D03*
X77750000Y-112750000D03*
X70750000Y-103500000D03*
X70750000Y-106500000D03*
X76750000Y-97750000D03*
X76750000Y-99750000D03*
X74000000Y-96250000D03*
X70500000Y-97250000D03*
X82750000Y-81750000D03*
X86750000Y-89500000D03*
X89750000Y-96250000D03*
X89750000Y-99250000D03*
X95250000Y-99000000D03*
X89750000Y-102750000D03*
X76470000Y-82530000D03*
X68000000Y-90500000D03*
X44250000Y-118050000D03*
X50555000Y-124145000D03*
X80750000Y-89350000D03*
X36050000Y-61100000D03*
X36050000Y-68350000D03*
X37650000Y-66050000D03*
X53350000Y-57750000D03*
X115000000Y-84500000D03*
X83749994Y-112600000D03*
X127275000Y-87225000D03*
X78750000Y-107550000D03*
X115125000Y-146775000D03*
X91900000Y-90099998D03*
X71500000Y-112925000D03*
X71400000Y-110025000D03*
X76450000Y-89500000D03*
X74650000Y-90775000D03*
X74300000Y-88150000D03*
X66000000Y-111375000D03*
X121300000Y-128400000D03*
X119800000Y-128400000D03*
X95975000Y-139525000D03*
X62712500Y-141537500D03*
X67000000Y-98750000D03*
X73750000Y-97250000D03*
X74730000Y-89020000D03*
X78500000Y-110250000D03*
X74250000Y-104250000D03*
X81250000Y-81750000D03*
X86750000Y-92000000D03*
X92500000Y-98750000D03*
X80750000Y-92000000D03*
X45725000Y-115375000D03*
X41550000Y-122750000D03*
X65250000Y-135450000D03*
X127275000Y-77725000D03*
X118000000Y-69150000D03*
X124450000Y-99150000D03*
X121775000Y-104075000D03*
X120600000Y-128435000D03*
X51025002Y-136799998D03*
X42500000Y-60000000D03*
X41400000Y-60000000D03*
X52100000Y-145000000D03*
X53000000Y-145000000D03*
X78000000Y-96750000D03*
X75250000Y-81500000D03*
X46000000Y-62900000D03*
X84250000Y-90350000D03*
X89400000Y-87450000D03*
X81400000Y-65100000D03*
X87400000Y-64800000D03*
X72250000Y-89056204D03*
X71250000Y-80950000D03*
X79749983Y-88049983D03*
X71250000Y-80350000D03*
X80450000Y-88250000D03*
X87285010Y-83664990D03*
X88750000Y-90850000D03*
X112900000Y-92200000D03*
X93150000Y-109050000D03*
X88900000Y-100225000D03*
X95000000Y-101250000D03*
X86050000Y-100800000D03*
X72200000Y-90700000D03*
X55150000Y-73650000D03*
X49700000Y-57750000D03*
X114400000Y-89000000D03*
X98349999Y-102250001D03*
X94575000Y-111750000D03*
X101450000Y-131850000D03*
X102075000Y-140175000D03*
X92552578Y-103324990D03*
X95250000Y-103750000D03*
X97349990Y-104300010D03*
X108950000Y-122950000D03*
X81250012Y-129149988D03*
X113100000Y-104500000D03*
X88250000Y-112050000D03*
X49350000Y-124950000D03*
X86750000Y-113175000D03*
X86250000Y-111150000D03*
X53450000Y-122950000D03*
X85750000Y-114225000D03*
X83950000Y-115050000D03*
X65650000Y-116850000D03*
X80850000Y-107350000D03*
X69650000Y-115400000D03*
X76400000Y-112000000D03*
X78200000Y-102650000D03*
X56450000Y-118150000D03*
X77250000Y-102750000D03*
X81550000Y-101150000D03*
X77450000Y-101150000D03*
X62450000Y-107550000D03*
X73350000Y-94750000D03*
D37*
X127780000Y-123880000D02*
X127780000Y-126150000D01*
X121300000Y-132175000D02*
X121325000Y-132150000D01*
X121300000Y-133400000D02*
X121300000Y-132175000D01*
X125775000Y-142975000D02*
X126050000Y-142700000D01*
X99635000Y-134800000D02*
X99635000Y-135615000D01*
X99635000Y-136135000D02*
X99750000Y-136250000D01*
X99635000Y-134800000D02*
X99635000Y-136135000D01*
X106425000Y-135775000D02*
X106800000Y-136150000D01*
X104750000Y-135775000D02*
X105725000Y-135775000D01*
X106975000Y-136325000D02*
X106800000Y-136150000D01*
X106975000Y-138500000D02*
X106975000Y-137275000D01*
X106975000Y-137275000D02*
X106975000Y-136325000D01*
X105725000Y-135775000D02*
X106425000Y-135775000D01*
X99635000Y-132390000D02*
X99775000Y-132250000D01*
X99635000Y-134800000D02*
X99635000Y-132390000D01*
X41350000Y-138850000D02*
X41350000Y-141650000D01*
X41200000Y-141500000D02*
X41350000Y-141650000D01*
X41250000Y-132750000D02*
X41350000Y-132850000D01*
X35750000Y-132750000D02*
X41250000Y-132750000D01*
X94750000Y-137975000D02*
X95275000Y-137975000D01*
X95275000Y-137975000D02*
X95750000Y-137500000D01*
X48800000Y-139575000D02*
X49612500Y-140387500D01*
X48800000Y-139310000D02*
X48800000Y-139575000D01*
X41475000Y-132725000D02*
X41350000Y-132850000D01*
X45750000Y-132725000D02*
X41475000Y-132725000D01*
X75512000Y-97750000D02*
X75512000Y-98750000D01*
X72480000Y-98750000D02*
X73750000Y-98750000D01*
X71520000Y-97790000D02*
X72480000Y-98750000D01*
X71520000Y-97750000D02*
X71520000Y-97790000D01*
X73750000Y-98750000D02*
X75512000Y-98750000D01*
X78500000Y-111980000D02*
X78500000Y-112000000D01*
X78500000Y-112000000D02*
X77750000Y-112750000D01*
X71520000Y-103500000D02*
X71520000Y-104500000D01*
X71520000Y-103500000D02*
X70750000Y-103500000D01*
X71520000Y-106500000D02*
X70750000Y-106500000D01*
X75512000Y-97750000D02*
X76750000Y-97750000D01*
X75512000Y-99750000D02*
X76750000Y-99750000D01*
X72980000Y-96250000D02*
X74000000Y-96250000D01*
X73750000Y-96250000D02*
X74000000Y-96250000D01*
X74000000Y-96250000D02*
X75512000Y-96250000D01*
X71520000Y-97750000D02*
X71000000Y-97750000D01*
X70020000Y-96770000D02*
X70020000Y-96250000D01*
X71000000Y-97750000D02*
X70500000Y-97250000D01*
X70500000Y-97250000D02*
X70020000Y-96770000D01*
X82750000Y-82725000D02*
X82750000Y-81750000D01*
X86750000Y-90020000D02*
X86750000Y-89500000D01*
X90988000Y-96250000D02*
X89750000Y-96250000D01*
X90988000Y-99250000D02*
X89750000Y-99250000D01*
X94480000Y-99000000D02*
X95250000Y-99000000D01*
X90988000Y-102750000D02*
X89750000Y-102750000D01*
X76470000Y-83210000D02*
X76470000Y-82530000D01*
X69240000Y-90765000D02*
X68975000Y-90500000D01*
X69240000Y-92000000D02*
X69240000Y-90765000D01*
X68975000Y-90500000D02*
X68000000Y-90500000D01*
X44250000Y-116925000D02*
X44250000Y-118050000D01*
X50555000Y-122700000D02*
X50555000Y-124145000D01*
X80750000Y-90020000D02*
X80750000Y-89350000D01*
X78750000Y-108988000D02*
X78750000Y-107550000D01*
X50725000Y-141500000D02*
X49612500Y-140387500D01*
X36050000Y-61100000D02*
X36050000Y-68350000D01*
X36050000Y-68350000D02*
X36050000Y-68600000D01*
X36050000Y-66000000D02*
X37600000Y-66000000D01*
X37750000Y-66150000D02*
X38900000Y-66150000D01*
X37600000Y-66000000D02*
X37650000Y-66050000D01*
X37650000Y-66050000D02*
X37750000Y-66150000D01*
X36050000Y-61100000D02*
X36050000Y-59850000D01*
X38750000Y-57150000D02*
X42575000Y-57150000D01*
X36050000Y-59850000D02*
X38750000Y-57150000D01*
X52375000Y-57750000D02*
X53350000Y-57750000D01*
X115000000Y-85425000D02*
X115000000Y-84500000D01*
X122975000Y-120500000D02*
X123900000Y-120500000D01*
X127780000Y-124380000D02*
X127780000Y-126150000D01*
X123900000Y-120500000D02*
X127780000Y-124380000D01*
X83750000Y-112599994D02*
X83749994Y-112600000D01*
X83750000Y-111980000D02*
X83750000Y-112599994D01*
X127275000Y-88550000D02*
X127275000Y-87225000D01*
X78750000Y-107550000D02*
X78750000Y-107447306D01*
X112650000Y-146775000D02*
X115125000Y-146775000D01*
X115125000Y-146775000D02*
X117600000Y-146775000D01*
X91900000Y-88530000D02*
X91900000Y-90099998D01*
X90480000Y-91750000D02*
X90480000Y-91519998D01*
X90480000Y-91519998D02*
X91900000Y-90099998D01*
X122025000Y-88550000D02*
X127275000Y-88550000D01*
X74650000Y-90630000D02*
X74650000Y-90775000D01*
X75525000Y-90275000D02*
X75150000Y-90275000D01*
D38*
X119775000Y-129260000D02*
X120600000Y-128435000D01*
X119775000Y-132150000D02*
X119775000Y-129260000D01*
D37*
X117650000Y-140412500D02*
X117650000Y-139700000D01*
X96420000Y-139525000D02*
X97095000Y-140200000D01*
X94750000Y-139525000D02*
X95975000Y-139525000D01*
X95975000Y-139525000D02*
X96420000Y-139525000D01*
X45750000Y-134275000D02*
X46025000Y-134275000D01*
X47250000Y-135500000D02*
X48800000Y-135500000D01*
X46025000Y-134275000D02*
X47250000Y-135500000D01*
X61250000Y-141537500D02*
X62712500Y-141537500D01*
X62712500Y-141537500D02*
X64500000Y-141537500D01*
X72480000Y-97750000D02*
X73000000Y-97750000D01*
X73500000Y-97250000D02*
X73750000Y-97250000D01*
X73000000Y-97750000D02*
X73500000Y-97250000D01*
X68212500Y-98750000D02*
X67000000Y-98750000D01*
X73750000Y-97250000D02*
X75512000Y-97250000D01*
X74000000Y-89020000D02*
X74730000Y-89020000D01*
X75525000Y-88775000D02*
X76425000Y-88775000D01*
X75280000Y-89020000D02*
X75525000Y-88775000D01*
X74730000Y-89020000D02*
X75280000Y-89020000D01*
X78500000Y-111020000D02*
X78500000Y-110250000D01*
X78250000Y-110000000D02*
X78250000Y-108988000D01*
X78500000Y-110250000D02*
X78250000Y-110000000D01*
X72480000Y-104500000D02*
X73500000Y-104500000D01*
X73750000Y-104250000D02*
X74250000Y-104250000D01*
X73500000Y-104500000D02*
X73750000Y-104250000D01*
X74250000Y-104250000D02*
X75512000Y-104250000D01*
X81250000Y-82712500D02*
X81250000Y-81750000D01*
X86750000Y-93512000D02*
X86750000Y-92000000D01*
X86750000Y-92000000D02*
X86750000Y-90980000D01*
X93270000Y-98750000D02*
X93520000Y-99000000D01*
X90988000Y-98750000D02*
X92500000Y-98750000D01*
X92500000Y-98750000D02*
X93270000Y-98750000D01*
X80750000Y-90980000D02*
X80750000Y-92000000D01*
X80750000Y-92000000D02*
X80750000Y-93512000D01*
X46720000Y-115375000D02*
X46745000Y-115400000D01*
X44250000Y-115375000D02*
X45725000Y-115375000D01*
X45725000Y-115375000D02*
X46720000Y-115375000D01*
X42725000Y-122750000D02*
X41550000Y-122750000D01*
X52275000Y-141500000D02*
X52800000Y-141500000D01*
X54200000Y-140100000D02*
X54200000Y-139310000D01*
X52800000Y-141500000D02*
X54200000Y-140100000D01*
X64175000Y-135450000D02*
X65250000Y-135450000D01*
X119775000Y-137575000D02*
X119275000Y-138075000D01*
X119775000Y-132150000D02*
X119775000Y-137575000D01*
X119275000Y-138075000D02*
X119375000Y-137975000D01*
X117650000Y-139700000D02*
X119275000Y-138075000D01*
X127275000Y-78950000D02*
X127275000Y-77725000D01*
X116150000Y-69150000D02*
X118000000Y-69150000D01*
X118000000Y-69150000D02*
X119800000Y-69150000D01*
X128865000Y-113425000D02*
X128950000Y-113340000D01*
X125350000Y-113425000D02*
X128865000Y-113425000D01*
X123300000Y-99025000D02*
X124325000Y-99025000D01*
X124325000Y-99025000D02*
X124450000Y-99150000D01*
X123000000Y-104075000D02*
X121775000Y-104075000D01*
X122025000Y-78950000D02*
X127275000Y-78950000D01*
D38*
X120600000Y-128435000D02*
X120600000Y-128435000D01*
D37*
X48800000Y-135500000D02*
X49725004Y-135500000D01*
X49725004Y-135500000D02*
X51025002Y-136799998D01*
X51025002Y-136800002D02*
X51025002Y-136799998D01*
X53535000Y-139310000D02*
X51025002Y-136800002D01*
X54200000Y-139310000D02*
X53535000Y-139310000D01*
X70350000Y-110750000D02*
X70500000Y-110900000D01*
X70500000Y-110900000D02*
X71600000Y-110900000D01*
X71600000Y-110900000D02*
X73750000Y-108750000D01*
X73750000Y-108750000D02*
X73750000Y-107250000D01*
X73750000Y-107250000D02*
X74250000Y-106750000D01*
X74250000Y-106750000D02*
X75512000Y-106750000D01*
X70325000Y-110725000D02*
X70500000Y-110900000D01*
X70275000Y-110675000D02*
X70500000Y-110900000D01*
X68500000Y-110675000D02*
X70275000Y-110675000D01*
X70350000Y-112250000D02*
X70500000Y-112100000D01*
X75500000Y-107262000D02*
X75512000Y-107250000D01*
X75500000Y-108000000D02*
X75500000Y-107262000D01*
X71400000Y-112100000D02*
X75500000Y-108000000D01*
X70500000Y-112100000D02*
X71400000Y-112100000D01*
X70375000Y-112225000D02*
X70500000Y-112100000D01*
X70425000Y-112175000D02*
X70500000Y-112100000D01*
X68500000Y-112175000D02*
X70425000Y-112175000D01*
X70260000Y-92000000D02*
X73750000Y-92000000D01*
X73750000Y-92000000D02*
X76500000Y-94750000D01*
X76500000Y-94750000D02*
X78500000Y-94750000D01*
X78500000Y-94750000D02*
X78750000Y-94500000D01*
X78750000Y-94500000D02*
X78750000Y-93512000D01*
X70260000Y-90765000D02*
X70525000Y-90500000D01*
X70260000Y-92000000D02*
X70260000Y-90765000D01*
X107375000Y-134225000D02*
X107750000Y-133850000D01*
X104750000Y-134225000D02*
X107375000Y-134225000D01*
X107750000Y-133850000D02*
X107800000Y-133850000D01*
X111600000Y-130050000D02*
X112250000Y-130050000D01*
X107800000Y-133850000D02*
X111600000Y-130050000D01*
D38*
X124400000Y-133150000D02*
X124400000Y-132000000D01*
X124400000Y-132000000D02*
X123300000Y-130900000D01*
X123300000Y-126565000D02*
X120600000Y-123865000D01*
X123300000Y-130900000D02*
X123300000Y-126565000D01*
X116125000Y-123865000D02*
X115590000Y-124400000D01*
X120600000Y-123865000D02*
X116125000Y-123865000D01*
X49150000Y-145000000D02*
X52100000Y-145000000D01*
X80500000Y-142500000D02*
X80500000Y-141540000D01*
X78000000Y-145000000D02*
X80500000Y-142500000D01*
X44050000Y-60000000D02*
X42500000Y-60000000D01*
X53000000Y-145000000D02*
X78000000Y-145000000D01*
X120600000Y-121325000D02*
X121425000Y-120500000D01*
X120600000Y-123865000D02*
X120600000Y-121325000D01*
X115590000Y-129250000D02*
X114790000Y-130050000D01*
X115590000Y-124400000D02*
X115590000Y-129250000D01*
D37*
X108525000Y-139475000D02*
X108525000Y-138500000D01*
X108250000Y-139750000D02*
X108525000Y-139475000D01*
X105750000Y-139750000D02*
X108250000Y-139750000D01*
X99250000Y-138000000D02*
X104000000Y-138000000D01*
X104000000Y-138000000D02*
X105750000Y-139750000D01*
X98365000Y-137115000D02*
X99250000Y-138000000D01*
X108525000Y-136325000D02*
X108700000Y-136150000D01*
X98365000Y-132390000D02*
X98225000Y-132250000D01*
X98365000Y-134800000D02*
X98365000Y-132390000D01*
X98365000Y-136385000D02*
X98365000Y-137115000D01*
X98365000Y-134800000D02*
X98365000Y-136385000D01*
X98304999Y-136324999D02*
X98365000Y-136385000D01*
X85000000Y-140250000D02*
X88925001Y-136324999D01*
X88925001Y-136324999D02*
X98304999Y-136324999D01*
X79250000Y-140250000D02*
X85000000Y-140250000D01*
X77960000Y-141540000D02*
X79250000Y-140250000D01*
X108700000Y-138325000D02*
X108525000Y-138500000D01*
X108700000Y-136150000D02*
X108700000Y-138325000D01*
X112437500Y-140200000D02*
X112650000Y-140412500D01*
X112650000Y-140412500D02*
X112650000Y-140050000D01*
X111100000Y-138500000D02*
X108525000Y-138500000D01*
X112650000Y-140050000D02*
X111100000Y-138500000D01*
X112650000Y-134730000D02*
X114790000Y-132590000D01*
X112650000Y-140412500D02*
X112650000Y-134730000D01*
X82737500Y-84287500D02*
X82750000Y-84275000D01*
X81250000Y-84287500D02*
X82737500Y-84287500D01*
X82250000Y-84775000D02*
X82750000Y-84275000D01*
X82250000Y-93512000D02*
X82250000Y-84775000D01*
X69787500Y-98750000D02*
X71520000Y-98750000D01*
X71520000Y-98750000D02*
X71520000Y-98770000D01*
X72035010Y-99285010D02*
X72964990Y-99285010D01*
X71520000Y-98770000D02*
X72035010Y-99285010D01*
X73000000Y-99250000D02*
X75512000Y-99250000D01*
X72964990Y-99285010D02*
X73000000Y-99250000D01*
X77000000Y-105750000D02*
X75512000Y-105750000D01*
X77500000Y-104000000D02*
X77500000Y-105250000D01*
X77250000Y-103750000D02*
X77500000Y-104000000D01*
X75512000Y-103750000D02*
X77250000Y-103750000D01*
X77250000Y-103750000D02*
X78000000Y-103750000D01*
X82250000Y-99500000D02*
X82250000Y-96750000D01*
X78000000Y-103750000D02*
X82250000Y-99500000D01*
X75512000Y-96750000D02*
X78000000Y-96750000D01*
X77500000Y-105250000D02*
X77000000Y-105750000D01*
X83750000Y-111020000D02*
X83750000Y-108988000D01*
X72480000Y-103500000D02*
X73250000Y-103500000D01*
X73500000Y-103750000D02*
X75512000Y-103750000D01*
X73250000Y-103500000D02*
X73500000Y-103750000D01*
X70980000Y-96250000D02*
X72020000Y-96250000D01*
X72020000Y-96250000D02*
X72020000Y-96520000D01*
X75476990Y-96785010D02*
X75512000Y-96750000D01*
X72285010Y-96785010D02*
X75476990Y-96785010D01*
X72020000Y-96520000D02*
X72285010Y-96785010D01*
X89250000Y-92020000D02*
X89520000Y-91750000D01*
X89250000Y-93512000D02*
X89250000Y-92020000D01*
X78000000Y-96750000D02*
X82250000Y-96750000D01*
X75250000Y-81500000D02*
X75250000Y-82712500D01*
X87060000Y-96750000D02*
X87799657Y-96010343D01*
X89250000Y-93512000D02*
X89250000Y-94560000D01*
X82250000Y-96750000D02*
X87060000Y-96750000D01*
X89250000Y-94560000D02*
X87799657Y-96010343D01*
X89520000Y-90067500D02*
X90500000Y-89087500D01*
X89520000Y-91750000D02*
X89520000Y-90067500D01*
X81750000Y-105750000D02*
X77000000Y-105750000D01*
X83750000Y-107750000D02*
X81750000Y-105750000D01*
X83750000Y-108988000D02*
X83750000Y-107750000D01*
X73100000Y-106500000D02*
X73850000Y-105750000D01*
X73850000Y-105750000D02*
X75512000Y-105750000D01*
X72480000Y-106500000D02*
X73100000Y-106500000D01*
D38*
X43800000Y-63550000D02*
X44050000Y-63300000D01*
X38900000Y-63550000D02*
X43800000Y-63550000D01*
D37*
X44050000Y-63300000D02*
X45600000Y-63300000D01*
X47025000Y-61875000D02*
X47025000Y-57750000D01*
X45600000Y-63300000D02*
X46000000Y-62900000D01*
X46425000Y-57150000D02*
X47025000Y-57750000D01*
X44125000Y-57150000D02*
X46425000Y-57150000D01*
X46000000Y-62900000D02*
X47025000Y-61875000D01*
X84250000Y-93512000D02*
X84250000Y-90350000D01*
X90437500Y-87450000D02*
X90500000Y-87512500D01*
X89400000Y-87450000D02*
X90437500Y-87450000D01*
X91842500Y-87512500D02*
X91900000Y-87570000D01*
X90500000Y-87512500D02*
X91842500Y-87512500D01*
X76352500Y-84287500D02*
X76470000Y-84170000D01*
X75250000Y-84287500D02*
X76352500Y-84287500D01*
X76470000Y-84170000D02*
X76470000Y-85399002D01*
X76470000Y-85399002D02*
X79250000Y-88179002D01*
X79250000Y-88179002D02*
X79250000Y-93512000D01*
D38*
X39500000Y-145000000D02*
X45850000Y-145000000D01*
X38750000Y-144250000D02*
X39500000Y-145000000D01*
X38750000Y-141500000D02*
X38750000Y-144250000D01*
X37500000Y-140250000D02*
X38750000Y-141500000D01*
X37500000Y-138000000D02*
X37500000Y-140250000D01*
X39850000Y-135650000D02*
X37500000Y-138000000D01*
X41350000Y-135650000D02*
X39850000Y-135650000D01*
D37*
X59787500Y-138500000D02*
X61250000Y-139962500D01*
X58575000Y-138500000D02*
X59787500Y-138500000D01*
X58575000Y-136750000D02*
X63000000Y-136750000D01*
X64500000Y-138250000D02*
X64500000Y-139962500D01*
X63000000Y-136750000D02*
X64500000Y-138250000D01*
X78325000Y-59487500D02*
X78400000Y-59562500D01*
X78325000Y-57000000D02*
X78325000Y-59487500D01*
X80520000Y-70850000D02*
X80520000Y-68420000D01*
X78400000Y-66300000D02*
X78400000Y-61437500D01*
X80520000Y-68420000D02*
X78400000Y-66300000D01*
X81800000Y-76100000D02*
X81800000Y-72130000D01*
X83900000Y-78200000D02*
X81800000Y-76100000D01*
X81800000Y-72130000D02*
X80520000Y-70850000D01*
X83900000Y-84731400D02*
X83900000Y-78200000D01*
X83250000Y-85381400D02*
X83900000Y-84731400D01*
X83250000Y-93512000D02*
X83250000Y-85381400D01*
X81500000Y-59495833D02*
X81433333Y-59562500D01*
X81500000Y-57325000D02*
X81500000Y-59495833D01*
X81433333Y-61437500D02*
X81918860Y-61923027D01*
X83090000Y-73420000D02*
X83060000Y-73390000D01*
X83090000Y-76040000D02*
X83090000Y-73420000D01*
X84300000Y-77250000D02*
X83090000Y-76040000D01*
X84300000Y-84826388D02*
X84300000Y-77250000D01*
X83750000Y-85376388D02*
X84300000Y-84826388D01*
X83750000Y-93512000D02*
X83750000Y-85376388D01*
X81400000Y-61470833D02*
X81433333Y-61437500D01*
X81400000Y-65100000D02*
X81400000Y-61470833D01*
X84500000Y-59529166D02*
X84466666Y-59562500D01*
X84500000Y-57325000D02*
X84500000Y-59529166D01*
X83060000Y-70850000D02*
X83060000Y-65840000D01*
X84466666Y-64433334D02*
X84466666Y-61437500D01*
X83060000Y-65840000D02*
X84466666Y-64433334D01*
X84350000Y-76050000D02*
X84350000Y-72140000D01*
X84350000Y-72140000D02*
X83060000Y-70850000D01*
X84750000Y-76450000D02*
X84350000Y-76050000D01*
X84750000Y-93512000D02*
X84750000Y-76450000D01*
X87425000Y-59487500D02*
X87500000Y-59562500D01*
X87425000Y-57000000D02*
X87425000Y-59487500D01*
X85250000Y-76420000D02*
X85630000Y-76040000D01*
X85250000Y-93512000D02*
X85250000Y-76420000D01*
X85630000Y-73420000D02*
X85600000Y-73390000D01*
X85630000Y-76040000D02*
X85630000Y-73420000D01*
X87400000Y-61537500D02*
X87500000Y-61437500D01*
X87400000Y-64800000D02*
X87400000Y-61537500D01*
X117650000Y-145125000D02*
X117400000Y-145375000D01*
X117650000Y-141987500D02*
X117650000Y-145125000D01*
D38*
X126050000Y-136100000D02*
X126050000Y-136900000D01*
X127700000Y-134450000D02*
X126050000Y-136100000D01*
X127700000Y-133150000D02*
X127700000Y-134450000D01*
D37*
X112650000Y-141987500D02*
X112650000Y-145125000D01*
X77250000Y-93512000D02*
X76662000Y-93512000D01*
X76662000Y-93512000D02*
X74750000Y-91600000D01*
X74750000Y-91600000D02*
X73200000Y-91600000D01*
X73200000Y-91600000D02*
X72700000Y-91100000D01*
X72700000Y-89506204D02*
X72250000Y-89056204D01*
X72700000Y-91100000D02*
X72700000Y-89506204D01*
X75470000Y-73420000D02*
X75440000Y-73390000D01*
X75470000Y-79030000D02*
X75470000Y-73420000D01*
X72250000Y-82250000D02*
X75470000Y-79030000D01*
X72250000Y-89056204D02*
X72250000Y-82250000D01*
X77750000Y-91000000D02*
X77750000Y-93512000D01*
X77025000Y-90275000D02*
X77750000Y-91000000D01*
X77025000Y-90275000D02*
X76475000Y-90275000D01*
X74000000Y-84750000D02*
X74000000Y-82120998D01*
X75250000Y-86000000D02*
X74000000Y-84750000D01*
X76000000Y-86000000D02*
X75250000Y-86000000D01*
X74000000Y-82120998D02*
X76750000Y-79370998D01*
X78250000Y-88250000D02*
X76000000Y-86000000D01*
X78250000Y-93512000D02*
X78250000Y-88250000D01*
X76750000Y-79370998D02*
X76750000Y-72450000D01*
X75440000Y-71140000D02*
X75440000Y-70850000D01*
X76750000Y-72450000D02*
X75440000Y-71140000D01*
X38900000Y-64850000D02*
X48950000Y-64850000D01*
X48950000Y-64850000D02*
X65050000Y-80950000D01*
X65050000Y-80950000D02*
X71250000Y-80950000D01*
X79750000Y-93512000D02*
X79750000Y-88050000D01*
X79750000Y-88050000D02*
X79749983Y-88049983D01*
X38900000Y-64200000D02*
X49600000Y-64200000D01*
X49600000Y-64200000D02*
X65850000Y-80450000D01*
X71150000Y-80450000D02*
X71250000Y-80350000D01*
X65850000Y-80450000D02*
X71150000Y-80450000D01*
X80450000Y-88250000D02*
X80450000Y-88950000D01*
X80214990Y-93476990D02*
X80250000Y-93512000D01*
X80214990Y-89185010D02*
X80214990Y-93476990D01*
X80450000Y-88950000D02*
X80214990Y-89185010D01*
X78010000Y-73420000D02*
X77980000Y-73390000D01*
X78010000Y-83510000D02*
X78010000Y-73420000D01*
X81300000Y-86800000D02*
X78010000Y-83510000D01*
X81300000Y-93462000D02*
X81300000Y-86800000D01*
X81250000Y-93512000D02*
X81300000Y-93462000D01*
X79200000Y-72070000D02*
X77980000Y-70850000D01*
X79200000Y-83340074D02*
X79200000Y-72070000D01*
X81750000Y-85890074D02*
X79200000Y-83340074D01*
X81750000Y-93512000D02*
X81750000Y-85890074D01*
X83450010Y-84686402D02*
X83450010Y-78950010D01*
X82750000Y-85386412D02*
X83450010Y-84686402D01*
X82750000Y-93512000D02*
X82750000Y-85386412D01*
X80550000Y-76050000D02*
X80550000Y-76040000D01*
X83450010Y-78950010D02*
X80550000Y-76050000D01*
X80550000Y-73420000D02*
X80520000Y-73390000D01*
X80550000Y-76050000D02*
X80550000Y-73420000D01*
X85750000Y-70850000D02*
X85600000Y-70850000D01*
X86875000Y-71975000D02*
X85750000Y-70850000D01*
X86875000Y-76386002D02*
X86875000Y-71975000D01*
X85750000Y-77511002D02*
X86875000Y-76386002D01*
X85750000Y-93512000D02*
X85750000Y-77511002D01*
X86214990Y-77995010D02*
X88170000Y-76040000D01*
X86214990Y-93476990D02*
X86214990Y-77995010D01*
X86250000Y-93512000D02*
X86214990Y-93476990D01*
X88170000Y-73420000D02*
X88140000Y-73390000D01*
X88170000Y-76040000D02*
X88170000Y-73420000D01*
X87285010Y-92489490D02*
X87285010Y-83664990D01*
X87250000Y-92524500D02*
X87285010Y-92489490D01*
X87250000Y-93512000D02*
X87250000Y-92524500D01*
X104250000Y-61750000D02*
X110750000Y-61750000D01*
X88140000Y-71040000D02*
X88140000Y-70850000D01*
X89425000Y-72325000D02*
X88140000Y-71040000D01*
X89425000Y-76075000D02*
X89425000Y-72325000D01*
X87750000Y-77750000D02*
X89425000Y-76075000D01*
X87750000Y-93512000D02*
X87750000Y-77750000D01*
X88250000Y-93512000D02*
X88250000Y-78500000D01*
X88250000Y-78500000D02*
X90710000Y-76040000D01*
X90710000Y-73420000D02*
X90680000Y-73390000D01*
X90710000Y-76040000D02*
X90710000Y-73420000D01*
X88750000Y-93512000D02*
X88750000Y-90850000D01*
X129340000Y-108260000D02*
X128950000Y-108260000D01*
X112900000Y-92200000D02*
X117900000Y-92200000D01*
X117900000Y-92200000D02*
X121150000Y-95450000D01*
X121150000Y-95450000D02*
X129600000Y-95450000D01*
X129600000Y-95450000D02*
X130950000Y-96800000D01*
X130950000Y-106260000D02*
X128950000Y-108260000D01*
X130950000Y-96800000D02*
X130950000Y-106260000D01*
X90680000Y-71309998D02*
X90680000Y-70850000D01*
X91925000Y-72554998D02*
X90680000Y-71309998D01*
X91925000Y-83131204D02*
X91925000Y-72554998D01*
X88750000Y-86306204D02*
X91925000Y-83131204D01*
X88750000Y-90850000D02*
X88750000Y-86306204D01*
X90988000Y-95250000D02*
X99250000Y-95250000D01*
X103530000Y-90970000D02*
X105710000Y-90970000D01*
X99250000Y-95250000D02*
X103530000Y-90970000D01*
X106970000Y-92250000D02*
X108250000Y-90970000D01*
X103700000Y-92250000D02*
X106970000Y-92250000D01*
X100200000Y-95750000D02*
X103700000Y-92250000D01*
X90988000Y-95750000D02*
X100200000Y-95750000D01*
X90988000Y-96750000D02*
X100250000Y-96750000D01*
X103490000Y-93510000D02*
X105710000Y-93510000D01*
X100250000Y-96750000D02*
X103490000Y-93510000D01*
X107010000Y-94750000D02*
X108250000Y-93510000D01*
X104255012Y-94750000D02*
X107010000Y-94750000D01*
X101755012Y-97250000D02*
X104255012Y-94750000D01*
X90988000Y-97250000D02*
X101755012Y-97250000D01*
X103750000Y-96050000D02*
X105710000Y-96050000D01*
X102050000Y-97750000D02*
X103750000Y-96050000D01*
X90988000Y-97750000D02*
X102050000Y-97750000D01*
X107050000Y-97250000D02*
X108250000Y-96050000D01*
X105069000Y-97250000D02*
X107050000Y-97250000D01*
X104069000Y-98250000D02*
X105069000Y-97250000D01*
X90988000Y-98250000D02*
X104069000Y-98250000D01*
X104550000Y-99750000D02*
X105710000Y-98590000D01*
X90988000Y-99750000D02*
X104550000Y-99750000D01*
X100905000Y-134800000D02*
X100905000Y-129005000D01*
X100905000Y-129005000D02*
X93150000Y-121250000D01*
X93150000Y-121250000D02*
X93150000Y-109050000D01*
X90963000Y-100225000D02*
X90988000Y-100250000D01*
X88900000Y-100225000D02*
X90963000Y-100225000D01*
X104650000Y-75950000D02*
X105850000Y-75950000D01*
X103950000Y-76650000D02*
X104650000Y-75950000D01*
X103950000Y-79750000D02*
X103950000Y-76650000D01*
X105200000Y-81000000D02*
X103950000Y-79750000D01*
X108050000Y-81000000D02*
X105200000Y-81000000D01*
X110800000Y-83750000D02*
X108050000Y-81000000D01*
X110800000Y-96040000D02*
X110800000Y-83750000D01*
X108250000Y-98590000D02*
X110800000Y-96040000D01*
X105850000Y-75950000D02*
X105850000Y-71650000D01*
X108550000Y-68950000D02*
X109650000Y-68950000D01*
X105850000Y-71650000D02*
X108550000Y-68950000D01*
X108250000Y-98750000D02*
X108250000Y-98590000D01*
X107150000Y-99850000D02*
X108250000Y-98750000D01*
X105250000Y-99850000D02*
X107150000Y-99850000D01*
X104350000Y-100750000D02*
X105250000Y-99850000D01*
X90988000Y-100750000D02*
X104350000Y-100750000D01*
X90988000Y-101250000D02*
X95000000Y-101250000D01*
X128945000Y-105725000D02*
X128950000Y-105720000D01*
X123000000Y-105725000D02*
X128945000Y-105725000D01*
X90988000Y-101750000D02*
X87000000Y-101750000D01*
X87000000Y-101750000D02*
X86050000Y-100800000D01*
X72200000Y-90700000D02*
X55150000Y-73650000D01*
X49700000Y-57750000D02*
X50725000Y-57750000D01*
X48675000Y-57750000D02*
X49700000Y-57750000D01*
X114400000Y-87675000D02*
X115000000Y-87075000D01*
X114400000Y-89000000D02*
X114400000Y-87675000D01*
X91975501Y-102250001D02*
X98349999Y-102250001D01*
X90988000Y-102250000D02*
X91975501Y-102250001D01*
X122025000Y-82150000D02*
X127275000Y-82150000D01*
X122025000Y-82325000D02*
X122025000Y-82150000D01*
X117100000Y-87075000D02*
X122025000Y-82150000D01*
X115000000Y-87075000D02*
X117100000Y-87075000D01*
X94575000Y-111750000D02*
X94575000Y-119975000D01*
X94575000Y-119975000D02*
X101450000Y-126850000D01*
X101450000Y-126850000D02*
X101450000Y-131850000D01*
X100930000Y-140175000D02*
X100905000Y-140200000D01*
X102075000Y-140175000D02*
X100930000Y-140175000D01*
X92477588Y-103250000D02*
X92552578Y-103324990D01*
X90988000Y-103250000D02*
X92477588Y-103250000D01*
X128145000Y-115075000D02*
X128950000Y-115880000D01*
X125350000Y-115075000D02*
X128145000Y-115075000D01*
X90988000Y-103750000D02*
X95250000Y-103750000D01*
X122025000Y-91750000D02*
X127275000Y-91750000D01*
X129800000Y-94275000D02*
X127275000Y-91750000D01*
X131950000Y-96425000D02*
X129800000Y-94275000D01*
X131950000Y-114000000D02*
X131950000Y-96425000D01*
X130070000Y-115880000D02*
X131950000Y-114000000D01*
X128950000Y-115880000D02*
X130070000Y-115880000D01*
X90988000Y-104250000D02*
X91038010Y-104300010D01*
X91038010Y-104300010D02*
X96949990Y-104300010D01*
X128225000Y-97375000D02*
X128950000Y-98100000D01*
X123300000Y-97375000D02*
X128225000Y-97375000D01*
X96949990Y-104300010D02*
X97349990Y-104300010D01*
X101400000Y-104750000D02*
X105020000Y-101130000D01*
X105020000Y-101130000D02*
X105710000Y-101130000D01*
X90988000Y-104750000D02*
X101400000Y-104750000D01*
X111850000Y-79410000D02*
X108390000Y-75950000D01*
X111850000Y-97530000D02*
X111850000Y-79410000D01*
X108250000Y-101130000D02*
X111850000Y-97530000D01*
X108390000Y-72885000D02*
X109575000Y-71700000D01*
X108390000Y-75950000D02*
X108390000Y-72885000D01*
X106955000Y-102425000D02*
X108250000Y-101130000D01*
X104974000Y-102425000D02*
X106955000Y-102425000D01*
X102149000Y-105250000D02*
X104974000Y-102425000D01*
X90988000Y-105250000D02*
X102149000Y-105250000D01*
X103630000Y-105750000D02*
X105710000Y-103670000D01*
X90988000Y-105750000D02*
X103630000Y-105750000D01*
X108950000Y-122950000D02*
X113100000Y-118800000D01*
X113100000Y-118800000D02*
X113100000Y-104500000D01*
X77440000Y-132960000D02*
X81250012Y-129149988D01*
X54200000Y-132960000D02*
X77440000Y-132960000D01*
X113100000Y-104500000D02*
X113100000Y-104500000D01*
X108250000Y-103750000D02*
X108250000Y-103670000D01*
X107050000Y-104950000D02*
X108250000Y-103750000D01*
X105225000Y-104950000D02*
X107050000Y-104950000D01*
X103925000Y-106250000D02*
X105225000Y-104950000D01*
X90988000Y-106250000D02*
X103925000Y-106250000D01*
X108250000Y-106250000D02*
X108250000Y-106210000D01*
X107050000Y-107450000D02*
X108250000Y-106250000D01*
X92480502Y-107450000D02*
X107050000Y-107450000D01*
X91780502Y-106750000D02*
X92480502Y-107450000D01*
X90988000Y-106750000D02*
X91780502Y-106750000D01*
X90988000Y-107250000D02*
X90988000Y-119582990D01*
X90988000Y-119582990D02*
X97095000Y-125689990D01*
X97095000Y-125689990D02*
X97095000Y-134800000D01*
X89250000Y-108988000D02*
X89250000Y-116750000D01*
X88160000Y-117840000D02*
X88160000Y-122710000D01*
X89250000Y-116750000D02*
X88160000Y-117840000D01*
X88750000Y-108988000D02*
X88750000Y-116000000D01*
X88750000Y-116000000D02*
X87000000Y-117750000D01*
X87000000Y-124090000D02*
X88160000Y-125250000D01*
X87000000Y-117750000D02*
X87000000Y-124090000D01*
X88250000Y-108988000D02*
X88250000Y-112050000D01*
X48015000Y-123615000D02*
X48015000Y-122700000D01*
X49350000Y-124950000D02*
X48015000Y-123615000D01*
X87750000Y-116000000D02*
X85620000Y-118130000D01*
X85620000Y-118130000D02*
X85620000Y-122710000D01*
X87750000Y-108988000D02*
X87750000Y-116000000D01*
X54200000Y-134230000D02*
X79020000Y-134230000D01*
X85620000Y-127630000D02*
X85620000Y-125250000D01*
X79020000Y-134230000D02*
X85620000Y-127630000D01*
X84620000Y-124250000D02*
X85620000Y-125250000D01*
X84500000Y-124250000D02*
X84620000Y-124250000D01*
X84500000Y-118350000D02*
X84500000Y-124250000D01*
X87250000Y-115600000D02*
X84500000Y-118350000D01*
X87250000Y-108988000D02*
X87250000Y-115600000D01*
X86750000Y-108988000D02*
X86750000Y-113175000D01*
X83080000Y-118820000D02*
X83080000Y-122710000D01*
X86750000Y-115150000D02*
X83080000Y-118820000D01*
X86750000Y-113175000D02*
X86750000Y-115150000D01*
X46695000Y-122750000D02*
X46745000Y-122700000D01*
X44375000Y-122750000D02*
X46695000Y-122750000D01*
X86250000Y-108988000D02*
X86250000Y-111150000D01*
X53450000Y-122950000D02*
X50850000Y-125550000D01*
X50850000Y-125550000D02*
X47950000Y-125550000D01*
X46745000Y-124345000D02*
X46745000Y-122700000D01*
X47950000Y-125550000D02*
X46745000Y-124345000D01*
X85750000Y-108988000D02*
X85750000Y-114225000D01*
X85750000Y-115250000D02*
X81750000Y-119250000D01*
X81750000Y-123920000D02*
X83080000Y-125250000D01*
X81750000Y-119250000D02*
X81750000Y-123920000D01*
X85750000Y-114225000D02*
X85750000Y-115250000D01*
X80540000Y-119510000D02*
X80540000Y-122710000D01*
X85250000Y-114800000D02*
X80540000Y-119510000D01*
X85250000Y-108988000D02*
X85250000Y-114800000D01*
X84750000Y-108988000D02*
X84750000Y-114250000D01*
X79075001Y-119924999D02*
X79075001Y-123825001D01*
X84750000Y-114250000D02*
X83950000Y-115050000D01*
X80500000Y-125250000D02*
X80540000Y-125250000D01*
X79075001Y-123825001D02*
X80500000Y-125250000D01*
X83950000Y-115050000D02*
X79075001Y-119924999D01*
X78000000Y-120000000D02*
X78000000Y-122710000D01*
X84325002Y-113674998D02*
X78000000Y-120000000D01*
X84325002Y-109063002D02*
X84325002Y-113674998D01*
X84250000Y-108988000D02*
X84325002Y-109063002D01*
X76750000Y-124000000D02*
X78000000Y-125250000D01*
X76750000Y-120000000D02*
X76750000Y-124000000D01*
X83000000Y-113750000D02*
X76750000Y-120000000D01*
X83000000Y-110699258D02*
X83000000Y-113750000D01*
X83250000Y-110449258D02*
X83000000Y-110699258D01*
X83250000Y-108988000D02*
X83250000Y-110449258D01*
X82550000Y-113450000D02*
X75460000Y-120540000D01*
X82550000Y-110654268D02*
X82550000Y-113450000D01*
X75460000Y-120540000D02*
X75460000Y-122710000D01*
X82750000Y-110454268D02*
X82550000Y-110654268D01*
X82750000Y-108988000D02*
X82750000Y-110454268D01*
X74250000Y-124040000D02*
X75460000Y-125250000D01*
X74250000Y-121150000D02*
X74250000Y-124040000D01*
X82050000Y-110659280D02*
X82050000Y-113350000D01*
X82050000Y-113350000D02*
X74250000Y-121150000D01*
X82250000Y-110459280D02*
X82050000Y-110659280D01*
X82250000Y-108988000D02*
X82250000Y-110459280D01*
X72920000Y-121830000D02*
X72920000Y-122710000D01*
X81500000Y-110225500D02*
X81500000Y-113250000D01*
X81500000Y-113250000D02*
X72920000Y-121830000D01*
X81750000Y-109975500D02*
X81500000Y-110225500D01*
X81750000Y-108988000D02*
X81750000Y-109975500D01*
X65550000Y-116750000D02*
X65650000Y-116850000D01*
X81250000Y-107750000D02*
X81250000Y-108988000D01*
X80850000Y-107350000D02*
X81250000Y-107750000D01*
X49285000Y-115400000D02*
X49285000Y-115885000D01*
X49285000Y-115885000D02*
X50150000Y-116750000D01*
X51750000Y-116750000D02*
X65550000Y-116750000D01*
X50150000Y-116750000D02*
X51750000Y-116750000D01*
X51265002Y-116750000D02*
X51750000Y-116750000D01*
X72920000Y-124830000D02*
X72920000Y-125250000D01*
X71750000Y-124400000D02*
X72600000Y-125250000D01*
X71750000Y-122250000D02*
X71750000Y-124400000D01*
X72600000Y-125250000D02*
X72920000Y-125250000D01*
X80750000Y-113250000D02*
X71750000Y-122250000D01*
X80750000Y-108988000D02*
X80750000Y-113250000D01*
X80250000Y-112840000D02*
X70380000Y-122710000D01*
X80250000Y-108988000D02*
X80250000Y-112840000D01*
X69000000Y-123870000D02*
X70380000Y-125250000D01*
X69000000Y-122500000D02*
X69000000Y-123870000D01*
X71000000Y-120500000D02*
X69000000Y-122500000D01*
X71750000Y-120500000D02*
X71000000Y-120500000D01*
X79750000Y-112500000D02*
X71750000Y-120500000D01*
X79750000Y-108988000D02*
X79750000Y-112500000D01*
X79250000Y-108988000D02*
X79250000Y-112250000D01*
X79250000Y-112250000D02*
X76750000Y-114750000D01*
X75800000Y-114750000D02*
X67840000Y-122710000D01*
X76750000Y-114750000D02*
X75800000Y-114750000D01*
X50555000Y-115400000D02*
X69650000Y-115400000D01*
X76400000Y-112000000D02*
X77700000Y-110700000D01*
X77700000Y-109038000D02*
X77750000Y-108988000D01*
X77700000Y-110700000D02*
X77700000Y-109038000D01*
X66500000Y-123910000D02*
X67840000Y-125250000D01*
X66500000Y-120150000D02*
X66500000Y-123910000D01*
X77250000Y-109400000D02*
X66500000Y-120150000D01*
X77250000Y-108988000D02*
X77250000Y-109400000D01*
X56940000Y-103350000D02*
X55710000Y-104580000D01*
X63035010Y-107035010D02*
X59350000Y-103350000D01*
X73214990Y-107035010D02*
X63035010Y-107035010D01*
X59350000Y-103350000D02*
X56940000Y-103350000D01*
X74000000Y-106250000D02*
X73214990Y-107035010D01*
X75512000Y-106250000D02*
X74000000Y-106250000D01*
X52245000Y-104580000D02*
X55710000Y-104580000D01*
X51900000Y-104925000D02*
X52245000Y-104580000D01*
X42000000Y-104925000D02*
X51900000Y-104925000D01*
X40785000Y-103710000D02*
X42000000Y-104925000D01*
X40750000Y-103710000D02*
X40785000Y-103710000D01*
X57460000Y-102040000D02*
X58250000Y-102040000D01*
X59452081Y-102040000D02*
X58250000Y-102040000D01*
X62812070Y-105399989D02*
X59452081Y-102040000D01*
X73750011Y-105399989D02*
X62812070Y-105399989D01*
X73900000Y-105250000D02*
X73750011Y-105399989D01*
X75512000Y-105250000D02*
X73900000Y-105250000D01*
X43290000Y-103710000D02*
X47990000Y-103710000D01*
X49660000Y-102040000D02*
X55710000Y-102040000D01*
X47990000Y-103710000D02*
X49660000Y-102040000D01*
X57000000Y-100750000D02*
X55710000Y-102040000D01*
X64785010Y-105035010D02*
X60500000Y-100750000D01*
X60500000Y-100750000D02*
X57000000Y-100750000D01*
X73464990Y-105035010D02*
X64785010Y-105035010D01*
X73750000Y-104750000D02*
X73464990Y-105035010D01*
X75512000Y-104750000D02*
X73750000Y-104750000D01*
X60250000Y-99500000D02*
X58250000Y-99500000D01*
X63500000Y-102750000D02*
X60250000Y-99500000D01*
X73500000Y-102750000D02*
X63500000Y-102750000D01*
X74000000Y-103250000D02*
X73500000Y-102750000D01*
X75512000Y-103250000D02*
X74000000Y-103250000D01*
X75512000Y-103250000D02*
X77650000Y-103250000D01*
X78200000Y-102700000D02*
X78200000Y-102650000D01*
X77650000Y-103250000D02*
X78200000Y-102700000D01*
X49285000Y-122700000D02*
X49285000Y-121915000D01*
X49285000Y-121915000D02*
X53150000Y-118050000D01*
X56350000Y-118050000D02*
X56450000Y-118150000D01*
X53150000Y-118050000D02*
X56350000Y-118050000D01*
X77250000Y-102750000D02*
X75512000Y-102750000D01*
X56960000Y-98250000D02*
X55710000Y-99500000D01*
X64000000Y-102250000D02*
X60000000Y-98250000D01*
X60000000Y-98250000D02*
X56960000Y-98250000D01*
X75512000Y-102250000D02*
X64000000Y-102250000D01*
X60210000Y-96960000D02*
X58250000Y-96960000D01*
X65000000Y-101750000D02*
X60210000Y-96960000D01*
X75512000Y-101750000D02*
X65000000Y-101750000D01*
X81650000Y-101250000D02*
X81550000Y-101150000D01*
X77350000Y-101250000D02*
X77450000Y-101150000D01*
X75512000Y-101250000D02*
X77350000Y-101250000D01*
X116950000Y-61750000D02*
X118550000Y-61750000D01*
X111850000Y-66850000D02*
X116950000Y-61750000D01*
X109250000Y-66850000D02*
X111850000Y-66850000D01*
X99150000Y-76950000D02*
X109250000Y-66850000D01*
X99150000Y-85795498D02*
X99150000Y-76950000D01*
X83795498Y-101150000D02*
X99150000Y-85795498D01*
X81550000Y-101150000D02*
X83795498Y-101150000D01*
X118550000Y-61750000D02*
X125050000Y-61750000D01*
X55809998Y-96960000D02*
X55710000Y-96960000D01*
X56969998Y-95800000D02*
X55809998Y-96960000D01*
X60800000Y-95800000D02*
X56969998Y-95800000D01*
X65750000Y-100750000D02*
X60800000Y-95800000D01*
X75512000Y-100750000D02*
X65750000Y-100750000D01*
X52360000Y-96960000D02*
X55710000Y-96960000D01*
X47875000Y-92475000D02*
X52360000Y-96960000D01*
X41775000Y-92475000D02*
X47875000Y-92475000D01*
X40750000Y-91450000D02*
X41775000Y-92475000D01*
X40750000Y-91250000D02*
X40750000Y-91450000D01*
X61670000Y-94420000D02*
X58250000Y-94420000D01*
X67500000Y-100250000D02*
X61670000Y-94420000D01*
X75512000Y-100250000D02*
X67500000Y-100250000D01*
X57655000Y-94420000D02*
X58250000Y-94420000D01*
X56425000Y-95650000D02*
X57655000Y-94420000D01*
X52550000Y-95650000D02*
X56425000Y-95650000D01*
X48150000Y-91250000D02*
X52550000Y-95650000D01*
X43290000Y-91250000D02*
X48150000Y-91250000D01*
X48015000Y-114375000D02*
X48740000Y-113650000D01*
X48015000Y-115400000D02*
X48015000Y-114375000D01*
X48740000Y-113650000D02*
X56550000Y-113650000D01*
X62450000Y-107750000D02*
X62450000Y-107550000D01*
X56550000Y-113650000D02*
X62450000Y-107750000D01*
X74350000Y-95750000D02*
X75512000Y-95750000D01*
X73350000Y-94750000D02*
X74350000Y-95750000D01*
X75512000Y-95250000D02*
X75500000Y-95250000D01*
X75500000Y-95250000D02*
X73500000Y-93250000D01*
X56880000Y-93250000D02*
X55710000Y-94420000D01*
X73500000Y-93250000D02*
X56880000Y-93250000D01*
X41350000Y-137250000D02*
X46000000Y-137250000D01*
X46790000Y-138040000D02*
X48800000Y-138040000D01*
X46000000Y-137250000D02*
X46790000Y-138040000D01*
X48605000Y-136575000D02*
X48800000Y-136770000D01*
X41475000Y-136575000D02*
X48605000Y-136575000D01*
X41350000Y-136450000D02*
X41475000Y-136575000D01*
X56905000Y-136770000D02*
X56925000Y-136750000D01*
X54200000Y-136770000D02*
X56905000Y-136770000D01*
X54200000Y-138040000D02*
X55540000Y-138040000D01*
X56000000Y-138500000D02*
X56925000Y-138500000D01*
X55540000Y-138040000D02*
X56000000Y-138500000D01*
X99635000Y-140200000D02*
X99635000Y-140385000D01*
X99635000Y-145265000D02*
X101520000Y-147150000D01*
X99635000Y-140200000D02*
X99635000Y-145265000D01*
X100120000Y-148550000D02*
X101520000Y-147150000D01*
X94000000Y-148550000D02*
X100120000Y-148550000D01*
X90450000Y-145000000D02*
X94000000Y-148550000D01*
X88640000Y-145000000D02*
X90450000Y-145000000D01*
X98365000Y-146535000D02*
X98980000Y-147150000D01*
X98365000Y-140200000D02*
X98365000Y-146535000D01*
X95050000Y-146950000D02*
X89650000Y-141550000D01*
X89650000Y-141550000D02*
X88862500Y-141550000D01*
X98780000Y-146950000D02*
X98980000Y-147150000D01*
X95050000Y-146950000D02*
X98780000Y-146950000D01*
X86100000Y-142487500D02*
X87037500Y-141550000D01*
X86100000Y-145000000D02*
X86100000Y-142487500D01*
X76635000Y-56960000D02*
X76675000Y-57000000D01*
X72250000Y-56960000D02*
X76635000Y-56960000D01*
X76675000Y-57000000D02*
X76675000Y-56325000D01*
X77325000Y-55675000D02*
X81500000Y-55675000D01*
X76675000Y-56325000D02*
X77325000Y-55675000D01*
X84500000Y-55675000D02*
X88175000Y-55675000D01*
X89075000Y-56575000D02*
X89075000Y-57000000D01*
X88175000Y-55675000D02*
X89075000Y-56575000D01*
X93500000Y-57000000D02*
X89075000Y-57000000D01*
X115610000Y-71150000D02*
X116150000Y-71690000D01*
X111300000Y-68950000D02*
X112100000Y-68950000D01*
X114840000Y-71690000D02*
X116150000Y-71690000D01*
X112100000Y-68950000D02*
X114840000Y-71690000D01*
X111225000Y-71700000D02*
X112300000Y-71700000D01*
X112300000Y-71700000D02*
X114450000Y-73850000D01*
X117640000Y-73850000D02*
X119800000Y-71690000D01*
X114450000Y-73850000D02*
X117640000Y-73850000D01*
X62475000Y-135500000D02*
X62525000Y-135450000D01*
X54200000Y-135500000D02*
X62475000Y-135500000D01*
D39*
X77153669Y-88015820D02*
X77188882Y-88049933D01*
X77206607Y-88109714D01*
X77264122Y-89921444D01*
X77262260Y-89919916D01*
X77188427Y-89880452D01*
X77108314Y-89856150D01*
X77071548Y-89852529D01*
X77038158Y-89811842D01*
X76992477Y-89774353D01*
X76940360Y-89746496D01*
X76883810Y-89729341D01*
X76825000Y-89723549D01*
X76125000Y-89723549D01*
X76066190Y-89729341D01*
X76065008Y-89729700D01*
X76009587Y-89700077D01*
X75943612Y-89680064D01*
X75875000Y-89673306D01*
X75637500Y-89675000D01*
X75550000Y-89762500D01*
X75550000Y-90250000D01*
X75570000Y-90250000D01*
X75570000Y-90300000D01*
X75550000Y-90300000D01*
X75550000Y-90787500D01*
X75637500Y-90875000D01*
X75875000Y-90876694D01*
X75943612Y-90869936D01*
X76009587Y-90849923D01*
X76065008Y-90820300D01*
X76066190Y-90820659D01*
X76125000Y-90826451D01*
X76825000Y-90826451D01*
X76883810Y-90820659D01*
X76940360Y-90803504D01*
X76948248Y-90799288D01*
X77098960Y-90950000D01*
X73409851Y-90950000D01*
X73362480Y-90940577D01*
X73330675Y-90919325D01*
X73309423Y-90887520D01*
X73300000Y-90840149D01*
X73300000Y-90260000D01*
X73338306Y-90260000D01*
X73345064Y-90328612D01*
X73365077Y-90394587D01*
X73397577Y-90455391D01*
X73441315Y-90508685D01*
X73494609Y-90552423D01*
X73555413Y-90584923D01*
X73621388Y-90604936D01*
X73690000Y-90611694D01*
X73887500Y-90610000D01*
X73975000Y-90522500D01*
X73975000Y-90005000D01*
X74025000Y-90005000D01*
X74025000Y-90522500D01*
X74112500Y-90610000D01*
X74310000Y-90611694D01*
X74378612Y-90604936D01*
X74444587Y-90584923D01*
X74505391Y-90552423D01*
X74538805Y-90525000D01*
X74823306Y-90525000D01*
X74830064Y-90593612D01*
X74850077Y-90659587D01*
X74882577Y-90720391D01*
X74926315Y-90773685D01*
X74979609Y-90817423D01*
X75040413Y-90849923D01*
X75106388Y-90869936D01*
X75175000Y-90876694D01*
X75412500Y-90875000D01*
X75500000Y-90787500D01*
X75500000Y-90300000D01*
X74912500Y-90300000D01*
X74825000Y-90387500D01*
X74823306Y-90525000D01*
X74538805Y-90525000D01*
X74558685Y-90508685D01*
X74602423Y-90455391D01*
X74634923Y-90394587D01*
X74654936Y-90328612D01*
X74661694Y-90260000D01*
X74660000Y-90092500D01*
X74592500Y-90025000D01*
X74823306Y-90025000D01*
X74825000Y-90162500D01*
X74912500Y-90250000D01*
X75500000Y-90250000D01*
X75500000Y-89762500D01*
X75412500Y-89675000D01*
X75175000Y-89673306D01*
X75106388Y-89680064D01*
X75040413Y-89700077D01*
X74979609Y-89732577D01*
X74926315Y-89776315D01*
X74882577Y-89829609D01*
X74850077Y-89890413D01*
X74830064Y-89956388D01*
X74823306Y-90025000D01*
X74592500Y-90025000D01*
X74572500Y-90005000D01*
X74025000Y-90005000D01*
X73975000Y-90005000D01*
X73427500Y-90005000D01*
X73340000Y-90092500D01*
X73338306Y-90260000D01*
X73300000Y-90260000D01*
X73300000Y-89700000D01*
X73338306Y-89700000D01*
X73340000Y-89867500D01*
X73427500Y-89955000D01*
X73975000Y-89955000D01*
X73975000Y-89935000D01*
X74025000Y-89935000D01*
X74025000Y-89955000D01*
X74572500Y-89955000D01*
X74660000Y-89867500D01*
X74661694Y-89700000D01*
X74654936Y-89631388D01*
X74634923Y-89565413D01*
X74602423Y-89504609D01*
X74602236Y-89504382D01*
X74680754Y-89520000D01*
X74779246Y-89520000D01*
X74875845Y-89500785D01*
X74966839Y-89463094D01*
X74993918Y-89445000D01*
X75259133Y-89445000D01*
X75280000Y-89447055D01*
X75300867Y-89445000D01*
X75300874Y-89445000D01*
X75363314Y-89438850D01*
X75443427Y-89414548D01*
X75514702Y-89376451D01*
X75875000Y-89376451D01*
X75933810Y-89370659D01*
X75990360Y-89353504D01*
X76042477Y-89325647D01*
X76088158Y-89288158D01*
X76099802Y-89273969D01*
X76125000Y-89276451D01*
X76825000Y-89276451D01*
X76883810Y-89270659D01*
X76940360Y-89253504D01*
X76992477Y-89225647D01*
X77038158Y-89188158D01*
X77075647Y-89142477D01*
X77103504Y-89090360D01*
X77120659Y-89033810D01*
X77126451Y-88975000D01*
X77126451Y-88475000D01*
X77120659Y-88416190D01*
X77103504Y-88359640D01*
X77075647Y-88307523D01*
X77038158Y-88261842D01*
X76992477Y-88224353D01*
X76940360Y-88196496D01*
X76883810Y-88179341D01*
X76825000Y-88173549D01*
X76125000Y-88173549D01*
X76066190Y-88179341D01*
X76009640Y-88196496D01*
X76000000Y-88201649D01*
X75990360Y-88196496D01*
X75933810Y-88179341D01*
X75875000Y-88173549D01*
X75175000Y-88173549D01*
X75116190Y-88179341D01*
X75059640Y-88196496D01*
X75007523Y-88224353D01*
X74961842Y-88261842D01*
X74924353Y-88307523D01*
X74896496Y-88359640D01*
X74879341Y-88416190D01*
X74873549Y-88475000D01*
X74873549Y-88538758D01*
X74779246Y-88520000D01*
X74680754Y-88520000D01*
X74584155Y-88539215D01*
X74493161Y-88576906D01*
X74490853Y-88578448D01*
X74482153Y-88567847D01*
X74415257Y-88512947D01*
X74338936Y-88472152D01*
X74256123Y-88447031D01*
X74170000Y-88438549D01*
X73830000Y-88438549D01*
X73743877Y-88447031D01*
X73661064Y-88472152D01*
X73584743Y-88512947D01*
X73517847Y-88567847D01*
X73462947Y-88634743D01*
X73422152Y-88711064D01*
X73397031Y-88793877D01*
X73388549Y-88880000D01*
X73388549Y-89160000D01*
X73397031Y-89246123D01*
X73422152Y-89328936D01*
X73462947Y-89405257D01*
X73476827Y-89422170D01*
X73441315Y-89451315D01*
X73397577Y-89504609D01*
X73365077Y-89565413D01*
X73345064Y-89631388D01*
X73338306Y-89700000D01*
X73300000Y-89700000D01*
X73300000Y-88109851D01*
X73309423Y-88062480D01*
X73330675Y-88030675D01*
X73362480Y-88009423D01*
X73409851Y-88000000D01*
X77093352Y-88000000D01*
X77153669Y-88015820D01*
G04 #@! TA.AperFunction,Conductor*
D40*
G36*
X77153669Y-88015820D02*
G01*
X77188882Y-88049933D01*
X77206607Y-88109714D01*
X77264122Y-89921444D01*
X77262260Y-89919916D01*
X77188427Y-89880452D01*
X77108314Y-89856150D01*
X77071548Y-89852529D01*
X77038158Y-89811842D01*
X76992477Y-89774353D01*
X76940360Y-89746496D01*
X76883810Y-89729341D01*
X76825000Y-89723549D01*
X76125000Y-89723549D01*
X76066190Y-89729341D01*
X76065008Y-89729700D01*
X76009587Y-89700077D01*
X75943612Y-89680064D01*
X75875000Y-89673306D01*
X75637500Y-89675000D01*
X75550000Y-89762500D01*
X75550000Y-90250000D01*
X75570000Y-90250000D01*
X75570000Y-90300000D01*
X75550000Y-90300000D01*
X75550000Y-90787500D01*
X75637500Y-90875000D01*
X75875000Y-90876694D01*
X75943612Y-90869936D01*
X76009587Y-90849923D01*
X76065008Y-90820300D01*
X76066190Y-90820659D01*
X76125000Y-90826451D01*
X76825000Y-90826451D01*
X76883810Y-90820659D01*
X76940360Y-90803504D01*
X76948248Y-90799288D01*
X77098960Y-90950000D01*
X73409851Y-90950000D01*
X73362480Y-90940577D01*
X73330675Y-90919325D01*
X73309423Y-90887520D01*
X73300000Y-90840149D01*
X73300000Y-90260000D01*
X73338306Y-90260000D01*
X73345064Y-90328612D01*
X73365077Y-90394587D01*
X73397577Y-90455391D01*
X73441315Y-90508685D01*
X73494609Y-90552423D01*
X73555413Y-90584923D01*
X73621388Y-90604936D01*
X73690000Y-90611694D01*
X73887500Y-90610000D01*
X73975000Y-90522500D01*
X73975000Y-90005000D01*
X74025000Y-90005000D01*
X74025000Y-90522500D01*
X74112500Y-90610000D01*
X74310000Y-90611694D01*
X74378612Y-90604936D01*
X74444587Y-90584923D01*
X74505391Y-90552423D01*
X74538805Y-90525000D01*
X74823306Y-90525000D01*
X74830064Y-90593612D01*
X74850077Y-90659587D01*
X74882577Y-90720391D01*
X74926315Y-90773685D01*
X74979609Y-90817423D01*
X75040413Y-90849923D01*
X75106388Y-90869936D01*
X75175000Y-90876694D01*
X75412500Y-90875000D01*
X75500000Y-90787500D01*
X75500000Y-90300000D01*
X74912500Y-90300000D01*
X74825000Y-90387500D01*
X74823306Y-90525000D01*
X74538805Y-90525000D01*
X74558685Y-90508685D01*
X74602423Y-90455391D01*
X74634923Y-90394587D01*
X74654936Y-90328612D01*
X74661694Y-90260000D01*
X74660000Y-90092500D01*
X74592500Y-90025000D01*
X74823306Y-90025000D01*
X74825000Y-90162500D01*
X74912500Y-90250000D01*
X75500000Y-90250000D01*
X75500000Y-89762500D01*
X75412500Y-89675000D01*
X75175000Y-89673306D01*
X75106388Y-89680064D01*
X75040413Y-89700077D01*
X74979609Y-89732577D01*
X74926315Y-89776315D01*
X74882577Y-89829609D01*
X74850077Y-89890413D01*
X74830064Y-89956388D01*
X74823306Y-90025000D01*
X74592500Y-90025000D01*
X74572500Y-90005000D01*
X74025000Y-90005000D01*
X73975000Y-90005000D01*
X73427500Y-90005000D01*
X73340000Y-90092500D01*
X73338306Y-90260000D01*
X73300000Y-90260000D01*
X73300000Y-89700000D01*
X73338306Y-89700000D01*
X73340000Y-89867500D01*
X73427500Y-89955000D01*
X73975000Y-89955000D01*
X73975000Y-89935000D01*
X74025000Y-89935000D01*
X74025000Y-89955000D01*
X74572500Y-89955000D01*
X74660000Y-89867500D01*
X74661694Y-89700000D01*
X74654936Y-89631388D01*
X74634923Y-89565413D01*
X74602423Y-89504609D01*
X74602236Y-89504382D01*
X74680754Y-89520000D01*
X74779246Y-89520000D01*
X74875845Y-89500785D01*
X74966839Y-89463094D01*
X74993918Y-89445000D01*
X75259133Y-89445000D01*
X75280000Y-89447055D01*
X75300867Y-89445000D01*
X75300874Y-89445000D01*
X75363314Y-89438850D01*
X75443427Y-89414548D01*
X75514702Y-89376451D01*
X75875000Y-89376451D01*
X75933810Y-89370659D01*
X75990360Y-89353504D01*
X76042477Y-89325647D01*
X76088158Y-89288158D01*
X76099802Y-89273969D01*
X76125000Y-89276451D01*
X76825000Y-89276451D01*
X76883810Y-89270659D01*
X76940360Y-89253504D01*
X76992477Y-89225647D01*
X77038158Y-89188158D01*
X77075647Y-89142477D01*
X77103504Y-89090360D01*
X77120659Y-89033810D01*
X77126451Y-88975000D01*
X77126451Y-88475000D01*
X77120659Y-88416190D01*
X77103504Y-88359640D01*
X77075647Y-88307523D01*
X77038158Y-88261842D01*
X76992477Y-88224353D01*
X76940360Y-88196496D01*
X76883810Y-88179341D01*
X76825000Y-88173549D01*
X76125000Y-88173549D01*
X76066190Y-88179341D01*
X76009640Y-88196496D01*
X76000000Y-88201649D01*
X75990360Y-88196496D01*
X75933810Y-88179341D01*
X75875000Y-88173549D01*
X75175000Y-88173549D01*
X75116190Y-88179341D01*
X75059640Y-88196496D01*
X75007523Y-88224353D01*
X74961842Y-88261842D01*
X74924353Y-88307523D01*
X74896496Y-88359640D01*
X74879341Y-88416190D01*
X74873549Y-88475000D01*
X74873549Y-88538758D01*
X74779246Y-88520000D01*
X74680754Y-88520000D01*
X74584155Y-88539215D01*
X74493161Y-88576906D01*
X74490853Y-88578448D01*
X74482153Y-88567847D01*
X74415257Y-88512947D01*
X74338936Y-88472152D01*
X74256123Y-88447031D01*
X74170000Y-88438549D01*
X73830000Y-88438549D01*
X73743877Y-88447031D01*
X73661064Y-88472152D01*
X73584743Y-88512947D01*
X73517847Y-88567847D01*
X73462947Y-88634743D01*
X73422152Y-88711064D01*
X73397031Y-88793877D01*
X73388549Y-88880000D01*
X73388549Y-89160000D01*
X73397031Y-89246123D01*
X73422152Y-89328936D01*
X73462947Y-89405257D01*
X73476827Y-89422170D01*
X73441315Y-89451315D01*
X73397577Y-89504609D01*
X73365077Y-89565413D01*
X73345064Y-89631388D01*
X73338306Y-89700000D01*
X73300000Y-89700000D01*
X73300000Y-88109851D01*
X73309423Y-88062480D01*
X73330675Y-88030675D01*
X73362480Y-88009423D01*
X73409851Y-88000000D01*
X77093352Y-88000000D01*
X77153669Y-88015820D01*
G37*
G04 #@! TD.AperFunction*
D39*
X71887691Y-109748324D02*
X71948695Y-109765102D01*
X71983705Y-109800391D01*
X72000000Y-109861525D01*
X72000000Y-109898960D01*
X71423960Y-110475000D01*
X71373351Y-110475000D01*
X71350647Y-110432523D01*
X71313158Y-110386842D01*
X71267477Y-110349353D01*
X71215360Y-110321496D01*
X71158810Y-110304341D01*
X71100000Y-110298549D01*
X70472285Y-110298549D01*
X70438427Y-110280452D01*
X70358314Y-110256150D01*
X70295874Y-110250000D01*
X70295867Y-110250000D01*
X70275000Y-110247945D01*
X70254133Y-110250000D01*
X69219405Y-110250000D01*
X69211377Y-110223536D01*
X69162728Y-110132519D01*
X69097257Y-110052743D01*
X69017481Y-109987272D01*
X68926464Y-109938623D01*
X68827705Y-109908665D01*
X68725000Y-109898549D01*
X68275000Y-109898549D01*
X68172295Y-109908665D01*
X68073536Y-109938623D01*
X67982519Y-109987272D01*
X67902743Y-110052743D01*
X67837272Y-110132519D01*
X67788623Y-110223536D01*
X67758665Y-110322295D01*
X67750747Y-110402686D01*
X67751694Y-110200000D01*
X67744936Y-110131388D01*
X67724923Y-110065413D01*
X67692423Y-110004609D01*
X67648685Y-109951315D01*
X67595391Y-109907577D01*
X67534587Y-109875077D01*
X67468612Y-109855064D01*
X67400000Y-109848306D01*
X67062500Y-109850000D01*
X66975000Y-109937500D01*
X66975000Y-110650000D01*
X66995000Y-110650000D01*
X66995000Y-110700000D01*
X66975000Y-110700000D01*
X66975000Y-111412500D01*
X66987500Y-111425000D01*
X66975000Y-111437500D01*
X66975000Y-112150000D01*
X66995000Y-112150000D01*
X66995000Y-112200000D01*
X66975000Y-112200000D01*
X66975000Y-112912500D01*
X67062500Y-113000000D01*
X67400000Y-113001694D01*
X67468612Y-112994936D01*
X67534587Y-112974923D01*
X67595391Y-112942423D01*
X67648685Y-112898685D01*
X67692423Y-112845391D01*
X67724923Y-112784587D01*
X67744936Y-112718612D01*
X67751694Y-112650000D01*
X67750747Y-112447314D01*
X67758665Y-112527705D01*
X67788623Y-112626464D01*
X67837272Y-112717481D01*
X67902743Y-112797257D01*
X67982519Y-112862728D01*
X68073536Y-112911377D01*
X68172295Y-112941335D01*
X68275000Y-112951451D01*
X68725000Y-112951451D01*
X68827705Y-112941335D01*
X68926464Y-112911377D01*
X69017481Y-112862728D01*
X69097257Y-112797257D01*
X69162728Y-112717481D01*
X69211377Y-112626464D01*
X69219405Y-112600000D01*
X69676044Y-112600000D01*
X69686842Y-112613158D01*
X69732523Y-112650647D01*
X69784640Y-112678504D01*
X69841190Y-112695659D01*
X69900000Y-112701451D01*
X71100000Y-112701451D01*
X71158810Y-112695659D01*
X71215360Y-112678504D01*
X71267477Y-112650647D01*
X71313158Y-112613158D01*
X71350647Y-112567477D01*
X71373351Y-112525000D01*
X71379133Y-112525000D01*
X71400000Y-112527055D01*
X71420867Y-112525000D01*
X71420874Y-112525000D01*
X71483314Y-112518850D01*
X71563427Y-112494548D01*
X71637260Y-112455084D01*
X71701974Y-112401974D01*
X71715284Y-112385756D01*
X72000000Y-112101040D01*
X72000000Y-113238515D01*
X71990485Y-113286102D01*
X71969036Y-113317998D01*
X71936974Y-113339193D01*
X71889312Y-113348331D01*
X65987309Y-113301676D01*
X65926305Y-113284898D01*
X65891295Y-113249609D01*
X65875000Y-113188475D01*
X65875000Y-112650000D01*
X66148306Y-112650000D01*
X66155064Y-112718612D01*
X66175077Y-112784587D01*
X66207577Y-112845391D01*
X66251315Y-112898685D01*
X66304609Y-112942423D01*
X66365413Y-112974923D01*
X66431388Y-112994936D01*
X66500000Y-113001694D01*
X66837500Y-113000000D01*
X66925000Y-112912500D01*
X66925000Y-112200000D01*
X66237500Y-112200000D01*
X66150000Y-112287500D01*
X66148306Y-112650000D01*
X65875000Y-112650000D01*
X65875000Y-111150000D01*
X66148306Y-111150000D01*
X66155064Y-111218612D01*
X66175077Y-111284587D01*
X66207577Y-111345391D01*
X66251315Y-111398685D01*
X66283379Y-111425000D01*
X66251315Y-111451315D01*
X66207577Y-111504609D01*
X66175077Y-111565413D01*
X66155064Y-111631388D01*
X66148306Y-111700000D01*
X66150000Y-112062500D01*
X66237500Y-112150000D01*
X66925000Y-112150000D01*
X66925000Y-111437500D01*
X66912500Y-111425000D01*
X66925000Y-111412500D01*
X66925000Y-110700000D01*
X66237500Y-110700000D01*
X66150000Y-110787500D01*
X66148306Y-111150000D01*
X65875000Y-111150000D01*
X65875000Y-110200000D01*
X66148306Y-110200000D01*
X66150000Y-110562500D01*
X66237500Y-110650000D01*
X66925000Y-110650000D01*
X66925000Y-109937500D01*
X66837500Y-109850000D01*
X66500000Y-109848306D01*
X66431388Y-109855064D01*
X66365413Y-109875077D01*
X66304609Y-109907577D01*
X66251315Y-109951315D01*
X66207577Y-110004609D01*
X66175077Y-110065413D01*
X66155064Y-110131388D01*
X66148306Y-110200000D01*
X65875000Y-110200000D01*
X65875000Y-109811485D01*
X65884515Y-109763898D01*
X65905964Y-109732002D01*
X65938026Y-109710807D01*
X65985688Y-109701669D01*
X71887691Y-109748324D01*
G04 #@! TA.AperFunction,Conductor*
D40*
G36*
X71887691Y-109748324D02*
G01*
X71948695Y-109765102D01*
X71983705Y-109800391D01*
X72000000Y-109861525D01*
X72000000Y-109898960D01*
X71423960Y-110475000D01*
X71373351Y-110475000D01*
X71350647Y-110432523D01*
X71313158Y-110386842D01*
X71267477Y-110349353D01*
X71215360Y-110321496D01*
X71158810Y-110304341D01*
X71100000Y-110298549D01*
X70472285Y-110298549D01*
X70438427Y-110280452D01*
X70358314Y-110256150D01*
X70295874Y-110250000D01*
X70295867Y-110250000D01*
X70275000Y-110247945D01*
X70254133Y-110250000D01*
X69219405Y-110250000D01*
X69211377Y-110223536D01*
X69162728Y-110132519D01*
X69097257Y-110052743D01*
X69017481Y-109987272D01*
X68926464Y-109938623D01*
X68827705Y-109908665D01*
X68725000Y-109898549D01*
X68275000Y-109898549D01*
X68172295Y-109908665D01*
X68073536Y-109938623D01*
X67982519Y-109987272D01*
X67902743Y-110052743D01*
X67837272Y-110132519D01*
X67788623Y-110223536D01*
X67758665Y-110322295D01*
X67750747Y-110402686D01*
X67751694Y-110200000D01*
X67744936Y-110131388D01*
X67724923Y-110065413D01*
X67692423Y-110004609D01*
X67648685Y-109951315D01*
X67595391Y-109907577D01*
X67534587Y-109875077D01*
X67468612Y-109855064D01*
X67400000Y-109848306D01*
X67062500Y-109850000D01*
X66975000Y-109937500D01*
X66975000Y-110650000D01*
X66995000Y-110650000D01*
X66995000Y-110700000D01*
X66975000Y-110700000D01*
X66975000Y-111412500D01*
X66987500Y-111425000D01*
X66975000Y-111437500D01*
X66975000Y-112150000D01*
X66995000Y-112150000D01*
X66995000Y-112200000D01*
X66975000Y-112200000D01*
X66975000Y-112912500D01*
X67062500Y-113000000D01*
X67400000Y-113001694D01*
X67468612Y-112994936D01*
X67534587Y-112974923D01*
X67595391Y-112942423D01*
X67648685Y-112898685D01*
X67692423Y-112845391D01*
X67724923Y-112784587D01*
X67744936Y-112718612D01*
X67751694Y-112650000D01*
X67750747Y-112447314D01*
X67758665Y-112527705D01*
X67788623Y-112626464D01*
X67837272Y-112717481D01*
X67902743Y-112797257D01*
X67982519Y-112862728D01*
X68073536Y-112911377D01*
X68172295Y-112941335D01*
X68275000Y-112951451D01*
X68725000Y-112951451D01*
X68827705Y-112941335D01*
X68926464Y-112911377D01*
X69017481Y-112862728D01*
X69097257Y-112797257D01*
X69162728Y-112717481D01*
X69211377Y-112626464D01*
X69219405Y-112600000D01*
X69676044Y-112600000D01*
X69686842Y-112613158D01*
X69732523Y-112650647D01*
X69784640Y-112678504D01*
X69841190Y-112695659D01*
X69900000Y-112701451D01*
X71100000Y-112701451D01*
X71158810Y-112695659D01*
X71215360Y-112678504D01*
X71267477Y-112650647D01*
X71313158Y-112613158D01*
X71350647Y-112567477D01*
X71373351Y-112525000D01*
X71379133Y-112525000D01*
X71400000Y-112527055D01*
X71420867Y-112525000D01*
X71420874Y-112525000D01*
X71483314Y-112518850D01*
X71563427Y-112494548D01*
X71637260Y-112455084D01*
X71701974Y-112401974D01*
X71715284Y-112385756D01*
X72000000Y-112101040D01*
X72000000Y-113238515D01*
X71990485Y-113286102D01*
X71969036Y-113317998D01*
X71936974Y-113339193D01*
X71889312Y-113348331D01*
X65987309Y-113301676D01*
X65926305Y-113284898D01*
X65891295Y-113249609D01*
X65875000Y-113188475D01*
X65875000Y-112650000D01*
X66148306Y-112650000D01*
X66155064Y-112718612D01*
X66175077Y-112784587D01*
X66207577Y-112845391D01*
X66251315Y-112898685D01*
X66304609Y-112942423D01*
X66365413Y-112974923D01*
X66431388Y-112994936D01*
X66500000Y-113001694D01*
X66837500Y-113000000D01*
X66925000Y-112912500D01*
X66925000Y-112200000D01*
X66237500Y-112200000D01*
X66150000Y-112287500D01*
X66148306Y-112650000D01*
X65875000Y-112650000D01*
X65875000Y-111150000D01*
X66148306Y-111150000D01*
X66155064Y-111218612D01*
X66175077Y-111284587D01*
X66207577Y-111345391D01*
X66251315Y-111398685D01*
X66283379Y-111425000D01*
X66251315Y-111451315D01*
X66207577Y-111504609D01*
X66175077Y-111565413D01*
X66155064Y-111631388D01*
X66148306Y-111700000D01*
X66150000Y-112062500D01*
X66237500Y-112150000D01*
X66925000Y-112150000D01*
X66925000Y-111437500D01*
X66912500Y-111425000D01*
X66925000Y-111412500D01*
X66925000Y-110700000D01*
X66237500Y-110700000D01*
X66150000Y-110787500D01*
X66148306Y-111150000D01*
X65875000Y-111150000D01*
X65875000Y-110200000D01*
X66148306Y-110200000D01*
X66150000Y-110562500D01*
X66237500Y-110650000D01*
X66925000Y-110650000D01*
X66925000Y-109937500D01*
X66837500Y-109850000D01*
X66500000Y-109848306D01*
X66431388Y-109855064D01*
X66365413Y-109875077D01*
X66304609Y-109907577D01*
X66251315Y-109951315D01*
X66207577Y-110004609D01*
X66175077Y-110065413D01*
X66155064Y-110131388D01*
X66148306Y-110200000D01*
X65875000Y-110200000D01*
X65875000Y-109811485D01*
X65884515Y-109763898D01*
X65905964Y-109732002D01*
X65938026Y-109710807D01*
X65985688Y-109701669D01*
X71887691Y-109748324D01*
G37*
G04 #@! TD.AperFunction*
M02*
